solid OpenSCAD_Model
  facet normal -1 0 0
    outer loop
      vertex -21.5 -21.5 -2.5
      vertex -21.5 -21.5 2.5
      vertex -21.5 21.5 -2.5
    endloop
  endfacet
  facet normal -1 0 0
    outer loop
      vertex -21.5 21.5 -2.5
      vertex -21.5 -21.5 2.5
      vertex -21.5 21.5 2.5
    endloop
  endfacet
  facet normal 0 -1 0
    outer loop
      vertex -21.5 -21.5 2.5
      vertex -21.5 -21.5 -2.5
      vertex 25.5451 -21.5 -2.5
    endloop
  endfacet
  facet normal 0 -1 0
    outer loop
      vertex 25.5451 -21.5 2.5
      vertex -21.5 -21.5 2.5
      vertex 25.5451 -21.5 -2.5
    endloop
  endfacet
  facet normal 0 0 -1
    outer loop
      vertex -16.1927 18.4555 -2.5
      vertex -21.5 21.5 -2.5
      vertex 25.5451 21.5 -2.5
    endloop
  endfacet
  facet normal 0 0 -1
    outer loop
      vertex 26.0983 14.9356 -2.5
      vertex 25.5451 21.5 -2.5
      vertex 27.1688 22.3608 -2.5
    endloop
  endfacet
  facet normal 0 0 -1
    outer loop
      vertex 28.25 17.8971 -2.5
      vertex 27.1688 22.3608 -2.5
      vertex 29.044 22.8814 -2.5
    endloop
  endfacet
  facet normal 0 0 -1
    outer loop
      vertex 31.8906 18.2798 -2.5
      vertex 30.9872 22.9868 -2.5
      vertex 32.9078 22.6719 -2.5
    endloop
  endfacet
  facet normal 0 0 -1
    outer loop
      vertex 33.5111 17.3442 -2.5
      vertex 32.9078 22.6719 -2.5
      vertex 34.7157 21.9516 -2.5
    endloop
  endfacet
  facet normal 0 0 -1
    outer loop
      vertex 34.611 15.8303 -2.5
      vertex 34.7157 21.9516 -2.5
      vertex 36.3265 20.8595 -2.5
    endloop
  endfacet
  facet normal 0 0 -1
    outer loop
      vertex 35 14 -2.5
      vertex 36.3265 20.8595 -2.5
      vertex 37.6648 19.4466 -2.5
    endloop
  endfacet
  facet normal 0 0 -1
    outer loop
      vertex 34.7157 6.04839 -2.5
      vertex 37.6648 19.4466 -2.5
      vertex 38.6682 17.779 -2.5
    endloop
  endfacet
  facet normal 0 0 -1
    outer loop
      vertex 34.5 -5.96246 -2.5
      vertex 31.8906 -9.72025 -2.5
      vertex 30.0296 -9.52465 -2.5
    endloop
  endfacet
  facet normal 0 0 -1
    outer loop
      vertex 36.3265 7.14054 -2.5
      vertex 39.2896 15.9347 -2.5
      vertex 39.5 14 -2.5
    endloop
  endfacet
  facet normal 0 0 -1
    outer loop
      vertex 37.6648 8.55343 -2.5
      vertex 39.5 14 -2.5
      vertex 39.2896 12.0653 -2.5
    endloop
  endfacet
  facet normal 0 0 -1
    outer loop
      vertex -12.7159 -2.70285 -2.5
      vertex -18.4555 16.1927 -2.5
      vertex -13 0 -2.5
    endloop
  endfacet
  facet normal 0 0 -1
    outer loop
      vertex 34.7157 6.04839 -2.5
      vertex 39.2896 15.9347 -2.5
      vertex 36.3265 7.14054 -2.5
    endloop
  endfacet
  facet normal 0 0 -1
    outer loop
      vertex 36.3265 7.14054 -2.5
      vertex 39.5 14 -2.5
      vertex 37.6648 8.55343 -2.5
    endloop
  endfacet
  facet normal 0 0 -1
    outer loop
      vertex 34.5 -5.96246 -2.5
      vertex 30.0296 -9.52465 -2.5
      vertex 34.5 5.96246 -2.5
    endloop
  endfacet
  facet normal 0 0 -1
    outer loop
      vertex 34.7157 6.04839 -2.5
      vertex 38.6682 17.779 -2.5
      vertex 39.2896 15.9347 -2.5
    endloop
  endfacet
  facet normal 0 0 -1
    outer loop
      vertex 34.5 5.96246 -2.5
      vertex 37.6648 19.4466 -2.5
      vertex 34.7157 6.04839 -2.5
    endloop
  endfacet
  facet normal 0 0 -1
    outer loop
      vertex 33.5111 -10.6558 -2.5
      vertex 36.3265 -7.14054 -2.5
      vertex 37.6648 -8.55343 -2.5
    endloop
  endfacet
  facet normal 0 0 -1
    outer loop
      vertex 34.611 -12.1697 -2.5
      vertex 38.6682 -10.221 -2.5
      vertex 35 -14 -2.5
    endloop
  endfacet
  facet normal 0 0 -1
    outer loop
      vertex 27.1688 -22.3608 -2.5
      vertex 32.9078 -22.6719 -2.5
      vertex 29.044 -22.8814 -2.5
    endloop
  endfacet
  facet normal 0 0 -1
    outer loop
      vertex 33.5111 -10.6558 -2.5
      vertex 34.7157 -6.04839 -2.5
      vertex 36.3265 -7.14054 -2.5
    endloop
  endfacet
  facet normal 0 0 -1
    outer loop
      vertex 28.25 -10.1029 -2.5
      vertex 34.5 5.96246 -2.5
      vertex 30.0296 -9.52465 -2.5
    endloop
  endfacet
  facet normal 0 0 -1
    outer loop
      vertex 35 -14 -2.5
      vertex 38.6682 -10.221 -2.5
      vertex 39.2896 -12.0653 -2.5
    endloop
  endfacet
  facet normal 0 0 -1
    outer loop
      vertex 34.611 -15.8303 -2.5
      vertex 39.2896 -12.0653 -2.5
      vertex 39.5 -14 -2.5
    endloop
  endfacet
  facet normal 0 0 -1
    outer loop
      vertex 31.8906 -18.2798 -2.5
      vertex 39.5 -14 -2.5
      vertex 39.2896 -15.9347 -2.5
    endloop
  endfacet
  facet normal 0 0 -1
    outer loop
      vertex 25.5451 -21.5 -2.5
      vertex 39.2896 -15.9347 -2.5
      vertex 38.6682 -17.779 -2.5
    endloop
  endfacet
  facet normal 0 0 -1
    outer loop
      vertex 25.5451 -21.5 -2.5
      vertex 38.6682 -17.779 -2.5
      vertex 37.6648 -19.4466 -2.5
    endloop
  endfacet
  facet normal 0 0 -1
    outer loop
      vertex 25.5451 -21.5 -2.5
      vertex 37.6648 -19.4466 -2.5
      vertex 36.3265 -20.8595 -2.5
    endloop
  endfacet
  facet normal 0 0 -1
    outer loop
      vertex 25.5451 -21.5 -2.5
      vertex 36.3265 -20.8595 -2.5
      vertex 34.7157 -21.9516 -2.5
    endloop
  endfacet
  facet normal 0 0 -1
    outer loop
      vertex 37.6648 8.55343 -2.5
      vertex 39.2896 12.0653 -2.5
      vertex 38.6682 10.221 -2.5
    endloop
  endfacet
  facet normal 0 0 -1
    outer loop
      vertex -9.82878 -12.0915 -2.5
      vertex 25.5451 -21.5 -2.5
      vertex -16.1927 -18.4555 -2.5
    endloop
  endfacet
  facet normal 0 0 -1
    outer loop
      vertex 32.9078 -22.6719 -2.5
      vertex 30.9872 -22.9868 -2.5
      vertex 29.044 -22.8814 -2.5
    endloop
  endfacet
  facet normal 0 0 -1
    outer loop
      vertex 34.7157 -21.9516 -2.5
      vertex 32.9078 -22.6719 -2.5
      vertex 27.1688 -22.3608 -2.5
    endloop
  endfacet
  facet normal 0 0 -1
    outer loop
      vertex -10.5172 7.64121 -2.5
      vertex -12.0915 9.82878 -2.5
      vertex -8.6987 9.66088 -2.5
    endloop
  endfacet
  facet normal 0 0 -1
    outer loop
      vertex -21.5 -21.5 -2.5
      vertex -21.5 21.5 -2.5
      vertex -18.4555 -16.1927 -2.5
    endloop
  endfacet
  facet normal 0 0 -1
    outer loop
      vertex 11.8761 -5.28758 -2.5
      vertex 25.5451 -21.5 -2.5
      vertex 10.5172 -7.64121 -2.5
    endloop
  endfacet
  facet normal 0 0 -1
    outer loop
      vertex -21.5 -21.5 -2.5
      vertex -18.4555 -16.1927 -2.5
      vertex -16.1927 -18.4555 -2.5
    endloop
  endfacet
  facet normal 0 0 -1
    outer loop
      vertex -21.5 -21.5 -2.5
      vertex -16.1927 -18.4555 -2.5
      vertex 25.5451 -21.5 -2.5
    endloop
  endfacet
  facet normal 0 0 -1
    outer loop
      vertex -12.0915 -9.82878 -2.5
      vertex -21.5 21.5 -2.5
      vertex -9.82878 -12.0915 -2.5
    endloop
  endfacet
  facet normal 0 0 -1
    outer loop
      vertex -18.4555 16.1927 -2.5
      vertex -21.5 21.5 -2.5
      vertex -16.1927 18.4555 -2.5
    endloop
  endfacet
  facet normal 0 0 -1
    outer loop
      vertex -18.4555 -16.1927 -2.5
      vertex -21.5 21.5 -2.5
      vertex -12.0915 -9.82878 -2.5
    endloop
  endfacet
  facet normal 0 0 -1
    outer loop
      vertex 16.1927 18.4555 -2.5
      vertex -16.1927 18.4555 -2.5
      vertex 25.5451 21.5 -2.5
    endloop
  endfacet
  facet normal 0 0 -1
    outer loop
      vertex -12.7159 -2.70285 -2.5
      vertex -21.5 21.5 -2.5
      vertex -18.4555 16.1927 -2.5
    endloop
  endfacet
  facet normal 0 0 -1
    outer loop
      vertex -13 0 -2.5
      vertex -18.4555 16.1927 -2.5
      vertex -12.0915 9.82878 -2.5
    endloop
  endfacet
  facet normal 0 0 -1
    outer loop
      vertex 1.35887 -12.9288 -2.5
      vertex 16.1927 -18.4555 -2.5
      vertex -1.35887 -12.9288 -2.5
    endloop
  endfacet
  facet normal 0 0 -1
    outer loop
      vertex -12.7159 2.70285 -2.5
      vertex -13 0 -2.5
      vertex -12.0915 9.82878 -2.5
    endloop
  endfacet
  facet normal 0 0 -1
    outer loop
      vertex -9.82878 -12.0915 -2.5
      vertex -21.5 21.5 -2.5
      vertex -12.7159 -2.70285 -2.5
    endloop
  endfacet
  facet normal 0 0 -1
    outer loop
      vertex -10.5172 -7.64121 -2.5
      vertex -9.82878 -12.0915 -2.5
      vertex -11.8761 -5.28758 -2.5
    endloop
  endfacet
  facet normal 0 0 -1
    outer loop
      vertex 9.82878 12.0915 -2.5
      vertex 6.5 11.2583 -2.5
      vertex 4.01722 12.3637 -2.5
    endloop
  endfacet
  facet normal 0 0 -1
    outer loop
      vertex -8.6987 -9.66088 -2.5
      vertex -9.82878 -12.0915 -2.5
      vertex -10.5172 -7.64121 -2.5
    endloop
  endfacet
  facet normal 0 0 -1
    outer loop
      vertex 16.1927 -18.4555 -2.5
      vertex 25.5451 -21.5 -2.5
      vertex -1.35887 -12.9288 -2.5
    endloop
  endfacet
  facet normal 0 0 -1
    outer loop
      vertex 18.4555 -16.1927 -2.5
      vertex 25.5451 -21.5 -2.5
      vertex 16.1927 -18.4555 -2.5
    endloop
  endfacet
  facet normal 0 0 -1
    outer loop
      vertex 12.0915 -9.82878 -2.5
      vertex 25.5451 -21.5 -2.5
      vertex 18.4555 -16.1927 -2.5
    endloop
  endfacet
  facet normal 0 0 -1
    outer loop
      vertex -9.82878 -12.0915 -2.5
      vertex -8.6987 -9.66088 -2.5
      vertex -6.5 -11.2583 -2.5
    endloop
  endfacet
  facet normal 0 0 -1
    outer loop
      vertex -9.82878 -12.0915 -2.5
      vertex -6.5 -11.2583 -2.5
      vertex -4.01722 -12.3637 -2.5
    endloop
  endfacet
  facet normal 0 0 -1
    outer loop
      vertex -9.82878 -12.0915 -2.5
      vertex -4.01722 -12.3637 -2.5
      vertex 25.5451 -21.5 -2.5
    endloop
  endfacet
  facet normal 0 0 -1
    outer loop
      vertex -4.01722 -12.3637 -2.5
      vertex -1.35887 -12.9288 -2.5
      vertex 25.5451 -21.5 -2.5
    endloop
  endfacet
  facet normal 0 0 -1
    outer loop
      vertex 10.5172 -7.64121 -2.5
      vertex 25.5451 -21.5 -2.5
      vertex 12.0915 -9.82878 -2.5
    endloop
  endfacet
  facet normal 0 0 -1
    outer loop
      vertex -11.8761 5.28758 -2.5
      vertex -12.0915 9.82878 -2.5
      vertex -10.5172 7.64121 -2.5
    endloop
  endfacet
  facet normal 0 0 -1
    outer loop
      vertex 20.2 -4.84974 -2.5
      vertex 25.5451 -21.5 -2.5
      vertex 18.7102 -3.59961 -2.5
    endloop
  endfacet
  facet normal 0 0 -1
    outer loop
      vertex 16.1927 -18.4555 -2.5
      vertex 1.35887 -12.9288 -2.5
      vertex 4.01722 -12.3637 -2.5
    endloop
  endfacet
  facet normal 0 0 -1
    outer loop
      vertex -9.82878 12.0915 -2.5
      vertex -8.6987 9.66088 -2.5
      vertex -12.0915 9.82878 -2.5
    endloop
  endfacet
  facet normal 0 0 -1
    outer loop
      vertex -1.35887 12.9288 -2.5
      vertex -16.1927 18.4555 -2.5
      vertex 1.35887 12.9288 -2.5
    endloop
  endfacet
  facet normal 0 0 -1
    outer loop
      vertex 18.7102 3.59961 -2.5
      vertex 11.8761 -5.28758 -2.5
      vertex 25.5451 21.5 -2.5
    endloop
  endfacet
  facet normal 0 0 -1
    outer loop
      vertex -9.82878 12.0915 -2.5
      vertex -16.1927 18.4555 -2.5
      vertex -6.5 11.2583 -2.5
    endloop
  endfacet
  facet normal 0 0 -1
    outer loop
      vertex 11.8761 -5.28758 -2.5
      vertex 12.7159 -2.70285 -2.5
      vertex 25.5451 21.5 -2.5
    endloop
  endfacet
  facet normal 0 0 -1
    outer loop
      vertex -8.6987 9.66088 -2.5
      vertex -9.82878 12.0915 -2.5
      vertex -6.5 11.2583 -2.5
    endloop
  endfacet
  facet normal 0 0 -1
    outer loop
      vertex 12.7159 -2.70285 -2.5
      vertex 13 0 -2.5
      vertex 25.5451 21.5 -2.5
    endloop
  endfacet
  facet normal 0 0 -1
    outer loop
      vertex 13 0 -2.5
      vertex 12.7159 2.70285 -2.5
      vertex 25.5451 21.5 -2.5
    endloop
  endfacet
  facet normal 0 0 -1
    outer loop
      vertex -6.5 11.2583 -2.5
      vertex -16.1927 18.4555 -2.5
      vertex -4.01722 12.3637 -2.5
    endloop
  endfacet
  facet normal 0 0 -1
    outer loop
      vertex 12.7159 2.70285 -2.5
      vertex 11.8761 5.28758 -2.5
      vertex 25.5451 21.5 -2.5
    endloop
  endfacet
  facet normal 0 0 -1
    outer loop
      vertex 11.8761 5.28758 -2.5
      vertex 10.5172 7.64121 -2.5
      vertex 25.5451 21.5 -2.5
    endloop
  endfacet
  facet normal 0 0 -1
    outer loop
      vertex -4.01722 12.3637 -2.5
      vertex -16.1927 18.4555 -2.5
      vertex -1.35887 12.9288 -2.5
    endloop
  endfacet
  facet normal 0 0 -1
    outer loop
      vertex 12.0915 9.82878 -2.5
      vertex 8.6987 9.66088 -2.5
      vertex 9.82878 12.0915 -2.5
    endloop
  endfacet
  facet normal 0 0 -1
    outer loop
      vertex 1.35887 12.9288 -2.5
      vertex -16.1927 18.4555 -2.5
      vertex 4.01722 12.3637 -2.5
    endloop
  endfacet
  facet normal 0 0 -1
    outer loop
      vertex 9.82878 12.0915 -2.5
      vertex 4.01722 12.3637 -2.5
      vertex 16.1927 18.4555 -2.5
    endloop
  endfacet
  facet normal 0 0 -1
    outer loop
      vertex 9.82878 -12.0915 -2.5
      vertex 8.6987 -9.66088 -2.5
      vertex 12.0915 -9.82878 -2.5
    endloop
  endfacet
  facet normal 0 0 -1
    outer loop
      vertex -11.8761 5.28758 -2.5
      vertex -12.7159 2.70285 -2.5
      vertex -12.0915 9.82878 -2.5
    endloop
  endfacet
  facet normal 0 0 -1
    outer loop
      vertex 6.5 -11.2583 -2.5
      vertex 8.6987 -9.66088 -2.5
      vertex 9.82878 -12.0915 -2.5
    endloop
  endfacet
  facet normal 0 0 -1
    outer loop
      vertex 27.2898 -3.59961 -2.5
      vertex 26.0983 -13.0644 -2.5
      vertex 25.8 -4.84974 -2.5
    endloop
  endfacet
  facet normal 0 0 -1
    outer loop
      vertex 16.1927 -18.4555 -2.5
      vertex 6.5 -11.2583 -2.5
      vertex 9.82878 -12.0915 -2.5
    endloop
  endfacet
  facet normal 0 0 -1
    outer loop
      vertex 10.5172 -7.64121 -2.5
      vertex 12.0915 -9.82878 -2.5
      vertex 8.6987 -9.66088 -2.5
    endloop
  endfacet
  facet normal 0 0 -1
    outer loop
      vertex 26.0983 14.9356 -2.5
      vertex 27.1688 22.3608 -2.5
      vertex 26.8594 16.645 -2.5
    endloop
  endfacet
  facet normal 0 0 -1
    outer loop
      vertex 16.1927 -18.4555 -2.5
      vertex 4.01722 -12.3637 -2.5
      vertex 6.5 -11.2583 -2.5
    endloop
  endfacet
  facet normal 0 0 -1
    outer loop
      vertex 8.6987 9.66088 -2.5
      vertex 6.5 11.2583 -2.5
      vertex 9.82878 12.0915 -2.5
    endloop
  endfacet
  facet normal 0 0 -1
    outer loop
      vertex 26.0983 -13.0644 -2.5
      vertex 25.5451 -21.5 -2.5
      vertex 25.8 -4.84974 -2.5
    endloop
  endfacet
  facet normal 0 0 -1
    outer loop
      vertex 10.5172 7.64121 -2.5
      vertex 8.6987 9.66088 -2.5
      vertex 12.0915 9.82878 -2.5
    endloop
  endfacet
  facet normal 0 0 -1
    outer loop
      vertex 10.5172 7.64121 -2.5
      vertex 12.0915 9.82878 -2.5
      vertex 25.5451 21.5 -2.5
    endloop
  endfacet
  facet normal 0 0 -1
    outer loop
      vertex 16.1927 18.4555 -2.5
      vertex 25.5451 21.5 -2.5
      vertex 18.4555 16.1927 -2.5
    endloop
  endfacet
  facet normal 0 0 -1
    outer loop
      vertex 12.0915 9.82878 -2.5
      vertex 18.4555 16.1927 -2.5
      vertex 25.5451 21.5 -2.5
    endloop
  endfacet
  facet normal 0 0 -1
    outer loop
      vertex 4.01722 12.3637 -2.5
      vertex -16.1927 18.4555 -2.5
      vertex 16.1927 18.4555 -2.5
    endloop
  endfacet
  facet normal 0 0 -1
    outer loop
      vertex 17.7377 -1.91531 -2.5
      vertex 11.8761 -5.28758 -2.5
      vertex 17.4 0 -2.5
    endloop
  endfacet
  facet normal 0 0 -1
    outer loop
      vertex 25.5451 -21.5 -2.5
      vertex 11.8761 -5.28758 -2.5
      vertex 17.7377 -1.91531 -2.5
    endloop
  endfacet
  facet normal 0 0 -1
    outer loop
      vertex 25.5451 -21.5 -2.5
      vertex 17.7377 -1.91531 -2.5
      vertex 18.7102 -3.59961 -2.5
    endloop
  endfacet
  facet normal 0 0 -1
    outer loop
      vertex 25.8 -4.84974 -2.5
      vertex 25.5451 -21.5 -2.5
      vertex 23.9724 -5.51492 -2.5
    endloop
  endfacet
  facet normal 0 0 -1
    outer loop
      vertex 25.5451 -21.5 -2.5
      vertex 20.2 -4.84974 -2.5
      vertex 22.0276 -5.51492 -2.5
    endloop
  endfacet
  facet normal 0 0 -1
    outer loop
      vertex 25.5451 -21.5 -2.5
      vertex 22.0276 -5.51492 -2.5
      vertex 23.9724 -5.51492 -2.5
    endloop
  endfacet
  facet normal 0 0 -1
    outer loop
      vertex 26.8594 -16.645 -2.5
      vertex 25.5451 -21.5 -2.5
      vertex 26.0983 -14.9356 -2.5
    endloop
  endfacet
  facet normal 0 0 -1
    outer loop
      vertex 26.0983 -14.9356 -2.5
      vertex 25.5451 -21.5 -2.5
      vertex 26.0983 -13.0644 -2.5
    endloop
  endfacet
  facet normal 0 0 -1
    outer loop
      vertex 33.5111 10.6558 -2.5
      vertex 28.25 -10.1029 -2.5
      vertex 31.8906 9.72025 -2.5
    endloop
  endfacet
  facet normal 0 0 -1
    outer loop
      vertex 31.8906 9.72025 -2.5
      vertex 28.2623 -1.91531 -2.5
      vertex 28.6 0 -2.5
    endloop
  endfacet
  facet normal 0 0 -1
    outer loop
      vertex 34.611 15.8303 -2.5
      vertex 36.3265 20.8595 -2.5
      vertex 35 14 -2.5
    endloop
  endfacet
  facet normal 0 0 -1
    outer loop
      vertex 31.8906 9.72025 -2.5
      vertex 28.6 0 -2.5
      vertex 30.0296 9.52465 -2.5
    endloop
  endfacet
  facet normal 0 0 -1
    outer loop
      vertex 28.25 17.8971 -2.5
      vertex 29.044 22.8814 -2.5
      vertex 30.9872 22.9868 -2.5
    endloop
  endfacet
  facet normal 0 0 -1
    outer loop
      vertex 30.0296 9.52465 -2.5
      vertex 28.6 0 -2.5
      vertex 28.2623 1.91531 -2.5
    endloop
  endfacet
  facet normal 0 0 -1
    outer loop
      vertex 26.8594 16.645 -2.5
      vertex 27.1688 22.3608 -2.5
      vertex 28.25 17.8971 -2.5
    endloop
  endfacet
  facet normal 0 0 -1
    outer loop
      vertex 22.0276 5.51492 -2.5
      vertex 25.5451 21.5 -2.5
      vertex 23.9724 5.51492 -2.5
    endloop
  endfacet
  facet normal 0 0 -1
    outer loop
      vertex 18.7102 3.59961 -2.5
      vertex 25.5451 21.5 -2.5
      vertex 20.2 4.84974 -2.5
    endloop
  endfacet
  facet normal 0 0 -1
    outer loop
      vertex 22.0276 5.51492 -2.5
      vertex 20.2 4.84974 -2.5
      vertex 25.5451 21.5 -2.5
    endloop
  endfacet
  facet normal 0 0 -1
    outer loop
      vertex 17.7377 1.91531 -2.5
      vertex 11.8761 -5.28758 -2.5
      vertex 18.7102 3.59961 -2.5
    endloop
  endfacet
  facet normal 0 0 -1
    outer loop
      vertex 26.0983 -13.0644 -2.5
      vertex 27.2898 -3.59961 -2.5
      vertex 26.8594 -11.355 -2.5
    endloop
  endfacet
  facet normal 0 0 -1
    outer loop
      vertex 17.4 0 -2.5
      vertex 11.8761 -5.28758 -2.5
      vertex 17.7377 1.91531 -2.5
    endloop
  endfacet
  facet normal 0 0 -1
    outer loop
      vertex 26.8594 -11.355 -2.5
      vertex 31.8906 9.72025 -2.5
      vertex 28.25 -10.1029 -2.5
    endloop
  endfacet
  facet normal 0 0 -1
    outer loop
      vertex 28.2623 -1.91531 -2.5
      vertex 26.8594 -11.355 -2.5
      vertex 27.2898 -3.59961 -2.5
    endloop
  endfacet
  facet normal 0 0 -1
    outer loop
      vertex 28.25 -17.8971 -2.5
      vertex 25.5451 -21.5 -2.5
      vertex 26.8594 -16.645 -2.5
    endloop
  endfacet
  facet normal 0 0 -1
    outer loop
      vertex 30.0296 -18.4753 -2.5
      vertex 25.5451 -21.5 -2.5
      vertex 28.25 -17.8971 -2.5
    endloop
  endfacet
  facet normal 0 0 -1
    outer loop
      vertex 31.8906 -18.2798 -2.5
      vertex 25.5451 -21.5 -2.5
      vertex 30.0296 -18.4753 -2.5
    endloop
  endfacet
  facet normal 0 0 -1
    outer loop
      vertex 33.5111 -17.3442 -2.5
      vertex 39.5 -14 -2.5
      vertex 31.8906 -18.2798 -2.5
    endloop
  endfacet
  facet normal 0 0 -1
    outer loop
      vertex 25.5451 -21.5 -2.5
      vertex 31.8906 -18.2798 -2.5
      vertex 39.2896 -15.9347 -2.5
    endloop
  endfacet
  facet normal 0 0 -1
    outer loop
      vertex 34.611 -15.8303 -2.5
      vertex 39.5 -14 -2.5
      vertex 33.5111 -17.3442 -2.5
    endloop
  endfacet
  facet normal 0 0 -1
    outer loop
      vertex 35 -14 -2.5
      vertex 39.2896 -12.0653 -2.5
      vertex 34.611 -15.8303 -2.5
    endloop
  endfacet
  facet normal 0 0 -1
    outer loop
      vertex 37.6648 -8.55343 -2.5
      vertex 38.6682 -10.221 -2.5
      vertex 34.611 -12.1697 -2.5
    endloop
  endfacet
  facet normal 0 0 -1
    outer loop
      vertex 28.25 -10.1029 -2.5
      vertex 37.6648 19.4466 -2.5
      vertex 34.5 5.96246 -2.5
    endloop
  endfacet
  facet normal 0 0 -1
    outer loop
      vertex 31.8906 -9.72025 -2.5
      vertex 34.7157 -6.04839 -2.5
      vertex 33.5111 -10.6558 -2.5
    endloop
  endfacet
  facet normal 0 0 -1
    outer loop
      vertex 33.5111 -10.6558 -2.5
      vertex 37.6648 -8.55343 -2.5
      vertex 34.611 -12.1697 -2.5
    endloop
  endfacet
  facet normal 0 0 -1
    outer loop
      vertex -11.8761 -5.28758 -2.5
      vertex -9.82878 -12.0915 -2.5
      vertex -12.7159 -2.70285 -2.5
    endloop
  endfacet
  facet normal 0 0 -1
    outer loop
      vertex 28.25 -10.1029 -2.5
      vertex 34.611 12.1697 -2.5
      vertex 37.6648 19.4466 -2.5
    endloop
  endfacet
  facet normal 0 0 -1
    outer loop
      vertex 25.8 4.84974 -2.5
      vertex 25.5451 21.5 -2.5
      vertex 26.0983 14.9356 -2.5
    endloop
  endfacet
  facet normal 0 0 -1
    outer loop
      vertex 26.8594 11.355 -2.5
      vertex 25.8 4.84974 -2.5
      vertex 26.0983 13.0644 -2.5
    endloop
  endfacet
  facet normal 0 0 -1
    outer loop
      vertex 25.8 4.84974 -2.5
      vertex 26.0983 14.9356 -2.5
      vertex 26.0983 13.0644 -2.5
    endloop
  endfacet
  facet normal 0 0 -1
    outer loop
      vertex 28.25 10.1029 -2.5
      vertex 27.2898 3.59961 -2.5
      vertex 26.8594 11.355 -2.5
    endloop
  endfacet
  facet normal 0 0 -1
    outer loop
      vertex 31.8906 9.72025 -2.5
      vertex 26.8594 -11.355 -2.5
      vertex 28.2623 -1.91531 -2.5
    endloop
  endfacet
  facet normal 0 0 -1
    outer loop
      vertex 31.8906 -9.72025 -2.5
      vertex 34.5 -5.96246 -2.5
      vertex 34.7157 -6.04839 -2.5
    endloop
  endfacet
  facet normal 0 0 -1
    outer loop
      vertex 34.611 12.1697 -2.5
      vertex 28.25 -10.1029 -2.5
      vertex 33.5111 10.6558 -2.5
    endloop
  endfacet
  facet normal 0 0 -1
    outer loop
      vertex 34.611 12.1697 -2.5
      vertex 35 14 -2.5
      vertex 37.6648 19.4466 -2.5
    endloop
  endfacet
  facet normal 0 0 -1
    outer loop
      vertex 33.5111 17.3442 -2.5
      vertex 34.7157 21.9516 -2.5
      vertex 34.611 15.8303 -2.5
    endloop
  endfacet
  facet normal 0 0 -1
    outer loop
      vertex 31.8906 18.2798 -2.5
      vertex 32.9078 22.6719 -2.5
      vertex 33.5111 17.3442 -2.5
    endloop
  endfacet
  facet normal 0 0 -1
    outer loop
      vertex 28.25 17.8971 -2.5
      vertex 30.9872 22.9868 -2.5
      vertex 30.0296 18.4753 -2.5
    endloop
  endfacet
  facet normal 0 0 -1
    outer loop
      vertex 30.0296 18.4753 -2.5
      vertex 30.9872 22.9868 -2.5
      vertex 31.8906 18.2798 -2.5
    endloop
  endfacet
  facet normal 0 0 -1
    outer loop
      vertex 25.8 4.84974 -2.5
      vertex 26.8594 11.355 -2.5
      vertex 27.2898 3.59961 -2.5
    endloop
  endfacet
  facet normal 0 0 -1
    outer loop
      vertex 30.0296 9.52465 -2.5
      vertex 27.2898 3.59961 -2.5
      vertex 28.25 10.1029 -2.5
    endloop
  endfacet
  facet normal 0 0 -1
    outer loop
      vertex 30.0296 9.52465 -2.5
      vertex 28.2623 1.91531 -2.5
      vertex 27.2898 3.59961 -2.5
    endloop
  endfacet
  facet normal 0 0 -1
    outer loop
      vertex 23.9724 5.51492 -2.5
      vertex 25.5451 21.5 -2.5
      vertex 25.8 4.84974 -2.5
    endloop
  endfacet
  facet normal 0 0 -1
    outer loop
      vertex 25.5451 -21.5 -2.5
      vertex 34.7157 -21.9516 -2.5
      vertex 27.1688 -22.3608 -2.5
    endloop
  endfacet
  facet normal 0 1 0
    outer loop
      vertex -21.5 21.5 -2.5
      vertex -21.5 21.5 2.5
      vertex 25.5451 21.5 -2.5
    endloop
  endfacet
  facet normal 0 1 0
    outer loop
      vertex 25.5451 21.5 -2.5
      vertex -21.5 21.5 2.5
      vertex 25.5451 21.5 2.5
    endloop
  endfacet
  facet normal 0 0 1
    outer loop
      vertex 25.8 -4.84974 2.5
      vertex 23.9724 -5.51492 2.5
      vertex 31.8906 -9.72025 2.5
    endloop
  endfacet
  facet normal 0 0 1
    outer loop
      vertex -16.1927 -18.4555 2.5
      vertex -21.5 -21.5 2.5
      vertex 25.5451 -21.5 2.5
    endloop
  endfacet
  facet normal 0 0 1
    outer loop
      vertex 18.4555 16.1927 2.5
      vertex 12.0915 9.82878 2.5
      vertex 34.5 5.96246 2.5
    endloop
  endfacet
  facet normal 0 0 1
    outer loop
      vertex 18.4555 16.1927 2.5
      vertex 34.7157 6.04839 2.5
      vertex 28.25 10.1029 2.5
    endloop
  endfacet
  facet normal 0 0 1
    outer loop
      vertex 11.8761 -5.28758 2.5
      vertex 30.9872 -22.9868 2.5
      vertex 32.9078 -22.6719 2.5
    endloop
  endfacet
  facet normal 0 0 1
    outer loop
      vertex -9.82878 12.0915 2.5
      vertex -12.0915 9.82878 2.5
      vertex -8.6987 9.66088 2.5
    endloop
  endfacet
  facet normal 0 0 1
    outer loop
      vertex 18.7102 3.59961 2.5
      vertex 12.0915 9.82878 2.5
      vertex 6.5 11.2583 2.5
    endloop
  endfacet
  facet normal 0 0 1
    outer loop
      vertex 27.2898 -3.59961 2.5
      vertex 39.2896 -12.0653 2.5
      vertex 38.6682 -10.221 2.5
    endloop
  endfacet
  facet normal 0 0 1
    outer loop
      vertex 27.2898 -3.59961 2.5
      vertex 25.8 -4.84974 2.5
      vertex 39.2896 -12.0653 2.5
    endloop
  endfacet
  facet normal 0 0 1
    outer loop
      vertex 36.3265 -7.14054 2.5
      vertex 34.7157 -6.04839 2.5
      vertex 34.5 -5.96246 2.5
    endloop
  endfacet
  facet normal 0 0 1
    outer loop
      vertex 9.82878 12.0915 2.5
      vertex 16.1927 18.4555 2.5
      vertex -21.5 21.5 2.5
    endloop
  endfacet
  facet normal 0 0 1
    outer loop
      vertex 17.7377 -1.91531 2.5
      vertex 17.4 0 2.5
      vertex 12.7159 2.70285 2.5
    endloop
  endfacet
  facet normal 0 0 1
    outer loop
      vertex 33.5111 17.3442 2.5
      vertex 34.611 15.8303 2.5
      vertex 39.2896 15.9347 2.5
    endloop
  endfacet
  facet normal 0 0 1
    outer loop
      vertex 30.0296 18.4753 2.5
      vertex 37.6648 19.4466 2.5
      vertex -21.5 21.5 2.5
    endloop
  endfacet
  facet normal 0 0 1
    outer loop
      vertex 37.6648 19.4466 2.5
      vertex 36.3265 20.8595 2.5
      vertex -21.5 21.5 2.5
    endloop
  endfacet
  facet normal 0 0 1
    outer loop
      vertex 27.1688 22.3608 2.5
      vertex 25.5451 21.5 2.5
      vertex 34.7157 21.9516 2.5
    endloop
  endfacet
  facet normal 0 0 1
    outer loop
      vertex 32.9078 22.6719 2.5
      vertex 30.9872 22.9868 2.5
      vertex 29.044 22.8814 2.5
    endloop
  endfacet
  facet normal 0 0 1
    outer loop
      vertex -18.4555 -16.1927 2.5
      vertex -12.0915 -9.82878 2.5
      vertex -21.5 21.5 2.5
    endloop
  endfacet
  facet normal 0 0 1
    outer loop
      vertex 34.7157 21.9516 2.5
      vertex 32.9078 22.6719 2.5
      vertex 27.1688 22.3608 2.5
    endloop
  endfacet
  facet normal 0 0 1
    outer loop
      vertex 36.3265 20.8595 2.5
      vertex 25.5451 21.5 2.5
      vertex -21.5 21.5 2.5
    endloop
  endfacet
  facet normal 0 0 1
    outer loop
      vertex 36.3265 20.8595 2.5
      vertex 34.7157 21.9516 2.5
      vertex 25.5451 21.5 2.5
    endloop
  endfacet
  facet normal 0 0 1
    outer loop
      vertex -9.82878 -12.0915 2.5
      vertex -16.1927 -18.4555 2.5
      vertex 25.5451 -21.5 2.5
    endloop
  endfacet
  facet normal 0 0 1
    outer loop
      vertex -18.4555 -16.1927 2.5
      vertex -21.5 -21.5 2.5
      vertex -16.1927 -18.4555 2.5
    endloop
  endfacet
  facet normal 0 0 1
    outer loop
      vertex -21.5 21.5 2.5
      vertex -21.5 -21.5 2.5
      vertex -18.4555 -16.1927 2.5
    endloop
  endfacet
  facet normal 0 0 1
    outer loop
      vertex -4.01722 -12.3637 2.5
      vertex -6.5 -11.2583 2.5
      vertex -12.0915 -9.82878 2.5
    endloop
  endfacet
  facet normal 0 0 1
    outer loop
      vertex 18.4555 16.1927 2.5
      vertex 26.8594 11.355 2.5
      vertex 26.0983 13.0644 2.5
    endloop
  endfacet
  facet normal 0 0 1
    outer loop
      vertex -4.01722 -12.3637 2.5
      vertex -9.82878 -12.0915 2.5
      vertex 25.5451 -21.5 2.5
    endloop
  endfacet
  facet normal 0 0 1
    outer loop
      vertex -21.5 21.5 2.5
      vertex -12.0915 -9.82878 2.5
      vertex -18.4555 16.1927 2.5
    endloop
  endfacet
  facet normal 0 0 1
    outer loop
      vertex 12.7159 -2.70285 2.5
      vertex 11.8761 -5.28758 2.5
      vertex 26.0983 -14.9356 2.5
    endloop
  endfacet
  facet normal 0 0 1
    outer loop
      vertex 18.4555 16.1927 2.5
      vertex 34.5 5.96246 2.5
      vertex 34.7157 6.04839 2.5
    endloop
  endfacet
  facet normal 0 0 1
    outer loop
      vertex 34.611 -15.8303 2.5
      vertex 33.5111 -17.3442 2.5
      vertex 37.6648 -19.4466 2.5
    endloop
  endfacet
  facet normal 0 0 1
    outer loop
      vertex -6.5 -11.2583 2.5
      vertex -8.6987 -9.66088 2.5
      vertex -12.0915 -9.82878 2.5
    endloop
  endfacet
  facet normal 0 0 1
    outer loop
      vertex 26.0983 14.9356 2.5
      vertex 16.1927 18.4555 2.5
      vertex 18.4555 16.1927 2.5
    endloop
  endfacet
  facet normal 0 0 1
    outer loop
      vertex -18.4555 16.1927 2.5
      vertex -12.0915 -9.82878 2.5
      vertex -12.7159 -2.70285 2.5
    endloop
  endfacet
  facet normal 0 0 1
    outer loop
      vertex -18.4555 16.1927 2.5
      vertex -13 0 2.5
      vertex -12.0915 9.82878 2.5
    endloop
  endfacet
  facet normal 0 0 1
    outer loop
      vertex -18.4555 16.1927 2.5
      vertex -12.7159 -2.70285 2.5
      vertex -13 0 2.5
    endloop
  endfacet
  facet normal 0 0 1
    outer loop
      vertex -13 0 2.5
      vertex -12.7159 2.70285 2.5
      vertex -12.0915 9.82878 2.5
    endloop
  endfacet
  facet normal 0 0 1
    outer loop
      vertex -1.35887 -12.9288 2.5
      vertex -4.01722 -12.3637 2.5
      vertex 25.5451 -21.5 2.5
    endloop
  endfacet
  facet normal 0 0 1
    outer loop
      vertex -12.7159 2.70285 2.5
      vertex -11.8761 5.28758 2.5
      vertex -12.0915 9.82878 2.5
    endloop
  endfacet
  facet normal 0 0 1
    outer loop
      vertex 11.8761 -5.28758 2.5
      vertex 10.5172 -7.64121 2.5
      vertex 27.1688 -22.3608 2.5
    endloop
  endfacet
  facet normal 0 0 1
    outer loop
      vertex -12.0915 9.82878 2.5
      vertex -11.8761 5.28758 2.5
      vertex -10.5172 7.64121 2.5
    endloop
  endfacet
  facet normal 0 0 1
    outer loop
      vertex 10.5172 -7.64121 2.5
      vertex 12.0915 -9.82878 2.5
      vertex 25.5451 -21.5 2.5
    endloop
  endfacet
  facet normal 0 0 1
    outer loop
      vertex 17.4 0 2.5
      vertex 11.8761 5.28758 2.5
      vertex 12.7159 2.70285 2.5
    endloop
  endfacet
  facet normal 0 0 1
    outer loop
      vertex -1.35887 12.9288 2.5
      vertex 1.35887 12.9288 2.5
      vertex -21.5 21.5 2.5
    endloop
  endfacet
  facet normal 0 0 1
    outer loop
      vertex 26.8594 16.645 2.5
      vertex 28.25 17.8971 2.5
      vertex 16.1927 18.4555 2.5
    endloop
  endfacet
  facet normal 0 0 1
    outer loop
      vertex 33.5111 -10.6558 2.5
      vertex 34.611 -12.1697 2.5
      vertex 39.5 -14 2.5
    endloop
  endfacet
  facet normal 0 0 1
    outer loop
      vertex 18.7102 3.59961 2.5
      vertex 8.6987 9.66088 2.5
      vertex 10.5172 7.64121 2.5
    endloop
  endfacet
  facet normal 0 0 1
    outer loop
      vertex 13 0 2.5
      vertex 12.7159 -2.70285 2.5
      vertex 26.8594 -11.355 2.5
    endloop
  endfacet
  facet normal 0 0 1
    outer loop
      vertex 25.8 -4.84974 2.5
      vertex 31.8906 -9.72025 2.5
      vertex 39.5 -14 2.5
    endloop
  endfacet
  facet normal 0 0 1
    outer loop
      vertex 12.7159 2.70285 2.5
      vertex 13 0 2.5
      vertex 17.7377 -1.91531 2.5
    endloop
  endfacet
  facet normal 0 0 1
    outer loop
      vertex 17.7377 1.91531 2.5
      vertex 18.7102 3.59961 2.5
      vertex 10.5172 7.64121 2.5
    endloop
  endfacet
  facet normal 0 0 1
    outer loop
      vertex 28.25 -10.1029 2.5
      vertex 30.0296 -9.52465 2.5
      vertex 23.9724 -5.51492 2.5
    endloop
  endfacet
  facet normal 0 0 1
    outer loop
      vertex 26.8594 -11.355 2.5
      vertex 20.2 -4.84974 2.5
      vertex 13 0 2.5
    endloop
  endfacet
  facet normal 0 0 1
    outer loop
      vertex 31.8906 -18.2798 2.5
      vertex 34.7157 -21.9516 2.5
      vertex 36.3265 -20.8595 2.5
    endloop
  endfacet
  facet normal 0 0 1
    outer loop
      vertex 27.1688 -22.3608 2.5
      vertex 10.5172 -7.64121 2.5
      vertex 25.5451 -21.5 2.5
    endloop
  endfacet
  facet normal 0 0 1
    outer loop
      vertex 12.0915 9.82878 2.5
      vertex 4.01722 12.3637 2.5
      vertex 6.5 11.2583 2.5
    endloop
  endfacet
  facet normal 0 0 1
    outer loop
      vertex 4.01722 12.3637 2.5
      vertex 9.82878 12.0915 2.5
      vertex 1.35887 12.9288 2.5
    endloop
  endfacet
  facet normal 0 0 1
    outer loop
      vertex 16.1927 -18.4555 2.5
      vertex 4.01722 -12.3637 2.5
      vertex 1.35887 -12.9288 2.5
    endloop
  endfacet
  facet normal 0 0 1
    outer loop
      vertex 16.1927 -18.4555 2.5
      vertex 6.5 -11.2583 2.5
      vertex 4.01722 -12.3637 2.5
    endloop
  endfacet
  facet normal 0 0 1
    outer loop
      vertex 9.82878 -12.0915 2.5
      vertex 12.0915 -9.82878 2.5
      vertex 8.6987 -9.66088 2.5
    endloop
  endfacet
  facet normal 0 0 1
    outer loop
      vertex 16.1927 -18.4555 2.5
      vertex 9.82878 -12.0915 2.5
      vertex 6.5 -11.2583 2.5
    endloop
  endfacet
  facet normal 0 0 1
    outer loop
      vertex 16.1927 -18.4555 2.5
      vertex -1.35887 -12.9288 2.5
      vertex 25.5451 -21.5 2.5
    endloop
  endfacet
  facet normal 0 0 1
    outer loop
      vertex -12.0915 -9.82878 2.5
      vertex -9.82878 -12.0915 2.5
      vertex -4.01722 -12.3637 2.5
    endloop
  endfacet
  facet normal 0 0 1
    outer loop
      vertex -10.5172 -7.64121 2.5
      vertex -12.0915 -9.82878 2.5
      vertex -8.6987 -9.66088 2.5
    endloop
  endfacet
  facet normal 0 0 1
    outer loop
      vertex -11.8761 -5.28758 2.5
      vertex -12.0915 -9.82878 2.5
      vertex -10.5172 -7.64121 2.5
    endloop
  endfacet
  facet normal 0 0 1
    outer loop
      vertex -10.5172 7.64121 2.5
      vertex -8.6987 9.66088 2.5
      vertex -12.0915 9.82878 2.5
    endloop
  endfacet
  facet normal 0 0 1
    outer loop
      vertex 12.0915 9.82878 2.5
      vertex 9.82878 12.0915 2.5
      vertex 4.01722 12.3637 2.5
    endloop
  endfacet
  facet normal 0 0 1
    outer loop
      vertex 8.6987 -9.66088 2.5
      vertex 6.5 -11.2583 2.5
      vertex 9.82878 -12.0915 2.5
    endloop
  endfacet
  facet normal 0 0 1
    outer loop
      vertex -11.8761 -5.28758 2.5
      vertex -12.7159 -2.70285 2.5
      vertex -12.0915 -9.82878 2.5
    endloop
  endfacet
  facet normal 0 0 1
    outer loop
      vertex 17.4 0 2.5
      vertex 17.7377 1.91531 2.5
      vertex 11.8761 5.28758 2.5
    endloop
  endfacet
  facet normal 0 0 1
    outer loop
      vertex 1.35887 -12.9288 2.5
      vertex -1.35887 -12.9288 2.5
      vertex 16.1927 -18.4555 2.5
    endloop
  endfacet
  facet normal 0 0 1
    outer loop
      vertex 34.5 -5.96246 2.5
      vertex 37.6648 -8.55343 2.5
      vertex 36.3265 -7.14054 2.5
    endloop
  endfacet
  facet normal 0 0 1
    outer loop
      vertex 22.0276 5.51492 2.5
      vertex 34.5 5.96246 2.5
      vertex 12.0915 9.82878 2.5
    endloop
  endfacet
  facet normal 0 0 1
    outer loop
      vertex 1.35887 12.9288 2.5
      vertex 9.82878 12.0915 2.5
      vertex -21.5 21.5 2.5
    endloop
  endfacet
  facet normal 0 0 1
    outer loop
      vertex 26.0983 13.0644 2.5
      vertex 26.0983 14.9356 2.5
      vertex 18.4555 16.1927 2.5
    endloop
  endfacet
  facet normal 0 0 1
    outer loop
      vertex 28.25 17.8971 2.5
      vertex -21.5 21.5 2.5
      vertex 16.1927 18.4555 2.5
    endloop
  endfacet
  facet normal 0 0 1
    outer loop
      vertex 18.4555 -16.1927 2.5
      vertex 16.1927 -18.4555 2.5
      vertex 25.5451 -21.5 2.5
    endloop
  endfacet
  facet normal 0 0 1
    outer loop
      vertex -4.01722 12.3637 2.5
      vertex -1.35887 12.9288 2.5
      vertex -21.5 21.5 2.5
    endloop
  endfacet
  facet normal 0 0 1
    outer loop
      vertex 17.7377 1.91531 2.5
      vertex 10.5172 7.64121 2.5
      vertex 11.8761 5.28758 2.5
    endloop
  endfacet
  facet normal 0 0 1
    outer loop
      vertex 18.7102 3.59961 2.5
      vertex 20.2 4.84974 2.5
      vertex 12.0915 9.82878 2.5
    endloop
  endfacet
  facet normal 0 0 1
    outer loop
      vertex 28.25 10.1029 2.5
      vertex 34.7157 6.04839 2.5
      vertex 36.3265 7.14054 2.5
    endloop
  endfacet
  facet normal 0 0 1
    outer loop
      vertex 20.2 4.84974 2.5
      vertex 22.0276 5.51492 2.5
      vertex 12.0915 9.82878 2.5
    endloop
  endfacet
  facet normal 0 0 1
    outer loop
      vertex 23.9724 5.51492 2.5
      vertex 34.5 5.96246 2.5
      vertex 22.0276 5.51492 2.5
    endloop
  endfacet
  facet normal 0 0 1
    outer loop
      vertex 28.2623 1.91531 2.5
      vertex 28.6 0 2.5
      vertex 34.5 -5.96246 2.5
    endloop
  endfacet
  facet normal 0 0 1
    outer loop
      vertex 27.2898 3.59961 2.5
      vertex 34.5 5.96246 2.5
      vertex 25.8 4.84974 2.5
    endloop
  endfacet
  facet normal 0 0 1
    outer loop
      vertex 29.044 22.8814 2.5
      vertex 27.1688 22.3608 2.5
      vertex 32.9078 22.6719 2.5
    endloop
  endfacet
  facet normal 0 0 1
    outer loop
      vertex 28.25 10.1029 2.5
      vertex 36.3265 7.14054 2.5
      vertex 30.0296 9.52465 2.5
    endloop
  endfacet
  facet normal 0 0 1
    outer loop
      vertex 18.4555 16.1927 2.5
      vertex 28.25 10.1029 2.5
      vertex 26.8594 11.355 2.5
    endloop
  endfacet
  facet normal 0 0 1
    outer loop
      vertex 38.6682 -10.221 2.5
      vertex 37.6648 -8.55343 2.5
      vertex 27.2898 -3.59961 2.5
    endloop
  endfacet
  facet normal 0 0 1
    outer loop
      vertex 10.5172 -7.64121 2.5
      vertex 8.6987 -9.66088 2.5
      vertex 12.0915 -9.82878 2.5
    endloop
  endfacet
  facet normal 0 0 1
    outer loop
      vertex 39.5 -14 2.5
      vertex 39.2896 -12.0653 2.5
      vertex 25.8 -4.84974 2.5
    endloop
  endfacet
  facet normal 0 0 1
    outer loop
      vertex 26.0983 -13.0644 2.5
      vertex 26.8594 -11.355 2.5
      vertex 12.7159 -2.70285 2.5
    endloop
  endfacet
  facet normal 0 0 1
    outer loop
      vertex 30.0296 -9.52465 2.5
      vertex 31.8906 -9.72025 2.5
      vertex 23.9724 -5.51492 2.5
    endloop
  endfacet
  facet normal 0 0 1
    outer loop
      vertex 28.25 17.8971 2.5
      vertex 30.0296 18.4753 2.5
      vertex -21.5 21.5 2.5
    endloop
  endfacet
  facet normal 0 0 1
    outer loop
      vertex 28.25 -10.1029 2.5
      vertex 22.0276 -5.51492 2.5
      vertex 20.2 -4.84974 2.5
    endloop
  endfacet
  facet normal 0 0 1
    outer loop
      vertex 20.2 -4.84974 2.5
      vertex 18.7102 -3.59961 2.5
      vertex 13 0 2.5
    endloop
  endfacet
  facet normal 0 0 1
    outer loop
      vertex -8.6987 9.66088 2.5
      vertex -6.5 11.2583 2.5
      vertex -9.82878 12.0915 2.5
    endloop
  endfacet
  facet normal 0 0 1
    outer loop
      vertex 30.0296 -18.4753 2.5
      vertex 28.25 -17.8971 2.5
      vertex 34.7157 -21.9516 2.5
    endloop
  endfacet
  facet normal 0 0 1
    outer loop
      vertex 28.25 -10.1029 2.5
      vertex 23.9724 -5.51492 2.5
      vertex 22.0276 -5.51492 2.5
    endloop
  endfacet
  facet normal 0 0 1
    outer loop
      vertex 34.611 -12.1697 2.5
      vertex 35 -14 2.5
      vertex 39.2896 -15.9347 2.5
    endloop
  endfacet
  facet normal 0 0 1
    outer loop
      vertex 12.0915 -9.82878 2.5
      vertex 18.4555 -16.1927 2.5
      vertex 25.5451 -21.5 2.5
    endloop
  endfacet
  facet normal 0 0 1
    outer loop
      vertex 33.5111 -10.6558 2.5
      vertex 39.5 -14 2.5
      vertex 31.8906 -9.72025 2.5
    endloop
  endfacet
  facet normal 0 0 1
    outer loop
      vertex 26.8594 -16.645 2.5
      vertex 26.0983 -14.9356 2.5
      vertex 11.8761 -5.28758 2.5
    endloop
  endfacet
  facet normal 0 0 1
    outer loop
      vertex 39.2896 -15.9347 2.5
      vertex 39.5 -14 2.5
      vertex 34.611 -12.1697 2.5
    endloop
  endfacet
  facet normal 0 0 1
    outer loop
      vertex 35 -14 2.5
      vertex 34.611 -15.8303 2.5
      vertex 38.6682 -17.779 2.5
    endloop
  endfacet
  facet normal 0 0 1
    outer loop
      vertex 38.6682 -17.779 2.5
      vertex 39.2896 -15.9347 2.5
      vertex 35 -14 2.5
    endloop
  endfacet
  facet normal 0 0 1
    outer loop
      vertex 37.6648 -19.4466 2.5
      vertex 38.6682 -17.779 2.5
      vertex 34.611 -15.8303 2.5
    endloop
  endfacet
  facet normal 0 0 1
    outer loop
      vertex 26.8594 -11.355 2.5
      vertex 28.25 -10.1029 2.5
      vertex 20.2 -4.84974 2.5
    endloop
  endfacet
  facet normal 0 0 1
    outer loop
      vertex 36.3265 -20.8595 2.5
      vertex 37.6648 -19.4466 2.5
      vertex 33.5111 -17.3442 2.5
    endloop
  endfacet
  facet normal 0 0 1
    outer loop
      vertex -9.82878 12.0915 2.5
      vertex -6.5 11.2583 2.5
      vertex -16.1927 18.4555 2.5
    endloop
  endfacet
  facet normal 0 0 1
    outer loop
      vertex 26.0983 14.9356 2.5
      vertex 26.8594 16.645 2.5
      vertex 16.1927 18.4555 2.5
    endloop
  endfacet
  facet normal 0 0 1
    outer loop
      vertex 33.5111 -17.3442 2.5
      vertex 31.8906 -18.2798 2.5
      vertex 36.3265 -20.8595 2.5
    endloop
  endfacet
  facet normal 0 0 1
    outer loop
      vertex 26.0983 -14.9356 2.5
      vertex 26.0983 -13.0644 2.5
      vertex 12.7159 -2.70285 2.5
    endloop
  endfacet
  facet normal 0 0 1
    outer loop
      vertex 32.9078 -22.6719 2.5
      vertex 28.25 -17.8971 2.5
      vertex 11.8761 -5.28758 2.5
    endloop
  endfacet
  facet normal 0 0 1
    outer loop
      vertex 32.9078 -22.6719 2.5
      vertex 34.7157 -21.9516 2.5
      vertex 28.25 -17.8971 2.5
    endloop
  endfacet
  facet normal 0 0 1
    outer loop
      vertex 28.25 -17.8971 2.5
      vertex 26.8594 -16.645 2.5
      vertex 11.8761 -5.28758 2.5
    endloop
  endfacet
  facet normal 0 0 1
    outer loop
      vertex 34.611 12.1697 2.5
      vertex 33.5111 10.6558 2.5
      vertex 38.6682 10.221 2.5
    endloop
  endfacet
  facet normal 0 0 1
    outer loop
      vertex 18.7102 -3.59961 2.5
      vertex 17.7377 -1.91531 2.5
      vertex 13 0 2.5
    endloop
  endfacet
  facet normal 0 0 1
    outer loop
      vertex 38.6682 17.779 2.5
      vertex 37.6648 19.4466 2.5
      vertex 30.0296 18.4753 2.5
    endloop
  endfacet
  facet normal 0 0 1
    outer loop
      vertex 31.8906 18.2798 2.5
      vertex 33.5111 17.3442 2.5
      vertex 38.6682 17.779 2.5
    endloop
  endfacet
  facet normal 0 0 1
    outer loop
      vertex 38.6682 17.779 2.5
      vertex 30.0296 18.4753 2.5
      vertex 31.8906 18.2798 2.5
    endloop
  endfacet
  facet normal 0 0 1
    outer loop
      vertex 34.611 15.8303 2.5
      vertex 35 14 2.5
      vertex 39.5 14 2.5
    endloop
  endfacet
  facet normal 0 0 1
    outer loop
      vertex 39.2896 15.9347 2.5
      vertex 38.6682 17.779 2.5
      vertex 33.5111 17.3442 2.5
    endloop
  endfacet
  facet normal 0 0 1
    outer loop
      vertex 35 14 2.5
      vertex 34.611 12.1697 2.5
      vertex 39.2896 12.0653 2.5
    endloop
  endfacet
  facet normal 0 0 1
    outer loop
      vertex 39.5 14 2.5
      vertex 39.2896 15.9347 2.5
      vertex 34.611 15.8303 2.5
    endloop
  endfacet
  facet normal 0 0 1
    outer loop
      vertex 39.2896 12.0653 2.5
      vertex 39.5 14 2.5
      vertex 35 14 2.5
    endloop
  endfacet
  facet normal 0 0 1
    outer loop
      vertex 33.5111 10.6558 2.5
      vertex 31.8906 9.72025 2.5
      vertex 37.6648 8.55343 2.5
    endloop
  endfacet
  facet normal 0 0 1
    outer loop
      vertex 38.6682 10.221 2.5
      vertex 39.2896 12.0653 2.5
      vertex 34.611 12.1697 2.5
    endloop
  endfacet
  facet normal 0 0 1
    outer loop
      vertex 37.6648 8.55343 2.5
      vertex 38.6682 10.221 2.5
      vertex 33.5111 10.6558 2.5
    endloop
  endfacet
  facet normal 0 0 1
    outer loop
      vertex 36.3265 7.14054 2.5
      vertex 37.6648 8.55343 2.5
      vertex 31.8906 9.72025 2.5
    endloop
  endfacet
  facet normal 0 0 1
    outer loop
      vertex 36.3265 7.14054 2.5
      vertex 31.8906 9.72025 2.5
      vertex 30.0296 9.52465 2.5
    endloop
  endfacet
  facet normal 0 0 1
    outer loop
      vertex 18.7102 3.59961 2.5
      vertex 6.5 11.2583 2.5
      vertex 8.6987 9.66088 2.5
    endloop
  endfacet
  facet normal 0 0 1
    outer loop
      vertex 28.2623 -1.91531 2.5
      vertex 27.2898 -3.59961 2.5
      vertex 37.6648 -8.55343 2.5
    endloop
  endfacet
  facet normal 0 0 1
    outer loop
      vertex 28.2623 -1.91531 2.5
      vertex 37.6648 -8.55343 2.5
      vertex 34.5 -5.96246 2.5
    endloop
  endfacet
  facet normal 0 0 1
    outer loop
      vertex 23.9724 5.51492 2.5
      vertex 25.8 4.84974 2.5
      vertex 34.5 5.96246 2.5
    endloop
  endfacet
  facet normal 0 0 1
    outer loop
      vertex 28.6 0 2.5
      vertex 28.2623 -1.91531 2.5
      vertex 34.5 -5.96246 2.5
    endloop
  endfacet
  facet normal 0 0 1
    outer loop
      vertex 34.5 -5.96246 2.5
      vertex 27.2898 3.59961 2.5
      vertex 28.2623 1.91531 2.5
    endloop
  endfacet
  facet normal 0 0 1
    outer loop
      vertex 34.5 -5.96246 2.5
      vertex 34.5 5.96246 2.5
      vertex 27.2898 3.59961 2.5
    endloop
  endfacet
  facet normal 0 0 1
    outer loop
      vertex 31.8906 -18.2798 2.5
      vertex 30.0296 -18.4753 2.5
      vertex 34.7157 -21.9516 2.5
    endloop
  endfacet
  facet normal 0 0 1
    outer loop
      vertex -16.1927 18.4555 2.5
      vertex -4.01722 12.3637 2.5
      vertex -21.5 21.5 2.5
    endloop
  endfacet
  facet normal 0 0 1
    outer loop
      vertex -6.5 11.2583 2.5
      vertex -4.01722 12.3637 2.5
      vertex -16.1927 18.4555 2.5
    endloop
  endfacet
  facet normal 0 0 1
    outer loop
      vertex 11.8761 -5.28758 2.5
      vertex 29.044 -22.8814 2.5
      vertex 30.9872 -22.9868 2.5
    endloop
  endfacet
  facet normal 0 0 1
    outer loop
      vertex 11.8761 -5.28758 2.5
      vertex 27.1688 -22.3608 2.5
      vertex 29.044 -22.8814 2.5
    endloop
  endfacet
  facet normal 0 0 1
    outer loop
      vertex -18.4555 16.1927 2.5
      vertex -16.1927 18.4555 2.5
      vertex -21.5 21.5 2.5
    endloop
  endfacet
  facet normal -0.468408 -0.883512 0
    outer loop
      vertex 25.5451 -21.5 2.5
      vertex 25.5451 -21.5 -2.5
      vertex 27.1688 -22.3608 -2.5
    endloop
  endfacet
  facet normal -0.468408 -0.883512 0
    outer loop
      vertex 27.1688 -22.3608 2.5
      vertex 25.5451 -21.5 2.5
      vertex 27.1688 -22.3608 -2.5
    endloop
  endfacet
  facet normal -0.267529 -0.96355 0
    outer loop
      vertex 27.1688 -22.3608 2.5
      vertex 27.1688 -22.3608 -2.5
      vertex 29.044 -22.8814 -2.5
    endloop
  endfacet
  facet normal -0.267529 -0.96355 0
    outer loop
      vertex 29.044 -22.8814 2.5
      vertex 27.1688 -22.3608 2.5
      vertex 29.044 -22.8814 -2.5
    endloop
  endfacet
  facet normal -0.0541389 -0.998533 0
    outer loop
      vertex 29.044 -22.8814 2.5
      vertex 29.044 -22.8814 -2.5
      vertex 30.9872 -22.9868 -2.5
    endloop
  endfacet
  facet normal -0.0541389 -0.998533 0
    outer loop
      vertex 30.9872 -22.9868 2.5
      vertex 29.044 -22.8814 2.5
      vertex 30.9872 -22.9868 -2.5
    endloop
  endfacet
  facet normal 0.161782 -0.986827 0
    outer loop
      vertex 30.9872 -22.9868 2.5
      vertex 30.9872 -22.9868 -2.5
      vertex 32.9078 -22.6719 -2.5
    endloop
  endfacet
  facet normal 0.161782 -0.986827 0
    outer loop
      vertex 32.9078 -22.6719 2.5
      vertex 30.9872 -22.9868 2.5
      vertex 32.9078 -22.6719 -2.5
    endloop
  endfacet
  facet normal 0.370138 -0.928977 0
    outer loop
      vertex 32.9078 -22.6719 2.5
      vertex 32.9078 -22.6719 -2.5
      vertex 34.7157 -21.9516 -2.5
    endloop
  endfacet
  facet normal 0.370138 -0.928977 0
    outer loop
      vertex 34.7157 -21.9516 2.5
      vertex 32.9078 -22.6719 2.5
      vertex 34.7157 -21.9516 -2.5
    endloop
  endfacet
  facet normal 0.561187 -0.827689 0
    outer loop
      vertex 34.7157 -21.9516 2.5
      vertex 34.7157 -21.9516 -2.5
      vertex 36.3265 -20.8595 -2.5
    endloop
  endfacet
  facet normal 0.561187 -0.827689 0
    outer loop
      vertex 36.3265 -20.8595 2.5
      vertex 34.7157 -21.9516 2.5
      vertex 36.3265 -20.8595 -2.5
    endloop
  endfacet
  facet normal 0.725995 -0.6877 0
    outer loop
      vertex 36.3265 -20.8595 2.5
      vertex 36.3265 -20.8595 -2.5
      vertex 37.6648 -19.4466 -2.5
    endloop
  endfacet
  facet normal 0.725995 -0.6877 0
    outer loop
      vertex 37.6648 -19.4466 2.5
      vertex 36.3265 -20.8595 2.5
      vertex 37.6648 -19.4466 -2.5
    endloop
  endfacet
  facet normal 0.856857 -0.515554 0
    outer loop
      vertex 37.6648 -19.4466 2.5
      vertex 37.6648 -19.4466 -2.5
      vertex 38.6682 -17.779 -2.5
    endloop
  endfacet
  facet normal 0.856857 -0.515554 0
    outer loop
      vertex 38.6682 -17.779 2.5
      vertex 37.6648 -19.4466 2.5
      vertex 38.6682 -17.779 -2.5
    endloop
  endfacet
  facet normal 0.947653 -0.319301 0
    outer loop
      vertex 38.6682 -17.779 2.5
      vertex 38.6682 -17.779 -2.5
      vertex 39.2896 -15.9347 -2.5
    endloop
  endfacet
  facet normal 0.947653 -0.319301 0
    outer loop
      vertex 39.2896 -15.9347 2.5
      vertex 38.6682 -17.779 2.5
      vertex 39.2896 -15.9347 -2.5
    endloop
  endfacet
  facet normal 0.994138 -0.108119 0
    outer loop
      vertex 39.2896 -15.9347 2.5
      vertex 39.2896 -15.9347 -2.5
      vertex 39.5 -14 -2.5
    endloop
  endfacet
  facet normal 0.994138 -0.108119 0
    outer loop
      vertex 39.5 -14 2.5
      vertex 39.2896 -15.9347 2.5
      vertex 39.5 -14 -2.5
    endloop
  endfacet
  facet normal 0.994138 0.108119 0
    outer loop
      vertex 39.5 -14 -2.5
      vertex 39.2896 -12.0653 -2.5
      vertex 39.2896 -12.0653 2.5
    endloop
  endfacet
  facet normal 0.994138 0.108119 0
    outer loop
      vertex 39.5 -14 2.5
      vertex 39.5 -14 -2.5
      vertex 39.2896 -12.0653 2.5
    endloop
  endfacet
  facet normal 0.947653 0.319301 0
    outer loop
      vertex 39.2896 -12.0653 -2.5
      vertex 38.6682 -10.221 -2.5
      vertex 38.6682 -10.221 2.5
    endloop
  endfacet
  facet normal 0.947653 0.319301 0
    outer loop
      vertex 39.2896 -12.0653 2.5
      vertex 39.2896 -12.0653 -2.5
      vertex 38.6682 -10.221 2.5
    endloop
  endfacet
  facet normal 0.856857 0.515554 0
    outer loop
      vertex 38.6682 -10.221 -2.5
      vertex 37.6648 -8.55343 -2.5
      vertex 37.6648 -8.55343 2.5
    endloop
  endfacet
  facet normal 0.856857 0.515554 0
    outer loop
      vertex 38.6682 -10.221 2.5
      vertex 38.6682 -10.221 -2.5
      vertex 37.6648 -8.55343 2.5
    endloop
  endfacet
  facet normal 0.725995 0.6877 0
    outer loop
      vertex 37.6648 -8.55343 -2.5
      vertex 36.3265 -7.14054 -2.5
      vertex 36.3265 -7.14054 2.5
    endloop
  endfacet
  facet normal 0.725995 0.6877 0
    outer loop
      vertex 37.6648 -8.55343 2.5
      vertex 37.6648 -8.55343 -2.5
      vertex 36.3265 -7.14054 2.5
    endloop
  endfacet
  facet normal 0.561187 0.827689 0
    outer loop
      vertex 34.7157 -6.04839 -2.5
      vertex 34.7157 -6.04839 2.5
      vertex 36.3265 -7.14054 -2.5
    endloop
  endfacet
  facet normal 0.561187 0.827689 0
    outer loop
      vertex 36.3265 -7.14054 -2.5
      vertex 34.7157 -6.04839 2.5
      vertex 36.3265 -7.14054 2.5
    endloop
  endfacet
  facet normal 0.370138 0.928977 0
    outer loop
      vertex 34.5 -5.96246 -2.5
      vertex 34.5 -5.96246 2.5
      vertex 34.7157 -6.04839 -2.5
    endloop
  endfacet
  facet normal 0.370138 0.928977 0
    outer loop
      vertex 34.7157 -6.04839 -2.5
      vertex 34.5 -5.96246 2.5
      vertex 34.7157 -6.04839 2.5
    endloop
  endfacet
  facet normal 1 0 0
    outer loop
      vertex 34.5 -5.96246 2.5
      vertex 34.5 -5.96246 -2.5
      vertex 34.5 5.96246 -2.5
    endloop
  endfacet
  facet normal 1 0 0
    outer loop
      vertex 34.5 5.96246 2.5
      vertex 34.5 -5.96246 2.5
      vertex 34.5 5.96246 -2.5
    endloop
  endfacet
  facet normal 0.370138 -0.928977 0
    outer loop
      vertex 34.5 5.96246 2.5
      vertex 34.5 5.96246 -2.5
      vertex 34.7157 6.04839 -2.5
    endloop
  endfacet
  facet normal 0.370138 -0.928977 0
    outer loop
      vertex 34.7157 6.04839 2.5
      vertex 34.5 5.96246 2.5
      vertex 34.7157 6.04839 -2.5
    endloop
  endfacet
  facet normal 0.561187 -0.827689 0
    outer loop
      vertex 34.7157 6.04839 2.5
      vertex 34.7157 6.04839 -2.5
      vertex 36.3265 7.14054 -2.5
    endloop
  endfacet
  facet normal 0.561187 -0.827689 0
    outer loop
      vertex 36.3265 7.14054 2.5
      vertex 34.7157 6.04839 2.5
      vertex 36.3265 7.14054 -2.5
    endloop
  endfacet
  facet normal 0.725995 -0.6877 0
    outer loop
      vertex 36.3265 7.14054 2.5
      vertex 36.3265 7.14054 -2.5
      vertex 37.6648 8.55343 -2.5
    endloop
  endfacet
  facet normal 0.725995 -0.6877 0
    outer loop
      vertex 37.6648 8.55343 2.5
      vertex 36.3265 7.14054 2.5
      vertex 37.6648 8.55343 -2.5
    endloop
  endfacet
  facet normal 0.856857 -0.515554 0
    outer loop
      vertex 37.6648 8.55343 2.5
      vertex 37.6648 8.55343 -2.5
      vertex 38.6682 10.221 -2.5
    endloop
  endfacet
  facet normal 0.856857 -0.515554 0
    outer loop
      vertex 38.6682 10.221 2.5
      vertex 37.6648 8.55343 2.5
      vertex 38.6682 10.221 -2.5
    endloop
  endfacet
  facet normal 0.947653 -0.319301 0
    outer loop
      vertex 38.6682 10.221 2.5
      vertex 38.6682 10.221 -2.5
      vertex 39.2896 12.0653 -2.5
    endloop
  endfacet
  facet normal 0.947653 -0.319301 0
    outer loop
      vertex 39.2896 12.0653 2.5
      vertex 38.6682 10.221 2.5
      vertex 39.2896 12.0653 -2.5
    endloop
  endfacet
  facet normal 0.994138 -0.108119 0
    outer loop
      vertex 39.2896 12.0653 2.5
      vertex 39.2896 12.0653 -2.5
      vertex 39.5 14 -2.5
    endloop
  endfacet
  facet normal 0.994138 -0.108119 0
    outer loop
      vertex 39.5 14 2.5
      vertex 39.2896 12.0653 2.5
      vertex 39.5 14 -2.5
    endloop
  endfacet
  facet normal 0.994138 0.108119 0
    outer loop
      vertex 39.5 14 -2.5
      vertex 39.2896 15.9347 -2.5
      vertex 39.2896 15.9347 2.5
    endloop
  endfacet
  facet normal 0.994138 0.108119 0
    outer loop
      vertex 39.5 14 2.5
      vertex 39.5 14 -2.5
      vertex 39.2896 15.9347 2.5
    endloop
  endfacet
  facet normal 0.947653 0.319301 0
    outer loop
      vertex 39.2896 15.9347 -2.5
      vertex 38.6682 17.779 -2.5
      vertex 38.6682 17.779 2.5
    endloop
  endfacet
  facet normal 0.947653 0.319301 0
    outer loop
      vertex 39.2896 15.9347 2.5
      vertex 39.2896 15.9347 -2.5
      vertex 38.6682 17.779 2.5
    endloop
  endfacet
  facet normal 0.856857 0.515554 0
    outer loop
      vertex 38.6682 17.779 -2.5
      vertex 37.6648 19.4466 -2.5
      vertex 37.6648 19.4466 2.5
    endloop
  endfacet
  facet normal 0.856857 0.515554 0
    outer loop
      vertex 38.6682 17.779 2.5
      vertex 38.6682 17.779 -2.5
      vertex 37.6648 19.4466 2.5
    endloop
  endfacet
  facet normal 0.725995 0.6877 0
    outer loop
      vertex 37.6648 19.4466 -2.5
      vertex 36.3265 20.8595 -2.5
      vertex 36.3265 20.8595 2.5
    endloop
  endfacet
  facet normal 0.725995 0.6877 0
    outer loop
      vertex 37.6648 19.4466 2.5
      vertex 37.6648 19.4466 -2.5
      vertex 36.3265 20.8595 2.5
    endloop
  endfacet
  facet normal 0.561187 0.827689 0
    outer loop
      vertex 34.7157 21.9516 -2.5
      vertex 34.7157 21.9516 2.5
      vertex 36.3265 20.8595 -2.5
    endloop
  endfacet
  facet normal 0.561187 0.827689 0
    outer loop
      vertex 36.3265 20.8595 -2.5
      vertex 34.7157 21.9516 2.5
      vertex 36.3265 20.8595 2.5
    endloop
  endfacet
  facet normal 0.370138 0.928977 0
    outer loop
      vertex 32.9078 22.6719 -2.5
      vertex 32.9078 22.6719 2.5
      vertex 34.7157 21.9516 -2.5
    endloop
  endfacet
  facet normal 0.370138 0.928977 0
    outer loop
      vertex 34.7157 21.9516 -2.5
      vertex 32.9078 22.6719 2.5
      vertex 34.7157 21.9516 2.5
    endloop
  endfacet
  facet normal 0.161782 0.986827 0
    outer loop
      vertex 30.9872 22.9868 -2.5
      vertex 30.9872 22.9868 2.5
      vertex 32.9078 22.6719 -2.5
    endloop
  endfacet
  facet normal 0.161782 0.986827 0
    outer loop
      vertex 32.9078 22.6719 -2.5
      vertex 30.9872 22.9868 2.5
      vertex 32.9078 22.6719 2.5
    endloop
  endfacet
  facet normal -0.0541389 0.998533 0
    outer loop
      vertex 29.044 22.8814 -2.5
      vertex 29.044 22.8814 2.5
      vertex 30.9872 22.9868 -2.5
    endloop
  endfacet
  facet normal -0.0541389 0.998533 0
    outer loop
      vertex 30.9872 22.9868 -2.5
      vertex 29.044 22.8814 2.5
      vertex 30.9872 22.9868 2.5
    endloop
  endfacet
  facet normal -0.267529 0.96355 0
    outer loop
      vertex 27.1688 22.3608 -2.5
      vertex 27.1688 22.3608 2.5
      vertex 29.044 22.8814 -2.5
    endloop
  endfacet
  facet normal -0.267529 0.96355 0
    outer loop
      vertex 29.044 22.8814 -2.5
      vertex 27.1688 22.3608 2.5
      vertex 29.044 22.8814 2.5
    endloop
  endfacet
  facet normal -0.468408 0.883512 0
    outer loop
      vertex 25.5451 21.5 -2.5
      vertex 25.5451 21.5 2.5
      vertex 27.1688 22.3608 -2.5
    endloop
  endfacet
  facet normal -0.468408 0.883512 0
    outer loop
      vertex 27.1688 22.3608 -2.5
      vertex 25.5451 21.5 2.5
      vertex 27.1688 22.3608 2.5
    endloop
  endfacet
  facet normal 0.707107 0.707107 0
    outer loop
      vertex -16.1927 -18.4555 2.5
      vertex -16.1927 -18.4555 -2.5
      vertex -18.4555 -16.1927 2.5
    endloop
  endfacet
  facet normal 0.707107 0.707107 0
    outer loop
      vertex -18.4555 -16.1927 2.5
      vertex -16.1927 -18.4555 -2.5
      vertex -18.4555 -16.1927 -2.5
    endloop
  endfacet
  facet normal 0.707107 -0.707107 0
    outer loop
      vertex -12.0915 -9.82878 -2.5
      vertex -12.0915 -9.82878 2.5
      vertex -18.4555 -16.1927 2.5
    endloop
  endfacet
  facet normal 0.707107 -0.707107 0
    outer loop
      vertex -18.4555 -16.1927 -2.5
      vertex -12.0915 -9.82878 -2.5
      vertex -18.4555 -16.1927 2.5
    endloop
  endfacet
  facet normal -0.707107 -0.707107 0
    outer loop
      vertex -9.82878 -12.0915 -2.5
      vertex -9.82878 -12.0915 2.5
      vertex -12.0915 -9.82878 2.5
    endloop
  endfacet
  facet normal -0.707107 -0.707107 0
    outer loop
      vertex -12.0915 -9.82878 -2.5
      vertex -9.82878 -12.0915 -2.5
      vertex -12.0915 -9.82878 2.5
    endloop
  endfacet
  facet normal -0.707107 0.707107 0
    outer loop
      vertex -9.82878 -12.0915 2.5
      vertex -9.82878 -12.0915 -2.5
      vertex -16.1927 -18.4555 2.5
    endloop
  endfacet
  facet normal -0.707107 0.707107 0
    outer loop
      vertex -16.1927 -18.4555 2.5
      vertex -9.82878 -12.0915 -2.5
      vertex -16.1927 -18.4555 -2.5
    endloop
  endfacet
  facet normal 0.707107 -0.707107 0
    outer loop
      vertex -16.1927 18.4555 -2.5
      vertex -16.1927 18.4555 2.5
      vertex -18.4555 16.1927 2.5
    endloop
  endfacet
  facet normal 0.707107 -0.707107 0
    outer loop
      vertex -18.4555 16.1927 -2.5
      vertex -16.1927 18.4555 -2.5
      vertex -18.4555 16.1927 2.5
    endloop
  endfacet
  facet normal -0.707107 -0.707107 0
    outer loop
      vertex -9.82878 12.0915 2.5
      vertex -16.1927 18.4555 2.5
      vertex -9.82878 12.0915 -2.5
    endloop
  endfacet
  facet normal -0.707107 -0.707107 0
    outer loop
      vertex -9.82878 12.0915 -2.5
      vertex -16.1927 18.4555 2.5
      vertex -16.1927 18.4555 -2.5
    endloop
  endfacet
  facet normal -0.707107 0.707107 0
    outer loop
      vertex -9.82878 12.0915 2.5
      vertex -9.82878 12.0915 -2.5
      vertex -12.0915 9.82878 2.5
    endloop
  endfacet
  facet normal -0.707107 0.707107 0
    outer loop
      vertex -12.0915 9.82878 2.5
      vertex -9.82878 12.0915 -2.5
      vertex -12.0915 9.82878 -2.5
    endloop
  endfacet
  facet normal 0.707107 0.707107 0
    outer loop
      vertex -18.4555 16.1927 2.5
      vertex -12.0915 9.82878 2.5
      vertex -12.0915 9.82878 -2.5
    endloop
  endfacet
  facet normal 0.707107 0.707107 0
    outer loop
      vertex -18.4555 16.1927 -2.5
      vertex -18.4555 16.1927 2.5
      vertex -12.0915 9.82878 -2.5
    endloop
  endfacet
  facet normal 0.994522 -0.104528 0
    outer loop
      vertex -12.7159 2.70285 -2.5
      vertex -12.7159 2.70285 2.5
      vertex -13 0 2.5
    endloop
  endfacet
  facet normal 0.994522 -0.104528 0
    outer loop
      vertex -13 0 -2.5
      vertex -12.7159 2.70285 -2.5
      vertex -13 0 2.5
    endloop
  endfacet
  facet normal 0.994522 0.104528 0
    outer loop
      vertex -13 0 2.5
      vertex -12.7159 -2.70285 2.5
      vertex -12.7159 -2.70285 -2.5
    endloop
  endfacet
  facet normal 0.994522 0.104528 0
    outer loop
      vertex -13 0 -2.5
      vertex -13 0 2.5
      vertex -12.7159 -2.70285 -2.5
    endloop
  endfacet
  facet normal 0.951056 -0.309017 0
    outer loop
      vertex -11.8761 5.28758 -2.5
      vertex -11.8761 5.28758 2.5
      vertex -12.7159 2.70285 2.5
    endloop
  endfacet
  facet normal 0.951056 -0.309017 0
    outer loop
      vertex -12.7159 2.70285 -2.5
      vertex -11.8761 5.28758 -2.5
      vertex -12.7159 2.70285 2.5
    endloop
  endfacet
  facet normal 0.866025 -0.5 0
    outer loop
      vertex -10.5172 7.64121 -2.5
      vertex -10.5172 7.64121 2.5
      vertex -11.8761 5.28758 2.5
    endloop
  endfacet
  facet normal 0.866025 -0.5 0
    outer loop
      vertex -11.8761 5.28758 -2.5
      vertex -10.5172 7.64121 -2.5
      vertex -11.8761 5.28758 2.5
    endloop
  endfacet
  facet normal 0.743145 -0.66913 0
    outer loop
      vertex -8.6987 9.66088 -2.5
      vertex -8.6987 9.66088 2.5
      vertex -10.5172 7.64121 2.5
    endloop
  endfacet
  facet normal 0.743145 -0.66913 0
    outer loop
      vertex -10.5172 7.64121 -2.5
      vertex -8.6987 9.66088 -2.5
      vertex -10.5172 7.64121 2.5
    endloop
  endfacet
  facet normal 0.587785 -0.809017 0
    outer loop
      vertex -6.5 11.2583 -2.5
      vertex -6.5 11.2583 2.5
      vertex -8.6987 9.66088 2.5
    endloop
  endfacet
  facet normal 0.587785 -0.809017 0
    outer loop
      vertex -8.6987 9.66088 -2.5
      vertex -6.5 11.2583 -2.5
      vertex -8.6987 9.66088 2.5
    endloop
  endfacet
  facet normal 0.406737 -0.913545 0
    outer loop
      vertex -4.01722 12.3637 -2.5
      vertex -4.01722 12.3637 2.5
      vertex -6.5 11.2583 2.5
    endloop
  endfacet
  facet normal 0.406737 -0.913545 0
    outer loop
      vertex -6.5 11.2583 -2.5
      vertex -4.01722 12.3637 -2.5
      vertex -6.5 11.2583 2.5
    endloop
  endfacet
  facet normal 0.207912 -0.978148 0
    outer loop
      vertex -1.35887 12.9288 -2.5
      vertex -1.35887 12.9288 2.5
      vertex -4.01722 12.3637 2.5
    endloop
  endfacet
  facet normal 0.207912 -0.978148 0
    outer loop
      vertex -4.01722 12.3637 -2.5
      vertex -1.35887 12.9288 -2.5
      vertex -4.01722 12.3637 2.5
    endloop
  endfacet
  facet normal 0 -1 0
    outer loop
      vertex 1.35887 12.9288 -2.5
      vertex 1.35887 12.9288 2.5
      vertex -1.35887 12.9288 2.5
    endloop
  endfacet
  facet normal 0 -1 0
    outer loop
      vertex -1.35887 12.9288 -2.5
      vertex 1.35887 12.9288 -2.5
      vertex -1.35887 12.9288 2.5
    endloop
  endfacet
  facet normal -0.207912 -0.978148 0
    outer loop
      vertex 4.01722 12.3637 -2.5
      vertex 4.01722 12.3637 2.5
      vertex 1.35887 12.9288 2.5
    endloop
  endfacet
  facet normal -0.207912 -0.978148 0
    outer loop
      vertex 1.35887 12.9288 -2.5
      vertex 4.01722 12.3637 -2.5
      vertex 1.35887 12.9288 2.5
    endloop
  endfacet
  facet normal -0.406737 -0.913545 0
    outer loop
      vertex 6.5 11.2583 -2.5
      vertex 6.5 11.2583 2.5
      vertex 4.01722 12.3637 2.5
    endloop
  endfacet
  facet normal -0.406737 -0.913545 0
    outer loop
      vertex 4.01722 12.3637 -2.5
      vertex 6.5 11.2583 -2.5
      vertex 4.01722 12.3637 2.5
    endloop
  endfacet
  facet normal -0.587785 -0.809017 0
    outer loop
      vertex 8.6987 9.66088 -2.5
      vertex 8.6987 9.66088 2.5
      vertex 6.5 11.2583 2.5
    endloop
  endfacet
  facet normal -0.587785 -0.809017 0
    outer loop
      vertex 6.5 11.2583 -2.5
      vertex 8.6987 9.66088 -2.5
      vertex 6.5 11.2583 2.5
    endloop
  endfacet
  facet normal -0.743145 -0.66913 0
    outer loop
      vertex 10.5172 7.64121 2.5
      vertex 8.6987 9.66088 2.5
      vertex 10.5172 7.64121 -2.5
    endloop
  endfacet
  facet normal -0.743145 -0.66913 0
    outer loop
      vertex 10.5172 7.64121 -2.5
      vertex 8.6987 9.66088 2.5
      vertex 8.6987 9.66088 -2.5
    endloop
  endfacet
  facet normal -0.866025 -0.5 0
    outer loop
      vertex 11.8761 5.28758 2.5
      vertex 10.5172 7.64121 2.5
      vertex 11.8761 5.28758 -2.5
    endloop
  endfacet
  facet normal -0.866025 -0.5 0
    outer loop
      vertex 11.8761 5.28758 -2.5
      vertex 10.5172 7.64121 2.5
      vertex 10.5172 7.64121 -2.5
    endloop
  endfacet
  facet normal -0.951056 -0.309017 0
    outer loop
      vertex 12.7159 2.70285 2.5
      vertex 11.8761 5.28758 2.5
      vertex 12.7159 2.70285 -2.5
    endloop
  endfacet
  facet normal -0.951056 -0.309017 0
    outer loop
      vertex 12.7159 2.70285 -2.5
      vertex 11.8761 5.28758 2.5
      vertex 11.8761 5.28758 -2.5
    endloop
  endfacet
  facet normal -0.994522 -0.104528 0
    outer loop
      vertex 13 0 2.5
      vertex 12.7159 2.70285 2.5
      vertex 13 0 -2.5
    endloop
  endfacet
  facet normal -0.994522 -0.104528 0
    outer loop
      vertex 13 0 -2.5
      vertex 12.7159 2.70285 2.5
      vertex 12.7159 2.70285 -2.5
    endloop
  endfacet
  facet normal -0.994522 0.104528 0
    outer loop
      vertex 13 0 2.5
      vertex 13 0 -2.5
      vertex 12.7159 -2.70285 2.5
    endloop
  endfacet
  facet normal -0.994522 0.104528 0
    outer loop
      vertex 12.7159 -2.70285 2.5
      vertex 13 0 -2.5
      vertex 12.7159 -2.70285 -2.5
    endloop
  endfacet
  facet normal -0.951056 0.309017 0
    outer loop
      vertex 12.7159 -2.70285 2.5
      vertex 12.7159 -2.70285 -2.5
      vertex 11.8761 -5.28758 2.5
    endloop
  endfacet
  facet normal -0.951056 0.309017 0
    outer loop
      vertex 11.8761 -5.28758 2.5
      vertex 12.7159 -2.70285 -2.5
      vertex 11.8761 -5.28758 -2.5
    endloop
  endfacet
  facet normal -0.866025 0.5 0
    outer loop
      vertex 11.8761 -5.28758 2.5
      vertex 11.8761 -5.28758 -2.5
      vertex 10.5172 -7.64121 2.5
    endloop
  endfacet
  facet normal -0.866025 0.5 0
    outer loop
      vertex 10.5172 -7.64121 2.5
      vertex 11.8761 -5.28758 -2.5
      vertex 10.5172 -7.64121 -2.5
    endloop
  endfacet
  facet normal -0.743145 0.66913 0
    outer loop
      vertex 10.5172 -7.64121 2.5
      vertex 10.5172 -7.64121 -2.5
      vertex 8.6987 -9.66088 2.5
    endloop
  endfacet
  facet normal -0.743145 0.66913 0
    outer loop
      vertex 8.6987 -9.66088 2.5
      vertex 10.5172 -7.64121 -2.5
      vertex 8.6987 -9.66088 -2.5
    endloop
  endfacet
  facet normal -0.587785 0.809017 0
    outer loop
      vertex 8.6987 -9.66088 2.5
      vertex 8.6987 -9.66088 -2.5
      vertex 6.5 -11.2583 2.5
    endloop
  endfacet
  facet normal -0.587785 0.809017 0
    outer loop
      vertex 6.5 -11.2583 2.5
      vertex 8.6987 -9.66088 -2.5
      vertex 6.5 -11.2583 -2.5
    endloop
  endfacet
  facet normal -0.406737 0.913545 0
    outer loop
      vertex 6.5 -11.2583 2.5
      vertex 6.5 -11.2583 -2.5
      vertex 4.01722 -12.3637 2.5
    endloop
  endfacet
  facet normal -0.406737 0.913545 0
    outer loop
      vertex 4.01722 -12.3637 2.5
      vertex 6.5 -11.2583 -2.5
      vertex 4.01722 -12.3637 -2.5
    endloop
  endfacet
  facet normal -0.207912 0.978148 0
    outer loop
      vertex 4.01722 -12.3637 2.5
      vertex 4.01722 -12.3637 -2.5
      vertex 1.35887 -12.9288 2.5
    endloop
  endfacet
  facet normal -0.207912 0.978148 0
    outer loop
      vertex 1.35887 -12.9288 2.5
      vertex 4.01722 -12.3637 -2.5
      vertex 1.35887 -12.9288 -2.5
    endloop
  endfacet
  facet normal 0 1 0
    outer loop
      vertex 1.35887 -12.9288 2.5
      vertex 1.35887 -12.9288 -2.5
      vertex -1.35887 -12.9288 2.5
    endloop
  endfacet
  facet normal 0 1 0
    outer loop
      vertex -1.35887 -12.9288 2.5
      vertex 1.35887 -12.9288 -2.5
      vertex -1.35887 -12.9288 -2.5
    endloop
  endfacet
  facet normal 0.207912 0.978148 0
    outer loop
      vertex -1.35887 -12.9288 2.5
      vertex -1.35887 -12.9288 -2.5
      vertex -4.01722 -12.3637 2.5
    endloop
  endfacet
  facet normal 0.207912 0.978148 0
    outer loop
      vertex -4.01722 -12.3637 2.5
      vertex -1.35887 -12.9288 -2.5
      vertex -4.01722 -12.3637 -2.5
    endloop
  endfacet
  facet normal 0.406737 0.913545 0
    outer loop
      vertex -4.01722 -12.3637 2.5
      vertex -4.01722 -12.3637 -2.5
      vertex -6.5 -11.2583 2.5
    endloop
  endfacet
  facet normal 0.406737 0.913545 0
    outer loop
      vertex -6.5 -11.2583 2.5
      vertex -4.01722 -12.3637 -2.5
      vertex -6.5 -11.2583 -2.5
    endloop
  endfacet
  facet normal 0.587785 0.809017 0
    outer loop
      vertex -6.5 -11.2583 2.5
      vertex -6.5 -11.2583 -2.5
      vertex -8.6987 -9.66088 2.5
    endloop
  endfacet
  facet normal 0.587785 0.809017 0
    outer loop
      vertex -8.6987 -9.66088 2.5
      vertex -6.5 -11.2583 -2.5
      vertex -8.6987 -9.66088 -2.5
    endloop
  endfacet
  facet normal 0.743145 0.66913 0
    outer loop
      vertex -10.5172 -7.64121 2.5
      vertex -8.6987 -9.66088 2.5
      vertex -8.6987 -9.66088 -2.5
    endloop
  endfacet
  facet normal 0.743145 0.66913 0
    outer loop
      vertex -10.5172 -7.64121 -2.5
      vertex -10.5172 -7.64121 2.5
      vertex -8.6987 -9.66088 -2.5
    endloop
  endfacet
  facet normal 0.866025 0.5 0
    outer loop
      vertex -11.8761 -5.28758 2.5
      vertex -10.5172 -7.64121 2.5
      vertex -10.5172 -7.64121 -2.5
    endloop
  endfacet
  facet normal 0.866025 0.5 0
    outer loop
      vertex -11.8761 -5.28758 -2.5
      vertex -11.8761 -5.28758 2.5
      vertex -10.5172 -7.64121 -2.5
    endloop
  endfacet
  facet normal 0.951056 0.309017 0
    outer loop
      vertex -12.7159 -2.70285 2.5
      vertex -11.8761 -5.28758 2.5
      vertex -11.8761 -5.28758 -2.5
    endloop
  endfacet
  facet normal 0.951056 0.309017 0
    outer loop
      vertex -12.7159 -2.70285 -2.5
      vertex -12.7159 -2.70285 2.5
      vertex -11.8761 -5.28758 -2.5
    endloop
  endfacet
  facet normal 0.707107 -0.707107 0
    outer loop
      vertex 12.0915 -9.82878 -2.5
      vertex 12.0915 -9.82878 2.5
      vertex 9.82878 -12.0915 2.5
    endloop
  endfacet
  facet normal 0.707107 -0.707107 0
    outer loop
      vertex 9.82878 -12.0915 -2.5
      vertex 12.0915 -9.82878 -2.5
      vertex 9.82878 -12.0915 2.5
    endloop
  endfacet
  facet normal -0.707107 -0.707107 0
    outer loop
      vertex 18.4555 -16.1927 2.5
      vertex 12.0915 -9.82878 2.5
      vertex 18.4555 -16.1927 -2.5
    endloop
  endfacet
  facet normal -0.707107 -0.707107 0
    outer loop
      vertex 18.4555 -16.1927 -2.5
      vertex 12.0915 -9.82878 2.5
      vertex 12.0915 -9.82878 -2.5
    endloop
  endfacet
  facet normal -0.707107 0.707107 0
    outer loop
      vertex 18.4555 -16.1927 2.5
      vertex 18.4555 -16.1927 -2.5
      vertex 16.1927 -18.4555 2.5
    endloop
  endfacet
  facet normal -0.707107 0.707107 0
    outer loop
      vertex 16.1927 -18.4555 2.5
      vertex 18.4555 -16.1927 -2.5
      vertex 16.1927 -18.4555 -2.5
    endloop
  endfacet
  facet normal 0.707107 0.707107 0
    outer loop
      vertex 9.82878 -12.0915 2.5
      vertex 16.1927 -18.4555 2.5
      vertex 16.1927 -18.4555 -2.5
    endloop
  endfacet
  facet normal 0.707107 0.707107 0
    outer loop
      vertex 9.82878 -12.0915 -2.5
      vertex 9.82878 -12.0915 2.5
      vertex 16.1927 -18.4555 -2.5
    endloop
  endfacet
  facet normal 0.707107 0.707107 0
    outer loop
      vertex 12.0915 9.82878 2.5
      vertex 12.0915 9.82878 -2.5
      vertex 9.82878 12.0915 2.5
    endloop
  endfacet
  facet normal 0.707107 0.707107 0
    outer loop
      vertex 9.82878 12.0915 2.5
      vertex 12.0915 9.82878 -2.5
      vertex 9.82878 12.0915 -2.5
    endloop
  endfacet
  facet normal 0.707107 -0.707107 0
    outer loop
      vertex 16.1927 18.4555 -2.5
      vertex 16.1927 18.4555 2.5
      vertex 9.82878 12.0915 2.5
    endloop
  endfacet
  facet normal 0.707107 -0.707107 0
    outer loop
      vertex 9.82878 12.0915 -2.5
      vertex 16.1927 18.4555 -2.5
      vertex 9.82878 12.0915 2.5
    endloop
  endfacet
  facet normal -0.707107 -0.707107 0
    outer loop
      vertex 18.4555 16.1927 -2.5
      vertex 18.4555 16.1927 2.5
      vertex 16.1927 18.4555 2.5
    endloop
  endfacet
  facet normal -0.707107 -0.707107 0
    outer loop
      vertex 16.1927 18.4555 -2.5
      vertex 18.4555 16.1927 -2.5
      vertex 16.1927 18.4555 2.5
    endloop
  endfacet
  facet normal -0.707107 0.707107 0
    outer loop
      vertex 18.4555 16.1927 2.5
      vertex 18.4555 16.1927 -2.5
      vertex 12.0915 9.82878 2.5
    endloop
  endfacet
  facet normal -0.707107 0.707107 0
    outer loop
      vertex 12.0915 9.82878 2.5
      vertex 18.4555 16.1927 -2.5
      vertex 12.0915 9.82878 -2.5
    endloop
  endfacet
  facet normal 0.984808 -0.173648 0
    outer loop
      vertex 17.7377 1.91531 -2.5
      vertex 17.7377 1.91531 2.5
      vertex 17.4 0 2.5
    endloop
  endfacet
  facet normal 0.984808 -0.173648 0
    outer loop
      vertex 17.4 0 -2.5
      vertex 17.7377 1.91531 -2.5
      vertex 17.4 0 2.5
    endloop
  endfacet
  facet normal 0.984808 0.173648 0
    outer loop
      vertex 17.4 0 2.5
      vertex 17.7377 -1.91531 2.5
      vertex 17.7377 -1.91531 -2.5
    endloop
  endfacet
  facet normal 0.984808 0.173648 0
    outer loop
      vertex 17.4 0 -2.5
      vertex 17.4 0 2.5
      vertex 17.7377 -1.91531 -2.5
    endloop
  endfacet
  facet normal 0.866025 -0.5 0
    outer loop
      vertex 18.7102 3.59961 -2.5
      vertex 18.7102 3.59961 2.5
      vertex 17.7377 1.91531 2.5
    endloop
  endfacet
  facet normal 0.866025 -0.5 0
    outer loop
      vertex 17.7377 1.91531 -2.5
      vertex 18.7102 3.59961 -2.5
      vertex 17.7377 1.91531 2.5
    endloop
  endfacet
  facet normal 0.642787 -0.766045 0
    outer loop
      vertex 20.2 4.84974 -2.5
      vertex 20.2 4.84974 2.5
      vertex 18.7102 3.59961 2.5
    endloop
  endfacet
  facet normal 0.642787 -0.766045 0
    outer loop
      vertex 18.7102 3.59961 -2.5
      vertex 20.2 4.84974 -2.5
      vertex 18.7102 3.59961 2.5
    endloop
  endfacet
  facet normal 0.34202 -0.939693 0
    outer loop
      vertex 22.0276 5.51492 -2.5
      vertex 22.0276 5.51492 2.5
      vertex 20.2 4.84974 2.5
    endloop
  endfacet
  facet normal 0.34202 -0.939693 0
    outer loop
      vertex 20.2 4.84974 -2.5
      vertex 22.0276 5.51492 -2.5
      vertex 20.2 4.84974 2.5
    endloop
  endfacet
  facet normal 0 -1 0
    outer loop
      vertex 23.9724 5.51492 -2.5
      vertex 23.9724 5.51492 2.5
      vertex 22.0276 5.51492 2.5
    endloop
  endfacet
  facet normal 0 -1 0
    outer loop
      vertex 22.0276 5.51492 -2.5
      vertex 23.9724 5.51492 -2.5
      vertex 22.0276 5.51492 2.5
    endloop
  endfacet
  facet normal -0.34202 -0.939693 0
    outer loop
      vertex 25.8 4.84974 -2.5
      vertex 25.8 4.84974 2.5
      vertex 23.9724 5.51492 2.5
    endloop
  endfacet
  facet normal -0.34202 -0.939693 0
    outer loop
      vertex 23.9724 5.51492 -2.5
      vertex 25.8 4.84974 -2.5
      vertex 23.9724 5.51492 2.5
    endloop
  endfacet
  facet normal -0.642787 -0.766045 0
    outer loop
      vertex 27.2898 3.59961 -2.5
      vertex 27.2898 3.59961 2.5
      vertex 25.8 4.84974 2.5
    endloop
  endfacet
  facet normal -0.642787 -0.766045 0
    outer loop
      vertex 25.8 4.84974 -2.5
      vertex 27.2898 3.59961 -2.5
      vertex 25.8 4.84974 2.5
    endloop
  endfacet
  facet normal -0.866025 -0.5 0
    outer loop
      vertex 28.2623 1.91531 2.5
      vertex 27.2898 3.59961 2.5
      vertex 28.2623 1.91531 -2.5
    endloop
  endfacet
  facet normal -0.866025 -0.5 0
    outer loop
      vertex 28.2623 1.91531 -2.5
      vertex 27.2898 3.59961 2.5
      vertex 27.2898 3.59961 -2.5
    endloop
  endfacet
  facet normal -0.984808 -0.173648 0
    outer loop
      vertex 28.6 0 2.5
      vertex 28.2623 1.91531 2.5
      vertex 28.6 0 -2.5
    endloop
  endfacet
  facet normal -0.984808 -0.173648 0
    outer loop
      vertex 28.6 0 -2.5
      vertex 28.2623 1.91531 2.5
      vertex 28.2623 1.91531 -2.5
    endloop
  endfacet
  facet normal -0.984808 0.173648 0
    outer loop
      vertex 28.6 0 2.5
      vertex 28.6 0 -2.5
      vertex 28.2623 -1.91531 2.5
    endloop
  endfacet
  facet normal -0.984808 0.173648 0
    outer loop
      vertex 28.2623 -1.91531 2.5
      vertex 28.6 0 -2.5
      vertex 28.2623 -1.91531 -2.5
    endloop
  endfacet
  facet normal -0.866025 0.5 0
    outer loop
      vertex 28.2623 -1.91531 2.5
      vertex 28.2623 -1.91531 -2.5
      vertex 27.2898 -3.59961 2.5
    endloop
  endfacet
  facet normal -0.866025 0.5 0
    outer loop
      vertex 27.2898 -3.59961 2.5
      vertex 28.2623 -1.91531 -2.5
      vertex 27.2898 -3.59961 -2.5
    endloop
  endfacet
  facet normal -0.642787 0.766045 0
    outer loop
      vertex 27.2898 -3.59961 2.5
      vertex 27.2898 -3.59961 -2.5
      vertex 25.8 -4.84974 2.5
    endloop
  endfacet
  facet normal -0.642787 0.766045 0
    outer loop
      vertex 25.8 -4.84974 2.5
      vertex 27.2898 -3.59961 -2.5
      vertex 25.8 -4.84974 -2.5
    endloop
  endfacet
  facet normal -0.34202 0.939693 0
    outer loop
      vertex 25.8 -4.84974 2.5
      vertex 25.8 -4.84974 -2.5
      vertex 23.9724 -5.51492 2.5
    endloop
  endfacet
  facet normal -0.34202 0.939693 0
    outer loop
      vertex 23.9724 -5.51492 2.5
      vertex 25.8 -4.84974 -2.5
      vertex 23.9724 -5.51492 -2.5
    endloop
  endfacet
  facet normal 0 1 0
    outer loop
      vertex 23.9724 -5.51492 2.5
      vertex 23.9724 -5.51492 -2.5
      vertex 22.0276 -5.51492 2.5
    endloop
  endfacet
  facet normal 0 1 0
    outer loop
      vertex 22.0276 -5.51492 2.5
      vertex 23.9724 -5.51492 -2.5
      vertex 22.0276 -5.51492 -2.5
    endloop
  endfacet
  facet normal 0.34202 0.939693 0
    outer loop
      vertex 22.0276 -5.51492 2.5
      vertex 22.0276 -5.51492 -2.5
      vertex 20.2 -4.84974 2.5
    endloop
  endfacet
  facet normal 0.34202 0.939693 0
    outer loop
      vertex 20.2 -4.84974 2.5
      vertex 22.0276 -5.51492 -2.5
      vertex 20.2 -4.84974 -2.5
    endloop
  endfacet
  facet normal 0.642787 0.766045 0
    outer loop
      vertex 20.2 -4.84974 2.5
      vertex 20.2 -4.84974 -2.5
      vertex 18.7102 -3.59961 2.5
    endloop
  endfacet
  facet normal 0.642787 0.766045 0
    outer loop
      vertex 18.7102 -3.59961 2.5
      vertex 20.2 -4.84974 -2.5
      vertex 18.7102 -3.59961 -2.5
    endloop
  endfacet
  facet normal 0.866025 0.5 0
    outer loop
      vertex 17.7377 -1.91531 2.5
      vertex 18.7102 -3.59961 2.5
      vertex 18.7102 -3.59961 -2.5
    endloop
  endfacet
  facet normal 0.866025 0.5 0
    outer loop
      vertex 17.7377 -1.91531 -2.5
      vertex 17.7377 -1.91531 2.5
      vertex 18.7102 -3.59961 -2.5
    endloop
  endfacet
  facet normal 0.913545 -0.406737 0
    outer loop
      vertex 26.8594 -11.355 -2.5
      vertex 26.8594 -11.355 2.5
      vertex 26.0983 -13.0644 2.5
    endloop
  endfacet
  facet normal 0.913545 -0.406737 0
    outer loop
      vertex 26.0983 -13.0644 -2.5
      vertex 26.8594 -11.355 -2.5
      vertex 26.0983 -13.0644 2.5
    endloop
  endfacet
  facet normal 1 0 0
    outer loop
      vertex 26.0983 -13.0644 -2.5
      vertex 26.0983 -13.0644 2.5
      vertex 26.0983 -14.9356 2.5
    endloop
  endfacet
  facet normal 1 0 0
    outer loop
      vertex 26.0983 -14.9356 -2.5
      vertex 26.0983 -13.0644 -2.5
      vertex 26.0983 -14.9356 2.5
    endloop
  endfacet
  facet normal 0.669131 -0.743145 0
    outer loop
      vertex 28.25 -10.1029 -2.5
      vertex 28.25 -10.1029 2.5
      vertex 26.8594 -11.355 2.5
    endloop
  endfacet
  facet normal 0.669131 -0.743145 0
    outer loop
      vertex 26.8594 -11.355 -2.5
      vertex 28.25 -10.1029 -2.5
      vertex 26.8594 -11.355 2.5
    endloop
  endfacet
  facet normal 0.309017 -0.951056 0
    outer loop
      vertex 30.0296 -9.52465 -2.5
      vertex 30.0296 -9.52465 2.5
      vertex 28.25 -10.1029 2.5
    endloop
  endfacet
  facet normal 0.309017 -0.951056 0
    outer loop
      vertex 28.25 -10.1029 -2.5
      vertex 30.0296 -9.52465 -2.5
      vertex 28.25 -10.1029 2.5
    endloop
  endfacet
  facet normal -0.104529 -0.994522 0
    outer loop
      vertex 31.8906 -9.72025 -2.5
      vertex 31.8906 -9.72025 2.5
      vertex 30.0296 -9.52465 2.5
    endloop
  endfacet
  facet normal -0.104529 -0.994522 0
    outer loop
      vertex 30.0296 -9.52465 -2.5
      vertex 31.8906 -9.72025 -2.5
      vertex 30.0296 -9.52465 2.5
    endloop
  endfacet
  facet normal -0.5 -0.866026 0
    outer loop
      vertex 33.5111 -10.6558 -2.5
      vertex 33.5111 -10.6558 2.5
      vertex 31.8906 -9.72025 2.5
    endloop
  endfacet
  facet normal -0.5 -0.866026 0
    outer loop
      vertex 31.8906 -9.72025 -2.5
      vertex 33.5111 -10.6558 -2.5
      vertex 31.8906 -9.72025 2.5
    endloop
  endfacet
  facet normal -0.809017 -0.587785 0
    outer loop
      vertex 34.611 -12.1697 2.5
      vertex 33.5111 -10.6558 2.5
      vertex 34.611 -12.1697 -2.5
    endloop
  endfacet
  facet normal -0.809017 -0.587785 0
    outer loop
      vertex 34.611 -12.1697 -2.5
      vertex 33.5111 -10.6558 2.5
      vertex 33.5111 -10.6558 -2.5
    endloop
  endfacet
  facet normal -0.978148 -0.207911 0
    outer loop
      vertex 35 -14 2.5
      vertex 34.611 -12.1697 2.5
      vertex 35 -14 -2.5
    endloop
  endfacet
  facet normal -0.978148 -0.207911 0
    outer loop
      vertex 35 -14 -2.5
      vertex 34.611 -12.1697 2.5
      vertex 34.611 -12.1697 -2.5
    endloop
  endfacet
  facet normal -0.978148 0.207911 0
    outer loop
      vertex 35 -14 2.5
      vertex 35 -14 -2.5
      vertex 34.611 -15.8303 2.5
    endloop
  endfacet
  facet normal -0.978148 0.207911 0
    outer loop
      vertex 34.611 -15.8303 2.5
      vertex 35 -14 -2.5
      vertex 34.611 -15.8303 -2.5
    endloop
  endfacet
  facet normal -0.809017 0.587785 0
    outer loop
      vertex 34.611 -15.8303 2.5
      vertex 34.611 -15.8303 -2.5
      vertex 33.5111 -17.3442 2.5
    endloop
  endfacet
  facet normal -0.809017 0.587785 0
    outer loop
      vertex 33.5111 -17.3442 2.5
      vertex 34.611 -15.8303 -2.5
      vertex 33.5111 -17.3442 -2.5
    endloop
  endfacet
  facet normal -0.5 0.866026 0
    outer loop
      vertex 33.5111 -17.3442 2.5
      vertex 33.5111 -17.3442 -2.5
      vertex 31.8906 -18.2798 2.5
    endloop
  endfacet
  facet normal -0.5 0.866026 0
    outer loop
      vertex 31.8906 -18.2798 2.5
      vertex 33.5111 -17.3442 -2.5
      vertex 31.8906 -18.2798 -2.5
    endloop
  endfacet
  facet normal -0.104529 0.994522 0
    outer loop
      vertex 31.8906 -18.2798 2.5
      vertex 31.8906 -18.2798 -2.5
      vertex 30.0296 -18.4753 2.5
    endloop
  endfacet
  facet normal -0.104529 0.994522 0
    outer loop
      vertex 30.0296 -18.4753 2.5
      vertex 31.8906 -18.2798 -2.5
      vertex 30.0296 -18.4753 -2.5
    endloop
  endfacet
  facet normal 0.309017 0.951056 0
    outer loop
      vertex 30.0296 -18.4753 2.5
      vertex 30.0296 -18.4753 -2.5
      vertex 28.25 -17.8971 2.5
    endloop
  endfacet
  facet normal 0.309017 0.951056 0
    outer loop
      vertex 28.25 -17.8971 2.5
      vertex 30.0296 -18.4753 -2.5
      vertex 28.25 -17.8971 -2.5
    endloop
  endfacet
  facet normal 0.669131 0.743145 0
    outer loop
      vertex 28.25 -17.8971 2.5
      vertex 28.25 -17.8971 -2.5
      vertex 26.8594 -16.645 2.5
    endloop
  endfacet
  facet normal 0.669131 0.743145 0
    outer loop
      vertex 26.8594 -16.645 2.5
      vertex 28.25 -17.8971 -2.5
      vertex 26.8594 -16.645 -2.5
    endloop
  endfacet
  facet normal 0.913545 0.406737 0
    outer loop
      vertex 26.0983 -14.9356 2.5
      vertex 26.8594 -16.645 2.5
      vertex 26.8594 -16.645 -2.5
    endloop
  endfacet
  facet normal 0.913545 0.406737 0
    outer loop
      vertex 26.0983 -14.9356 -2.5
      vertex 26.0983 -14.9356 2.5
      vertex 26.8594 -16.645 -2.5
    endloop
  endfacet
  facet normal 0.913545 -0.406737 0
    outer loop
      vertex 26.8594 16.645 -2.5
      vertex 26.8594 16.645 2.5
      vertex 26.0983 14.9356 2.5
    endloop
  endfacet
  facet normal 0.913545 -0.406737 0
    outer loop
      vertex 26.0983 14.9356 -2.5
      vertex 26.8594 16.645 -2.5
      vertex 26.0983 14.9356 2.5
    endloop
  endfacet
  facet normal 1 0 0
    outer loop
      vertex 26.0983 14.9356 -2.5
      vertex 26.0983 14.9356 2.5
      vertex 26.0983 13.0644 2.5
    endloop
  endfacet
  facet normal 1 0 0
    outer loop
      vertex 26.0983 13.0644 -2.5
      vertex 26.0983 14.9356 -2.5
      vertex 26.0983 13.0644 2.5
    endloop
  endfacet
  facet normal 0.669131 -0.743145 0
    outer loop
      vertex 28.25 17.8971 -2.5
      vertex 28.25 17.8971 2.5
      vertex 26.8594 16.645 2.5
    endloop
  endfacet
  facet normal 0.669131 -0.743145 0
    outer loop
      vertex 26.8594 16.645 -2.5
      vertex 28.25 17.8971 -2.5
      vertex 26.8594 16.645 2.5
    endloop
  endfacet
  facet normal 0.309017 -0.951056 0
    outer loop
      vertex 30.0296 18.4753 -2.5
      vertex 30.0296 18.4753 2.5
      vertex 28.25 17.8971 2.5
    endloop
  endfacet
  facet normal 0.309017 -0.951056 0
    outer loop
      vertex 28.25 17.8971 -2.5
      vertex 30.0296 18.4753 -2.5
      vertex 28.25 17.8971 2.5
    endloop
  endfacet
  facet normal -0.104529 -0.994522 0
    outer loop
      vertex 31.8906 18.2798 -2.5
      vertex 31.8906 18.2798 2.5
      vertex 30.0296 18.4753 2.5
    endloop
  endfacet
  facet normal -0.104529 -0.994522 0
    outer loop
      vertex 30.0296 18.4753 -2.5
      vertex 31.8906 18.2798 -2.5
      vertex 30.0296 18.4753 2.5
    endloop
  endfacet
  facet normal -0.5 -0.866026 0
    outer loop
      vertex 33.5111 17.3442 -2.5
      vertex 33.5111 17.3442 2.5
      vertex 31.8906 18.2798 2.5
    endloop
  endfacet
  facet normal -0.5 -0.866026 0
    outer loop
      vertex 31.8906 18.2798 -2.5
      vertex 33.5111 17.3442 -2.5
      vertex 31.8906 18.2798 2.5
    endloop
  endfacet
  facet normal -0.809017 -0.587785 0
    outer loop
      vertex 34.611 15.8303 2.5
      vertex 33.5111 17.3442 2.5
      vertex 34.611 15.8303 -2.5
    endloop
  endfacet
  facet normal -0.809017 -0.587785 0
    outer loop
      vertex 34.611 15.8303 -2.5
      vertex 33.5111 17.3442 2.5
      vertex 33.5111 17.3442 -2.5
    endloop
  endfacet
  facet normal -0.978148 -0.207911 0
    outer loop
      vertex 35 14 2.5
      vertex 34.611 15.8303 2.5
      vertex 35 14 -2.5
    endloop
  endfacet
  facet normal -0.978148 -0.207911 0
    outer loop
      vertex 35 14 -2.5
      vertex 34.611 15.8303 2.5
      vertex 34.611 15.8303 -2.5
    endloop
  endfacet
  facet normal -0.978148 0.207911 0
    outer loop
      vertex 35 14 2.5
      vertex 35 14 -2.5
      vertex 34.611 12.1697 2.5
    endloop
  endfacet
  facet normal -0.978148 0.207911 0
    outer loop
      vertex 34.611 12.1697 2.5
      vertex 35 14 -2.5
      vertex 34.611 12.1697 -2.5
    endloop
  endfacet
  facet normal -0.809017 0.587785 0
    outer loop
      vertex 34.611 12.1697 2.5
      vertex 34.611 12.1697 -2.5
      vertex 33.5111 10.6558 2.5
    endloop
  endfacet
  facet normal -0.809017 0.587785 0
    outer loop
      vertex 33.5111 10.6558 2.5
      vertex 34.611 12.1697 -2.5
      vertex 33.5111 10.6558 -2.5
    endloop
  endfacet
  facet normal -0.5 0.866026 0
    outer loop
      vertex 33.5111 10.6558 2.5
      vertex 33.5111 10.6558 -2.5
      vertex 31.8906 9.72025 2.5
    endloop
  endfacet
  facet normal -0.5 0.866026 0
    outer loop
      vertex 31.8906 9.72025 2.5
      vertex 33.5111 10.6558 -2.5
      vertex 31.8906 9.72025 -2.5
    endloop
  endfacet
  facet normal -0.104529 0.994522 0
    outer loop
      vertex 31.8906 9.72025 2.5
      vertex 31.8906 9.72025 -2.5
      vertex 30.0296 9.52465 2.5
    endloop
  endfacet
  facet normal -0.104529 0.994522 0
    outer loop
      vertex 30.0296 9.52465 2.5
      vertex 31.8906 9.72025 -2.5
      vertex 30.0296 9.52465 -2.5
    endloop
  endfacet
  facet normal 0.309017 0.951056 0
    outer loop
      vertex 30.0296 9.52465 2.5
      vertex 30.0296 9.52465 -2.5
      vertex 28.25 10.1029 2.5
    endloop
  endfacet
  facet normal 0.309017 0.951056 0
    outer loop
      vertex 28.25 10.1029 2.5
      vertex 30.0296 9.52465 -2.5
      vertex 28.25 10.1029 -2.5
    endloop
  endfacet
  facet normal 0.669131 0.743145 0
    outer loop
      vertex 28.25 10.1029 2.5
      vertex 28.25 10.1029 -2.5
      vertex 26.8594 11.355 2.5
    endloop
  endfacet
  facet normal 0.669131 0.743145 0
    outer loop
      vertex 26.8594 11.355 2.5
      vertex 28.25 10.1029 -2.5
      vertex 26.8594 11.355 -2.5
    endloop
  endfacet
  facet normal 0.913545 0.406737 0
    outer loop
      vertex 26.0983 13.0644 2.5
      vertex 26.8594 11.355 2.5
      vertex 26.8594 11.355 -2.5
    endloop
  endfacet
  facet normal 0.913545 0.406737 0
    outer loop
      vertex 26.0983 13.0644 -2.5
      vertex 26.0983 13.0644 2.5
      vertex 26.8594 11.355 -2.5
    endloop
  endfacet
endsolid OpenSCAD_Model
