solid OpenSCAD_Model
  facet normal -1 0 0
    outer loop
      vertex -21.5 -21.5 0
      vertex -21.5 -21.5 5
      vertex -21.5 21.5 0
    endloop
  endfacet
  facet normal -1 0 0
    outer loop
      vertex -21.5 21.5 0
      vertex -21.5 -21.5 5
      vertex -21.5 21.5 5
    endloop
  endfacet
  facet normal 0 -1 0
    outer loop
      vertex -21.5 -21.5 5
      vertex -21.5 -21.5 0
      vertex 25.5451 -21.5 0
    endloop
  endfacet
  facet normal 0 -1 0
    outer loop
      vertex 25.5451 -21.5 5
      vertex -21.5 -21.5 5
      vertex 25.5451 -21.5 0
    endloop
  endfacet
  facet normal 0 0 -1
    outer loop
      vertex -16.1927 18.4555 0
      vertex -21.5 21.5 0
      vertex 25.5451 21.5 0
    endloop
  endfacet
  facet normal 0 0 -1
    outer loop
      vertex 26.0983 14.9356 0
      vertex 25.5451 21.5 0
      vertex 27.1688 22.3608 0
    endloop
  endfacet
  facet normal 0 0 -1
    outer loop
      vertex 28.25 17.8971 0
      vertex 27.1688 22.3608 0
      vertex 29.044 22.8814 0
    endloop
  endfacet
  facet normal 0 0 -1
    outer loop
      vertex 31.8906 18.2798 0
      vertex 30.9872 22.9868 0
      vertex 32.9078 22.6719 0
    endloop
  endfacet
  facet normal 0 0 -1
    outer loop
      vertex 33.5111 17.3442 0
      vertex 32.9078 22.6719 0
      vertex 34.7157 21.9516 0
    endloop
  endfacet
  facet normal 0 0 -1
    outer loop
      vertex 34.611 15.8303 0
      vertex 34.7157 21.9516 0
      vertex 36.3265 20.8595 0
    endloop
  endfacet
  facet normal 0 0 -1
    outer loop
      vertex 35 14 0
      vertex 36.3265 20.8595 0
      vertex 37.6648 19.4466 0
    endloop
  endfacet
  facet normal 0 0 -1
    outer loop
      vertex 34.7157 6.04839 0
      vertex 37.6648 19.4466 0
      vertex 38.6682 17.779 0
    endloop
  endfacet
  facet normal 0 0 -1
    outer loop
      vertex 34.5 -5.96246 0
      vertex 31.8906 -9.72025 0
      vertex 30.0296 -9.52465 0
    endloop
  endfacet
  facet normal 0 0 -1
    outer loop
      vertex 36.3265 7.14054 0
      vertex 39.2896 15.9347 0
      vertex 39.5 14 0
    endloop
  endfacet
  facet normal 0 0 -1
    outer loop
      vertex 37.6648 8.55343 0
      vertex 39.5 14 0
      vertex 39.2896 12.0653 0
    endloop
  endfacet
  facet normal 0 0 -1
    outer loop
      vertex -12.7159 -2.70285 0
      vertex -18.4555 16.1927 0
      vertex -13 0 0
    endloop
  endfacet
  facet normal 0 0 -1
    outer loop
      vertex 34.7157 6.04839 0
      vertex 39.2896 15.9347 0
      vertex 36.3265 7.14054 0
    endloop
  endfacet
  facet normal 0 0 -1
    outer loop
      vertex 36.3265 7.14054 0
      vertex 39.5 14 0
      vertex 37.6648 8.55343 0
    endloop
  endfacet
  facet normal 0 0 -1
    outer loop
      vertex 34.5 -5.96246 0
      vertex 30.0296 -9.52465 0
      vertex 34.5 5.96246 0
    endloop
  endfacet
  facet normal 0 0 -1
    outer loop
      vertex 34.7157 6.04839 0
      vertex 38.6682 17.779 0
      vertex 39.2896 15.9347 0
    endloop
  endfacet
  facet normal 0 0 -1
    outer loop
      vertex 34.5 5.96246 0
      vertex 37.6648 19.4466 0
      vertex 34.7157 6.04839 0
    endloop
  endfacet
  facet normal 0 0 -1
    outer loop
      vertex 33.5111 -10.6558 0
      vertex 36.3265 -7.14054 0
      vertex 37.6648 -8.55343 0
    endloop
  endfacet
  facet normal 0 0 -1
    outer loop
      vertex 34.611 -12.1697 0
      vertex 38.6682 -10.221 0
      vertex 35 -14 0
    endloop
  endfacet
  facet normal 0 0 -1
    outer loop
      vertex 27.1688 -22.3608 0
      vertex 32.9078 -22.6719 0
      vertex 29.044 -22.8814 0
    endloop
  endfacet
  facet normal 0 0 -1
    outer loop
      vertex 33.5111 -10.6558 0
      vertex 34.7157 -6.04839 0
      vertex 36.3265 -7.14054 0
    endloop
  endfacet
  facet normal 0 0 -1
    outer loop
      vertex 28.25 -10.1029 0
      vertex 34.5 5.96246 0
      vertex 30.0296 -9.52465 0
    endloop
  endfacet
  facet normal 0 0 -1
    outer loop
      vertex 35 -14 0
      vertex 38.6682 -10.221 0
      vertex 39.2896 -12.0653 0
    endloop
  endfacet
  facet normal 0 0 -1
    outer loop
      vertex 34.611 -15.8303 0
      vertex 39.2896 -12.0653 0
      vertex 39.5 -14 0
    endloop
  endfacet
  facet normal 0 0 -1
    outer loop
      vertex 31.8906 -18.2798 0
      vertex 39.5 -14 0
      vertex 39.2896 -15.9347 0
    endloop
  endfacet
  facet normal 0 0 -1
    outer loop
      vertex 25.5451 -21.5 0
      vertex 39.2896 -15.9347 0
      vertex 38.6682 -17.779 0
    endloop
  endfacet
  facet normal 0 0 -1
    outer loop
      vertex 25.5451 -21.5 0
      vertex 38.6682 -17.779 0
      vertex 37.6648 -19.4466 0
    endloop
  endfacet
  facet normal 0 0 -1
    outer loop
      vertex 25.5451 -21.5 0
      vertex 37.6648 -19.4466 0
      vertex 36.3265 -20.8595 0
    endloop
  endfacet
  facet normal 0 0 -1
    outer loop
      vertex 25.5451 -21.5 0
      vertex 36.3265 -20.8595 0
      vertex 34.7157 -21.9516 0
    endloop
  endfacet
  facet normal 0 0 -1
    outer loop
      vertex 37.6648 8.55343 0
      vertex 39.2896 12.0653 0
      vertex 38.6682 10.221 0
    endloop
  endfacet
  facet normal 0 0 -1
    outer loop
      vertex -9.82878 -12.0915 0
      vertex 25.5451 -21.5 0
      vertex -16.1927 -18.4555 0
    endloop
  endfacet
  facet normal 0 0 -1
    outer loop
      vertex 32.9078 -22.6719 0
      vertex 30.9872 -22.9868 0
      vertex 29.044 -22.8814 0
    endloop
  endfacet
  facet normal 0 0 -1
    outer loop
      vertex 34.7157 -21.9516 0
      vertex 32.9078 -22.6719 0
      vertex 27.1688 -22.3608 0
    endloop
  endfacet
  facet normal 0 0 -1
    outer loop
      vertex -10.5172 7.64121 0
      vertex -12.0915 9.82878 0
      vertex -8.6987 9.66088 0
    endloop
  endfacet
  facet normal 0 0 -1
    outer loop
      vertex -21.5 -21.5 0
      vertex -21.5 21.5 0
      vertex -18.4555 -16.1927 0
    endloop
  endfacet
  facet normal 0 0 -1
    outer loop
      vertex 11.8761 -5.28758 0
      vertex 25.5451 -21.5 0
      vertex 10.5172 -7.64121 0
    endloop
  endfacet
  facet normal 0 0 -1
    outer loop
      vertex -21.5 -21.5 0
      vertex -18.4555 -16.1927 0
      vertex -16.1927 -18.4555 0
    endloop
  endfacet
  facet normal 0 0 -1
    outer loop
      vertex -21.5 -21.5 0
      vertex -16.1927 -18.4555 0
      vertex 25.5451 -21.5 0
    endloop
  endfacet
  facet normal 0 0 -1
    outer loop
      vertex -12.0915 -9.82878 0
      vertex -21.5 21.5 0
      vertex -9.82878 -12.0915 0
    endloop
  endfacet
  facet normal 0 0 -1
    outer loop
      vertex -18.4555 16.1927 0
      vertex -21.5 21.5 0
      vertex -16.1927 18.4555 0
    endloop
  endfacet
  facet normal 0 0 -1
    outer loop
      vertex -18.4555 -16.1927 0
      vertex -21.5 21.5 0
      vertex -12.0915 -9.82878 0
    endloop
  endfacet
  facet normal 0 0 -1
    outer loop
      vertex 16.1927 18.4555 0
      vertex -16.1927 18.4555 0
      vertex 25.5451 21.5 0
    endloop
  endfacet
  facet normal 0 0 -1
    outer loop
      vertex -12.7159 -2.70285 0
      vertex -21.5 21.5 0
      vertex -18.4555 16.1927 0
    endloop
  endfacet
  facet normal 0 0 -1
    outer loop
      vertex -13 0 0
      vertex -18.4555 16.1927 0
      vertex -12.0915 9.82878 0
    endloop
  endfacet
  facet normal 0 0 -1
    outer loop
      vertex 1.35887 -12.9288 0
      vertex 16.1927 -18.4555 0
      vertex -1.35887 -12.9288 0
    endloop
  endfacet
  facet normal 0 0 -1
    outer loop
      vertex -12.7159 2.70285 0
      vertex -13 0 0
      vertex -12.0915 9.82878 0
    endloop
  endfacet
  facet normal 0 0 -1
    outer loop
      vertex -9.82878 -12.0915 0
      vertex -21.5 21.5 0
      vertex -12.7159 -2.70285 0
    endloop
  endfacet
  facet normal 0 0 -1
    outer loop
      vertex -10.5172 -7.64121 0
      vertex -9.82878 -12.0915 0
      vertex -11.8761 -5.28758 0
    endloop
  endfacet
  facet normal 0 0 -1
    outer loop
      vertex 9.82878 12.0915 0
      vertex 6.5 11.2583 0
      vertex 4.01722 12.3637 0
    endloop
  endfacet
  facet normal 0 0 -1
    outer loop
      vertex -8.6987 -9.66088 0
      vertex -9.82878 -12.0915 0
      vertex -10.5172 -7.64121 0
    endloop
  endfacet
  facet normal 0 0 -1
    outer loop
      vertex 16.1927 -18.4555 0
      vertex 25.5451 -21.5 0
      vertex -1.35887 -12.9288 0
    endloop
  endfacet
  facet normal 0 0 -1
    outer loop
      vertex 18.4555 -16.1927 0
      vertex 25.5451 -21.5 0
      vertex 16.1927 -18.4555 0
    endloop
  endfacet
  facet normal 0 0 -1
    outer loop
      vertex 12.0915 -9.82878 0
      vertex 25.5451 -21.5 0
      vertex 18.4555 -16.1927 0
    endloop
  endfacet
  facet normal 0 0 -1
    outer loop
      vertex -9.82878 -12.0915 0
      vertex -8.6987 -9.66088 0
      vertex -6.5 -11.2583 0
    endloop
  endfacet
  facet normal 0 0 -1
    outer loop
      vertex -9.82878 -12.0915 0
      vertex -6.5 -11.2583 0
      vertex -4.01722 -12.3637 0
    endloop
  endfacet
  facet normal 0 0 -1
    outer loop
      vertex -9.82878 -12.0915 0
      vertex -4.01722 -12.3637 0
      vertex 25.5451 -21.5 0
    endloop
  endfacet
  facet normal 0 0 -1
    outer loop
      vertex -4.01722 -12.3637 0
      vertex -1.35887 -12.9288 0
      vertex 25.5451 -21.5 0
    endloop
  endfacet
  facet normal 0 0 -1
    outer loop
      vertex 10.5172 -7.64121 0
      vertex 25.5451 -21.5 0
      vertex 12.0915 -9.82878 0
    endloop
  endfacet
  facet normal 0 0 -1
    outer loop
      vertex -11.8761 5.28758 0
      vertex -12.0915 9.82878 0
      vertex -10.5172 7.64121 0
    endloop
  endfacet
  facet normal 0 0 -1
    outer loop
      vertex 20.2 -4.84974 0
      vertex 25.5451 -21.5 0
      vertex 18.7102 -3.59961 0
    endloop
  endfacet
  facet normal 0 0 -1
    outer loop
      vertex 16.1927 -18.4555 0
      vertex 1.35887 -12.9288 0
      vertex 4.01722 -12.3637 0
    endloop
  endfacet
  facet normal 0 0 -1
    outer loop
      vertex -9.82878 12.0915 0
      vertex -8.6987 9.66088 0
      vertex -12.0915 9.82878 0
    endloop
  endfacet
  facet normal 0 0 -1
    outer loop
      vertex -1.35887 12.9288 0
      vertex -16.1927 18.4555 0
      vertex 1.35887 12.9288 0
    endloop
  endfacet
  facet normal 0 0 -1
    outer loop
      vertex 18.7102 3.59961 0
      vertex 11.8761 -5.28758 0
      vertex 25.5451 21.5 0
    endloop
  endfacet
  facet normal 0 0 -1
    outer loop
      vertex -9.82878 12.0915 0
      vertex -16.1927 18.4555 0
      vertex -6.5 11.2583 0
    endloop
  endfacet
  facet normal 0 0 -1
    outer loop
      vertex 11.8761 -5.28758 0
      vertex 12.7159 -2.70285 0
      vertex 25.5451 21.5 0
    endloop
  endfacet
  facet normal 0 0 -1
    outer loop
      vertex -8.6987 9.66088 0
      vertex -9.82878 12.0915 0
      vertex -6.5 11.2583 0
    endloop
  endfacet
  facet normal 0 0 -1
    outer loop
      vertex 12.7159 -2.70285 0
      vertex 13 0 0
      vertex 25.5451 21.5 0
    endloop
  endfacet
  facet normal 0 0 -1
    outer loop
      vertex 13 0 0
      vertex 12.7159 2.70285 0
      vertex 25.5451 21.5 0
    endloop
  endfacet
  facet normal 0 0 -1
    outer loop
      vertex -6.5 11.2583 0
      vertex -16.1927 18.4555 0
      vertex -4.01722 12.3637 0
    endloop
  endfacet
  facet normal 0 0 -1
    outer loop
      vertex 12.7159 2.70285 0
      vertex 11.8761 5.28758 0
      vertex 25.5451 21.5 0
    endloop
  endfacet
  facet normal 0 0 -1
    outer loop
      vertex 11.8761 5.28758 0
      vertex 10.5172 7.64121 0
      vertex 25.5451 21.5 0
    endloop
  endfacet
  facet normal 0 0 -1
    outer loop
      vertex -4.01722 12.3637 0
      vertex -16.1927 18.4555 0
      vertex -1.35887 12.9288 0
    endloop
  endfacet
  facet normal 0 0 -1
    outer loop
      vertex 12.0915 9.82878 0
      vertex 8.6987 9.66088 0
      vertex 9.82878 12.0915 0
    endloop
  endfacet
  facet normal 0 0 -1
    outer loop
      vertex 1.35887 12.9288 0
      vertex -16.1927 18.4555 0
      vertex 4.01722 12.3637 0
    endloop
  endfacet
  facet normal 0 0 -1
    outer loop
      vertex 9.82878 12.0915 0
      vertex 4.01722 12.3637 0
      vertex 16.1927 18.4555 0
    endloop
  endfacet
  facet normal 0 0 -1
    outer loop
      vertex 9.82878 -12.0915 0
      vertex 8.6987 -9.66088 0
      vertex 12.0915 -9.82878 0
    endloop
  endfacet
  facet normal 0 0 -1
    outer loop
      vertex -11.8761 5.28758 0
      vertex -12.7159 2.70285 0
      vertex -12.0915 9.82878 0
    endloop
  endfacet
  facet normal 0 0 -1
    outer loop
      vertex 6.5 -11.2583 0
      vertex 8.6987 -9.66088 0
      vertex 9.82878 -12.0915 0
    endloop
  endfacet
  facet normal 0 0 -1
    outer loop
      vertex 27.2898 -3.59961 0
      vertex 26.0983 -13.0644 0
      vertex 25.8 -4.84974 0
    endloop
  endfacet
  facet normal 0 0 -1
    outer loop
      vertex 16.1927 -18.4555 0
      vertex 6.5 -11.2583 0
      vertex 9.82878 -12.0915 0
    endloop
  endfacet
  facet normal 0 0 -1
    outer loop
      vertex 10.5172 -7.64121 0
      vertex 12.0915 -9.82878 0
      vertex 8.6987 -9.66088 0
    endloop
  endfacet
  facet normal 0 0 -1
    outer loop
      vertex 26.0983 14.9356 0
      vertex 27.1688 22.3608 0
      vertex 26.8594 16.645 0
    endloop
  endfacet
  facet normal 0 0 -1
    outer loop
      vertex 16.1927 -18.4555 0
      vertex 4.01722 -12.3637 0
      vertex 6.5 -11.2583 0
    endloop
  endfacet
  facet normal 0 0 -1
    outer loop
      vertex 8.6987 9.66088 0
      vertex 6.5 11.2583 0
      vertex 9.82878 12.0915 0
    endloop
  endfacet
  facet normal 0 0 -1
    outer loop
      vertex 26.0983 -13.0644 0
      vertex 25.5451 -21.5 0
      vertex 25.8 -4.84974 0
    endloop
  endfacet
  facet normal 0 0 -1
    outer loop
      vertex 10.5172 7.64121 0
      vertex 8.6987 9.66088 0
      vertex 12.0915 9.82878 0
    endloop
  endfacet
  facet normal 0 0 -1
    outer loop
      vertex 10.5172 7.64121 0
      vertex 12.0915 9.82878 0
      vertex 25.5451 21.5 0
    endloop
  endfacet
  facet normal 0 0 -1
    outer loop
      vertex 16.1927 18.4555 0
      vertex 25.5451 21.5 0
      vertex 18.4555 16.1927 0
    endloop
  endfacet
  facet normal 0 0 -1
    outer loop
      vertex 12.0915 9.82878 0
      vertex 18.4555 16.1927 0
      vertex 25.5451 21.5 0
    endloop
  endfacet
  facet normal 0 0 -1
    outer loop
      vertex 4.01722 12.3637 0
      vertex -16.1927 18.4555 0
      vertex 16.1927 18.4555 0
    endloop
  endfacet
  facet normal 0 0 -1
    outer loop
      vertex 17.7377 -1.91531 0
      vertex 11.8761 -5.28758 0
      vertex 17.4 0 0
    endloop
  endfacet
  facet normal 0 0 -1
    outer loop
      vertex 25.5451 -21.5 0
      vertex 11.8761 -5.28758 0
      vertex 17.7377 -1.91531 0
    endloop
  endfacet
  facet normal 0 0 -1
    outer loop
      vertex 25.5451 -21.5 0
      vertex 17.7377 -1.91531 0
      vertex 18.7102 -3.59961 0
    endloop
  endfacet
  facet normal 0 0 -1
    outer loop
      vertex 25.8 -4.84974 0
      vertex 25.5451 -21.5 0
      vertex 23.9724 -5.51492 0
    endloop
  endfacet
  facet normal 0 0 -1
    outer loop
      vertex 25.5451 -21.5 0
      vertex 20.2 -4.84974 0
      vertex 22.0276 -5.51492 0
    endloop
  endfacet
  facet normal 0 0 -1
    outer loop
      vertex 25.5451 -21.5 0
      vertex 22.0276 -5.51492 0
      vertex 23.9724 -5.51492 0
    endloop
  endfacet
  facet normal 0 0 -1
    outer loop
      vertex 26.8594 -16.645 0
      vertex 25.5451 -21.5 0
      vertex 26.0983 -14.9356 0
    endloop
  endfacet
  facet normal 0 0 -1
    outer loop
      vertex 26.0983 -14.9356 0
      vertex 25.5451 -21.5 0
      vertex 26.0983 -13.0644 0
    endloop
  endfacet
  facet normal 0 0 -1
    outer loop
      vertex 33.5111 10.6558 0
      vertex 28.25 -10.1029 0
      vertex 31.8906 9.72025 0
    endloop
  endfacet
  facet normal 0 0 -1
    outer loop
      vertex 31.8906 9.72025 0
      vertex 28.2623 -1.91531 0
      vertex 28.6 0 0
    endloop
  endfacet
  facet normal 0 0 -1
    outer loop
      vertex 34.611 15.8303 0
      vertex 36.3265 20.8595 0
      vertex 35 14 0
    endloop
  endfacet
  facet normal 0 0 -1
    outer loop
      vertex 31.8906 9.72025 0
      vertex 28.6 0 0
      vertex 30.0296 9.52465 0
    endloop
  endfacet
  facet normal 0 0 -1
    outer loop
      vertex 28.25 17.8971 0
      vertex 29.044 22.8814 0
      vertex 30.9872 22.9868 0
    endloop
  endfacet
  facet normal 0 0 -1
    outer loop
      vertex 30.0296 9.52465 0
      vertex 28.6 0 0
      vertex 28.2623 1.91531 0
    endloop
  endfacet
  facet normal 0 0 -1
    outer loop
      vertex 26.8594 16.645 0
      vertex 27.1688 22.3608 0
      vertex 28.25 17.8971 0
    endloop
  endfacet
  facet normal 0 0 -1
    outer loop
      vertex 22.0276 5.51492 0
      vertex 25.5451 21.5 0
      vertex 23.9724 5.51492 0
    endloop
  endfacet
  facet normal 0 0 -1
    outer loop
      vertex 18.7102 3.59961 0
      vertex 25.5451 21.5 0
      vertex 20.2 4.84974 0
    endloop
  endfacet
  facet normal 0 0 -1
    outer loop
      vertex 22.0276 5.51492 0
      vertex 20.2 4.84974 0
      vertex 25.5451 21.5 0
    endloop
  endfacet
  facet normal 0 0 -1
    outer loop
      vertex 17.7377 1.91531 0
      vertex 11.8761 -5.28758 0
      vertex 18.7102 3.59961 0
    endloop
  endfacet
  facet normal 0 0 -1
    outer loop
      vertex 26.0983 -13.0644 0
      vertex 27.2898 -3.59961 0
      vertex 26.8594 -11.355 0
    endloop
  endfacet
  facet normal 0 0 -1
    outer loop
      vertex 17.4 0 0
      vertex 11.8761 -5.28758 0
      vertex 17.7377 1.91531 0
    endloop
  endfacet
  facet normal 0 0 -1
    outer loop
      vertex 26.8594 -11.355 0
      vertex 31.8906 9.72025 0
      vertex 28.25 -10.1029 0
    endloop
  endfacet
  facet normal 0 0 -1
    outer loop
      vertex 28.2623 -1.91531 0
      vertex 26.8594 -11.355 0
      vertex 27.2898 -3.59961 0
    endloop
  endfacet
  facet normal 0 0 -1
    outer loop
      vertex 28.25 -17.8971 0
      vertex 25.5451 -21.5 0
      vertex 26.8594 -16.645 0
    endloop
  endfacet
  facet normal 0 0 -1
    outer loop
      vertex 30.0296 -18.4753 0
      vertex 25.5451 -21.5 0
      vertex 28.25 -17.8971 0
    endloop
  endfacet
  facet normal 0 0 -1
    outer loop
      vertex 31.8906 -18.2798 0
      vertex 25.5451 -21.5 0
      vertex 30.0296 -18.4753 0
    endloop
  endfacet
  facet normal 0 0 -1
    outer loop
      vertex 33.5111 -17.3442 0
      vertex 39.5 -14 0
      vertex 31.8906 -18.2798 0
    endloop
  endfacet
  facet normal 0 0 -1
    outer loop
      vertex 25.5451 -21.5 0
      vertex 31.8906 -18.2798 0
      vertex 39.2896 -15.9347 0
    endloop
  endfacet
  facet normal 0 0 -1
    outer loop
      vertex 34.611 -15.8303 0
      vertex 39.5 -14 0
      vertex 33.5111 -17.3442 0
    endloop
  endfacet
  facet normal 0 0 -1
    outer loop
      vertex 35 -14 0
      vertex 39.2896 -12.0653 0
      vertex 34.611 -15.8303 0
    endloop
  endfacet
  facet normal 0 0 -1
    outer loop
      vertex 37.6648 -8.55343 0
      vertex 38.6682 -10.221 0
      vertex 34.611 -12.1697 0
    endloop
  endfacet
  facet normal 0 0 -1
    outer loop
      vertex 28.25 -10.1029 0
      vertex 37.6648 19.4466 0
      vertex 34.5 5.96246 0
    endloop
  endfacet
  facet normal 0 0 -1
    outer loop
      vertex 31.8906 -9.72025 0
      vertex 34.7157 -6.04839 0
      vertex 33.5111 -10.6558 0
    endloop
  endfacet
  facet normal 0 0 -1
    outer loop
      vertex 33.5111 -10.6558 0
      vertex 37.6648 -8.55343 0
      vertex 34.611 -12.1697 0
    endloop
  endfacet
  facet normal 0 0 -1
    outer loop
      vertex -11.8761 -5.28758 0
      vertex -9.82878 -12.0915 0
      vertex -12.7159 -2.70285 0
    endloop
  endfacet
  facet normal 0 0 -1
    outer loop
      vertex 28.25 -10.1029 0
      vertex 34.611 12.1697 0
      vertex 37.6648 19.4466 0
    endloop
  endfacet
  facet normal 0 0 -1
    outer loop
      vertex 25.8 4.84974 0
      vertex 25.5451 21.5 0
      vertex 26.0983 14.9356 0
    endloop
  endfacet
  facet normal 0 0 -1
    outer loop
      vertex 26.8594 11.355 0
      vertex 25.8 4.84974 0
      vertex 26.0983 13.0644 0
    endloop
  endfacet
  facet normal 0 0 -1
    outer loop
      vertex 25.8 4.84974 0
      vertex 26.0983 14.9356 0
      vertex 26.0983 13.0644 0
    endloop
  endfacet
  facet normal 0 0 -1
    outer loop
      vertex 28.25 10.1029 0
      vertex 27.2898 3.59961 0
      vertex 26.8594 11.355 0
    endloop
  endfacet
  facet normal 0 0 -1
    outer loop
      vertex 31.8906 9.72025 0
      vertex 26.8594 -11.355 0
      vertex 28.2623 -1.91531 0
    endloop
  endfacet
  facet normal 0 0 -1
    outer loop
      vertex 31.8906 -9.72025 0
      vertex 34.5 -5.96246 0
      vertex 34.7157 -6.04839 0
    endloop
  endfacet
  facet normal 0 0 -1
    outer loop
      vertex 34.611 12.1697 0
      vertex 28.25 -10.1029 0
      vertex 33.5111 10.6558 0
    endloop
  endfacet
  facet normal 0 0 -1
    outer loop
      vertex 34.611 12.1697 0
      vertex 35 14 0
      vertex 37.6648 19.4466 0
    endloop
  endfacet
  facet normal 0 0 -1
    outer loop
      vertex 33.5111 17.3442 0
      vertex 34.7157 21.9516 0
      vertex 34.611 15.8303 0
    endloop
  endfacet
  facet normal 0 0 -1
    outer loop
      vertex 31.8906 18.2798 0
      vertex 32.9078 22.6719 0
      vertex 33.5111 17.3442 0
    endloop
  endfacet
  facet normal 0 0 -1
    outer loop
      vertex 28.25 17.8971 0
      vertex 30.9872 22.9868 0
      vertex 30.0296 18.4753 0
    endloop
  endfacet
  facet normal 0 0 -1
    outer loop
      vertex 30.0296 18.4753 0
      vertex 30.9872 22.9868 0
      vertex 31.8906 18.2798 0
    endloop
  endfacet
  facet normal 0 0 -1
    outer loop
      vertex 25.8 4.84974 0
      vertex 26.8594 11.355 0
      vertex 27.2898 3.59961 0
    endloop
  endfacet
  facet normal 0 0 -1
    outer loop
      vertex 30.0296 9.52465 0
      vertex 27.2898 3.59961 0
      vertex 28.25 10.1029 0
    endloop
  endfacet
  facet normal 0 0 -1
    outer loop
      vertex 30.0296 9.52465 0
      vertex 28.2623 1.91531 0
      vertex 27.2898 3.59961 0
    endloop
  endfacet
  facet normal 0 0 -1
    outer loop
      vertex 23.9724 5.51492 0
      vertex 25.5451 21.5 0
      vertex 25.8 4.84974 0
    endloop
  endfacet
  facet normal 0 0 -1
    outer loop
      vertex 25.5451 -21.5 0
      vertex 34.7157 -21.9516 0
      vertex 27.1688 -22.3608 0
    endloop
  endfacet
  facet normal 0 1 0
    outer loop
      vertex -21.5 21.5 0
      vertex -21.5 21.5 5
      vertex 25.5451 21.5 0
    endloop
  endfacet
  facet normal 0 1 0
    outer loop
      vertex 25.5451 21.5 0
      vertex -21.5 21.5 5
      vertex 25.5451 21.5 5
    endloop
  endfacet
  facet normal 0 0 1
    outer loop
      vertex 25.8 -4.84974 5
      vertex 23.9724 -5.51492 5
      vertex 31.8906 -9.72025 5
    endloop
  endfacet
  facet normal 0 0 1
    outer loop
      vertex -16.1927 -18.4555 5
      vertex -21.5 -21.5 5
      vertex 25.5451 -21.5 5
    endloop
  endfacet
  facet normal 0 0 1
    outer loop
      vertex 18.4555 16.1927 5
      vertex 12.0915 9.82878 5
      vertex 34.5 5.96246 5
    endloop
  endfacet
  facet normal 0 0 1
    outer loop
      vertex 18.4555 16.1927 5
      vertex 34.7157 6.04839 5
      vertex 28.25 10.1029 5
    endloop
  endfacet
  facet normal 0 0 1
    outer loop
      vertex 11.8761 -5.28758 5
      vertex 30.9872 -22.9868 5
      vertex 32.9078 -22.6719 5
    endloop
  endfacet
  facet normal 0 0 1
    outer loop
      vertex -9.82878 12.0915 5
      vertex -12.0915 9.82878 5
      vertex -8.6987 9.66088 5
    endloop
  endfacet
  facet normal 0 0 1
    outer loop
      vertex 18.7102 3.59961 5
      vertex 12.0915 9.82878 5
      vertex 6.5 11.2583 5
    endloop
  endfacet
  facet normal 0 0 1
    outer loop
      vertex 27.2898 -3.59961 5
      vertex 39.2896 -12.0653 5
      vertex 38.6682 -10.221 5
    endloop
  endfacet
  facet normal 0 0 1
    outer loop
      vertex 27.2898 -3.59961 5
      vertex 25.8 -4.84974 5
      vertex 39.2896 -12.0653 5
    endloop
  endfacet
  facet normal 0 0 1
    outer loop
      vertex 36.3265 -7.14054 5
      vertex 34.7157 -6.04839 5
      vertex 34.5 -5.96246 5
    endloop
  endfacet
  facet normal 0 0 1
    outer loop
      vertex 9.82878 12.0915 5
      vertex 16.1927 18.4555 5
      vertex -21.5 21.5 5
    endloop
  endfacet
  facet normal 0 0 1
    outer loop
      vertex 17.7377 -1.91531 5
      vertex 17.4 0 5
      vertex 12.7159 2.70285 5
    endloop
  endfacet
  facet normal 0 0 1
    outer loop
      vertex 33.5111 17.3442 5
      vertex 34.611 15.8303 5
      vertex 39.2896 15.9347 5
    endloop
  endfacet
  facet normal 0 0 1
    outer loop
      vertex 30.0296 18.4753 5
      vertex 37.6648 19.4466 5
      vertex -21.5 21.5 5
    endloop
  endfacet
  facet normal 0 0 1
    outer loop
      vertex 37.6648 19.4466 5
      vertex 36.3265 20.8595 5
      vertex -21.5 21.5 5
    endloop
  endfacet
  facet normal 0 0 1
    outer loop
      vertex 27.1688 22.3608 5
      vertex 25.5451 21.5 5
      vertex 34.7157 21.9516 5
    endloop
  endfacet
  facet normal 0 0 1
    outer loop
      vertex 32.9078 22.6719 5
      vertex 30.9872 22.9868 5
      vertex 29.044 22.8814 5
    endloop
  endfacet
  facet normal 0 0 1
    outer loop
      vertex -18.4555 -16.1927 5
      vertex -12.0915 -9.82878 5
      vertex -21.5 21.5 5
    endloop
  endfacet
  facet normal 0 0 1
    outer loop
      vertex 34.7157 21.9516 5
      vertex 32.9078 22.6719 5
      vertex 27.1688 22.3608 5
    endloop
  endfacet
  facet normal 0 0 1
    outer loop
      vertex 36.3265 20.8595 5
      vertex 25.5451 21.5 5
      vertex -21.5 21.5 5
    endloop
  endfacet
  facet normal 0 0 1
    outer loop
      vertex 36.3265 20.8595 5
      vertex 34.7157 21.9516 5
      vertex 25.5451 21.5 5
    endloop
  endfacet
  facet normal 0 0 1
    outer loop
      vertex -9.82878 -12.0915 5
      vertex -16.1927 -18.4555 5
      vertex 25.5451 -21.5 5
    endloop
  endfacet
  facet normal 0 0 1
    outer loop
      vertex -18.4555 -16.1927 5
      vertex -21.5 -21.5 5
      vertex -16.1927 -18.4555 5
    endloop
  endfacet
  facet normal 0 0 1
    outer loop
      vertex -21.5 21.5 5
      vertex -21.5 -21.5 5
      vertex -18.4555 -16.1927 5
    endloop
  endfacet
  facet normal 0 0 1
    outer loop
      vertex -4.01722 -12.3637 5
      vertex -6.5 -11.2583 5
      vertex -12.0915 -9.82878 5
    endloop
  endfacet
  facet normal 0 0 1
    outer loop
      vertex 18.4555 16.1927 5
      vertex 26.8594 11.355 5
      vertex 26.0983 13.0644 5
    endloop
  endfacet
  facet normal 0 0 1
    outer loop
      vertex -4.01722 -12.3637 5
      vertex -9.82878 -12.0915 5
      vertex 25.5451 -21.5 5
    endloop
  endfacet
  facet normal 0 0 1
    outer loop
      vertex -21.5 21.5 5
      vertex -12.0915 -9.82878 5
      vertex -18.4555 16.1927 5
    endloop
  endfacet
  facet normal 0 0 1
    outer loop
      vertex 12.7159 -2.70285 5
      vertex 11.8761 -5.28758 5
      vertex 26.0983 -14.9356 5
    endloop
  endfacet
  facet normal 0 0 1
    outer loop
      vertex 18.4555 16.1927 5
      vertex 34.5 5.96246 5
      vertex 34.7157 6.04839 5
    endloop
  endfacet
  facet normal 0 0 1
    outer loop
      vertex 34.611 -15.8303 5
      vertex 33.5111 -17.3442 5
      vertex 37.6648 -19.4466 5
    endloop
  endfacet
  facet normal 0 0 1
    outer loop
      vertex -6.5 -11.2583 5
      vertex -8.6987 -9.66088 5
      vertex -12.0915 -9.82878 5
    endloop
  endfacet
  facet normal 0 0 1
    outer loop
      vertex 26.0983 14.9356 5
      vertex 16.1927 18.4555 5
      vertex 18.4555 16.1927 5
    endloop
  endfacet
  facet normal 0 0 1
    outer loop
      vertex -18.4555 16.1927 5
      vertex -12.0915 -9.82878 5
      vertex -12.7159 -2.70285 5
    endloop
  endfacet
  facet normal 0 0 1
    outer loop
      vertex -18.4555 16.1927 5
      vertex -13 0 5
      vertex -12.0915 9.82878 5
    endloop
  endfacet
  facet normal 0 0 1
    outer loop
      vertex -18.4555 16.1927 5
      vertex -12.7159 -2.70285 5
      vertex -13 0 5
    endloop
  endfacet
  facet normal 0 0 1
    outer loop
      vertex -13 0 5
      vertex -12.7159 2.70285 5
      vertex -12.0915 9.82878 5
    endloop
  endfacet
  facet normal 0 0 1
    outer loop
      vertex -1.35887 -12.9288 5
      vertex -4.01722 -12.3637 5
      vertex 25.5451 -21.5 5
    endloop
  endfacet
  facet normal 0 0 1
    outer loop
      vertex -12.7159 2.70285 5
      vertex -11.8761 5.28758 5
      vertex -12.0915 9.82878 5
    endloop
  endfacet
  facet normal 0 0 1
    outer loop
      vertex 11.8761 -5.28758 5
      vertex 10.5172 -7.64121 5
      vertex 27.1688 -22.3608 5
    endloop
  endfacet
  facet normal 0 0 1
    outer loop
      vertex -12.0915 9.82878 5
      vertex -11.8761 5.28758 5
      vertex -10.5172 7.64121 5
    endloop
  endfacet
  facet normal 0 0 1
    outer loop
      vertex 10.5172 -7.64121 5
      vertex 12.0915 -9.82878 5
      vertex 25.5451 -21.5 5
    endloop
  endfacet
  facet normal 0 0 1
    outer loop
      vertex 17.4 0 5
      vertex 11.8761 5.28758 5
      vertex 12.7159 2.70285 5
    endloop
  endfacet
  facet normal 0 0 1
    outer loop
      vertex -1.35887 12.9288 5
      vertex 1.35887 12.9288 5
      vertex -21.5 21.5 5
    endloop
  endfacet
  facet normal 0 0 1
    outer loop
      vertex 26.8594 16.645 5
      vertex 28.25 17.8971 5
      vertex 16.1927 18.4555 5
    endloop
  endfacet
  facet normal 0 0 1
    outer loop
      vertex 33.5111 -10.6558 5
      vertex 34.611 -12.1697 5
      vertex 39.5 -14 5
    endloop
  endfacet
  facet normal 0 0 1
    outer loop
      vertex 18.7102 3.59961 5
      vertex 8.6987 9.66088 5
      vertex 10.5172 7.64121 5
    endloop
  endfacet
  facet normal 0 0 1
    outer loop
      vertex 13 0 5
      vertex 12.7159 -2.70285 5
      vertex 26.8594 -11.355 5
    endloop
  endfacet
  facet normal 0 0 1
    outer loop
      vertex 25.8 -4.84974 5
      vertex 31.8906 -9.72025 5
      vertex 39.5 -14 5
    endloop
  endfacet
  facet normal 0 0 1
    outer loop
      vertex 12.7159 2.70285 5
      vertex 13 0 5
      vertex 17.7377 -1.91531 5
    endloop
  endfacet
  facet normal 0 0 1
    outer loop
      vertex 17.7377 1.91531 5
      vertex 18.7102 3.59961 5
      vertex 10.5172 7.64121 5
    endloop
  endfacet
  facet normal 0 0 1
    outer loop
      vertex 28.25 -10.1029 5
      vertex 30.0296 -9.52465 5
      vertex 23.9724 -5.51492 5
    endloop
  endfacet
  facet normal 0 0 1
    outer loop
      vertex 26.8594 -11.355 5
      vertex 20.2 -4.84974 5
      vertex 13 0 5
    endloop
  endfacet
  facet normal 0 0 1
    outer loop
      vertex 31.8906 -18.2798 5
      vertex 34.7157 -21.9516 5
      vertex 36.3265 -20.8595 5
    endloop
  endfacet
  facet normal 0 0 1
    outer loop
      vertex 27.1688 -22.3608 5
      vertex 10.5172 -7.64121 5
      vertex 25.5451 -21.5 5
    endloop
  endfacet
  facet normal 0 0 1
    outer loop
      vertex 12.0915 9.82878 5
      vertex 4.01722 12.3637 5
      vertex 6.5 11.2583 5
    endloop
  endfacet
  facet normal 0 0 1
    outer loop
      vertex 4.01722 12.3637 5
      vertex 9.82878 12.0915 5
      vertex 1.35887 12.9288 5
    endloop
  endfacet
  facet normal 0 0 1
    outer loop
      vertex 16.1927 -18.4555 5
      vertex 4.01722 -12.3637 5
      vertex 1.35887 -12.9288 5
    endloop
  endfacet
  facet normal 0 0 1
    outer loop
      vertex 16.1927 -18.4555 5
      vertex 6.5 -11.2583 5
      vertex 4.01722 -12.3637 5
    endloop
  endfacet
  facet normal 0 0 1
    outer loop
      vertex 9.82878 -12.0915 5
      vertex 12.0915 -9.82878 5
      vertex 8.6987 -9.66088 5
    endloop
  endfacet
  facet normal 0 0 1
    outer loop
      vertex 16.1927 -18.4555 5
      vertex 9.82878 -12.0915 5
      vertex 6.5 -11.2583 5
    endloop
  endfacet
  facet normal 0 0 1
    outer loop
      vertex 16.1927 -18.4555 5
      vertex -1.35887 -12.9288 5
      vertex 25.5451 -21.5 5
    endloop
  endfacet
  facet normal 0 0 1
    outer loop
      vertex -12.0915 -9.82878 5
      vertex -9.82878 -12.0915 5
      vertex -4.01722 -12.3637 5
    endloop
  endfacet
  facet normal 0 0 1
    outer loop
      vertex -10.5172 -7.64121 5
      vertex -12.0915 -9.82878 5
      vertex -8.6987 -9.66088 5
    endloop
  endfacet
  facet normal 0 0 1
    outer loop
      vertex -11.8761 -5.28758 5
      vertex -12.0915 -9.82878 5
      vertex -10.5172 -7.64121 5
    endloop
  endfacet
  facet normal 0 0 1
    outer loop
      vertex -10.5172 7.64121 5
      vertex -8.6987 9.66088 5
      vertex -12.0915 9.82878 5
    endloop
  endfacet
  facet normal 0 0 1
    outer loop
      vertex 12.0915 9.82878 5
      vertex 9.82878 12.0915 5
      vertex 4.01722 12.3637 5
    endloop
  endfacet
  facet normal 0 0 1
    outer loop
      vertex 8.6987 -9.66088 5
      vertex 6.5 -11.2583 5
      vertex 9.82878 -12.0915 5
    endloop
  endfacet
  facet normal 0 0 1
    outer loop
      vertex -11.8761 -5.28758 5
      vertex -12.7159 -2.70285 5
      vertex -12.0915 -9.82878 5
    endloop
  endfacet
  facet normal 0 0 1
    outer loop
      vertex 17.4 0 5
      vertex 17.7377 1.91531 5
      vertex 11.8761 5.28758 5
    endloop
  endfacet
  facet normal 0 0 1
    outer loop
      vertex 1.35887 -12.9288 5
      vertex -1.35887 -12.9288 5
      vertex 16.1927 -18.4555 5
    endloop
  endfacet
  facet normal 0 0 1
    outer loop
      vertex 34.5 -5.96246 5
      vertex 37.6648 -8.55343 5
      vertex 36.3265 -7.14054 5
    endloop
  endfacet
  facet normal 0 0 1
    outer loop
      vertex 22.0276 5.51492 5
      vertex 34.5 5.96246 5
      vertex 12.0915 9.82878 5
    endloop
  endfacet
  facet normal 0 0 1
    outer loop
      vertex 1.35887 12.9288 5
      vertex 9.82878 12.0915 5
      vertex -21.5 21.5 5
    endloop
  endfacet
  facet normal 0 0 1
    outer loop
      vertex 26.0983 13.0644 5
      vertex 26.0983 14.9356 5
      vertex 18.4555 16.1927 5
    endloop
  endfacet
  facet normal 0 0 1
    outer loop
      vertex 28.25 17.8971 5
      vertex -21.5 21.5 5
      vertex 16.1927 18.4555 5
    endloop
  endfacet
  facet normal 0 0 1
    outer loop
      vertex 18.4555 -16.1927 5
      vertex 16.1927 -18.4555 5
      vertex 25.5451 -21.5 5
    endloop
  endfacet
  facet normal 0 0 1
    outer loop
      vertex -4.01722 12.3637 5
      vertex -1.35887 12.9288 5
      vertex -21.5 21.5 5
    endloop
  endfacet
  facet normal 0 0 1
    outer loop
      vertex 17.7377 1.91531 5
      vertex 10.5172 7.64121 5
      vertex 11.8761 5.28758 5
    endloop
  endfacet
  facet normal 0 0 1
    outer loop
      vertex 18.7102 3.59961 5
      vertex 20.2 4.84974 5
      vertex 12.0915 9.82878 5
    endloop
  endfacet
  facet normal 0 0 1
    outer loop
      vertex 28.25 10.1029 5
      vertex 34.7157 6.04839 5
      vertex 36.3265 7.14054 5
    endloop
  endfacet
  facet normal 0 0 1
    outer loop
      vertex 20.2 4.84974 5
      vertex 22.0276 5.51492 5
      vertex 12.0915 9.82878 5
    endloop
  endfacet
  facet normal 0 0 1
    outer loop
      vertex 23.9724 5.51492 5
      vertex 34.5 5.96246 5
      vertex 22.0276 5.51492 5
    endloop
  endfacet
  facet normal 0 0 1
    outer loop
      vertex 28.2623 1.91531 5
      vertex 28.6 0 5
      vertex 34.5 -5.96246 5
    endloop
  endfacet
  facet normal 0 0 1
    outer loop
      vertex 27.2898 3.59961 5
      vertex 34.5 5.96246 5
      vertex 25.8 4.84974 5
    endloop
  endfacet
  facet normal 0 0 1
    outer loop
      vertex 29.044 22.8814 5
      vertex 27.1688 22.3608 5
      vertex 32.9078 22.6719 5
    endloop
  endfacet
  facet normal 0 0 1
    outer loop
      vertex 28.25 10.1029 5
      vertex 36.3265 7.14054 5
      vertex 30.0296 9.52465 5
    endloop
  endfacet
  facet normal 0 0 1
    outer loop
      vertex 18.4555 16.1927 5
      vertex 28.25 10.1029 5
      vertex 26.8594 11.355 5
    endloop
  endfacet
  facet normal 0 0 1
    outer loop
      vertex 38.6682 -10.221 5
      vertex 37.6648 -8.55343 5
      vertex 27.2898 -3.59961 5
    endloop
  endfacet
  facet normal 0 0 1
    outer loop
      vertex 10.5172 -7.64121 5
      vertex 8.6987 -9.66088 5
      vertex 12.0915 -9.82878 5
    endloop
  endfacet
  facet normal 0 0 1
    outer loop
      vertex 39.5 -14 5
      vertex 39.2896 -12.0653 5
      vertex 25.8 -4.84974 5
    endloop
  endfacet
  facet normal 0 0 1
    outer loop
      vertex 26.0983 -13.0644 5
      vertex 26.8594 -11.355 5
      vertex 12.7159 -2.70285 5
    endloop
  endfacet
  facet normal 0 0 1
    outer loop
      vertex 30.0296 -9.52465 5
      vertex 31.8906 -9.72025 5
      vertex 23.9724 -5.51492 5
    endloop
  endfacet
  facet normal 0 0 1
    outer loop
      vertex 28.25 17.8971 5
      vertex 30.0296 18.4753 5
      vertex -21.5 21.5 5
    endloop
  endfacet
  facet normal 0 0 1
    outer loop
      vertex 28.25 -10.1029 5
      vertex 22.0276 -5.51492 5
      vertex 20.2 -4.84974 5
    endloop
  endfacet
  facet normal 0 0 1
    outer loop
      vertex 20.2 -4.84974 5
      vertex 18.7102 -3.59961 5
      vertex 13 0 5
    endloop
  endfacet
  facet normal 0 0 1
    outer loop
      vertex -8.6987 9.66088 5
      vertex -6.5 11.2583 5
      vertex -9.82878 12.0915 5
    endloop
  endfacet
  facet normal 0 0 1
    outer loop
      vertex 30.0296 -18.4753 5
      vertex 28.25 -17.8971 5
      vertex 34.7157 -21.9516 5
    endloop
  endfacet
  facet normal 0 0 1
    outer loop
      vertex 28.25 -10.1029 5
      vertex 23.9724 -5.51492 5
      vertex 22.0276 -5.51492 5
    endloop
  endfacet
  facet normal 0 0 1
    outer loop
      vertex 34.611 -12.1697 5
      vertex 35 -14 5
      vertex 39.2896 -15.9347 5
    endloop
  endfacet
  facet normal 0 0 1
    outer loop
      vertex 12.0915 -9.82878 5
      vertex 18.4555 -16.1927 5
      vertex 25.5451 -21.5 5
    endloop
  endfacet
  facet normal 0 0 1
    outer loop
      vertex 33.5111 -10.6558 5
      vertex 39.5 -14 5
      vertex 31.8906 -9.72025 5
    endloop
  endfacet
  facet normal 0 0 1
    outer loop
      vertex 26.8594 -16.645 5
      vertex 26.0983 -14.9356 5
      vertex 11.8761 -5.28758 5
    endloop
  endfacet
  facet normal 0 0 1
    outer loop
      vertex 39.2896 -15.9347 5
      vertex 39.5 -14 5
      vertex 34.611 -12.1697 5
    endloop
  endfacet
  facet normal 0 0 1
    outer loop
      vertex 35 -14 5
      vertex 34.611 -15.8303 5
      vertex 38.6682 -17.779 5
    endloop
  endfacet
  facet normal 0 0 1
    outer loop
      vertex 38.6682 -17.779 5
      vertex 39.2896 -15.9347 5
      vertex 35 -14 5
    endloop
  endfacet
  facet normal 0 0 1
    outer loop
      vertex 37.6648 -19.4466 5
      vertex 38.6682 -17.779 5
      vertex 34.611 -15.8303 5
    endloop
  endfacet
  facet normal 0 0 1
    outer loop
      vertex 26.8594 -11.355 5
      vertex 28.25 -10.1029 5
      vertex 20.2 -4.84974 5
    endloop
  endfacet
  facet normal 0 0 1
    outer loop
      vertex 36.3265 -20.8595 5
      vertex 37.6648 -19.4466 5
      vertex 33.5111 -17.3442 5
    endloop
  endfacet
  facet normal 0 0 1
    outer loop
      vertex -9.82878 12.0915 5
      vertex -6.5 11.2583 5
      vertex -16.1927 18.4555 5
    endloop
  endfacet
  facet normal 0 0 1
    outer loop
      vertex 26.0983 14.9356 5
      vertex 26.8594 16.645 5
      vertex 16.1927 18.4555 5
    endloop
  endfacet
  facet normal 0 0 1
    outer loop
      vertex 33.5111 -17.3442 5
      vertex 31.8906 -18.2798 5
      vertex 36.3265 -20.8595 5
    endloop
  endfacet
  facet normal 0 0 1
    outer loop
      vertex 26.0983 -14.9356 5
      vertex 26.0983 -13.0644 5
      vertex 12.7159 -2.70285 5
    endloop
  endfacet
  facet normal 0 0 1
    outer loop
      vertex 32.9078 -22.6719 5
      vertex 28.25 -17.8971 5
      vertex 11.8761 -5.28758 5
    endloop
  endfacet
  facet normal 0 0 1
    outer loop
      vertex 32.9078 -22.6719 5
      vertex 34.7157 -21.9516 5
      vertex 28.25 -17.8971 5
    endloop
  endfacet
  facet normal 0 0 1
    outer loop
      vertex 28.25 -17.8971 5
      vertex 26.8594 -16.645 5
      vertex 11.8761 -5.28758 5
    endloop
  endfacet
  facet normal 0 0 1
    outer loop
      vertex 34.611 12.1697 5
      vertex 33.5111 10.6558 5
      vertex 38.6682 10.221 5
    endloop
  endfacet
  facet normal 0 0 1
    outer loop
      vertex 18.7102 -3.59961 5
      vertex 17.7377 -1.91531 5
      vertex 13 0 5
    endloop
  endfacet
  facet normal 0 0 1
    outer loop
      vertex 38.6682 17.779 5
      vertex 37.6648 19.4466 5
      vertex 30.0296 18.4753 5
    endloop
  endfacet
  facet normal 0 0 1
    outer loop
      vertex 31.8906 18.2798 5
      vertex 33.5111 17.3442 5
      vertex 38.6682 17.779 5
    endloop
  endfacet
  facet normal 0 0 1
    outer loop
      vertex 38.6682 17.779 5
      vertex 30.0296 18.4753 5
      vertex 31.8906 18.2798 5
    endloop
  endfacet
  facet normal 0 0 1
    outer loop
      vertex 34.611 15.8303 5
      vertex 35 14 5
      vertex 39.5 14 5
    endloop
  endfacet
  facet normal 0 0 1
    outer loop
      vertex 39.2896 15.9347 5
      vertex 38.6682 17.779 5
      vertex 33.5111 17.3442 5
    endloop
  endfacet
  facet normal 0 0 1
    outer loop
      vertex 35 14 5
      vertex 34.611 12.1697 5
      vertex 39.2896 12.0653 5
    endloop
  endfacet
  facet normal 0 0 1
    outer loop
      vertex 39.5 14 5
      vertex 39.2896 15.9347 5
      vertex 34.611 15.8303 5
    endloop
  endfacet
  facet normal 0 0 1
    outer loop
      vertex 39.2896 12.0653 5
      vertex 39.5 14 5
      vertex 35 14 5
    endloop
  endfacet
  facet normal 0 0 1
    outer loop
      vertex 33.5111 10.6558 5
      vertex 31.8906 9.72025 5
      vertex 37.6648 8.55343 5
    endloop
  endfacet
  facet normal 0 0 1
    outer loop
      vertex 38.6682 10.221 5
      vertex 39.2896 12.0653 5
      vertex 34.611 12.1697 5
    endloop
  endfacet
  facet normal 0 0 1
    outer loop
      vertex 37.6648 8.55343 5
      vertex 38.6682 10.221 5
      vertex 33.5111 10.6558 5
    endloop
  endfacet
  facet normal 0 0 1
    outer loop
      vertex 36.3265 7.14054 5
      vertex 37.6648 8.55343 5
      vertex 31.8906 9.72025 5
    endloop
  endfacet
  facet normal 0 0 1
    outer loop
      vertex 36.3265 7.14054 5
      vertex 31.8906 9.72025 5
      vertex 30.0296 9.52465 5
    endloop
  endfacet
  facet normal 0 0 1
    outer loop
      vertex 18.7102 3.59961 5
      vertex 6.5 11.2583 5
      vertex 8.6987 9.66088 5
    endloop
  endfacet
  facet normal 0 0 1
    outer loop
      vertex 28.2623 -1.91531 5
      vertex 27.2898 -3.59961 5
      vertex 37.6648 -8.55343 5
    endloop
  endfacet
  facet normal 0 0 1
    outer loop
      vertex 28.2623 -1.91531 5
      vertex 37.6648 -8.55343 5
      vertex 34.5 -5.96246 5
    endloop
  endfacet
  facet normal 0 0 1
    outer loop
      vertex 23.9724 5.51492 5
      vertex 25.8 4.84974 5
      vertex 34.5 5.96246 5
    endloop
  endfacet
  facet normal 0 0 1
    outer loop
      vertex 28.6 0 5
      vertex 28.2623 -1.91531 5
      vertex 34.5 -5.96246 5
    endloop
  endfacet
  facet normal 0 0 1
    outer loop
      vertex 34.5 -5.96246 5
      vertex 27.2898 3.59961 5
      vertex 28.2623 1.91531 5
    endloop
  endfacet
  facet normal 0 0 1
    outer loop
      vertex 34.5 -5.96246 5
      vertex 34.5 5.96246 5
      vertex 27.2898 3.59961 5
    endloop
  endfacet
  facet normal 0 0 1
    outer loop
      vertex 31.8906 -18.2798 5
      vertex 30.0296 -18.4753 5
      vertex 34.7157 -21.9516 5
    endloop
  endfacet
  facet normal 0 0 1
    outer loop
      vertex -16.1927 18.4555 5
      vertex -4.01722 12.3637 5
      vertex -21.5 21.5 5
    endloop
  endfacet
  facet normal 0 0 1
    outer loop
      vertex -6.5 11.2583 5
      vertex -4.01722 12.3637 5
      vertex -16.1927 18.4555 5
    endloop
  endfacet
  facet normal 0 0 1
    outer loop
      vertex 11.8761 -5.28758 5
      vertex 29.044 -22.8814 5
      vertex 30.9872 -22.9868 5
    endloop
  endfacet
  facet normal 0 0 1
    outer loop
      vertex 11.8761 -5.28758 5
      vertex 27.1688 -22.3608 5
      vertex 29.044 -22.8814 5
    endloop
  endfacet
  facet normal 0 0 1
    outer loop
      vertex -18.4555 16.1927 5
      vertex -16.1927 18.4555 5
      vertex -21.5 21.5 5
    endloop
  endfacet
  facet normal -0.468408 -0.883512 0
    outer loop
      vertex 25.5451 -21.5 5
      vertex 25.5451 -21.5 0
      vertex 27.1688 -22.3608 0
    endloop
  endfacet
  facet normal -0.468408 -0.883512 0
    outer loop
      vertex 27.1688 -22.3608 5
      vertex 25.5451 -21.5 5
      vertex 27.1688 -22.3608 0
    endloop
  endfacet
  facet normal -0.267529 -0.96355 0
    outer loop
      vertex 27.1688 -22.3608 5
      vertex 27.1688 -22.3608 0
      vertex 29.044 -22.8814 0
    endloop
  endfacet
  facet normal -0.267529 -0.96355 0
    outer loop
      vertex 29.044 -22.8814 5
      vertex 27.1688 -22.3608 5
      vertex 29.044 -22.8814 0
    endloop
  endfacet
  facet normal -0.0541389 -0.998533 0
    outer loop
      vertex 29.044 -22.8814 5
      vertex 29.044 -22.8814 0
      vertex 30.9872 -22.9868 0
    endloop
  endfacet
  facet normal -0.0541389 -0.998533 0
    outer loop
      vertex 30.9872 -22.9868 5
      vertex 29.044 -22.8814 5
      vertex 30.9872 -22.9868 0
    endloop
  endfacet
  facet normal 0.161782 -0.986827 0
    outer loop
      vertex 30.9872 -22.9868 5
      vertex 30.9872 -22.9868 0
      vertex 32.9078 -22.6719 0
    endloop
  endfacet
  facet normal 0.161782 -0.986827 0
    outer loop
      vertex 32.9078 -22.6719 5
      vertex 30.9872 -22.9868 5
      vertex 32.9078 -22.6719 0
    endloop
  endfacet
  facet normal 0.370138 -0.928977 0
    outer loop
      vertex 32.9078 -22.6719 5
      vertex 32.9078 -22.6719 0
      vertex 34.7157 -21.9516 0
    endloop
  endfacet
  facet normal 0.370138 -0.928977 0
    outer loop
      vertex 34.7157 -21.9516 5
      vertex 32.9078 -22.6719 5
      vertex 34.7157 -21.9516 0
    endloop
  endfacet
  facet normal 0.561187 -0.827689 0
    outer loop
      vertex 34.7157 -21.9516 5
      vertex 34.7157 -21.9516 0
      vertex 36.3265 -20.8595 0
    endloop
  endfacet
  facet normal 0.561187 -0.827689 0
    outer loop
      vertex 36.3265 -20.8595 5
      vertex 34.7157 -21.9516 5
      vertex 36.3265 -20.8595 0
    endloop
  endfacet
  facet normal 0.725995 -0.6877 0
    outer loop
      vertex 36.3265 -20.8595 5
      vertex 36.3265 -20.8595 0
      vertex 37.6648 -19.4466 0
    endloop
  endfacet
  facet normal 0.725995 -0.6877 0
    outer loop
      vertex 37.6648 -19.4466 5
      vertex 36.3265 -20.8595 5
      vertex 37.6648 -19.4466 0
    endloop
  endfacet
  facet normal 0.856857 -0.515554 0
    outer loop
      vertex 37.6648 -19.4466 5
      vertex 37.6648 -19.4466 0
      vertex 38.6682 -17.779 0
    endloop
  endfacet
  facet normal 0.856857 -0.515554 0
    outer loop
      vertex 38.6682 -17.779 5
      vertex 37.6648 -19.4466 5
      vertex 38.6682 -17.779 0
    endloop
  endfacet
  facet normal 0.947653 -0.319301 0
    outer loop
      vertex 38.6682 -17.779 5
      vertex 38.6682 -17.779 0
      vertex 39.2896 -15.9347 0
    endloop
  endfacet
  facet normal 0.947653 -0.319301 0
    outer loop
      vertex 39.2896 -15.9347 5
      vertex 38.6682 -17.779 5
      vertex 39.2896 -15.9347 0
    endloop
  endfacet
  facet normal 0.994138 -0.108119 0
    outer loop
      vertex 39.2896 -15.9347 5
      vertex 39.2896 -15.9347 0
      vertex 39.5 -14 0
    endloop
  endfacet
  facet normal 0.994138 -0.108119 0
    outer loop
      vertex 39.5 -14 5
      vertex 39.2896 -15.9347 5
      vertex 39.5 -14 0
    endloop
  endfacet
  facet normal 0.994138 0.108119 0
    outer loop
      vertex 39.5 -14 0
      vertex 39.2896 -12.0653 0
      vertex 39.2896 -12.0653 5
    endloop
  endfacet
  facet normal 0.994138 0.108119 0
    outer loop
      vertex 39.5 -14 5
      vertex 39.5 -14 0
      vertex 39.2896 -12.0653 5
    endloop
  endfacet
  facet normal 0.947653 0.319301 0
    outer loop
      vertex 39.2896 -12.0653 0
      vertex 38.6682 -10.221 0
      vertex 38.6682 -10.221 5
    endloop
  endfacet
  facet normal 0.947653 0.319301 0
    outer loop
      vertex 39.2896 -12.0653 5
      vertex 39.2896 -12.0653 0
      vertex 38.6682 -10.221 5
    endloop
  endfacet
  facet normal 0.856857 0.515554 0
    outer loop
      vertex 38.6682 -10.221 0
      vertex 37.6648 -8.55343 0
      vertex 37.6648 -8.55343 5
    endloop
  endfacet
  facet normal 0.856857 0.515554 0
    outer loop
      vertex 38.6682 -10.221 5
      vertex 38.6682 -10.221 0
      vertex 37.6648 -8.55343 5
    endloop
  endfacet
  facet normal 0.725995 0.6877 0
    outer loop
      vertex 37.6648 -8.55343 0
      vertex 36.3265 -7.14054 0
      vertex 36.3265 -7.14054 5
    endloop
  endfacet
  facet normal 0.725995 0.6877 0
    outer loop
      vertex 37.6648 -8.55343 5
      vertex 37.6648 -8.55343 0
      vertex 36.3265 -7.14054 5
    endloop
  endfacet
  facet normal 0.561187 0.827689 0
    outer loop
      vertex 34.7157 -6.04839 0
      vertex 34.7157 -6.04839 5
      vertex 36.3265 -7.14054 0
    endloop
  endfacet
  facet normal 0.561187 0.827689 0
    outer loop
      vertex 36.3265 -7.14054 0
      vertex 34.7157 -6.04839 5
      vertex 36.3265 -7.14054 5
    endloop
  endfacet
  facet normal 0.370138 0.928977 0
    outer loop
      vertex 34.5 -5.96246 0
      vertex 34.5 -5.96246 5
      vertex 34.7157 -6.04839 0
    endloop
  endfacet
  facet normal 0.370138 0.928977 0
    outer loop
      vertex 34.7157 -6.04839 0
      vertex 34.5 -5.96246 5
      vertex 34.7157 -6.04839 5
    endloop
  endfacet
  facet normal 1 0 0
    outer loop
      vertex 34.5 -5.96246 5
      vertex 34.5 -5.96246 0
      vertex 34.5 5.96246 0
    endloop
  endfacet
  facet normal 1 0 0
    outer loop
      vertex 34.5 5.96246 5
      vertex 34.5 -5.96246 5
      vertex 34.5 5.96246 0
    endloop
  endfacet
  facet normal 0.370138 -0.928977 0
    outer loop
      vertex 34.5 5.96246 5
      vertex 34.5 5.96246 0
      vertex 34.7157 6.04839 0
    endloop
  endfacet
  facet normal 0.370138 -0.928977 0
    outer loop
      vertex 34.7157 6.04839 5
      vertex 34.5 5.96246 5
      vertex 34.7157 6.04839 0
    endloop
  endfacet
  facet normal 0.561187 -0.827689 0
    outer loop
      vertex 34.7157 6.04839 5
      vertex 34.7157 6.04839 0
      vertex 36.3265 7.14054 0
    endloop
  endfacet
  facet normal 0.561187 -0.827689 0
    outer loop
      vertex 36.3265 7.14054 5
      vertex 34.7157 6.04839 5
      vertex 36.3265 7.14054 0
    endloop
  endfacet
  facet normal 0.725995 -0.6877 0
    outer loop
      vertex 36.3265 7.14054 5
      vertex 36.3265 7.14054 0
      vertex 37.6648 8.55343 0
    endloop
  endfacet
  facet normal 0.725995 -0.6877 0
    outer loop
      vertex 37.6648 8.55343 5
      vertex 36.3265 7.14054 5
      vertex 37.6648 8.55343 0
    endloop
  endfacet
  facet normal 0.856857 -0.515554 0
    outer loop
      vertex 37.6648 8.55343 5
      vertex 37.6648 8.55343 0
      vertex 38.6682 10.221 0
    endloop
  endfacet
  facet normal 0.856857 -0.515554 0
    outer loop
      vertex 38.6682 10.221 5
      vertex 37.6648 8.55343 5
      vertex 38.6682 10.221 0
    endloop
  endfacet
  facet normal 0.947653 -0.319301 0
    outer loop
      vertex 38.6682 10.221 5
      vertex 38.6682 10.221 0
      vertex 39.2896 12.0653 0
    endloop
  endfacet
  facet normal 0.947653 -0.319301 0
    outer loop
      vertex 39.2896 12.0653 5
      vertex 38.6682 10.221 5
      vertex 39.2896 12.0653 0
    endloop
  endfacet
  facet normal 0.994138 -0.108119 0
    outer loop
      vertex 39.2896 12.0653 5
      vertex 39.2896 12.0653 0
      vertex 39.5 14 0
    endloop
  endfacet
  facet normal 0.994138 -0.108119 0
    outer loop
      vertex 39.5 14 5
      vertex 39.2896 12.0653 5
      vertex 39.5 14 0
    endloop
  endfacet
  facet normal 0.994138 0.108119 0
    outer loop
      vertex 39.5 14 0
      vertex 39.2896 15.9347 0
      vertex 39.2896 15.9347 5
    endloop
  endfacet
  facet normal 0.994138 0.108119 0
    outer loop
      vertex 39.5 14 5
      vertex 39.5 14 0
      vertex 39.2896 15.9347 5
    endloop
  endfacet
  facet normal 0.947653 0.319301 0
    outer loop
      vertex 39.2896 15.9347 0
      vertex 38.6682 17.779 0
      vertex 38.6682 17.779 5
    endloop
  endfacet
  facet normal 0.947653 0.319301 0
    outer loop
      vertex 39.2896 15.9347 5
      vertex 39.2896 15.9347 0
      vertex 38.6682 17.779 5
    endloop
  endfacet
  facet normal 0.856857 0.515554 0
    outer loop
      vertex 38.6682 17.779 0
      vertex 37.6648 19.4466 0
      vertex 37.6648 19.4466 5
    endloop
  endfacet
  facet normal 0.856857 0.515554 0
    outer loop
      vertex 38.6682 17.779 5
      vertex 38.6682 17.779 0
      vertex 37.6648 19.4466 5
    endloop
  endfacet
  facet normal 0.725995 0.6877 0
    outer loop
      vertex 37.6648 19.4466 0
      vertex 36.3265 20.8595 0
      vertex 36.3265 20.8595 5
    endloop
  endfacet
  facet normal 0.725995 0.6877 0
    outer loop
      vertex 37.6648 19.4466 5
      vertex 37.6648 19.4466 0
      vertex 36.3265 20.8595 5
    endloop
  endfacet
  facet normal 0.561187 0.827689 0
    outer loop
      vertex 34.7157 21.9516 0
      vertex 34.7157 21.9516 5
      vertex 36.3265 20.8595 0
    endloop
  endfacet
  facet normal 0.561187 0.827689 0
    outer loop
      vertex 36.3265 20.8595 0
      vertex 34.7157 21.9516 5
      vertex 36.3265 20.8595 5
    endloop
  endfacet
  facet normal 0.370138 0.928977 0
    outer loop
      vertex 32.9078 22.6719 0
      vertex 32.9078 22.6719 5
      vertex 34.7157 21.9516 0
    endloop
  endfacet
  facet normal 0.370138 0.928977 0
    outer loop
      vertex 34.7157 21.9516 0
      vertex 32.9078 22.6719 5
      vertex 34.7157 21.9516 5
    endloop
  endfacet
  facet normal 0.161782 0.986827 0
    outer loop
      vertex 30.9872 22.9868 0
      vertex 30.9872 22.9868 5
      vertex 32.9078 22.6719 0
    endloop
  endfacet
  facet normal 0.161782 0.986827 0
    outer loop
      vertex 32.9078 22.6719 0
      vertex 30.9872 22.9868 5
      vertex 32.9078 22.6719 5
    endloop
  endfacet
  facet normal -0.0541389 0.998533 0
    outer loop
      vertex 29.044 22.8814 0
      vertex 29.044 22.8814 5
      vertex 30.9872 22.9868 0
    endloop
  endfacet
  facet normal -0.0541389 0.998533 0
    outer loop
      vertex 30.9872 22.9868 0
      vertex 29.044 22.8814 5
      vertex 30.9872 22.9868 5
    endloop
  endfacet
  facet normal -0.267529 0.96355 0
    outer loop
      vertex 27.1688 22.3608 0
      vertex 27.1688 22.3608 5
      vertex 29.044 22.8814 0
    endloop
  endfacet
  facet normal -0.267529 0.96355 0
    outer loop
      vertex 29.044 22.8814 0
      vertex 27.1688 22.3608 5
      vertex 29.044 22.8814 5
    endloop
  endfacet
  facet normal -0.468408 0.883512 0
    outer loop
      vertex 25.5451 21.5 0
      vertex 25.5451 21.5 5
      vertex 27.1688 22.3608 0
    endloop
  endfacet
  facet normal -0.468408 0.883512 0
    outer loop
      vertex 27.1688 22.3608 0
      vertex 25.5451 21.5 5
      vertex 27.1688 22.3608 5
    endloop
  endfacet
  facet normal 0.707107 0.707107 0
    outer loop
      vertex -16.1927 -18.4555 5
      vertex -16.1927 -18.4555 0
      vertex -18.4555 -16.1927 5
    endloop
  endfacet
  facet normal 0.707107 0.707107 0
    outer loop
      vertex -18.4555 -16.1927 5
      vertex -16.1927 -18.4555 0
      vertex -18.4555 -16.1927 0
    endloop
  endfacet
  facet normal 0.707107 -0.707107 0
    outer loop
      vertex -12.0915 -9.82878 0
      vertex -12.0915 -9.82878 5
      vertex -18.4555 -16.1927 5
    endloop
  endfacet
  facet normal 0.707107 -0.707107 0
    outer loop
      vertex -18.4555 -16.1927 0
      vertex -12.0915 -9.82878 0
      vertex -18.4555 -16.1927 5
    endloop
  endfacet
  facet normal -0.707107 -0.707107 0
    outer loop
      vertex -9.82878 -12.0915 0
      vertex -9.82878 -12.0915 5
      vertex -12.0915 -9.82878 5
    endloop
  endfacet
  facet normal -0.707107 -0.707107 0
    outer loop
      vertex -12.0915 -9.82878 0
      vertex -9.82878 -12.0915 0
      vertex -12.0915 -9.82878 5
    endloop
  endfacet
  facet normal -0.707107 0.707107 0
    outer loop
      vertex -9.82878 -12.0915 5
      vertex -9.82878 -12.0915 0
      vertex -16.1927 -18.4555 5
    endloop
  endfacet
  facet normal -0.707107 0.707107 0
    outer loop
      vertex -16.1927 -18.4555 5
      vertex -9.82878 -12.0915 0
      vertex -16.1927 -18.4555 0
    endloop
  endfacet
  facet normal 0.707107 -0.707107 0
    outer loop
      vertex -16.1927 18.4555 0
      vertex -16.1927 18.4555 5
      vertex -18.4555 16.1927 5
    endloop
  endfacet
  facet normal 0.707107 -0.707107 0
    outer loop
      vertex -18.4555 16.1927 0
      vertex -16.1927 18.4555 0
      vertex -18.4555 16.1927 5
    endloop
  endfacet
  facet normal -0.707107 -0.707107 0
    outer loop
      vertex -9.82878 12.0915 5
      vertex -16.1927 18.4555 5
      vertex -9.82878 12.0915 0
    endloop
  endfacet
  facet normal -0.707107 -0.707107 0
    outer loop
      vertex -9.82878 12.0915 0
      vertex -16.1927 18.4555 5
      vertex -16.1927 18.4555 0
    endloop
  endfacet
  facet normal -0.707107 0.707107 0
    outer loop
      vertex -9.82878 12.0915 5
      vertex -9.82878 12.0915 0
      vertex -12.0915 9.82878 5
    endloop
  endfacet
  facet normal -0.707107 0.707107 0
    outer loop
      vertex -12.0915 9.82878 5
      vertex -9.82878 12.0915 0
      vertex -12.0915 9.82878 0
    endloop
  endfacet
  facet normal 0.707107 0.707107 0
    outer loop
      vertex -18.4555 16.1927 5
      vertex -12.0915 9.82878 5
      vertex -12.0915 9.82878 0
    endloop
  endfacet
  facet normal 0.707107 0.707107 0
    outer loop
      vertex -18.4555 16.1927 0
      vertex -18.4555 16.1927 5
      vertex -12.0915 9.82878 0
    endloop
  endfacet
  facet normal 0.994522 -0.104528 0
    outer loop
      vertex -12.7159 2.70285 0
      vertex -12.7159 2.70285 5
      vertex -13 0 5
    endloop
  endfacet
  facet normal 0.994522 -0.104528 0
    outer loop
      vertex -13 0 0
      vertex -12.7159 2.70285 0
      vertex -13 0 5
    endloop
  endfacet
  facet normal 0.994522 0.104528 0
    outer loop
      vertex -13 0 5
      vertex -12.7159 -2.70285 5
      vertex -12.7159 -2.70285 0
    endloop
  endfacet
  facet normal 0.994522 0.104528 0
    outer loop
      vertex -13 0 0
      vertex -13 0 5
      vertex -12.7159 -2.70285 0
    endloop
  endfacet
  facet normal 0.951056 -0.309017 0
    outer loop
      vertex -11.8761 5.28758 0
      vertex -11.8761 5.28758 5
      vertex -12.7159 2.70285 5
    endloop
  endfacet
  facet normal 0.951056 -0.309017 0
    outer loop
      vertex -12.7159 2.70285 0
      vertex -11.8761 5.28758 0
      vertex -12.7159 2.70285 5
    endloop
  endfacet
  facet normal 0.866025 -0.5 0
    outer loop
      vertex -10.5172 7.64121 0
      vertex -10.5172 7.64121 5
      vertex -11.8761 5.28758 5
    endloop
  endfacet
  facet normal 0.866025 -0.5 0
    outer loop
      vertex -11.8761 5.28758 0
      vertex -10.5172 7.64121 0
      vertex -11.8761 5.28758 5
    endloop
  endfacet
  facet normal 0.743145 -0.66913 0
    outer loop
      vertex -8.6987 9.66088 0
      vertex -8.6987 9.66088 5
      vertex -10.5172 7.64121 5
    endloop
  endfacet
  facet normal 0.743145 -0.66913 0
    outer loop
      vertex -10.5172 7.64121 0
      vertex -8.6987 9.66088 0
      vertex -10.5172 7.64121 5
    endloop
  endfacet
  facet normal 0.587785 -0.809017 0
    outer loop
      vertex -6.5 11.2583 0
      vertex -6.5 11.2583 5
      vertex -8.6987 9.66088 5
    endloop
  endfacet
  facet normal 0.587785 -0.809017 0
    outer loop
      vertex -8.6987 9.66088 0
      vertex -6.5 11.2583 0
      vertex -8.6987 9.66088 5
    endloop
  endfacet
  facet normal 0.406737 -0.913545 0
    outer loop
      vertex -4.01722 12.3637 0
      vertex -4.01722 12.3637 5
      vertex -6.5 11.2583 5
    endloop
  endfacet
  facet normal 0.406737 -0.913545 0
    outer loop
      vertex -6.5 11.2583 0
      vertex -4.01722 12.3637 0
      vertex -6.5 11.2583 5
    endloop
  endfacet
  facet normal 0.207912 -0.978148 0
    outer loop
      vertex -1.35887 12.9288 0
      vertex -1.35887 12.9288 5
      vertex -4.01722 12.3637 5
    endloop
  endfacet
  facet normal 0.207912 -0.978148 0
    outer loop
      vertex -4.01722 12.3637 0
      vertex -1.35887 12.9288 0
      vertex -4.01722 12.3637 5
    endloop
  endfacet
  facet normal 0 -1 0
    outer loop
      vertex 1.35887 12.9288 0
      vertex 1.35887 12.9288 5
      vertex -1.35887 12.9288 5
    endloop
  endfacet
  facet normal 0 -1 0
    outer loop
      vertex -1.35887 12.9288 0
      vertex 1.35887 12.9288 0
      vertex -1.35887 12.9288 5
    endloop
  endfacet
  facet normal -0.207912 -0.978148 0
    outer loop
      vertex 4.01722 12.3637 0
      vertex 4.01722 12.3637 5
      vertex 1.35887 12.9288 5
    endloop
  endfacet
  facet normal -0.207912 -0.978148 0
    outer loop
      vertex 1.35887 12.9288 0
      vertex 4.01722 12.3637 0
      vertex 1.35887 12.9288 5
    endloop
  endfacet
  facet normal -0.406737 -0.913545 0
    outer loop
      vertex 6.5 11.2583 0
      vertex 6.5 11.2583 5
      vertex 4.01722 12.3637 5
    endloop
  endfacet
  facet normal -0.406737 -0.913545 0
    outer loop
      vertex 4.01722 12.3637 0
      vertex 6.5 11.2583 0
      vertex 4.01722 12.3637 5
    endloop
  endfacet
  facet normal -0.587785 -0.809017 0
    outer loop
      vertex 8.6987 9.66088 0
      vertex 8.6987 9.66088 5
      vertex 6.5 11.2583 5
    endloop
  endfacet
  facet normal -0.587785 -0.809017 0
    outer loop
      vertex 6.5 11.2583 0
      vertex 8.6987 9.66088 0
      vertex 6.5 11.2583 5
    endloop
  endfacet
  facet normal -0.743145 -0.66913 0
    outer loop
      vertex 10.5172 7.64121 5
      vertex 8.6987 9.66088 5
      vertex 10.5172 7.64121 0
    endloop
  endfacet
  facet normal -0.743145 -0.66913 0
    outer loop
      vertex 10.5172 7.64121 0
      vertex 8.6987 9.66088 5
      vertex 8.6987 9.66088 0
    endloop
  endfacet
  facet normal -0.866025 -0.5 0
    outer loop
      vertex 11.8761 5.28758 5
      vertex 10.5172 7.64121 5
      vertex 11.8761 5.28758 0
    endloop
  endfacet
  facet normal -0.866025 -0.5 0
    outer loop
      vertex 11.8761 5.28758 0
      vertex 10.5172 7.64121 5
      vertex 10.5172 7.64121 0
    endloop
  endfacet
  facet normal -0.951056 -0.309017 0
    outer loop
      vertex 12.7159 2.70285 5
      vertex 11.8761 5.28758 5
      vertex 12.7159 2.70285 0
    endloop
  endfacet
  facet normal -0.951056 -0.309017 0
    outer loop
      vertex 12.7159 2.70285 0
      vertex 11.8761 5.28758 5
      vertex 11.8761 5.28758 0
    endloop
  endfacet
  facet normal -0.994522 -0.104528 0
    outer loop
      vertex 13 0 5
      vertex 12.7159 2.70285 5
      vertex 13 0 0
    endloop
  endfacet
  facet normal -0.994522 -0.104528 0
    outer loop
      vertex 13 0 0
      vertex 12.7159 2.70285 5
      vertex 12.7159 2.70285 0
    endloop
  endfacet
  facet normal -0.994522 0.104528 0
    outer loop
      vertex 13 0 5
      vertex 13 0 0
      vertex 12.7159 -2.70285 5
    endloop
  endfacet
  facet normal -0.994522 0.104528 0
    outer loop
      vertex 12.7159 -2.70285 5
      vertex 13 0 0
      vertex 12.7159 -2.70285 0
    endloop
  endfacet
  facet normal -0.951056 0.309017 0
    outer loop
      vertex 12.7159 -2.70285 5
      vertex 12.7159 -2.70285 0
      vertex 11.8761 -5.28758 5
    endloop
  endfacet
  facet normal -0.951056 0.309017 0
    outer loop
      vertex 11.8761 -5.28758 5
      vertex 12.7159 -2.70285 0
      vertex 11.8761 -5.28758 0
    endloop
  endfacet
  facet normal -0.866025 0.5 0
    outer loop
      vertex 11.8761 -5.28758 5
      vertex 11.8761 -5.28758 0
      vertex 10.5172 -7.64121 5
    endloop
  endfacet
  facet normal -0.866025 0.5 0
    outer loop
      vertex 10.5172 -7.64121 5
      vertex 11.8761 -5.28758 0
      vertex 10.5172 -7.64121 0
    endloop
  endfacet
  facet normal -0.743145 0.66913 0
    outer loop
      vertex 10.5172 -7.64121 5
      vertex 10.5172 -7.64121 0
      vertex 8.6987 -9.66088 5
    endloop
  endfacet
  facet normal -0.743145 0.66913 0
    outer loop
      vertex 8.6987 -9.66088 5
      vertex 10.5172 -7.64121 0
      vertex 8.6987 -9.66088 0
    endloop
  endfacet
  facet normal -0.587785 0.809017 0
    outer loop
      vertex 8.6987 -9.66088 5
      vertex 8.6987 -9.66088 0
      vertex 6.5 -11.2583 5
    endloop
  endfacet
  facet normal -0.587785 0.809017 0
    outer loop
      vertex 6.5 -11.2583 5
      vertex 8.6987 -9.66088 0
      vertex 6.5 -11.2583 0
    endloop
  endfacet
  facet normal -0.406737 0.913545 0
    outer loop
      vertex 6.5 -11.2583 5
      vertex 6.5 -11.2583 0
      vertex 4.01722 -12.3637 5
    endloop
  endfacet
  facet normal -0.406737 0.913545 0
    outer loop
      vertex 4.01722 -12.3637 5
      vertex 6.5 -11.2583 0
      vertex 4.01722 -12.3637 0
    endloop
  endfacet
  facet normal -0.207912 0.978148 0
    outer loop
      vertex 4.01722 -12.3637 5
      vertex 4.01722 -12.3637 0
      vertex 1.35887 -12.9288 5
    endloop
  endfacet
  facet normal -0.207912 0.978148 0
    outer loop
      vertex 1.35887 -12.9288 5
      vertex 4.01722 -12.3637 0
      vertex 1.35887 -12.9288 0
    endloop
  endfacet
  facet normal 0 1 0
    outer loop
      vertex 1.35887 -12.9288 5
      vertex 1.35887 -12.9288 0
      vertex -1.35887 -12.9288 5
    endloop
  endfacet
  facet normal 0 1 0
    outer loop
      vertex -1.35887 -12.9288 5
      vertex 1.35887 -12.9288 0
      vertex -1.35887 -12.9288 0
    endloop
  endfacet
  facet normal 0.207912 0.978148 0
    outer loop
      vertex -1.35887 -12.9288 5
      vertex -1.35887 -12.9288 0
      vertex -4.01722 -12.3637 5
    endloop
  endfacet
  facet normal 0.207912 0.978148 0
    outer loop
      vertex -4.01722 -12.3637 5
      vertex -1.35887 -12.9288 0
      vertex -4.01722 -12.3637 0
    endloop
  endfacet
  facet normal 0.406737 0.913545 0
    outer loop
      vertex -4.01722 -12.3637 5
      vertex -4.01722 -12.3637 0
      vertex -6.5 -11.2583 5
    endloop
  endfacet
  facet normal 0.406737 0.913545 0
    outer loop
      vertex -6.5 -11.2583 5
      vertex -4.01722 -12.3637 0
      vertex -6.5 -11.2583 0
    endloop
  endfacet
  facet normal 0.587785 0.809017 0
    outer loop
      vertex -6.5 -11.2583 5
      vertex -6.5 -11.2583 0
      vertex -8.6987 -9.66088 5
    endloop
  endfacet
  facet normal 0.587785 0.809017 0
    outer loop
      vertex -8.6987 -9.66088 5
      vertex -6.5 -11.2583 0
      vertex -8.6987 -9.66088 0
    endloop
  endfacet
  facet normal 0.743145 0.66913 0
    outer loop
      vertex -10.5172 -7.64121 5
      vertex -8.6987 -9.66088 5
      vertex -8.6987 -9.66088 0
    endloop
  endfacet
  facet normal 0.743145 0.66913 0
    outer loop
      vertex -10.5172 -7.64121 0
      vertex -10.5172 -7.64121 5
      vertex -8.6987 -9.66088 0
    endloop
  endfacet
  facet normal 0.866025 0.5 0
    outer loop
      vertex -11.8761 -5.28758 5
      vertex -10.5172 -7.64121 5
      vertex -10.5172 -7.64121 0
    endloop
  endfacet
  facet normal 0.866025 0.5 0
    outer loop
      vertex -11.8761 -5.28758 0
      vertex -11.8761 -5.28758 5
      vertex -10.5172 -7.64121 0
    endloop
  endfacet
  facet normal 0.951056 0.309017 0
    outer loop
      vertex -12.7159 -2.70285 5
      vertex -11.8761 -5.28758 5
      vertex -11.8761 -5.28758 0
    endloop
  endfacet
  facet normal 0.951056 0.309017 0
    outer loop
      vertex -12.7159 -2.70285 0
      vertex -12.7159 -2.70285 5
      vertex -11.8761 -5.28758 0
    endloop
  endfacet
  facet normal 0.707107 -0.707107 0
    outer loop
      vertex 12.0915 -9.82878 0
      vertex 12.0915 -9.82878 5
      vertex 9.82878 -12.0915 5
    endloop
  endfacet
  facet normal 0.707107 -0.707107 0
    outer loop
      vertex 9.82878 -12.0915 0
      vertex 12.0915 -9.82878 0
      vertex 9.82878 -12.0915 5
    endloop
  endfacet
  facet normal -0.707107 -0.707107 0
    outer loop
      vertex 18.4555 -16.1927 5
      vertex 12.0915 -9.82878 5
      vertex 18.4555 -16.1927 0
    endloop
  endfacet
  facet normal -0.707107 -0.707107 0
    outer loop
      vertex 18.4555 -16.1927 0
      vertex 12.0915 -9.82878 5
      vertex 12.0915 -9.82878 0
    endloop
  endfacet
  facet normal -0.707107 0.707107 0
    outer loop
      vertex 18.4555 -16.1927 5
      vertex 18.4555 -16.1927 0
      vertex 16.1927 -18.4555 5
    endloop
  endfacet
  facet normal -0.707107 0.707107 0
    outer loop
      vertex 16.1927 -18.4555 5
      vertex 18.4555 -16.1927 0
      vertex 16.1927 -18.4555 0
    endloop
  endfacet
  facet normal 0.707107 0.707107 0
    outer loop
      vertex 9.82878 -12.0915 5
      vertex 16.1927 -18.4555 5
      vertex 16.1927 -18.4555 0
    endloop
  endfacet
  facet normal 0.707107 0.707107 0
    outer loop
      vertex 9.82878 -12.0915 0
      vertex 9.82878 -12.0915 5
      vertex 16.1927 -18.4555 0
    endloop
  endfacet
  facet normal 0.707107 0.707107 0
    outer loop
      vertex 12.0915 9.82878 5
      vertex 12.0915 9.82878 0
      vertex 9.82878 12.0915 5
    endloop
  endfacet
  facet normal 0.707107 0.707107 0
    outer loop
      vertex 9.82878 12.0915 5
      vertex 12.0915 9.82878 0
      vertex 9.82878 12.0915 0
    endloop
  endfacet
  facet normal 0.707107 -0.707107 0
    outer loop
      vertex 16.1927 18.4555 0
      vertex 16.1927 18.4555 5
      vertex 9.82878 12.0915 5
    endloop
  endfacet
  facet normal 0.707107 -0.707107 0
    outer loop
      vertex 9.82878 12.0915 0
      vertex 16.1927 18.4555 0
      vertex 9.82878 12.0915 5
    endloop
  endfacet
  facet normal -0.707107 -0.707107 0
    outer loop
      vertex 18.4555 16.1927 0
      vertex 18.4555 16.1927 5
      vertex 16.1927 18.4555 5
    endloop
  endfacet
  facet normal -0.707107 -0.707107 0
    outer loop
      vertex 16.1927 18.4555 0
      vertex 18.4555 16.1927 0
      vertex 16.1927 18.4555 5
    endloop
  endfacet
  facet normal -0.707107 0.707107 0
    outer loop
      vertex 18.4555 16.1927 5
      vertex 18.4555 16.1927 0
      vertex 12.0915 9.82878 5
    endloop
  endfacet
  facet normal -0.707107 0.707107 0
    outer loop
      vertex 12.0915 9.82878 5
      vertex 18.4555 16.1927 0
      vertex 12.0915 9.82878 0
    endloop
  endfacet
  facet normal 0.984808 -0.173648 0
    outer loop
      vertex 17.7377 1.91531 0
      vertex 17.7377 1.91531 5
      vertex 17.4 0 5
    endloop
  endfacet
  facet normal 0.984808 -0.173648 0
    outer loop
      vertex 17.4 0 0
      vertex 17.7377 1.91531 0
      vertex 17.4 0 5
    endloop
  endfacet
  facet normal 0.984808 0.173648 0
    outer loop
      vertex 17.4 0 5
      vertex 17.7377 -1.91531 5
      vertex 17.7377 -1.91531 0
    endloop
  endfacet
  facet normal 0.984808 0.173648 0
    outer loop
      vertex 17.4 0 0
      vertex 17.4 0 5
      vertex 17.7377 -1.91531 0
    endloop
  endfacet
  facet normal 0.866025 -0.5 0
    outer loop
      vertex 18.7102 3.59961 0
      vertex 18.7102 3.59961 5
      vertex 17.7377 1.91531 5
    endloop
  endfacet
  facet normal 0.866025 -0.5 0
    outer loop
      vertex 17.7377 1.91531 0
      vertex 18.7102 3.59961 0
      vertex 17.7377 1.91531 5
    endloop
  endfacet
  facet normal 0.642787 -0.766045 0
    outer loop
      vertex 20.2 4.84974 0
      vertex 20.2 4.84974 5
      vertex 18.7102 3.59961 5
    endloop
  endfacet
  facet normal 0.642787 -0.766045 0
    outer loop
      vertex 18.7102 3.59961 0
      vertex 20.2 4.84974 0
      vertex 18.7102 3.59961 5
    endloop
  endfacet
  facet normal 0.34202 -0.939693 0
    outer loop
      vertex 22.0276 5.51492 0
      vertex 22.0276 5.51492 5
      vertex 20.2 4.84974 5
    endloop
  endfacet
  facet normal 0.34202 -0.939693 0
    outer loop
      vertex 20.2 4.84974 0
      vertex 22.0276 5.51492 0
      vertex 20.2 4.84974 5
    endloop
  endfacet
  facet normal 0 -1 0
    outer loop
      vertex 23.9724 5.51492 0
      vertex 23.9724 5.51492 5
      vertex 22.0276 5.51492 5
    endloop
  endfacet
  facet normal 0 -1 0
    outer loop
      vertex 22.0276 5.51492 0
      vertex 23.9724 5.51492 0
      vertex 22.0276 5.51492 5
    endloop
  endfacet
  facet normal -0.34202 -0.939693 0
    outer loop
      vertex 25.8 4.84974 0
      vertex 25.8 4.84974 5
      vertex 23.9724 5.51492 5
    endloop
  endfacet
  facet normal -0.34202 -0.939693 0
    outer loop
      vertex 23.9724 5.51492 0
      vertex 25.8 4.84974 0
      vertex 23.9724 5.51492 5
    endloop
  endfacet
  facet normal -0.642787 -0.766045 0
    outer loop
      vertex 27.2898 3.59961 0
      vertex 27.2898 3.59961 5
      vertex 25.8 4.84974 5
    endloop
  endfacet
  facet normal -0.642787 -0.766045 0
    outer loop
      vertex 25.8 4.84974 0
      vertex 27.2898 3.59961 0
      vertex 25.8 4.84974 5
    endloop
  endfacet
  facet normal -0.866025 -0.5 0
    outer loop
      vertex 28.2623 1.91531 5
      vertex 27.2898 3.59961 5
      vertex 28.2623 1.91531 0
    endloop
  endfacet
  facet normal -0.866025 -0.5 0
    outer loop
      vertex 28.2623 1.91531 0
      vertex 27.2898 3.59961 5
      vertex 27.2898 3.59961 0
    endloop
  endfacet
  facet normal -0.984808 -0.173648 0
    outer loop
      vertex 28.6 0 5
      vertex 28.2623 1.91531 5
      vertex 28.6 0 0
    endloop
  endfacet
  facet normal -0.984808 -0.173648 0
    outer loop
      vertex 28.6 0 0
      vertex 28.2623 1.91531 5
      vertex 28.2623 1.91531 0
    endloop
  endfacet
  facet normal -0.984808 0.173648 0
    outer loop
      vertex 28.6 0 5
      vertex 28.6 0 0
      vertex 28.2623 -1.91531 5
    endloop
  endfacet
  facet normal -0.984808 0.173648 0
    outer loop
      vertex 28.2623 -1.91531 5
      vertex 28.6 0 0
      vertex 28.2623 -1.91531 0
    endloop
  endfacet
  facet normal -0.866025 0.5 0
    outer loop
      vertex 28.2623 -1.91531 5
      vertex 28.2623 -1.91531 0
      vertex 27.2898 -3.59961 5
    endloop
  endfacet
  facet normal -0.866025 0.5 0
    outer loop
      vertex 27.2898 -3.59961 5
      vertex 28.2623 -1.91531 0
      vertex 27.2898 -3.59961 0
    endloop
  endfacet
  facet normal -0.642787 0.766045 0
    outer loop
      vertex 27.2898 -3.59961 5
      vertex 27.2898 -3.59961 0
      vertex 25.8 -4.84974 5
    endloop
  endfacet
  facet normal -0.642787 0.766045 0
    outer loop
      vertex 25.8 -4.84974 5
      vertex 27.2898 -3.59961 0
      vertex 25.8 -4.84974 0
    endloop
  endfacet
  facet normal -0.34202 0.939693 0
    outer loop
      vertex 25.8 -4.84974 5
      vertex 25.8 -4.84974 0
      vertex 23.9724 -5.51492 5
    endloop
  endfacet
  facet normal -0.34202 0.939693 0
    outer loop
      vertex 23.9724 -5.51492 5
      vertex 25.8 -4.84974 0
      vertex 23.9724 -5.51492 0
    endloop
  endfacet
  facet normal 0 1 0
    outer loop
      vertex 23.9724 -5.51492 5
      vertex 23.9724 -5.51492 0
      vertex 22.0276 -5.51492 5
    endloop
  endfacet
  facet normal 0 1 0
    outer loop
      vertex 22.0276 -5.51492 5
      vertex 23.9724 -5.51492 0
      vertex 22.0276 -5.51492 0
    endloop
  endfacet
  facet normal 0.34202 0.939693 0
    outer loop
      vertex 22.0276 -5.51492 5
      vertex 22.0276 -5.51492 0
      vertex 20.2 -4.84974 5
    endloop
  endfacet
  facet normal 0.34202 0.939693 0
    outer loop
      vertex 20.2 -4.84974 5
      vertex 22.0276 -5.51492 0
      vertex 20.2 -4.84974 0
    endloop
  endfacet
  facet normal 0.642787 0.766045 0
    outer loop
      vertex 20.2 -4.84974 5
      vertex 20.2 -4.84974 0
      vertex 18.7102 -3.59961 5
    endloop
  endfacet
  facet normal 0.642787 0.766045 0
    outer loop
      vertex 18.7102 -3.59961 5
      vertex 20.2 -4.84974 0
      vertex 18.7102 -3.59961 0
    endloop
  endfacet
  facet normal 0.866025 0.5 0
    outer loop
      vertex 17.7377 -1.91531 5
      vertex 18.7102 -3.59961 5
      vertex 18.7102 -3.59961 0
    endloop
  endfacet
  facet normal 0.866025 0.5 0
    outer loop
      vertex 17.7377 -1.91531 0
      vertex 17.7377 -1.91531 5
      vertex 18.7102 -3.59961 0
    endloop
  endfacet
  facet normal 0.913545 -0.406737 0
    outer loop
      vertex 26.8594 -11.355 0
      vertex 26.8594 -11.355 5
      vertex 26.0983 -13.0644 5
    endloop
  endfacet
  facet normal 0.913545 -0.406737 0
    outer loop
      vertex 26.0983 -13.0644 0
      vertex 26.8594 -11.355 0
      vertex 26.0983 -13.0644 5
    endloop
  endfacet
  facet normal 1 0 0
    outer loop
      vertex 26.0983 -13.0644 0
      vertex 26.0983 -13.0644 5
      vertex 26.0983 -14.9356 5
    endloop
  endfacet
  facet normal 1 0 0
    outer loop
      vertex 26.0983 -14.9356 0
      vertex 26.0983 -13.0644 0
      vertex 26.0983 -14.9356 5
    endloop
  endfacet
  facet normal 0.669131 -0.743145 0
    outer loop
      vertex 28.25 -10.1029 0
      vertex 28.25 -10.1029 5
      vertex 26.8594 -11.355 5
    endloop
  endfacet
  facet normal 0.669131 -0.743145 0
    outer loop
      vertex 26.8594 -11.355 0
      vertex 28.25 -10.1029 0
      vertex 26.8594 -11.355 5
    endloop
  endfacet
  facet normal 0.309017 -0.951056 0
    outer loop
      vertex 30.0296 -9.52465 0
      vertex 30.0296 -9.52465 5
      vertex 28.25 -10.1029 5
    endloop
  endfacet
  facet normal 0.309017 -0.951056 0
    outer loop
      vertex 28.25 -10.1029 0
      vertex 30.0296 -9.52465 0
      vertex 28.25 -10.1029 5
    endloop
  endfacet
  facet normal -0.104529 -0.994522 0
    outer loop
      vertex 31.8906 -9.72025 0
      vertex 31.8906 -9.72025 5
      vertex 30.0296 -9.52465 5
    endloop
  endfacet
  facet normal -0.104529 -0.994522 0
    outer loop
      vertex 30.0296 -9.52465 0
      vertex 31.8906 -9.72025 0
      vertex 30.0296 -9.52465 5
    endloop
  endfacet
  facet normal -0.5 -0.866026 0
    outer loop
      vertex 33.5111 -10.6558 0
      vertex 33.5111 -10.6558 5
      vertex 31.8906 -9.72025 5
    endloop
  endfacet
  facet normal -0.5 -0.866026 0
    outer loop
      vertex 31.8906 -9.72025 0
      vertex 33.5111 -10.6558 0
      vertex 31.8906 -9.72025 5
    endloop
  endfacet
  facet normal -0.809017 -0.587785 0
    outer loop
      vertex 34.611 -12.1697 5
      vertex 33.5111 -10.6558 5
      vertex 34.611 -12.1697 0
    endloop
  endfacet
  facet normal -0.809017 -0.587785 0
    outer loop
      vertex 34.611 -12.1697 0
      vertex 33.5111 -10.6558 5
      vertex 33.5111 -10.6558 0
    endloop
  endfacet
  facet normal -0.978148 -0.207911 0
    outer loop
      vertex 35 -14 5
      vertex 34.611 -12.1697 5
      vertex 35 -14 0
    endloop
  endfacet
  facet normal -0.978148 -0.207911 0
    outer loop
      vertex 35 -14 0
      vertex 34.611 -12.1697 5
      vertex 34.611 -12.1697 0
    endloop
  endfacet
  facet normal -0.978148 0.207911 0
    outer loop
      vertex 35 -14 5
      vertex 35 -14 0
      vertex 34.611 -15.8303 5
    endloop
  endfacet
  facet normal -0.978148 0.207911 0
    outer loop
      vertex 34.611 -15.8303 5
      vertex 35 -14 0
      vertex 34.611 -15.8303 0
    endloop
  endfacet
  facet normal -0.809017 0.587785 0
    outer loop
      vertex 34.611 -15.8303 5
      vertex 34.611 -15.8303 0
      vertex 33.5111 -17.3442 5
    endloop
  endfacet
  facet normal -0.809017 0.587785 0
    outer loop
      vertex 33.5111 -17.3442 5
      vertex 34.611 -15.8303 0
      vertex 33.5111 -17.3442 0
    endloop
  endfacet
  facet normal -0.5 0.866026 0
    outer loop
      vertex 33.5111 -17.3442 5
      vertex 33.5111 -17.3442 0
      vertex 31.8906 -18.2798 5
    endloop
  endfacet
  facet normal -0.5 0.866026 0
    outer loop
      vertex 31.8906 -18.2798 5
      vertex 33.5111 -17.3442 0
      vertex 31.8906 -18.2798 0
    endloop
  endfacet
  facet normal -0.104529 0.994522 0
    outer loop
      vertex 31.8906 -18.2798 5
      vertex 31.8906 -18.2798 0
      vertex 30.0296 -18.4753 5
    endloop
  endfacet
  facet normal -0.104529 0.994522 0
    outer loop
      vertex 30.0296 -18.4753 5
      vertex 31.8906 -18.2798 0
      vertex 30.0296 -18.4753 0
    endloop
  endfacet
  facet normal 0.309017 0.951056 0
    outer loop
      vertex 30.0296 -18.4753 5
      vertex 30.0296 -18.4753 0
      vertex 28.25 -17.8971 5
    endloop
  endfacet
  facet normal 0.309017 0.951056 0
    outer loop
      vertex 28.25 -17.8971 5
      vertex 30.0296 -18.4753 0
      vertex 28.25 -17.8971 0
    endloop
  endfacet
  facet normal 0.669131 0.743145 0
    outer loop
      vertex 28.25 -17.8971 5
      vertex 28.25 -17.8971 0
      vertex 26.8594 -16.645 5
    endloop
  endfacet
  facet normal 0.669131 0.743145 0
    outer loop
      vertex 26.8594 -16.645 5
      vertex 28.25 -17.8971 0
      vertex 26.8594 -16.645 0
    endloop
  endfacet
  facet normal 0.913545 0.406737 0
    outer loop
      vertex 26.0983 -14.9356 5
      vertex 26.8594 -16.645 5
      vertex 26.8594 -16.645 0
    endloop
  endfacet
  facet normal 0.913545 0.406737 0
    outer loop
      vertex 26.0983 -14.9356 0
      vertex 26.0983 -14.9356 5
      vertex 26.8594 -16.645 0
    endloop
  endfacet
  facet normal 0.913545 -0.406737 0
    outer loop
      vertex 26.8594 16.645 0
      vertex 26.8594 16.645 5
      vertex 26.0983 14.9356 5
    endloop
  endfacet
  facet normal 0.913545 -0.406737 0
    outer loop
      vertex 26.0983 14.9356 0
      vertex 26.8594 16.645 0
      vertex 26.0983 14.9356 5
    endloop
  endfacet
  facet normal 1 0 0
    outer loop
      vertex 26.0983 14.9356 0
      vertex 26.0983 14.9356 5
      vertex 26.0983 13.0644 5
    endloop
  endfacet
  facet normal 1 0 0
    outer loop
      vertex 26.0983 13.0644 0
      vertex 26.0983 14.9356 0
      vertex 26.0983 13.0644 5
    endloop
  endfacet
  facet normal 0.669131 -0.743145 0
    outer loop
      vertex 28.25 17.8971 0
      vertex 28.25 17.8971 5
      vertex 26.8594 16.645 5
    endloop
  endfacet
  facet normal 0.669131 -0.743145 0
    outer loop
      vertex 26.8594 16.645 0
      vertex 28.25 17.8971 0
      vertex 26.8594 16.645 5
    endloop
  endfacet
  facet normal 0.309017 -0.951056 0
    outer loop
      vertex 30.0296 18.4753 0
      vertex 30.0296 18.4753 5
      vertex 28.25 17.8971 5
    endloop
  endfacet
  facet normal 0.309017 -0.951056 0
    outer loop
      vertex 28.25 17.8971 0
      vertex 30.0296 18.4753 0
      vertex 28.25 17.8971 5
    endloop
  endfacet
  facet normal -0.104529 -0.994522 0
    outer loop
      vertex 31.8906 18.2798 0
      vertex 31.8906 18.2798 5
      vertex 30.0296 18.4753 5
    endloop
  endfacet
  facet normal -0.104529 -0.994522 0
    outer loop
      vertex 30.0296 18.4753 0
      vertex 31.8906 18.2798 0
      vertex 30.0296 18.4753 5
    endloop
  endfacet
  facet normal -0.5 -0.866026 0
    outer loop
      vertex 33.5111 17.3442 0
      vertex 33.5111 17.3442 5
      vertex 31.8906 18.2798 5
    endloop
  endfacet
  facet normal -0.5 -0.866026 0
    outer loop
      vertex 31.8906 18.2798 0
      vertex 33.5111 17.3442 0
      vertex 31.8906 18.2798 5
    endloop
  endfacet
  facet normal -0.809017 -0.587785 0
    outer loop
      vertex 34.611 15.8303 5
      vertex 33.5111 17.3442 5
      vertex 34.611 15.8303 0
    endloop
  endfacet
  facet normal -0.809017 -0.587785 0
    outer loop
      vertex 34.611 15.8303 0
      vertex 33.5111 17.3442 5
      vertex 33.5111 17.3442 0
    endloop
  endfacet
  facet normal -0.978148 -0.207911 0
    outer loop
      vertex 35 14 5
      vertex 34.611 15.8303 5
      vertex 35 14 0
    endloop
  endfacet
  facet normal -0.978148 -0.207911 0
    outer loop
      vertex 35 14 0
      vertex 34.611 15.8303 5
      vertex 34.611 15.8303 0
    endloop
  endfacet
  facet normal -0.978148 0.207911 0
    outer loop
      vertex 35 14 5
      vertex 35 14 0
      vertex 34.611 12.1697 5
    endloop
  endfacet
  facet normal -0.978148 0.207911 0
    outer loop
      vertex 34.611 12.1697 5
      vertex 35 14 0
      vertex 34.611 12.1697 0
    endloop
  endfacet
  facet normal -0.809017 0.587785 0
    outer loop
      vertex 34.611 12.1697 5
      vertex 34.611 12.1697 0
      vertex 33.5111 10.6558 5
    endloop
  endfacet
  facet normal -0.809017 0.587785 0
    outer loop
      vertex 33.5111 10.6558 5
      vertex 34.611 12.1697 0
      vertex 33.5111 10.6558 0
    endloop
  endfacet
  facet normal -0.5 0.866026 0
    outer loop
      vertex 33.5111 10.6558 5
      vertex 33.5111 10.6558 0
      vertex 31.8906 9.72025 5
    endloop
  endfacet
  facet normal -0.5 0.866026 0
    outer loop
      vertex 31.8906 9.72025 5
      vertex 33.5111 10.6558 0
      vertex 31.8906 9.72025 0
    endloop
  endfacet
  facet normal -0.104529 0.994522 0
    outer loop
      vertex 31.8906 9.72025 5
      vertex 31.8906 9.72025 0
      vertex 30.0296 9.52465 5
    endloop
  endfacet
  facet normal -0.104529 0.994522 0
    outer loop
      vertex 30.0296 9.52465 5
      vertex 31.8906 9.72025 0
      vertex 30.0296 9.52465 0
    endloop
  endfacet
  facet normal 0.309017 0.951056 0
    outer loop
      vertex 30.0296 9.52465 5
      vertex 30.0296 9.52465 0
      vertex 28.25 10.1029 5
    endloop
  endfacet
  facet normal 0.309017 0.951056 0
    outer loop
      vertex 28.25 10.1029 5
      vertex 30.0296 9.52465 0
      vertex 28.25 10.1029 0
    endloop
  endfacet
  facet normal 0.669131 0.743145 0
    outer loop
      vertex 28.25 10.1029 5
      vertex 28.25 10.1029 0
      vertex 26.8594 11.355 5
    endloop
  endfacet
  facet normal 0.669131 0.743145 0
    outer loop
      vertex 26.8594 11.355 5
      vertex 28.25 10.1029 0
      vertex 26.8594 11.355 0
    endloop
  endfacet
  facet normal 0.913545 0.406737 0
    outer loop
      vertex 26.0983 13.0644 5
      vertex 26.8594 11.355 5
      vertex 26.8594 11.355 0
    endloop
  endfacet
  facet normal 0.913545 0.406737 0
    outer loop
      vertex 26.0983 13.0644 0
      vertex 26.0983 13.0644 5
      vertex 26.8594 11.355 0
    endloop
  endfacet
endsolid OpenSCAD_Model
