solid OpenSCAD_Model
  facet normal -1 0 0
    outer loop
      vertex -33 -5.75 18.25
      vertex -33 -26.5 23.5
      vertex -33 26.5 23.5
    endloop
  endfacet
  facet normal -1 0 0
    outer loop
      vertex -33 5.75 18.25
      vertex -33 -5.75 18.25
      vertex -33 26.5 23.5
    endloop
  endfacet
  facet normal -1 0 0
    outer loop
      vertex -33 -26.5 -23.5
      vertex -33 -26.5 23.5
      vertex -33 -5.75 -13.25
    endloop
  endfacet
  facet normal -1 0 0
    outer loop
      vertex -33 -26.5 -23.5
      vertex -33 -5.75 -13.25
      vertex -33 26.5 -23.5
    endloop
  endfacet
  facet normal -1 0 0
    outer loop
      vertex -33 5.75 18.25
      vertex -33 26.5 -23.5
      vertex -33 5.75 -13.25
    endloop
  endfacet
  facet normal -1 0 0
    outer loop
      vertex -33 -5.75 -13.25
      vertex -33 5.75 -13.25
      vertex -33 26.5 -23.5
    endloop
  endfacet
  facet normal -1 0 0
    outer loop
      vertex -33 26.5 -23.5
      vertex -33 5.75 18.25
      vertex -33 26.5 23.5
    endloop
  endfacet
  facet normal -1 0 0
    outer loop
      vertex -33 -5.75 -13.25
      vertex -33 -26.5 23.5
      vertex -33 -5.75 18.25
    endloop
  endfacet
  facet normal 0 -1 0
    outer loop
      vertex 22.5816 -26.5 -18.2401
      vertex -33 -26.5 -23.5
      vertex 33 -26.5 -23.5
    endloop
  endfacet
  facet normal 0 -1 0
    outer loop
      vertex 21.006 -26.5 -17.1525
      vertex 20.1162 -26.5 -15.4573
      vertex -23 -26.5 9.25
    endloop
  endfacet
  facet normal 0 -1 0
    outer loop
      vertex -33 -26.5 23.5
      vertex -33 -26.5 -23.5
      vertex -23 -26.5 9.25
    endloop
  endfacet
  facet normal 0 -1 0
    outer loop
      vertex 33 -26.5 23.5
      vertex -33 -26.5 23.5
      vertex -23 -26.5 20.75
    endloop
  endfacet
  facet normal 0 -1 0
    outer loop
      vertex 33 -26.5 23.5
      vertex -23 -26.5 20.75
      vertex 10 -26.5 20.75
    endloop
  endfacet
  facet normal 0 -1 0
    outer loop
      vertex 28 -26.5 -14.5
      vertex 27.5418 -26.5 -16.3589
      vertex 33 -26.5 -23.5
    endloop
  endfacet
  facet normal 0 -1 0
    outer loop
      vertex 26.2723 -26.5 -17.7919
      vertex 24.4821 -26.5 -18.4708
      vertex 33 -26.5 -23.5
    endloop
  endfacet
  facet normal 0 -1 0
    outer loop
      vertex 10 -26.5 9.25
      vertex 21.006 -26.5 -11.8475
      vertex 22.5816 -26.5 -10.7599
    endloop
  endfacet
  facet normal 0 -1 0
    outer loop
      vertex 10 -26.5 20.75
      vertex 10 -26.5 9.25
      vertex 24.4821 -26.5 -10.5292
    endloop
  endfacet
  facet normal 0 -1 0
    outer loop
      vertex 27.5418 -26.5 -12.6411
      vertex 28 -26.5 -14.5
      vertex 33 -26.5 -23.5
    endloop
  endfacet
  facet normal 0 -1 0
    outer loop
      vertex 10 -26.5 20.75
      vertex 24.4821 -26.5 -10.5292
      vertex 26.2723 -26.5 -11.2081
    endloop
  endfacet
  facet normal 0 -1 0
    outer loop
      vertex 33 -26.5 23.5
      vertex 27.5418 -26.5 -12.6411
      vertex 33 -26.5 -23.5
    endloop
  endfacet
  facet normal 0 -1 0
    outer loop
      vertex 33 -26.5 23.5
      vertex 10 -26.5 20.75
      vertex 27.5418 -26.5 -12.6411
    endloop
  endfacet
  facet normal 0 -1 0
    outer loop
      vertex 26.2723 -26.5 -11.2081
      vertex 27.5418 -26.5 -12.6411
      vertex 10 -26.5 20.75
    endloop
  endfacet
  facet normal 0 -1 0
    outer loop
      vertex 27.5418 -26.5 -16.3589
      vertex 26.2723 -26.5 -17.7919
      vertex 33 -26.5 -23.5
    endloop
  endfacet
  facet normal 0 -1 0
    outer loop
      vertex -23 -26.5 9.25
      vertex -33 -26.5 -23.5
      vertex 22.5816 -26.5 -18.2401
    endloop
  endfacet
  facet normal 0 -1 0
    outer loop
      vertex 22.5816 -26.5 -10.7599
      vertex 24.4821 -26.5 -10.5292
      vertex 10 -26.5 9.25
    endloop
  endfacet
  facet normal 0 -1 0
    outer loop
      vertex -23 -26.5 9.25
      vertex 22.5816 -26.5 -18.2401
      vertex 21.006 -26.5 -17.1525
    endloop
  endfacet
  facet normal 0 -1 0
    outer loop
      vertex -23 -26.5 9.25
      vertex -23 -26.5 20.75
      vertex -33 -26.5 23.5
    endloop
  endfacet
  facet normal 0 -1 0
    outer loop
      vertex 10 -26.5 9.25
      vertex 20.1162 -26.5 -13.5427
      vertex 21.006 -26.5 -11.8475
    endloop
  endfacet
  facet normal 0 -1 0
    outer loop
      vertex 24.4821 -26.5 -18.4708
      vertex 22.5816 -26.5 -18.2401
      vertex 33 -26.5 -23.5
    endloop
  endfacet
  facet normal 0 -1 0
    outer loop
      vertex 10 -26.5 9.25
      vertex 20.1162 -26.5 -15.4573
      vertex 20.1162 -26.5 -13.5427
    endloop
  endfacet
  facet normal 0 -1 0
    outer loop
      vertex 10 -26.5 9.25
      vertex -23 -26.5 9.25
      vertex 20.1162 -26.5 -15.4573
    endloop
  endfacet
  facet normal 0 0 -1
    outer loop
      vertex 10 16.5 -23.5
      vertex 33 -26.5 -23.5
      vertex 10 -16.5 -23.5
    endloop
  endfacet
  facet normal 0 0 -1
    outer loop
      vertex 10 16.5 -23.5
      vertex -33 26.5 -23.5
      vertex 33 26.5 -23.5
    endloop
  endfacet
  facet normal 0 0 -1
    outer loop
      vertex -33 -26.5 -23.5
      vertex -33 26.5 -23.5
      vertex -23 16.5 -23.5
    endloop
  endfacet
  facet normal 0 0 -1
    outer loop
      vertex -33 -26.5 -23.5
      vertex -23 16.5 -23.5
      vertex -23 -16.5 -23.5
    endloop
  endfacet
  facet normal 0 0 -1
    outer loop
      vertex -33 -26.5 -23.5
      vertex -23 -16.5 -23.5
      vertex 33 -26.5 -23.5
    endloop
  endfacet
  facet normal 0 0 -1
    outer loop
      vertex -23 -16.5 -23.5
      vertex 10 -16.5 -23.5
      vertex 33 -26.5 -23.5
    endloop
  endfacet
  facet normal 0 0 -1
    outer loop
      vertex 33 -26.5 -23.5
      vertex 10 16.5 -23.5
      vertex 33 26.5 -23.5
    endloop
  endfacet
  facet normal 0 0 -1
    outer loop
      vertex -23 16.5 -23.5
      vertex -33 26.5 -23.5
      vertex 10 16.5 -23.5
    endloop
  endfacet
  facet normal 0 1 0
    outer loop
      vertex -23 26.5 20.75
      vertex -33 26.5 23.5
      vertex 33 26.5 23.5
    endloop
  endfacet
  facet normal 0 1 0
    outer loop
      vertex 10 26.5 9.25
      vertex 20.1162 26.5 -13.5427
      vertex 20.1162 26.5 -15.4573
    endloop
  endfacet
  facet normal 0 1 0
    outer loop
      vertex 10 26.5 20.75
      vertex -23 26.5 20.75
      vertex 33 26.5 23.5
    endloop
  endfacet
  facet normal 0 1 0
    outer loop
      vertex -33 26.5 -23.5
      vertex -33 26.5 23.5
      vertex -23 26.5 9.25
    endloop
  endfacet
  facet normal 0 1 0
    outer loop
      vertex 24.4821 26.5 -18.4708
      vertex 33 26.5 -23.5
      vertex 22.5816 26.5 -18.2401
    endloop
  endfacet
  facet normal 0 1 0
    outer loop
      vertex 21.006 26.5 -17.1525
      vertex -23 26.5 9.25
      vertex 20.1162 26.5 -15.4573
    endloop
  endfacet
  facet normal 0 1 0
    outer loop
      vertex 27.5418 26.5 -12.6411
      vertex 10 26.5 9.25
      vertex 33 26.5 23.5
    endloop
  endfacet
  facet normal 0 1 0
    outer loop
      vertex 10 26.5 9.25
      vertex 10 26.5 20.75
      vertex 33 26.5 23.5
    endloop
  endfacet
  facet normal 0 1 0
    outer loop
      vertex 10 26.5 9.25
      vertex 21.006 26.5 -11.8475
      vertex 20.1162 26.5 -13.5427
    endloop
  endfacet
  facet normal 0 1 0
    outer loop
      vertex 28 26.5 -14.5
      vertex 33 26.5 -23.5
      vertex 27.5418 26.5 -16.3589
    endloop
  endfacet
  facet normal 0 1 0
    outer loop
      vertex -33 26.5 -23.5
      vertex -23 26.5 9.25
      vertex 21.006 26.5 -17.1525
    endloop
  endfacet
  facet normal 0 1 0
    outer loop
      vertex -33 26.5 -23.5
      vertex 21.006 26.5 -17.1525
      vertex 22.5816 26.5 -18.2401
    endloop
  endfacet
  facet normal 0 1 0
    outer loop
      vertex -33 26.5 -23.5
      vertex 22.5816 26.5 -18.2401
      vertex 33 26.5 -23.5
    endloop
  endfacet
  facet normal 0 1 0
    outer loop
      vertex 33 26.5 -23.5
      vertex 26.2723 26.5 -17.7919
      vertex 27.5418 26.5 -16.3589
    endloop
  endfacet
  facet normal 0 1 0
    outer loop
      vertex 22.5816 26.5 -10.7599
      vertex 10 26.5 9.25
      vertex 24.4821 26.5 -10.5292
    endloop
  endfacet
  facet normal 0 1 0
    outer loop
      vertex 33 26.5 -23.5
      vertex 28 26.5 -14.5
      vertex 33 26.5 23.5
    endloop
  endfacet
  facet normal 0 1 0
    outer loop
      vertex 26.2723 26.5 -11.2081
      vertex 10 26.5 9.25
      vertex 27.5418 26.5 -12.6411
    endloop
  endfacet
  facet normal 0 1 0
    outer loop
      vertex 28 26.5 -14.5
      vertex 27.5418 26.5 -12.6411
      vertex 33 26.5 23.5
    endloop
  endfacet
  facet normal 0 1 0
    outer loop
      vertex 24.4821 26.5 -10.5292
      vertex 10 26.5 9.25
      vertex 26.2723 26.5 -11.2081
    endloop
  endfacet
  facet normal 0 1 0
    outer loop
      vertex 21.006 26.5 -11.8475
      vertex 10 26.5 9.25
      vertex 22.5816 26.5 -10.7599
    endloop
  endfacet
  facet normal 0 1 0
    outer loop
      vertex 26.2723 26.5 -17.7919
      vertex 33 26.5 -23.5
      vertex 24.4821 26.5 -18.4708
    endloop
  endfacet
  facet normal 0 1 0
    outer loop
      vertex -23 26.5 9.25
      vertex -33 26.5 23.5
      vertex -23 26.5 20.75
    endloop
  endfacet
  facet normal 0 1 0
    outer loop
      vertex 10 26.5 9.25
      vertex 20.1162 26.5 -15.4573
      vertex -23 26.5 9.25
    endloop
  endfacet
  facet normal 0 0 1
    outer loop
      vertex -28 -21.5 23.5
      vertex -33 -26.5 23.5
      vertex 33 -26.5 23.5
    endloop
  endfacet
  facet normal 0 0 1
    outer loop
      vertex 15 21.5 23.5
      vertex 15 -21.5 23.5
      vertex 20.1162 -14.9573 23.5
    endloop
  endfacet
  facet normal 0 0 1
    outer loop
      vertex 15 -21.5 23.5
      vertex -28 -21.5 23.5
      vertex 33 -26.5 23.5
    endloop
  endfacet
  facet normal 0 0 1
    outer loop
      vertex -33 26.5 23.5
      vertex -33 -26.5 23.5
      vertex -28 -21.5 23.5
    endloop
  endfacet
  facet normal 0 0 1
    outer loop
      vertex -33 26.5 23.5
      vertex -28 -21.5 23.5
      vertex -28 21.5 23.5
    endloop
  endfacet
  facet normal 0 0 1
    outer loop
      vertex 20.1162 13.0427 23.5
      vertex 15 21.5 23.5
      vertex 33 -26.5 23.5
    endloop
  endfacet
  facet normal 0 0 1
    outer loop
      vertex 33 26.5 23.5
      vertex -33 26.5 23.5
      vertex 15 21.5 23.5
    endloop
  endfacet
  facet normal 0 0 1
    outer loop
      vertex 22.5816 17.7401 23.5
      vertex 24.4821 17.9708 23.5
      vertex 33 26.5 23.5
    endloop
  endfacet
  facet normal 0 0 1
    outer loop
      vertex 24.4821 -17.9708 23.5
      vertex 22.5816 -17.7401 23.5
      vertex 33 -26.5 23.5
    endloop
  endfacet
  facet normal 0 0 1
    outer loop
      vertex 15 21.5 23.5
      vertex 20.1162 -14.9573 23.5
      vertex 20.1162 -13.0427 23.5
    endloop
  endfacet
  facet normal 0 0 1
    outer loop
      vertex 15 21.5 23.5
      vertex 20.1162 -13.0427 23.5
      vertex 21.006 -11.3475 23.5
    endloop
  endfacet
  facet normal 0 0 1
    outer loop
      vertex 15 21.5 23.5
      vertex 21.006 -11.3475 23.5
      vertex 22.5816 -10.2599 23.5
    endloop
  endfacet
  facet normal 0 0 1
    outer loop
      vertex 26.2723 -17.2919 23.5
      vertex 24.4821 -17.9708 23.5
      vertex 33 -26.5 23.5
    endloop
  endfacet
  facet normal 0 0 1
    outer loop
      vertex 15 21.5 23.5
      vertex 22.5816 -10.2599 23.5
      vertex 24.4821 -10.0292 23.5
    endloop
  endfacet
  facet normal 0 0 1
    outer loop
      vertex 15 21.5 23.5
      vertex 24.4821 -10.0292 23.5
      vertex 26.2723 -10.7081 23.5
    endloop
  endfacet
  facet normal 0 0 1
    outer loop
      vertex 15 21.5 23.5
      vertex 27.5418 -12.1411 23.5
      vertex 33 -26.5 23.5
    endloop
  endfacet
  facet normal 0 0 1
    outer loop
      vertex 15 21.5 23.5
      vertex 26.2723 -10.7081 23.5
      vertex 27.5418 -12.1411 23.5
    endloop
  endfacet
  facet normal 0 0 1
    outer loop
      vertex 27.5418 -12.1411 23.5
      vertex 28 -14 23.5
      vertex 33 -26.5 23.5
    endloop
  endfacet
  facet normal 0 0 1
    outer loop
      vertex 21.006 -16.6525 23.5
      vertex 15 -21.5 23.5
      vertex 33 -26.5 23.5
    endloop
  endfacet
  facet normal 0 0 1
    outer loop
      vertex 22.5816 -17.7401 23.5
      vertex 21.006 -16.6525 23.5
      vertex 33 -26.5 23.5
    endloop
  endfacet
  facet normal 0 0 1
    outer loop
      vertex 20.1162 -14.9573 23.5
      vertex 15 -21.5 23.5
      vertex 21.006 -16.6525 23.5
    endloop
  endfacet
  facet normal 0 0 1
    outer loop
      vertex 21.006 11.3475 23.5
      vertex 20.1162 13.0427 23.5
      vertex 33 -26.5 23.5
    endloop
  endfacet
  facet normal 0 0 1
    outer loop
      vertex 20.1162 14.9573 23.5
      vertex 15 21.5 23.5
      vertex 20.1162 13.0427 23.5
    endloop
  endfacet
  facet normal 0 0 1
    outer loop
      vertex 21.006 16.6525 23.5
      vertex 15 21.5 23.5
      vertex 20.1162 14.9573 23.5
    endloop
  endfacet
  facet normal 0 0 1
    outer loop
      vertex 33 26.5 23.5
      vertex 15 21.5 23.5
      vertex 21.006 16.6525 23.5
    endloop
  endfacet
  facet normal 0 0 1
    outer loop
      vertex 24.4821 17.9708 23.5
      vertex 26.2723 17.2919 23.5
      vertex 33 26.5 23.5
    endloop
  endfacet
  facet normal 0 0 1
    outer loop
      vertex 33 26.5 23.5
      vertex 21.006 16.6525 23.5
      vertex 22.5816 17.7401 23.5
    endloop
  endfacet
  facet normal 0 0 1
    outer loop
      vertex 28 14 23.5
      vertex 27.5418 12.1411 23.5
      vertex 33 -26.5 23.5
    endloop
  endfacet
  facet normal 0 0 1
    outer loop
      vertex 27.5418 12.1411 23.5
      vertex 26.2723 10.7081 23.5
      vertex 33 -26.5 23.5
    endloop
  endfacet
  facet normal 0 0 1
    outer loop
      vertex 33 26.5 23.5
      vertex 26.2723 17.2919 23.5
      vertex 27.5418 15.8589 23.5
    endloop
  endfacet
  facet normal 0 0 1
    outer loop
      vertex 33 26.5 23.5
      vertex 28 14 23.5
      vertex 33 -26.5 23.5
    endloop
  endfacet
  facet normal 0 0 1
    outer loop
      vertex 33 26.5 23.5
      vertex 27.5418 15.8589 23.5
      vertex 28 14 23.5
    endloop
  endfacet
  facet normal 0 0 1
    outer loop
      vertex 26.2723 10.7081 23.5
      vertex 24.4821 10.0292 23.5
      vertex 33 -26.5 23.5
    endloop
  endfacet
  facet normal 0 0 1
    outer loop
      vertex 24.4821 10.0292 23.5
      vertex 22.5816 10.2599 23.5
      vertex 33 -26.5 23.5
    endloop
  endfacet
  facet normal 0 0 1
    outer loop
      vertex 22.5816 10.2599 23.5
      vertex 21.006 11.3475 23.5
      vertex 33 -26.5 23.5
    endloop
  endfacet
  facet normal 0 0 1
    outer loop
      vertex 28 -14 23.5
      vertex 27.5418 -15.8589 23.5
      vertex 33 -26.5 23.5
    endloop
  endfacet
  facet normal 0 0 1
    outer loop
      vertex 27.5418 -15.8589 23.5
      vertex 26.2723 -17.2919 23.5
      vertex 33 -26.5 23.5
    endloop
  endfacet
  facet normal 0 0 1
    outer loop
      vertex -28 21.5 23.5
      vertex 15 21.5 23.5
      vertex -33 26.5 23.5
    endloop
  endfacet
  facet normal 2.22045e-16 1 0
    outer loop
      vertex -28 -5.75 18.25
      vertex -28 -5.75 -4.7
      vertex -33 -5.75 18.25
    endloop
  endfacet
  facet normal 2.22045e-16 1 0
    outer loop
      vertex -23 -5.75 -13.25
      vertex -28 -5.75 -4.7
      vertex -23 -5.75 -4.7
    endloop
  endfacet
  facet normal 2.22045e-16 1 0
    outer loop
      vertex -33 -5.75 -13.25
      vertex -28 -5.75 -4.7
      vertex -23 -5.75 -13.25
    endloop
  endfacet
  facet normal 2.22045e-16 1 0
    outer loop
      vertex -33 -5.75 18.25
      vertex -28 -5.75 -4.7
      vertex -33 -5.75 -13.25
    endloop
  endfacet
  facet normal 0 0 -1
    outer loop
      vertex -28 5.75 18.25
      vertex -28 -5.75 18.25
      vertex -33 5.75 18.25
    endloop
  endfacet
  facet normal 0 0 -1
    outer loop
      vertex -33 5.75 18.25
      vertex -28 -5.75 18.25
      vertex -33 -5.75 18.25
    endloop
  endfacet
  facet normal -2.22045e-16 -1 0
    outer loop
      vertex -23 5.75 -13.25
      vertex -23 5.75 -4.7
      vertex -28 5.75 -4.7
    endloop
  endfacet
  facet normal -2.22045e-16 -1 0
    outer loop
      vertex -33 5.75 -13.25
      vertex -23 5.75 -13.25
      vertex -28 5.75 -4.7
    endloop
  endfacet
  facet normal -2.22045e-16 -1 0
    outer loop
      vertex -28 5.75 18.25
      vertex -33 5.75 18.25
      vertex -28 5.75 -4.7
    endloop
  endfacet
  facet normal -2.22045e-16 -1 0
    outer loop
      vertex -33 5.75 18.25
      vertex -33 5.75 -13.25
      vertex -28 5.75 -4.7
    endloop
  endfacet
  facet normal 0 0 1
    outer loop
      vertex -23 -5.75 -13.25
      vertex -23 5.75 -13.25
      vertex -33 5.75 -13.25
    endloop
  endfacet
  facet normal 0 0 1
    outer loop
      vertex -33 -5.75 -13.25
      vertex -23 -5.75 -13.25
      vertex -33 5.75 -13.25
    endloop
  endfacet
  facet normal 1 0 0
    outer loop
      vertex 33 -5.75 -13.25
      vertex 33 -26.5 -23.5
      vertex 33 26.5 -23.5
    endloop
  endfacet
  facet normal 1 0 0
    outer loop
      vertex 33 5.75 -13.25
      vertex 33 -5.75 -13.25
      vertex 33 26.5 -23.5
    endloop
  endfacet
  facet normal 1 0 0
    outer loop
      vertex 33 -26.5 23.5
      vertex 33 -26.5 -23.5
      vertex 33 -5.75 -13.25
    endloop
  endfacet
  facet normal 1 0 0
    outer loop
      vertex 33 26.5 23.5
      vertex 33 -26.5 23.5
      vertex 33 -5.75 18.25
    endloop
  endfacet
  facet normal 1 0 0
    outer loop
      vertex 33 26.5 23.5
      vertex 33 5.75 18.25
      vertex 33 26.5 -23.5
    endloop
  endfacet
  facet normal 1 0 0
    outer loop
      vertex 33 26.5 23.5
      vertex 33 -5.75 18.25
      vertex 33 5.75 18.25
    endloop
  endfacet
  facet normal 1 0 0
    outer loop
      vertex 33 5.75 18.25
      vertex 33 5.75 -13.25
      vertex 33 26.5 -23.5
    endloop
  endfacet
  facet normal 1 0 0
    outer loop
      vertex 33 -5.75 -13.25
      vertex 33 -5.75 18.25
      vertex 33 -26.5 23.5
    endloop
  endfacet
  facet normal 1 0 0
    outer loop
      vertex -23 -21.5 9.25
      vertex -23 -21.5 20.75
      vertex -23 -26.5 20.75
    endloop
  endfacet
  facet normal 1 0 0
    outer loop
      vertex -23 -26.5 9.25
      vertex -23 -21.5 9.25
      vertex -23 -26.5 20.75
    endloop
  endfacet
  facet normal 0 0 1
    outer loop
      vertex 10 -26.5 9.25
      vertex 10 -21.5 9.25
      vertex -23 -21.5 9.25
    endloop
  endfacet
  facet normal 0 0 1
    outer loop
      vertex -23 -26.5 9.25
      vertex 10 -26.5 9.25
      vertex -23 -21.5 9.25
    endloop
  endfacet
  facet normal -1 0 0
    outer loop
      vertex 10 -21.5 20.75
      vertex 10 -21.5 9.25
      vertex 10 -26.5 20.75
    endloop
  endfacet
  facet normal -1 0 0
    outer loop
      vertex 10 -26.5 20.75
      vertex 10 -21.5 9.25
      vertex 10 -26.5 9.25
    endloop
  endfacet
  facet normal 0 0 -1
    outer loop
      vertex 10 -21.5 20.75
      vertex 10 -26.5 20.75
      vertex -23 -21.5 20.75
    endloop
  endfacet
  facet normal 0 0 -1
    outer loop
      vertex -23 -21.5 20.75
      vertex 10 -26.5 20.75
      vertex -23 -26.5 20.75
    endloop
  endfacet
  facet normal 1 0 0
    outer loop
      vertex 20.1162 26.5 -15.4573
      vertex 20.1162 26.5 -13.5427
      vertex 20.1162 -26.5 -13.5427
    endloop
  endfacet
  facet normal 1 0 0
    outer loop
      vertex 20.1162 -26.5 -15.4573
      vertex 20.1162 26.5 -15.4573
      vertex 20.1162 -26.5 -13.5427
    endloop
  endfacet
  facet normal 0.885456 1.03189e-16 0.464723
    outer loop
      vertex 21.006 -26.5 -17.1525
      vertex 21.006 26.5 -17.1525
      vertex 20.1162 26.5 -15.4573
    endloop
  endfacet
  facet normal 0.885456 1.03189e-16 0.464723
    outer loop
      vertex 20.1162 -26.5 -15.4573
      vertex 21.006 -26.5 -17.1525
      vertex 20.1162 26.5 -15.4573
    endloop
  endfacet
  facet normal 0.568065 1.82739e-16 0.822984
    outer loop
      vertex 22.5816 -26.5 -18.2401
      vertex 22.5816 26.5 -18.2401
      vertex 21.006 26.5 -17.1525
    endloop
  endfacet
  facet normal 0.568065 1.82739e-16 0.822984
    outer loop
      vertex 21.006 -26.5 -17.1525
      vertex 22.5816 -26.5 -18.2401
      vertex 21.006 26.5 -17.1525
    endloop
  endfacet
  facet normal 0.120536 2.20426e-16 0.992709
    outer loop
      vertex 24.4821 -26.5 -18.4708
      vertex 24.4821 26.5 -18.4708
      vertex 22.5816 26.5 -18.2401
    endloop
  endfacet
  facet normal 0.120536 2.20426e-16 0.992709
    outer loop
      vertex 22.5816 -26.5 -18.2401
      vertex 24.4821 -26.5 -18.4708
      vertex 22.5816 26.5 -18.2401
    endloop
  endfacet
  facet normal -0.354605 2.07615e-16 0.935016
    outer loop
      vertex 26.2723 -26.5 -17.7919
      vertex 26.2723 26.5 -17.7919
      vertex 24.4821 26.5 -18.4708
    endloop
  endfacet
  facet normal -0.354605 2.07615e-16 0.935016
    outer loop
      vertex 24.4821 -26.5 -18.4708
      vertex 26.2723 -26.5 -17.7919
      vertex 24.4821 26.5 -18.4708
    endloop
  endfacet
  facet normal -0.748511 1.47243e-16 0.663123
    outer loop
      vertex 27.5418 26.5 -16.3589
      vertex 26.2723 26.5 -17.7919
      vertex 27.5418 -26.5 -16.3589
    endloop
  endfacet
  facet normal -0.748511 1.47243e-16 0.663123
    outer loop
      vertex 27.5418 -26.5 -16.3589
      vertex 26.2723 26.5 -17.7919
      vertex 26.2723 -26.5 -17.7919
    endloop
  endfacet
  facet normal -0.970942 5.31388e-17 0.239316
    outer loop
      vertex 28 26.5 -14.5
      vertex 27.5418 26.5 -16.3589
      vertex 28 -26.5 -14.5
    endloop
  endfacet
  facet normal -0.970942 5.31388e-17 0.239316
    outer loop
      vertex 28 -26.5 -14.5
      vertex 27.5418 26.5 -16.3589
      vertex 27.5418 -26.5 -16.3589
    endloop
  endfacet
  facet normal -0.970942 -5.31388e-17 -0.239316
    outer loop
      vertex 27.5418 26.5 -12.6411
      vertex 27.6919 5.75 -13.25
      vertex 27.5418 5.75 -12.6411
    endloop
  endfacet
  facet normal -0.970942 -5.31388e-17 -0.239316
    outer loop
      vertex 28 26.5 -14.5
      vertex 27.6919 5.75 -13.25
      vertex 27.5418 26.5 -12.6411
    endloop
  endfacet
  facet normal -0.970942 -5.31388e-17 -0.239316
    outer loop
      vertex 27.6919 -5.75 -13.25
      vertex 27.6919 5.75 -13.25
      vertex 28 26.5 -14.5
    endloop
  endfacet
  facet normal -0.970942 -5.31388e-17 -0.239316
    outer loop
      vertex 27.6919 -5.75 -13.25
      vertex 28 26.5 -14.5
      vertex 28 -26.5 -14.5
    endloop
  endfacet
  facet normal -0.970942 -5.31388e-17 -0.239316
    outer loop
      vertex 27.6919 -5.75 -13.25
      vertex 28 -26.5 -14.5
      vertex 27.5418 -5.75 -12.6411
    endloop
  endfacet
  facet normal -0.970942 -5.31388e-17 -0.239316
    outer loop
      vertex 28 -26.5 -14.5
      vertex 27.5418 -26.5 -12.6411
      vertex 27.5418 -5.75 -12.6411
    endloop
  endfacet
  facet normal -0.748511 -1.47243e-16 -0.663123
    outer loop
      vertex 27.5418 -5.75 -12.6411
      vertex 27.5418 -26.5 -12.6411
      vertex 26.2723 -5.75 -11.2081
    endloop
  endfacet
  facet normal -0.748511 -1.47243e-16 -0.663123
    outer loop
      vertex 26.2723 -5.75 -11.2081
      vertex 27.5418 -26.5 -12.6411
      vertex 26.2723 -26.5 -11.2081
    endloop
  endfacet
  facet normal -0.354605 -2.07615e-16 -0.935016
    outer loop
      vertex 26.2723 -5.75 -11.2081
      vertex 26.2723 -26.5 -11.2081
      vertex 24.4821 -5.75 -10.5292
    endloop
  endfacet
  facet normal -0.354605 -2.07615e-16 -0.935016
    outer loop
      vertex 24.4821 -5.75 -10.5292
      vertex 26.2723 -26.5 -11.2081
      vertex 24.4821 -26.5 -10.5292
    endloop
  endfacet
  facet normal 0.120536 -2.20426e-16 -0.992709
    outer loop
      vertex 24.4821 -5.75 -10.5292
      vertex 24.4821 -26.5 -10.5292
      vertex 22.5816 -5.75 -10.7599
    endloop
  endfacet
  facet normal 0.120536 -2.20426e-16 -0.992709
    outer loop
      vertex 22.5816 -5.75 -10.7599
      vertex 24.4821 -26.5 -10.5292
      vertex 22.5816 -26.5 -10.7599
    endloop
  endfacet
  facet normal 0.568065 -1.82739e-16 -0.822984
    outer loop
      vertex 22.5816 -5.75 -10.7599
      vertex 22.5816 -26.5 -10.7599
      vertex 21.006 -5.75 -11.8475
    endloop
  endfacet
  facet normal 0.568065 -1.82739e-16 -0.822984
    outer loop
      vertex 21.006 -5.75 -11.8475
      vertex 22.5816 -26.5 -10.7599
      vertex 21.006 -26.5 -11.8475
    endloop
  endfacet
  facet normal 0.885456 -1.03189e-16 -0.464723
    outer loop
      vertex 20.1162 26.5 -13.5427
      vertex 21.006 26.5 -11.8475
      vertex 21.006 5.75 -11.8475
    endloop
  endfacet
  facet normal 0.885456 -1.03189e-16 -0.464723
    outer loop
      vertex 20.2699 -5.75 -13.25
      vertex 20.1162 26.5 -13.5427
      vertex 20.2699 5.75 -13.25
    endloop
  endfacet
  facet normal 0.885456 -1.03189e-16 -0.464723
    outer loop
      vertex 20.2699 5.75 -13.25
      vertex 20.1162 26.5 -13.5427
      vertex 21.006 5.75 -11.8475
    endloop
  endfacet
  facet normal 0.885456 -1.03189e-16 -0.464723
    outer loop
      vertex 20.1162 -26.5 -13.5427
      vertex 20.1162 26.5 -13.5427
      vertex 20.2699 -5.75 -13.25
    endloop
  endfacet
  facet normal 0.885456 -1.03189e-16 -0.464723
    outer loop
      vertex 21.006 -26.5 -11.8475
      vertex 20.2699 -5.75 -13.25
      vertex 21.006 -5.75 -11.8475
    endloop
  endfacet
  facet normal 0.885456 -1.03189e-16 -0.464723
    outer loop
      vertex 20.1162 -26.5 -13.5427
      vertex 20.2699 -5.75 -13.25
      vertex 21.006 -26.5 -11.8475
    endloop
  endfacet
  facet normal 1 0 0
    outer loop
      vertex -23 16.5 -23.5
      vertex -23 16.5 -4.7
      vertex -23 5.75 -4.7
    endloop
  endfacet
  facet normal 1 0 0
    outer loop
      vertex -23 -5.75 -13.25
      vertex -23 16.5 -23.5
      vertex -23 5.75 -13.25
    endloop
  endfacet
  facet normal 1 0 0
    outer loop
      vertex -23 5.75 -13.25
      vertex -23 16.5 -23.5
      vertex -23 5.75 -4.7
    endloop
  endfacet
  facet normal 1 0 0
    outer loop
      vertex -23 -16.5 -23.5
      vertex -23 16.5 -23.5
      vertex -23 -5.75 -13.25
    endloop
  endfacet
  facet normal 1 0 0
    outer loop
      vertex -23 -16.5 -4.7
      vertex -23 -5.75 -13.25
      vertex -23 -5.75 -4.7
    endloop
  endfacet
  facet normal 1 0 0
    outer loop
      vertex -23 -16.5 -23.5
      vertex -23 -5.75 -13.25
      vertex -23 -16.5 -4.7
    endloop
  endfacet
  facet normal 0 -1 0
    outer loop
      vertex 10 16.5 -23.5
      vertex 10 16.5 -4.7
      vertex -23 16.5 -4.7
    endloop
  endfacet
  facet normal 0 -1 0
    outer loop
      vertex -23 16.5 -23.5
      vertex 10 16.5 -23.5
      vertex -23 16.5 -4.7
    endloop
  endfacet
  facet normal -1 0 0
    outer loop
      vertex 10 -5.75 -4.7
      vertex 10 -5.75 -13.25
      vertex 10 -16.5 -4.7
    endloop
  endfacet
  facet normal -1 0 0
    outer loop
      vertex 10 -16.5 -23.5
      vertex 10 -5.75 -13.25
      vertex 10 16.5 -23.5
    endloop
  endfacet
  facet normal -1 0 0
    outer loop
      vertex 10 16.5 -4.7
      vertex 10 5.75 -13.25
      vertex 10 5.75 -4.7
    endloop
  endfacet
  facet normal -1 0 0
    outer loop
      vertex 10 16.5 -23.5
      vertex 10 5.75 -13.25
      vertex 10 16.5 -4.7
    endloop
  endfacet
  facet normal -1 0 0
    outer loop
      vertex 10 -5.75 -13.25
      vertex 10 5.75 -13.25
      vertex 10 16.5 -23.5
    endloop
  endfacet
  facet normal -1 0 0
    outer loop
      vertex 10 -16.5 -4.7
      vertex 10 -5.75 -13.25
      vertex 10 -16.5 -23.5
    endloop
  endfacet
  facet normal 0 1 0
    outer loop
      vertex 10 -16.5 -4.7
      vertex 10 -16.5 -23.5
      vertex -23 -16.5 -4.7
    endloop
  endfacet
  facet normal 0 1 0
    outer loop
      vertex -23 -16.5 -4.7
      vertex 10 -16.5 -23.5
      vertex -23 -16.5 -23.5
    endloop
  endfacet
  facet normal 1 0 0
    outer loop
      vertex -23 26.5 9.25
      vertex -23 26.5 20.75
      vertex -23 21.5 20.75
    endloop
  endfacet
  facet normal 1 0 0
    outer loop
      vertex -23 21.5 9.25
      vertex -23 26.5 9.25
      vertex -23 21.5 20.75
    endloop
  endfacet
  facet normal 0 0 -1
    outer loop
      vertex 10 26.5 20.75
      vertex 10 21.5 20.75
      vertex -23 26.5 20.75
    endloop
  endfacet
  facet normal 0 0 -1
    outer loop
      vertex -23 26.5 20.75
      vertex 10 21.5 20.75
      vertex -23 21.5 20.75
    endloop
  endfacet
  facet normal -1 0 0
    outer loop
      vertex 10 26.5 20.75
      vertex 10 26.5 9.25
      vertex 10 21.5 20.75
    endloop
  endfacet
  facet normal -1 0 0
    outer loop
      vertex 10 21.5 20.75
      vertex 10 26.5 9.25
      vertex 10 21.5 9.25
    endloop
  endfacet
  facet normal 0 0 1
    outer loop
      vertex 10 21.5 9.25
      vertex 10 26.5 9.25
      vertex -23 26.5 9.25
    endloop
  endfacet
  facet normal 0 0 1
    outer loop
      vertex -23 21.5 9.25
      vertex 10 21.5 9.25
      vertex -23 26.5 9.25
    endloop
  endfacet
  facet normal 0.568065 -1.82739e-16 -0.822984
    outer loop
      vertex 22.5816 26.5 -10.7599
      vertex 22.5816 5.75 -10.7599
      vertex 21.006 26.5 -11.8475
    endloop
  endfacet
  facet normal 0.568065 -1.82739e-16 -0.822984
    outer loop
      vertex 21.006 26.5 -11.8475
      vertex 22.5816 5.75 -10.7599
      vertex 21.006 5.75 -11.8475
    endloop
  endfacet
  facet normal 0.120536 -2.20426e-16 -0.992709
    outer loop
      vertex 24.4821 26.5 -10.5292
      vertex 24.4821 5.75 -10.5292
      vertex 22.5816 26.5 -10.7599
    endloop
  endfacet
  facet normal 0.120536 -2.20426e-16 -0.992709
    outer loop
      vertex 22.5816 26.5 -10.7599
      vertex 24.4821 5.75 -10.5292
      vertex 22.5816 5.75 -10.7599
    endloop
  endfacet
  facet normal -0.354605 -2.07615e-16 -0.935016
    outer loop
      vertex 26.2723 26.5 -11.2081
      vertex 26.2723 5.75 -11.2081
      vertex 24.4821 26.5 -10.5292
    endloop
  endfacet
  facet normal -0.354605 -2.07615e-16 -0.935016
    outer loop
      vertex 24.4821 26.5 -10.5292
      vertex 26.2723 5.75 -11.2081
      vertex 24.4821 5.75 -10.5292
    endloop
  endfacet
  facet normal -0.748511 -1.47243e-16 -0.663123
    outer loop
      vertex 27.5418 26.5 -12.6411
      vertex 27.5418 5.75 -12.6411
      vertex 26.2723 26.5 -11.2081
    endloop
  endfacet
  facet normal -0.748511 -1.47243e-16 -0.663123
    outer loop
      vertex 26.2723 26.5 -11.2081
      vertex 27.5418 5.75 -12.6411
      vertex 26.2723 5.75 -11.2081
    endloop
  endfacet
  facet normal 1 0 0
    outer loop
      vertex -28 21.5 23.5
      vertex -28 -5.75 18.25
      vertex -28 5.75 18.25
    endloop
  endfacet
  facet normal 1 0 0
    outer loop
      vertex -28 -5.75 -4.7
      vertex -28 -5.75 18.25
      vertex -28 -21.5 23.5
    endloop
  endfacet
  facet normal 1 0 0
    outer loop
      vertex -28 5.75 -4.7
      vertex -28 21.5 -4.7
      vertex -28 5.75 18.25
    endloop
  endfacet
  facet normal 1 0 0
    outer loop
      vertex -28 21.5 -4.7
      vertex -28 21.5 23.5
      vertex -28 5.75 18.25
    endloop
  endfacet
  facet normal 1 0 0
    outer loop
      vertex -28 21.5 23.5
      vertex -28 -21.5 23.5
      vertex -28 -5.75 18.25
    endloop
  endfacet
  facet normal 1 0 0
    outer loop
      vertex -28 -21.5 23.5
      vertex -28 -21.5 -4.7
      vertex -28 -5.75 -4.7
    endloop
  endfacet
  facet normal 0 1 0
    outer loop
      vertex -23 -21.5 9.25
      vertex 15 -21.5 -4.7
      vertex -28 -21.5 -4.7
    endloop
  endfacet
  facet normal 0 1 0
    outer loop
      vertex 10 -21.5 9.25
      vertex 15 -21.5 -4.7
      vertex -23 -21.5 9.25
    endloop
  endfacet
  facet normal 0 1 0
    outer loop
      vertex -28 -21.5 23.5
      vertex -23 -21.5 9.25
      vertex -28 -21.5 -4.7
    endloop
  endfacet
  facet normal 0 1 0
    outer loop
      vertex 15 -21.5 23.5
      vertex 15 -21.5 -4.7
      vertex 10 -21.5 9.25
    endloop
  endfacet
  facet normal 0 1 0
    outer loop
      vertex 15 -21.5 23.5
      vertex 10 -21.5 9.25
      vertex 10 -21.5 20.75
    endloop
  endfacet
  facet normal 0 1 0
    outer loop
      vertex 15 -21.5 23.5
      vertex 10 -21.5 20.75
      vertex -28 -21.5 23.5
    endloop
  endfacet
  facet normal 0 1 0
    outer loop
      vertex -23 -21.5 20.75
      vertex -28 -21.5 23.5
      vertex 10 -21.5 20.75
    endloop
  endfacet
  facet normal 0 1 0
    outer loop
      vertex -23 -21.5 9.25
      vertex -28 -21.5 23.5
      vertex -23 -21.5 20.75
    endloop
  endfacet
  facet normal -1 0 0
    outer loop
      vertex 15 21.5 23.5
      vertex 15 21.5 -4.7
      vertex 15 5.75 18.25
    endloop
  endfacet
  facet normal -1 0 0
    outer loop
      vertex 15 21.5 23.5
      vertex 15 5.75 18.25
      vertex 15 -21.5 23.5
    endloop
  endfacet
  facet normal -1 0 0
    outer loop
      vertex 15 -5.75 -4.7
      vertex 15 -21.5 23.5
      vertex 15 -5.75 18.25
    endloop
  endfacet
  facet normal -1 0 0
    outer loop
      vertex 15 5.75 18.25
      vertex 15 -5.75 18.25
      vertex 15 -21.5 23.5
    endloop
  endfacet
  facet normal -1 0 0
    outer loop
      vertex 15 -21.5 23.5
      vertex 15 -5.75 -4.7
      vertex 15 -21.5 -4.7
    endloop
  endfacet
  facet normal -1 0 0
    outer loop
      vertex 15 5.75 18.25
      vertex 15 21.5 -4.7
      vertex 15 5.75 -4.7
    endloop
  endfacet
  facet normal 0 -1 0
    outer loop
      vertex -23 21.5 20.75
      vertex 15 21.5 23.5
      vertex -28 21.5 23.5
    endloop
  endfacet
  facet normal 0 -1 0
    outer loop
      vertex 10 21.5 9.25
      vertex -23 21.5 9.25
      vertex 15 21.5 -4.7
    endloop
  endfacet
  facet normal 0 -1 0
    outer loop
      vertex 10 21.5 20.75
      vertex 15 21.5 23.5
      vertex -23 21.5 20.75
    endloop
  endfacet
  facet normal 0 -1 0
    outer loop
      vertex 15 21.5 -4.7
      vertex 15 21.5 23.5
      vertex 10 21.5 20.75
    endloop
  endfacet
  facet normal 0 -1 0
    outer loop
      vertex 15 21.5 -4.7
      vertex 10 21.5 20.75
      vertex 10 21.5 9.25
    endloop
  endfacet
  facet normal 0 -1 0
    outer loop
      vertex -28 21.5 -4.7
      vertex -23 21.5 9.25
      vertex -28 21.5 23.5
    endloop
  endfacet
  facet normal 0 -1 0
    outer loop
      vertex -28 21.5 -4.7
      vertex 15 21.5 -4.7
      vertex -23 21.5 9.25
    endloop
  endfacet
  facet normal 0 -1 0
    outer loop
      vertex -23 21.5 9.25
      vertex -23 21.5 20.75
      vertex -28 21.5 23.5
    endloop
  endfacet
  facet normal 1 0 0
    outer loop
      vertex 20.1162 -13.0427 0
      vertex 20.1162 -13.0427 23.5
      vertex 20.1162 -14.9573 23.5
    endloop
  endfacet
  facet normal 1 0 0
    outer loop
      vertex 20.1162 -14.9573 0
      vertex 20.1162 -13.0427 0
      vertex 20.1162 -14.9573 23.5
    endloop
  endfacet
  facet normal 0.885456 0.464723 0
    outer loop
      vertex 20.1162 -14.9573 23.5
      vertex 21.006 -16.6525 23.5
      vertex 21.006 -16.6525 0
    endloop
  endfacet
  facet normal 0.885456 0.464723 0
    outer loop
      vertex 20.1162 -14.9573 0
      vertex 20.1162 -14.9573 23.5
      vertex 21.006 -16.6525 0
    endloop
  endfacet
  facet normal 0.568065 0.822984 0
    outer loop
      vertex 22.5816 -17.7401 23.5
      vertex 22.5816 -17.7401 0
      vertex 21.006 -16.6525 23.5
    endloop
  endfacet
  facet normal 0.568065 0.822984 0
    outer loop
      vertex 21.006 -16.6525 23.5
      vertex 22.5816 -17.7401 0
      vertex 21.006 -16.6525 0
    endloop
  endfacet
  facet normal 0.120536 0.992709 0
    outer loop
      vertex 24.4821 -17.9708 23.5
      vertex 24.4821 -17.9708 0
      vertex 22.5816 -17.7401 23.5
    endloop
  endfacet
  facet normal 0.120536 0.992709 0
    outer loop
      vertex 22.5816 -17.7401 23.5
      vertex 24.4821 -17.9708 0
      vertex 22.5816 -17.7401 0
    endloop
  endfacet
  facet normal -0.354605 0.935016 0
    outer loop
      vertex 26.2723 -17.2919 23.5
      vertex 26.2723 -17.2919 0
      vertex 24.4821 -17.9708 23.5
    endloop
  endfacet
  facet normal -0.354605 0.935016 0
    outer loop
      vertex 24.4821 -17.9708 23.5
      vertex 26.2723 -17.2919 0
      vertex 24.4821 -17.9708 0
    endloop
  endfacet
  facet normal -0.748511 0.663123 0
    outer loop
      vertex 27.5418 -15.8589 23.5
      vertex 27.5418 -15.8589 0
      vertex 26.2723 -17.2919 23.5
    endloop
  endfacet
  facet normal -0.748511 0.663123 0
    outer loop
      vertex 26.2723 -17.2919 23.5
      vertex 27.5418 -15.8589 0
      vertex 26.2723 -17.2919 0
    endloop
  endfacet
  facet normal -0.970942 0.239316 0
    outer loop
      vertex 28 -14 23.5
      vertex 28 -14 0
      vertex 27.5418 -15.8589 23.5
    endloop
  endfacet
  facet normal -0.970942 0.239316 0
    outer loop
      vertex 27.5418 -15.8589 23.5
      vertex 28 -14 0
      vertex 27.5418 -15.8589 0
    endloop
  endfacet
  facet normal -0.970942 -0.239316 0
    outer loop
      vertex 28 -14 23.5
      vertex 27.5418 -12.1411 23.5
      vertex 28 -14 0
    endloop
  endfacet
  facet normal -0.970942 -0.239316 0
    outer loop
      vertex 28 -14 0
      vertex 27.5418 -12.1411 23.5
      vertex 27.5418 -12.1411 0
    endloop
  endfacet
  facet normal -0.748511 -0.663123 0
    outer loop
      vertex 27.5418 -12.1411 23.5
      vertex 26.2723 -10.7081 23.5
      vertex 27.5418 -12.1411 0
    endloop
  endfacet
  facet normal -0.748511 -0.663123 0
    outer loop
      vertex 27.5418 -12.1411 0
      vertex 26.2723 -10.7081 23.5
      vertex 26.2723 -10.7081 0
    endloop
  endfacet
  facet normal -0.354605 -0.935016 0
    outer loop
      vertex 26.2723 -10.7081 0
      vertex 26.2723 -10.7081 23.5
      vertex 24.4821 -10.0292 23.5
    endloop
  endfacet
  facet normal -0.354605 -0.935016 0
    outer loop
      vertex 24.4821 -10.0292 0
      vertex 26.2723 -10.7081 0
      vertex 24.4821 -10.0292 23.5
    endloop
  endfacet
  facet normal 0.120536 -0.992709 0
    outer loop
      vertex 24.4821 -10.0292 0
      vertex 24.4821 -10.0292 23.5
      vertex 22.5816 -10.2599 23.5
    endloop
  endfacet
  facet normal 0.120536 -0.992709 0
    outer loop
      vertex 22.5816 -10.2599 0
      vertex 24.4821 -10.0292 0
      vertex 22.5816 -10.2599 23.5
    endloop
  endfacet
  facet normal 0.568065 -0.822984 0
    outer loop
      vertex 22.5816 -10.2599 0
      vertex 22.5816 -10.2599 23.5
      vertex 21.006 -11.3475 23.5
    endloop
  endfacet
  facet normal 0.568065 -0.822984 0
    outer loop
      vertex 21.006 -11.3475 0
      vertex 22.5816 -10.2599 0
      vertex 21.006 -11.3475 23.5
    endloop
  endfacet
  facet normal 0.885456 -0.464723 0
    outer loop
      vertex 21.006 -11.3475 0
      vertex 21.006 -11.3475 23.5
      vertex 20.1162 -13.0427 23.5
    endloop
  endfacet
  facet normal 0.885456 -0.464723 0
    outer loop
      vertex 20.1162 -13.0427 0
      vertex 21.006 -11.3475 0
      vertex 20.1162 -13.0427 23.5
    endloop
  endfacet
  facet normal 1 0 0
    outer loop
      vertex 20.1162 14.9573 0
      vertex 20.1162 14.9573 23.5
      vertex 20.1162 13.0427 23.5
    endloop
  endfacet
  facet normal 1 0 0
    outer loop
      vertex 20.1162 13.0427 0
      vertex 20.1162 14.9573 0
      vertex 20.1162 13.0427 23.5
    endloop
  endfacet
  facet normal 0.885456 0.464723 0
    outer loop
      vertex 20.1162 13.0427 23.5
      vertex 21.006 11.3475 23.5
      vertex 21.006 11.3475 0
    endloop
  endfacet
  facet normal 0.885456 0.464723 0
    outer loop
      vertex 20.1162 13.0427 0
      vertex 20.1162 13.0427 23.5
      vertex 21.006 11.3475 0
    endloop
  endfacet
  facet normal 0.568065 0.822984 0
    outer loop
      vertex 22.5816 10.2599 23.5
      vertex 22.5816 10.2599 0
      vertex 21.006 11.3475 23.5
    endloop
  endfacet
  facet normal 0.568065 0.822984 0
    outer loop
      vertex 21.006 11.3475 23.5
      vertex 22.5816 10.2599 0
      vertex 21.006 11.3475 0
    endloop
  endfacet
  facet normal 0.120536 0.992709 0
    outer loop
      vertex 24.4821 10.0292 23.5
      vertex 24.4821 10.0292 0
      vertex 22.5816 10.2599 23.5
    endloop
  endfacet
  facet normal 0.120536 0.992709 0
    outer loop
      vertex 22.5816 10.2599 23.5
      vertex 24.4821 10.0292 0
      vertex 22.5816 10.2599 0
    endloop
  endfacet
  facet normal -0.354605 0.935016 0
    outer loop
      vertex 26.2723 10.7081 23.5
      vertex 26.2723 10.7081 0
      vertex 24.4821 10.0292 23.5
    endloop
  endfacet
  facet normal -0.354605 0.935016 0
    outer loop
      vertex 24.4821 10.0292 23.5
      vertex 26.2723 10.7081 0
      vertex 24.4821 10.0292 0
    endloop
  endfacet
  facet normal -0.748511 0.663123 0
    outer loop
      vertex 27.5418 12.1411 23.5
      vertex 27.5418 12.1411 0
      vertex 26.2723 10.7081 23.5
    endloop
  endfacet
  facet normal -0.748511 0.663123 0
    outer loop
      vertex 26.2723 10.7081 23.5
      vertex 27.5418 12.1411 0
      vertex 26.2723 10.7081 0
    endloop
  endfacet
  facet normal -0.970942 0.239316 0
    outer loop
      vertex 28 14 23.5
      vertex 28 14 0
      vertex 27.5418 12.1411 23.5
    endloop
  endfacet
  facet normal -0.970942 0.239316 0
    outer loop
      vertex 27.5418 12.1411 23.5
      vertex 28 14 0
      vertex 27.5418 12.1411 0
    endloop
  endfacet
  facet normal -0.970942 -0.239316 0
    outer loop
      vertex 28 14 23.5
      vertex 27.5418 15.8589 23.5
      vertex 28 14 0
    endloop
  endfacet
  facet normal -0.970942 -0.239316 0
    outer loop
      vertex 28 14 0
      vertex 27.5418 15.8589 23.5
      vertex 27.5418 15.8589 0
    endloop
  endfacet
  facet normal -0.748511 -0.663123 0
    outer loop
      vertex 27.5418 15.8589 23.5
      vertex 26.2723 17.2919 23.5
      vertex 27.5418 15.8589 0
    endloop
  endfacet
  facet normal -0.748511 -0.663123 0
    outer loop
      vertex 27.5418 15.8589 0
      vertex 26.2723 17.2919 23.5
      vertex 26.2723 17.2919 0
    endloop
  endfacet
  facet normal -0.354605 -0.935016 0
    outer loop
      vertex 26.2723 17.2919 0
      vertex 26.2723 17.2919 23.5
      vertex 24.4821 17.9708 23.5
    endloop
  endfacet
  facet normal -0.354605 -0.935016 0
    outer loop
      vertex 24.4821 17.9708 0
      vertex 26.2723 17.2919 0
      vertex 24.4821 17.9708 23.5
    endloop
  endfacet
  facet normal 0.120536 -0.992709 0
    outer loop
      vertex 24.4821 17.9708 0
      vertex 24.4821 17.9708 23.5
      vertex 22.5816 17.7401 23.5
    endloop
  endfacet
  facet normal 0.120536 -0.992709 0
    outer loop
      vertex 22.5816 17.7401 0
      vertex 24.4821 17.9708 0
      vertex 22.5816 17.7401 23.5
    endloop
  endfacet
  facet normal 0.568065 -0.822984 0
    outer loop
      vertex 22.5816 17.7401 0
      vertex 22.5816 17.7401 23.5
      vertex 21.006 16.6525 23.5
    endloop
  endfacet
  facet normal 0.568065 -0.822984 0
    outer loop
      vertex 21.006 16.6525 0
      vertex 22.5816 17.7401 0
      vertex 21.006 16.6525 23.5
    endloop
  endfacet
  facet normal 0.885456 -0.464723 0
    outer loop
      vertex 21.006 16.6525 0
      vertex 21.006 16.6525 23.5
      vertex 20.1162 14.9573 23.5
    endloop
  endfacet
  facet normal 0.885456 -0.464723 0
    outer loop
      vertex 20.1162 14.9573 0
      vertex 21.006 16.6525 0
      vertex 20.1162 14.9573 23.5
    endloop
  endfacet
  facet normal 0 0 1
    outer loop
      vertex 15 -21.5 -4.7
      vertex 15 -5.75 -4.7
      vertex 10 -5.75 -4.7
    endloop
  endfacet
  facet normal 0 0 1
    outer loop
      vertex -23 -16.5 -4.7
      vertex 15 -21.5 -4.7
      vertex 10 -16.5 -4.7
    endloop
  endfacet
  facet normal 0 0 1
    outer loop
      vertex 10 -16.5 -4.7
      vertex 15 -21.5 -4.7
      vertex 10 -5.75 -4.7
    endloop
  endfacet
  facet normal 0 0 1
    outer loop
      vertex -28 -21.5 -4.7
      vertex 15 -21.5 -4.7
      vertex -23 -16.5 -4.7
    endloop
  endfacet
  facet normal 0 0 1
    outer loop
      vertex -28 -5.75 -4.7
      vertex -23 -16.5 -4.7
      vertex -23 -5.75 -4.7
    endloop
  endfacet
  facet normal 0 0 1
    outer loop
      vertex -28 -21.5 -4.7
      vertex -23 -16.5 -4.7
      vertex -28 -5.75 -4.7
    endloop
  endfacet
  facet normal 0 0 1
    outer loop
      vertex 15 21.5 -4.7
      vertex -23 16.5 -4.7
      vertex 10 16.5 -4.7
    endloop
  endfacet
  facet normal 0 0 1
    outer loop
      vertex -23 5.75 -4.7
      vertex -23 16.5 -4.7
      vertex -28 21.5 -4.7
    endloop
  endfacet
  facet normal 0 0 1
    outer loop
      vertex 10 5.75 -4.7
      vertex 15 5.75 -4.7
      vertex 10 16.5 -4.7
    endloop
  endfacet
  facet normal 0 0 1
    outer loop
      vertex 15 5.75 -4.7
      vertex 15 21.5 -4.7
      vertex 10 16.5 -4.7
    endloop
  endfacet
  facet normal 0 0 1
    outer loop
      vertex 15 21.5 -4.7
      vertex -28 21.5 -4.7
      vertex -23 16.5 -4.7
    endloop
  endfacet
  facet normal 0 0 1
    outer loop
      vertex -28 21.5 -4.7
      vertex -28 5.75 -4.7
      vertex -23 5.75 -4.7
    endloop
  endfacet
  facet normal 2.22045e-16 1 0
    outer loop
      vertex 15 -5.75 -4.7
      vertex 15 -5.75 18.25
      vertex 33 -5.75 18.25
    endloop
  endfacet
  facet normal 2.22045e-16 1 0
    outer loop
      vertex 15 -5.75 -4.7
      vertex 33 -5.75 18.25
      vertex 33 -5.75 -13.25
    endloop
  endfacet
  facet normal 2.22045e-16 1 0
    outer loop
      vertex 15 -5.75 -4.7
      vertex 33 -5.75 -13.25
      vertex 10 -5.75 -4.7
    endloop
  endfacet
  facet normal 2.22045e-16 1 0
    outer loop
      vertex 33 -5.75 -13.25
      vertex 27.6919 -5.75 -13.25
      vertex 27.5418 -5.75 -12.6411
    endloop
  endfacet
  facet normal 2.22045e-16 1 0
    outer loop
      vertex 33 -5.75 -13.25
      vertex 27.5418 -5.75 -12.6411
      vertex 26.2723 -5.75 -11.2081
    endloop
  endfacet
  facet normal 2.22045e-16 1 0
    outer loop
      vertex 33 -5.75 -13.25
      vertex 26.2723 -5.75 -11.2081
      vertex 10 -5.75 -4.7
    endloop
  endfacet
  facet normal 2.22045e-16 1 0
    outer loop
      vertex 26.2723 -5.75 -11.2081
      vertex 24.4821 -5.75 -10.5292
      vertex 10 -5.75 -4.7
    endloop
  endfacet
  facet normal 2.22045e-16 1 0
    outer loop
      vertex 21.006 -5.75 -11.8475
      vertex 10 -5.75 -4.7
      vertex 22.5816 -5.75 -10.7599
    endloop
  endfacet
  facet normal 2.22045e-16 1 0
    outer loop
      vertex 21.006 -5.75 -11.8475
      vertex 20.2699 -5.75 -13.25
      vertex 10 -5.75 -4.7
    endloop
  endfacet
  facet normal 2.22045e-16 1 0
    outer loop
      vertex 20.2699 -5.75 -13.25
      vertex 10 -5.75 -13.25
      vertex 10 -5.75 -4.7
    endloop
  endfacet
  facet normal 2.22045e-16 1 0
    outer loop
      vertex 22.5816 -5.75 -10.7599
      vertex 10 -5.75 -4.7
      vertex 24.4821 -5.75 -10.5292
    endloop
  endfacet
  facet normal 0 0 1
    outer loop
      vertex 27.6919 -5.75 -13.25
      vertex 33 -5.75 -13.25
      vertex 33 5.75 -13.25
    endloop
  endfacet
  facet normal 0 0 1
    outer loop
      vertex 27.6919 5.75 -13.25
      vertex 27.6919 -5.75 -13.25
      vertex 33 5.75 -13.25
    endloop
  endfacet
  facet normal -2.22045e-16 -1 0
    outer loop
      vertex 33 5.75 18.25
      vertex 21.006 5.75 -11.8475
      vertex 22.5816 5.75 -10.7599
    endloop
  endfacet
  facet normal -2.22045e-16 -1 0
    outer loop
      vertex 26.2723 5.75 -11.2081
      vertex 33 5.75 -13.25
      vertex 24.4821 5.75 -10.5292
    endloop
  endfacet
  facet normal -2.22045e-16 -1 0
    outer loop
      vertex 24.4821 5.75 -10.5292
      vertex 33 5.75 18.25
      vertex 22.5816 5.75 -10.7599
    endloop
  endfacet
  facet normal -2.22045e-16 -1 0
    outer loop
      vertex 20.2699 5.75 -13.25
      vertex 21.006 5.75 -11.8475
      vertex 33 5.75 18.25
    endloop
  endfacet
  facet normal -2.22045e-16 -1 0
    outer loop
      vertex 27.5418 5.75 -12.6411
      vertex 33 5.75 -13.25
      vertex 26.2723 5.75 -11.2081
    endloop
  endfacet
  facet normal -2.22045e-16 -1 0
    outer loop
      vertex 15 5.75 -4.7
      vertex 10 5.75 -4.7
      vertex 20.2699 5.75 -13.25
    endloop
  endfacet
  facet normal -2.22045e-16 -1 0
    outer loop
      vertex 27.6919 5.75 -13.25
      vertex 33 5.75 -13.25
      vertex 27.5418 5.75 -12.6411
    endloop
  endfacet
  facet normal -2.22045e-16 -1 0
    outer loop
      vertex 33 5.75 -13.25
      vertex 33 5.75 18.25
      vertex 24.4821 5.75 -10.5292
    endloop
  endfacet
  facet normal -2.22045e-16 -1 0
    outer loop
      vertex 33 5.75 18.25
      vertex 15 5.75 18.25
      vertex 20.2699 5.75 -13.25
    endloop
  endfacet
  facet normal -2.22045e-16 -1 0
    outer loop
      vertex 15 5.75 18.25
      vertex 15 5.75 -4.7
      vertex 20.2699 5.75 -13.25
    endloop
  endfacet
  facet normal -2.22045e-16 -1 0
    outer loop
      vertex 10 5.75 -4.7
      vertex 10 5.75 -13.25
      vertex 20.2699 5.75 -13.25
    endloop
  endfacet
  facet normal 0 0 -1
    outer loop
      vertex 33 5.75 18.25
      vertex 33 -5.75 18.25
      vertex 15 5.75 18.25
    endloop
  endfacet
  facet normal 0 0 -1
    outer loop
      vertex 15 5.75 18.25
      vertex 33 -5.75 18.25
      vertex 15 -5.75 18.25
    endloop
  endfacet
  facet normal 0 0 1
    outer loop
      vertex 20.2699 -5.75 -13.25
      vertex 20.2699 5.75 -13.25
      vertex 10 5.75 -13.25
    endloop
  endfacet
  facet normal 0 0 1
    outer loop
      vertex 10 -5.75 -13.25
      vertex 20.2699 -5.75 -13.25
      vertex 10 5.75 -13.25
    endloop
  endfacet
  facet normal 0 0 1
    outer loop
      vertex 21.006 -16.6525 0
      vertex 22.5816 -17.7401 0
      vertex 24.4821 -17.9708 0
    endloop
  endfacet
  facet normal 0 0 1
    outer loop
      vertex 27.5418 -15.8589 0
      vertex 21.006 -16.6525 0
      vertex 26.2723 -17.2919 0
    endloop
  endfacet
  facet normal 0 0 1
    outer loop
      vertex 26.2723 -17.2919 0
      vertex 21.006 -16.6525 0
      vertex 24.4821 -17.9708 0
    endloop
  endfacet
  facet normal 0 0 1
    outer loop
      vertex 28 -14 0
      vertex 21.006 -16.6525 0
      vertex 27.5418 -15.8589 0
    endloop
  endfacet
  facet normal 0 0 1
    outer loop
      vertex 27.5418 -12.1411 0
      vertex 21.006 -16.6525 0
      vertex 28 -14 0
    endloop
  endfacet
  facet normal 0 0 1
    outer loop
      vertex 26.2723 -10.7081 0
      vertex 21.006 -16.6525 0
      vertex 27.5418 -12.1411 0
    endloop
  endfacet
  facet normal 0 0 1
    outer loop
      vertex 24.4821 -10.0292 0
      vertex 21.006 -16.6525 0
      vertex 26.2723 -10.7081 0
    endloop
  endfacet
  facet normal 0 0 1
    outer loop
      vertex 22.5816 -10.2599 0
      vertex 21.006 -16.6525 0
      vertex 24.4821 -10.0292 0
    endloop
  endfacet
  facet normal 0 0 1
    outer loop
      vertex 21.006 -11.3475 0
      vertex 21.006 -16.6525 0
      vertex 22.5816 -10.2599 0
    endloop
  endfacet
  facet normal 0 0 1
    outer loop
      vertex 20.1162 -13.0427 0
      vertex 21.006 -16.6525 0
      vertex 21.006 -11.3475 0
    endloop
  endfacet
  facet normal 0 0 1
    outer loop
      vertex 20.1162 -14.9573 0
      vertex 21.006 -16.6525 0
      vertex 20.1162 -13.0427 0
    endloop
  endfacet
  facet normal 0 0 1
    outer loop
      vertex 21.006 11.3475 0
      vertex 22.5816 10.2599 0
      vertex 24.4821 10.0292 0
    endloop
  endfacet
  facet normal 0 0 1
    outer loop
      vertex 27.5418 12.1411 0
      vertex 21.006 11.3475 0
      vertex 26.2723 10.7081 0
    endloop
  endfacet
  facet normal 0 0 1
    outer loop
      vertex 26.2723 10.7081 0
      vertex 21.006 11.3475 0
      vertex 24.4821 10.0292 0
    endloop
  endfacet
  facet normal 0 0 1
    outer loop
      vertex 28 14 0
      vertex 21.006 11.3475 0
      vertex 27.5418 12.1411 0
    endloop
  endfacet
  facet normal 0 0 1
    outer loop
      vertex 27.5418 15.8589 0
      vertex 21.006 11.3475 0
      vertex 28 14 0
    endloop
  endfacet
  facet normal 0 0 1
    outer loop
      vertex 26.2723 17.2919 0
      vertex 21.006 11.3475 0
      vertex 27.5418 15.8589 0
    endloop
  endfacet
  facet normal 0 0 1
    outer loop
      vertex 24.4821 17.9708 0
      vertex 21.006 11.3475 0
      vertex 26.2723 17.2919 0
    endloop
  endfacet
  facet normal 0 0 1
    outer loop
      vertex 22.5816 17.7401 0
      vertex 21.006 11.3475 0
      vertex 24.4821 17.9708 0
    endloop
  endfacet
  facet normal 0 0 1
    outer loop
      vertex 21.006 16.6525 0
      vertex 21.006 11.3475 0
      vertex 22.5816 17.7401 0
    endloop
  endfacet
  facet normal 0 0 1
    outer loop
      vertex 20.1162 14.9573 0
      vertex 21.006 11.3475 0
      vertex 21.006 16.6525 0
    endloop
  endfacet
  facet normal 0 0 1
    outer loop
      vertex 20.1162 13.0427 0
      vertex 21.006 11.3475 0
      vertex 20.1162 14.9573 0
    endloop
  endfacet
endsolid OpenSCAD_Model
