solid OpenSCAD_Model
  facet normal -1 0 0
    outer loop
      vertex -33 -26.5 -23
      vertex -33 -26.5 23
      vertex -33 26.5 -23
    endloop
  endfacet
  facet normal -1 0 0
    outer loop
      vertex -33 26.5 -23
      vertex -33 -26.5 23
      vertex -33 26.5 23
    endloop
  endfacet
  facet normal 0 -1 0
    outer loop
      vertex 24.4821 -26.5 -19.4708
      vertex -33 -26.5 -23
      vertex 33 -26.5 -23
    endloop
  endfacet
  facet normal 0 -1 0
    outer loop
      vertex -33 -26.5 23
      vertex -33 -26.5 -23
      vertex 20.1162 -26.5 -16.4573
    endloop
  endfacet
  facet normal 0 -1 0
    outer loop
      vertex 27.5418 -26.5 -13.6411
      vertex 28 -26.5 -15.5
      vertex 33 -26.5 -23
    endloop
  endfacet
  facet normal 0 -1 0
    outer loop
      vertex -33 -26.5 23
      vertex 20.1162 -26.5 -16.4573
      vertex 20.1162 -26.5 -14.5427
    endloop
  endfacet
  facet normal 0 -1 0
    outer loop
      vertex 33 -26.5 23
      vertex -33 -26.5 23
      vertex 21.006 -26.5 -12.8475
    endloop
  endfacet
  facet normal 0 -1 0
    outer loop
      vertex 33 -26.5 23
      vertex 21.006 -26.5 -12.8475
      vertex 22.5816 -26.5 -11.7599
    endloop
  endfacet
  facet normal 0 -1 0
    outer loop
      vertex 27.5418 -26.5 -17.3589
      vertex 26.2723 -26.5 -18.7919
      vertex 33 -26.5 -23
    endloop
  endfacet
  facet normal 0 -1 0
    outer loop
      vertex 33 -26.5 23
      vertex 22.5816 -26.5 -11.7599
      vertex 24.4821 -26.5 -11.5292
    endloop
  endfacet
  facet normal 0 -1 0
    outer loop
      vertex 33 -26.5 23
      vertex 24.4821 -26.5 -11.5292
      vertex 26.2723 -26.5 -12.2081
    endloop
  endfacet
  facet normal 0 -1 0
    outer loop
      vertex 33 -26.5 23
      vertex 27.5418 -26.5 -13.6411
      vertex 33 -26.5 -23
    endloop
  endfacet
  facet normal 0 -1 0
    outer loop
      vertex 33 -26.5 23
      vertex 26.2723 -26.5 -12.2081
      vertex 27.5418 -26.5 -13.6411
    endloop
  endfacet
  facet normal 0 -1 0
    outer loop
      vertex 22.5816 -26.5 -19.2401
      vertex -33 -26.5 -23
      vertex 24.4821 -26.5 -19.4708
    endloop
  endfacet
  facet normal 0 -1 0
    outer loop
      vertex 21.006 -26.5 -18.1525
      vertex -33 -26.5 -23
      vertex 22.5816 -26.5 -19.2401
    endloop
  endfacet
  facet normal 0 -1 0
    outer loop
      vertex 20.1162 -26.5 -16.4573
      vertex -33 -26.5 -23
      vertex 21.006 -26.5 -18.1525
    endloop
  endfacet
  facet normal 0 -1 0
    outer loop
      vertex 26.2723 -26.5 -18.7919
      vertex 24.4821 -26.5 -19.4708
      vertex 33 -26.5 -23
    endloop
  endfacet
  facet normal 0 -1 0
    outer loop
      vertex 20.1162 -26.5 -14.5427
      vertex 21.006 -26.5 -12.8475
      vertex -33 -26.5 23
    endloop
  endfacet
  facet normal 0 -1 0
    outer loop
      vertex 28 -26.5 -15.5
      vertex 27.5418 -26.5 -17.3589
      vertex 33 -26.5 -23
    endloop
  endfacet
  facet normal 0 0 -1
    outer loop
      vertex -33 -26.5 -23
      vertex -33 26.5 -23
      vertex 33 -26.5 -23
    endloop
  endfacet
  facet normal 0 0 -1
    outer loop
      vertex 33 -26.5 -23
      vertex -33 26.5 -23
      vertex 33 26.5 -23
    endloop
  endfacet
  facet normal 0 1 0
    outer loop
      vertex 24.4821 26.5 -19.4708
      vertex 33 26.5 -23
      vertex 22.5816 26.5 -19.2401
    endloop
  endfacet
  facet normal 0 1 0
    outer loop
      vertex 26.2723 26.5 -12.2081
      vertex -33 26.5 23
      vertex 33 26.5 23
    endloop
  endfacet
  facet normal 0 1 0
    outer loop
      vertex -33 26.5 -23
      vertex -33 26.5 23
      vertex 20.1162 26.5 -14.5427
    endloop
  endfacet
  facet normal 0 1 0
    outer loop
      vertex -33 26.5 -23
      vertex 20.1162 26.5 -14.5427
      vertex 20.1162 26.5 -16.4573
    endloop
  endfacet
  facet normal 0 1 0
    outer loop
      vertex -33 26.5 -23
      vertex 20.1162 26.5 -16.4573
      vertex 21.006 26.5 -18.1525
    endloop
  endfacet
  facet normal 0 1 0
    outer loop
      vertex -33 26.5 -23
      vertex 21.006 26.5 -18.1525
      vertex 22.5816 26.5 -19.2401
    endloop
  endfacet
  facet normal 0 1 0
    outer loop
      vertex -33 26.5 -23
      vertex 22.5816 26.5 -19.2401
      vertex 33 26.5 -23
    endloop
  endfacet
  facet normal 0 1 0
    outer loop
      vertex 26.2723 26.5 -18.7919
      vertex 33 26.5 -23
      vertex 24.4821 26.5 -19.4708
    endloop
  endfacet
  facet normal 0 1 0
    outer loop
      vertex 27.5418 26.5 -17.3589
      vertex 33 26.5 -23
      vertex 26.2723 26.5 -18.7919
    endloop
  endfacet
  facet normal 0 1 0
    outer loop
      vertex 33 26.5 -23
      vertex 27.5418 26.5 -17.3589
      vertex 28 26.5 -15.5
    endloop
  endfacet
  facet normal 0 1 0
    outer loop
      vertex 33 26.5 -23
      vertex 28 26.5 -15.5
      vertex 33 26.5 23
    endloop
  endfacet
  facet normal 0 1 0
    outer loop
      vertex 22.5816 26.5 -11.7599
      vertex -33 26.5 23
      vertex 24.4821 26.5 -11.5292
    endloop
  endfacet
  facet normal 0 1 0
    outer loop
      vertex 24.4821 26.5 -11.5292
      vertex -33 26.5 23
      vertex 26.2723 26.5 -12.2081
    endloop
  endfacet
  facet normal 0 1 0
    outer loop
      vertex 27.5418 26.5 -13.6411
      vertex 26.2723 26.5 -12.2081
      vertex 33 26.5 23
    endloop
  endfacet
  facet normal 0 1 0
    outer loop
      vertex 21.006 26.5 -12.8475
      vertex -33 26.5 23
      vertex 22.5816 26.5 -11.7599
    endloop
  endfacet
  facet normal 0 1 0
    outer loop
      vertex 20.1162 26.5 -14.5427
      vertex -33 26.5 23
      vertex 21.006 26.5 -12.8475
    endloop
  endfacet
  facet normal 0 1 0
    outer loop
      vertex 27.5418 26.5 -13.6411
      vertex 33 26.5 23
      vertex 28 26.5 -15.5
    endloop
  endfacet
  facet normal 0 0 1
    outer loop
      vertex -28 -21.5 23
      vertex -33 -26.5 23
      vertex 33 -26.5 23
    endloop
  endfacet
  facet normal 0 0 1
    outer loop
      vertex 26.2723 -22.2919 23
      vertex 24.4821 -22.9708 23
      vertex 33 -26.5 23
    endloop
  endfacet
  facet normal 0 0 1
    outer loop
      vertex 15 -21.5 23
      vertex -28 -21.5 23
      vertex 33 -26.5 23
    endloop
  endfacet
  facet normal 0 0 1
    outer loop
      vertex -33 26.5 23
      vertex -33 -26.5 23
      vertex -28 -21.5 23
    endloop
  endfacet
  facet normal 0 0 1
    outer loop
      vertex 15 21.5 23
      vertex 20.1162 -18.0427 23
      vertex 21.006 -16.3475 23
    endloop
  endfacet
  facet normal 0 0 1
    outer loop
      vertex -33 26.5 23
      vertex -28 -21.5 23
      vertex -28 21.5 23
    endloop
  endfacet
  facet normal 0 0 1
    outer loop
      vertex 20.1162 18.0427 23
      vertex 15 21.5 23
      vertex 33 -26.5 23
    endloop
  endfacet
  facet normal 0 0 1
    outer loop
      vertex 33 26.5 23
      vertex -33 26.5 23
      vertex 15 21.5 23
    endloop
  endfacet
  facet normal 0 0 1
    outer loop
      vertex 22.5816 -22.7401 23
      vertex 15 -21.5 23
      vertex 33 -26.5 23
    endloop
  endfacet
  facet normal 0 0 1
    outer loop
      vertex 22.5816 -22.7401 23
      vertex 21.006 -21.6525 23
      vertex 15 -21.5 23
    endloop
  endfacet
  facet normal 0 0 1
    outer loop
      vertex 28 -19 23
      vertex 27.5418 -20.8589 23
      vertex 33 -26.5 23
    endloop
  endfacet
  facet normal 0 0 1
    outer loop
      vertex 27.5418 -17.1411 23
      vertex 28 -19 23
      vertex 33 -26.5 23
    endloop
  endfacet
  facet normal 0 0 1
    outer loop
      vertex 15 21.5 23
      vertex 21.006 -16.3475 23
      vertex 22.5816 -15.2599 23
    endloop
  endfacet
  facet normal 0 0 1
    outer loop
      vertex 27.5418 -20.8589 23
      vertex 26.2723 -22.2919 23
      vertex 33 -26.5 23
    endloop
  endfacet
  facet normal 0 0 1
    outer loop
      vertex 15 21.5 23
      vertex 22.5816 -15.2599 23
      vertex 24.4821 -15.0292 23
    endloop
  endfacet
  facet normal 0 0 1
    outer loop
      vertex 15 21.5 23
      vertex 24.4821 -15.0292 23
      vertex 26.2723 -15.7081 23
    endloop
  endfacet
  facet normal 0 0 1
    outer loop
      vertex 15 21.5 23
      vertex 27.5418 -17.1411 23
      vertex 33 -26.5 23
    endloop
  endfacet
  facet normal 0 0 1
    outer loop
      vertex 15 21.5 23
      vertex 26.2723 -15.7081 23
      vertex 27.5418 -17.1411 23
    endloop
  endfacet
  facet normal 0 0 1
    outer loop
      vertex 24.4821 -22.9708 23
      vertex 22.5816 -22.7401 23
      vertex 33 -26.5 23
    endloop
  endfacet
  facet normal 0 0 1
    outer loop
      vertex 22.5816 22.7401 23
      vertex 24.4821 22.9708 23
      vertex 33 26.5 23
    endloop
  endfacet
  facet normal 0 0 1
    outer loop
      vertex 20.1162 -19.9573 23
      vertex 15 -21.5 23
      vertex 21.006 -21.6525 23
    endloop
  endfacet
  facet normal 0 0 1
    outer loop
      vertex 21.006 16.3475 23
      vertex 20.1162 18.0427 23
      vertex 33 -26.5 23
    endloop
  endfacet
  facet normal 0 0 1
    outer loop
      vertex 20.1162 19.9573 23
      vertex 15 21.5 23
      vertex 20.1162 18.0427 23
    endloop
  endfacet
  facet normal 0 0 1
    outer loop
      vertex 21.006 21.6525 23
      vertex 15 21.5 23
      vertex 20.1162 19.9573 23
    endloop
  endfacet
  facet normal 0 0 1
    outer loop
      vertex 22.5816 22.7401 23
      vertex 15 21.5 23
      vertex 21.006 21.6525 23
    endloop
  endfacet
  facet normal 0 0 1
    outer loop
      vertex 24.4821 22.9708 23
      vertex 26.2723 22.2919 23
      vertex 33 26.5 23
    endloop
  endfacet
  facet normal 0 0 1
    outer loop
      vertex 33 26.5 23
      vertex 15 21.5 23
      vertex 22.5816 22.7401 23
    endloop
  endfacet
  facet normal 0 0 1
    outer loop
      vertex 26.2723 22.2919 23
      vertex 27.5418 20.8589 23
      vertex 33 26.5 23
    endloop
  endfacet
  facet normal 0 0 1
    outer loop
      vertex 28 19 23
      vertex 27.5418 17.1411 23
      vertex 33 -26.5 23
    endloop
  endfacet
  facet normal 0 0 1
    outer loop
      vertex 33 26.5 23
      vertex 28 19 23
      vertex 33 -26.5 23
    endloop
  endfacet
  facet normal 0 0 1
    outer loop
      vertex 33 26.5 23
      vertex 27.5418 20.8589 23
      vertex 28 19 23
    endloop
  endfacet
  facet normal 0 0 1
    outer loop
      vertex 27.5418 17.1411 23
      vertex 26.2723 15.7081 23
      vertex 33 -26.5 23
    endloop
  endfacet
  facet normal 0 0 1
    outer loop
      vertex 26.2723 15.7081 23
      vertex 24.4821 15.0292 23
      vertex 33 -26.5 23
    endloop
  endfacet
  facet normal 0 0 1
    outer loop
      vertex 24.4821 15.0292 23
      vertex 22.5816 15.2599 23
      vertex 33 -26.5 23
    endloop
  endfacet
  facet normal 0 0 1
    outer loop
      vertex 22.5816 15.2599 23
      vertex 21.006 16.3475 23
      vertex 33 -26.5 23
    endloop
  endfacet
  facet normal 0 0 1
    outer loop
      vertex -28 21.5 23
      vertex 15 21.5 23
      vertex -33 26.5 23
    endloop
  endfacet
  facet normal 0 0 1
    outer loop
      vertex 15 21.5 23
      vertex 20.1162 -19.9573 23
      vertex 20.1162 -18.0427 23
    endloop
  endfacet
  facet normal 0 0 1
    outer loop
      vertex 15 21.5 23
      vertex 15 -21.5 23
      vertex 20.1162 -19.9573 23
    endloop
  endfacet
  facet normal 1 0 0
    outer loop
      vertex 33 -26.5 23
      vertex 33 -26.5 -23
      vertex 33 26.5 -23
    endloop
  endfacet
  facet normal 1 0 0
    outer loop
      vertex 33 26.5 23
      vertex 33 -26.5 23
      vertex 33 26.5 -23
    endloop
  endfacet
  facet normal 1 0 0
    outer loop
      vertex 20.1162 26.5 -16.4573
      vertex 20.1162 26.5 -14.5427
      vertex 20.1162 -26.5 -14.5427
    endloop
  endfacet
  facet normal 1 0 0
    outer loop
      vertex 20.1162 -26.5 -16.4573
      vertex 20.1162 26.5 -16.4573
      vertex 20.1162 -26.5 -14.5427
    endloop
  endfacet
  facet normal 0.885456 1.03189e-16 0.464723
    outer loop
      vertex 21.006 -26.5 -18.1525
      vertex 21.006 26.5 -18.1525
      vertex 20.1162 26.5 -16.4573
    endloop
  endfacet
  facet normal 0.885456 1.03189e-16 0.464723
    outer loop
      vertex 20.1162 -26.5 -16.4573
      vertex 21.006 -26.5 -18.1525
      vertex 20.1162 26.5 -16.4573
    endloop
  endfacet
  facet normal 0.568065 1.82739e-16 0.822984
    outer loop
      vertex 22.5816 -26.5 -19.2401
      vertex 22.5816 26.5 -19.2401
      vertex 21.006 26.5 -18.1525
    endloop
  endfacet
  facet normal 0.568065 1.82739e-16 0.822984
    outer loop
      vertex 21.006 -26.5 -18.1525
      vertex 22.5816 -26.5 -19.2401
      vertex 21.006 26.5 -18.1525
    endloop
  endfacet
  facet normal 0.120536 2.20426e-16 0.992709
    outer loop
      vertex 24.4821 -26.5 -19.4708
      vertex 24.4821 26.5 -19.4708
      vertex 22.5816 26.5 -19.2401
    endloop
  endfacet
  facet normal 0.120536 2.20426e-16 0.992709
    outer loop
      vertex 22.5816 -26.5 -19.2401
      vertex 24.4821 -26.5 -19.4708
      vertex 22.5816 26.5 -19.2401
    endloop
  endfacet
  facet normal -0.354605 2.07615e-16 0.935016
    outer loop
      vertex 26.2723 -26.5 -18.7919
      vertex 26.2723 26.5 -18.7919
      vertex 24.4821 26.5 -19.4708
    endloop
  endfacet
  facet normal -0.354605 2.07615e-16 0.935016
    outer loop
      vertex 24.4821 -26.5 -19.4708
      vertex 26.2723 -26.5 -18.7919
      vertex 24.4821 26.5 -19.4708
    endloop
  endfacet
  facet normal -0.748511 1.47243e-16 0.663123
    outer loop
      vertex 27.5418 26.5 -17.3589
      vertex 26.2723 26.5 -18.7919
      vertex 27.5418 -26.5 -17.3589
    endloop
  endfacet
  facet normal -0.748511 1.47243e-16 0.663123
    outer loop
      vertex 27.5418 -26.5 -17.3589
      vertex 26.2723 26.5 -18.7919
      vertex 26.2723 -26.5 -18.7919
    endloop
  endfacet
  facet normal -0.970942 5.31388e-17 0.239316
    outer loop
      vertex 28 26.5 -15.5
      vertex 27.5418 26.5 -17.3589
      vertex 28 -26.5 -15.5
    endloop
  endfacet
  facet normal -0.970942 5.31388e-17 0.239316
    outer loop
      vertex 28 -26.5 -15.5
      vertex 27.5418 26.5 -17.3589
      vertex 27.5418 -26.5 -17.3589
    endloop
  endfacet
  facet normal -0.970942 -5.31388e-17 -0.239316
    outer loop
      vertex 28 26.5 -15.5
      vertex 28 -26.5 -15.5
      vertex 27.5418 26.5 -13.6411
    endloop
  endfacet
  facet normal -0.970942 -5.31388e-17 -0.239316
    outer loop
      vertex 27.5418 26.5 -13.6411
      vertex 28 -26.5 -15.5
      vertex 27.5418 -26.5 -13.6411
    endloop
  endfacet
  facet normal -0.748511 -1.47243e-16 -0.663123
    outer loop
      vertex 27.5418 26.5 -13.6411
      vertex 27.5418 -26.5 -13.6411
      vertex 26.2723 26.5 -12.2081
    endloop
  endfacet
  facet normal -0.748511 -1.47243e-16 -0.663123
    outer loop
      vertex 26.2723 26.5 -12.2081
      vertex 27.5418 -26.5 -13.6411
      vertex 26.2723 -26.5 -12.2081
    endloop
  endfacet
  facet normal -0.354605 -2.07615e-16 -0.935016
    outer loop
      vertex 26.2723 26.5 -12.2081
      vertex 26.2723 -26.5 -12.2081
      vertex 24.4821 26.5 -11.5292
    endloop
  endfacet
  facet normal -0.354605 -2.07615e-16 -0.935016
    outer loop
      vertex 24.4821 26.5 -11.5292
      vertex 26.2723 -26.5 -12.2081
      vertex 24.4821 -26.5 -11.5292
    endloop
  endfacet
  facet normal 0.120536 -2.20426e-16 -0.992709
    outer loop
      vertex 24.4821 26.5 -11.5292
      vertex 24.4821 -26.5 -11.5292
      vertex 22.5816 26.5 -11.7599
    endloop
  endfacet
  facet normal 0.120536 -2.20426e-16 -0.992709
    outer loop
      vertex 22.5816 26.5 -11.7599
      vertex 24.4821 -26.5 -11.5292
      vertex 22.5816 -26.5 -11.7599
    endloop
  endfacet
  facet normal 0.568065 -1.82739e-16 -0.822984
    outer loop
      vertex 22.5816 26.5 -11.7599
      vertex 22.5816 -26.5 -11.7599
      vertex 21.006 26.5 -12.8475
    endloop
  endfacet
  facet normal 0.568065 -1.82739e-16 -0.822984
    outer loop
      vertex 21.006 26.5 -12.8475
      vertex 22.5816 -26.5 -11.7599
      vertex 21.006 -26.5 -12.8475
    endloop
  endfacet
  facet normal 0.885456 -1.03189e-16 -0.464723
    outer loop
      vertex 20.1162 26.5 -14.5427
      vertex 21.006 26.5 -12.8475
      vertex 21.006 -26.5 -12.8475
    endloop
  endfacet
  facet normal 0.885456 -1.03189e-16 -0.464723
    outer loop
      vertex 20.1162 -26.5 -14.5427
      vertex 20.1162 26.5 -14.5427
      vertex 21.006 -26.5 -12.8475
    endloop
  endfacet
  facet normal 1 0 0
    outer loop
      vertex -28 21.5 -4.6
      vertex -28 21.5 23
      vertex -28 -21.5 23
    endloop
  endfacet
  facet normal 1 0 0
    outer loop
      vertex -28 -21.5 -4.6
      vertex -28 21.5 -4.6
      vertex -28 -21.5 23
    endloop
  endfacet
  facet normal 0 1 0
    outer loop
      vertex 15 -21.5 23
      vertex 15 -21.5 -4.6
      vertex -28 -21.5 23
    endloop
  endfacet
  facet normal 0 1 0
    outer loop
      vertex -28 -21.5 23
      vertex 15 -21.5 -4.6
      vertex -28 -21.5 -4.6
    endloop
  endfacet
  facet normal -1 0 0
    outer loop
      vertex 15 21.5 23
      vertex 15 21.5 -4.6
      vertex 15 -21.5 23
    endloop
  endfacet
  facet normal -1 0 0
    outer loop
      vertex 15 -21.5 23
      vertex 15 21.5 -4.6
      vertex 15 -21.5 -4.6
    endloop
  endfacet
  facet normal 0 -1 0
    outer loop
      vertex 15 21.5 -4.6
      vertex 15 21.5 23
      vertex -28 21.5 23
    endloop
  endfacet
  facet normal 0 -1 0
    outer loop
      vertex -28 21.5 -4.6
      vertex 15 21.5 -4.6
      vertex -28 21.5 23
    endloop
  endfacet
  facet normal 1 0 0
    outer loop
      vertex 20.1162 -18.0427 0
      vertex 20.1162 -18.0427 23
      vertex 20.1162 -19.9573 23
    endloop
  endfacet
  facet normal 1 0 0
    outer loop
      vertex 20.1162 -19.9573 0
      vertex 20.1162 -18.0427 0
      vertex 20.1162 -19.9573 23
    endloop
  endfacet
  facet normal 0.885456 0.464723 0
    outer loop
      vertex 20.1162 -19.9573 23
      vertex 21.006 -21.6525 23
      vertex 21.006 -21.6525 0
    endloop
  endfacet
  facet normal 0.885456 0.464723 0
    outer loop
      vertex 20.1162 -19.9573 0
      vertex 20.1162 -19.9573 23
      vertex 21.006 -21.6525 0
    endloop
  endfacet
  facet normal 0.568065 0.822984 0
    outer loop
      vertex 22.5816 -22.7401 23
      vertex 22.5816 -22.7401 0
      vertex 21.006 -21.6525 23
    endloop
  endfacet
  facet normal 0.568065 0.822984 0
    outer loop
      vertex 21.006 -21.6525 23
      vertex 22.5816 -22.7401 0
      vertex 21.006 -21.6525 0
    endloop
  endfacet
  facet normal 0.120536 0.992709 0
    outer loop
      vertex 24.4821 -22.9708 23
      vertex 24.4821 -22.9708 0
      vertex 22.5816 -22.7401 23
    endloop
  endfacet
  facet normal 0.120536 0.992709 0
    outer loop
      vertex 22.5816 -22.7401 23
      vertex 24.4821 -22.9708 0
      vertex 22.5816 -22.7401 0
    endloop
  endfacet
  facet normal -0.354605 0.935016 0
    outer loop
      vertex 26.2723 -22.2919 23
      vertex 26.2723 -22.2919 0
      vertex 24.4821 -22.9708 23
    endloop
  endfacet
  facet normal -0.354605 0.935016 0
    outer loop
      vertex 24.4821 -22.9708 23
      vertex 26.2723 -22.2919 0
      vertex 24.4821 -22.9708 0
    endloop
  endfacet
  facet normal -0.748511 0.663123 0
    outer loop
      vertex 27.5418 -20.8589 23
      vertex 27.5418 -20.8589 0
      vertex 26.2723 -22.2919 23
    endloop
  endfacet
  facet normal -0.748511 0.663123 0
    outer loop
      vertex 26.2723 -22.2919 23
      vertex 27.5418 -20.8589 0
      vertex 26.2723 -22.2919 0
    endloop
  endfacet
  facet normal -0.970942 0.239316 0
    outer loop
      vertex 28 -19 23
      vertex 28 -19 0
      vertex 27.5418 -20.8589 23
    endloop
  endfacet
  facet normal -0.970942 0.239316 0
    outer loop
      vertex 27.5418 -20.8589 23
      vertex 28 -19 0
      vertex 27.5418 -20.8589 0
    endloop
  endfacet
  facet normal -0.970942 -0.239316 0
    outer loop
      vertex 28 -19 23
      vertex 27.5418 -17.1411 23
      vertex 28 -19 0
    endloop
  endfacet
  facet normal -0.970942 -0.239316 0
    outer loop
      vertex 28 -19 0
      vertex 27.5418 -17.1411 23
      vertex 27.5418 -17.1411 0
    endloop
  endfacet
  facet normal -0.748511 -0.663123 0
    outer loop
      vertex 27.5418 -17.1411 23
      vertex 26.2723 -15.7081 23
      vertex 27.5418 -17.1411 0
    endloop
  endfacet
  facet normal -0.748511 -0.663123 0
    outer loop
      vertex 27.5418 -17.1411 0
      vertex 26.2723 -15.7081 23
      vertex 26.2723 -15.7081 0
    endloop
  endfacet
  facet normal -0.354605 -0.935016 0
    outer loop
      vertex 26.2723 -15.7081 0
      vertex 26.2723 -15.7081 23
      vertex 24.4821 -15.0292 23
    endloop
  endfacet
  facet normal -0.354605 -0.935016 0
    outer loop
      vertex 24.4821 -15.0292 0
      vertex 26.2723 -15.7081 0
      vertex 24.4821 -15.0292 23
    endloop
  endfacet
  facet normal 0.120536 -0.992709 0
    outer loop
      vertex 24.4821 -15.0292 0
      vertex 24.4821 -15.0292 23
      vertex 22.5816 -15.2599 23
    endloop
  endfacet
  facet normal 0.120536 -0.992709 0
    outer loop
      vertex 22.5816 -15.2599 0
      vertex 24.4821 -15.0292 0
      vertex 22.5816 -15.2599 23
    endloop
  endfacet
  facet normal 0.568065 -0.822984 0
    outer loop
      vertex 22.5816 -15.2599 0
      vertex 22.5816 -15.2599 23
      vertex 21.006 -16.3475 23
    endloop
  endfacet
  facet normal 0.568065 -0.822984 0
    outer loop
      vertex 21.006 -16.3475 0
      vertex 22.5816 -15.2599 0
      vertex 21.006 -16.3475 23
    endloop
  endfacet
  facet normal 0.885456 -0.464723 0
    outer loop
      vertex 21.006 -16.3475 0
      vertex 21.006 -16.3475 23
      vertex 20.1162 -18.0427 23
    endloop
  endfacet
  facet normal 0.885456 -0.464723 0
    outer loop
      vertex 20.1162 -18.0427 0
      vertex 21.006 -16.3475 0
      vertex 20.1162 -18.0427 23
    endloop
  endfacet
  facet normal 1 0 0
    outer loop
      vertex 20.1162 19.9573 0
      vertex 20.1162 19.9573 23
      vertex 20.1162 18.0427 23
    endloop
  endfacet
  facet normal 1 0 0
    outer loop
      vertex 20.1162 18.0427 0
      vertex 20.1162 19.9573 0
      vertex 20.1162 18.0427 23
    endloop
  endfacet
  facet normal 0.885456 0.464723 0
    outer loop
      vertex 20.1162 18.0427 23
      vertex 21.006 16.3475 23
      vertex 21.006 16.3475 0
    endloop
  endfacet
  facet normal 0.885456 0.464723 0
    outer loop
      vertex 20.1162 18.0427 0
      vertex 20.1162 18.0427 23
      vertex 21.006 16.3475 0
    endloop
  endfacet
  facet normal 0.568065 0.822984 0
    outer loop
      vertex 22.5816 15.2599 23
      vertex 22.5816 15.2599 0
      vertex 21.006 16.3475 23
    endloop
  endfacet
  facet normal 0.568065 0.822984 0
    outer loop
      vertex 21.006 16.3475 23
      vertex 22.5816 15.2599 0
      vertex 21.006 16.3475 0
    endloop
  endfacet
  facet normal 0.120536 0.992709 0
    outer loop
      vertex 24.4821 15.0292 23
      vertex 24.4821 15.0292 0
      vertex 22.5816 15.2599 23
    endloop
  endfacet
  facet normal 0.120536 0.992709 0
    outer loop
      vertex 22.5816 15.2599 23
      vertex 24.4821 15.0292 0
      vertex 22.5816 15.2599 0
    endloop
  endfacet
  facet normal -0.354605 0.935016 0
    outer loop
      vertex 26.2723 15.7081 23
      vertex 26.2723 15.7081 0
      vertex 24.4821 15.0292 23
    endloop
  endfacet
  facet normal -0.354605 0.935016 0
    outer loop
      vertex 24.4821 15.0292 23
      vertex 26.2723 15.7081 0
      vertex 24.4821 15.0292 0
    endloop
  endfacet
  facet normal -0.748511 0.663123 0
    outer loop
      vertex 27.5418 17.1411 23
      vertex 27.5418 17.1411 0
      vertex 26.2723 15.7081 23
    endloop
  endfacet
  facet normal -0.748511 0.663123 0
    outer loop
      vertex 26.2723 15.7081 23
      vertex 27.5418 17.1411 0
      vertex 26.2723 15.7081 0
    endloop
  endfacet
  facet normal -0.970942 0.239316 0
    outer loop
      vertex 28 19 23
      vertex 28 19 0
      vertex 27.5418 17.1411 23
    endloop
  endfacet
  facet normal -0.970942 0.239316 0
    outer loop
      vertex 27.5418 17.1411 23
      vertex 28 19 0
      vertex 27.5418 17.1411 0
    endloop
  endfacet
  facet normal -0.970942 -0.239316 0
    outer loop
      vertex 28 19 23
      vertex 27.5418 20.8589 23
      vertex 28 19 0
    endloop
  endfacet
  facet normal -0.970942 -0.239316 0
    outer loop
      vertex 28 19 0
      vertex 27.5418 20.8589 23
      vertex 27.5418 20.8589 0
    endloop
  endfacet
  facet normal -0.748511 -0.663123 0
    outer loop
      vertex 27.5418 20.8589 23
      vertex 26.2723 22.2919 23
      vertex 27.5418 20.8589 0
    endloop
  endfacet
  facet normal -0.748511 -0.663123 0
    outer loop
      vertex 27.5418 20.8589 0
      vertex 26.2723 22.2919 23
      vertex 26.2723 22.2919 0
    endloop
  endfacet
  facet normal -0.354605 -0.935016 0
    outer loop
      vertex 26.2723 22.2919 0
      vertex 26.2723 22.2919 23
      vertex 24.4821 22.9708 23
    endloop
  endfacet
  facet normal -0.354605 -0.935016 0
    outer loop
      vertex 24.4821 22.9708 0
      vertex 26.2723 22.2919 0
      vertex 24.4821 22.9708 23
    endloop
  endfacet
  facet normal 0.120536 -0.992709 0
    outer loop
      vertex 24.4821 22.9708 0
      vertex 24.4821 22.9708 23
      vertex 22.5816 22.7401 23
    endloop
  endfacet
  facet normal 0.120536 -0.992709 0
    outer loop
      vertex 22.5816 22.7401 0
      vertex 24.4821 22.9708 0
      vertex 22.5816 22.7401 23
    endloop
  endfacet
  facet normal 0.568065 -0.822984 0
    outer loop
      vertex 22.5816 22.7401 0
      vertex 22.5816 22.7401 23
      vertex 21.006 21.6525 23
    endloop
  endfacet
  facet normal 0.568065 -0.822984 0
    outer loop
      vertex 21.006 21.6525 0
      vertex 22.5816 22.7401 0
      vertex 21.006 21.6525 23
    endloop
  endfacet
  facet normal 0.885456 -0.464723 0
    outer loop
      vertex 21.006 21.6525 0
      vertex 21.006 21.6525 23
      vertex 20.1162 19.9573 23
    endloop
  endfacet
  facet normal 0.885456 -0.464723 0
    outer loop
      vertex 20.1162 19.9573 0
      vertex 21.006 21.6525 0
      vertex 20.1162 19.9573 23
    endloop
  endfacet
  facet normal 0 0 1
    outer loop
      vertex 15 -21.5 -4.6
      vertex 15 21.5 -4.6
      vertex -28 21.5 -4.6
    endloop
  endfacet
  facet normal 0 0 1
    outer loop
      vertex -28 -21.5 -4.6
      vertex 15 -21.5 -4.6
      vertex -28 21.5 -4.6
    endloop
  endfacet
  facet normal 0 0 1
    outer loop
      vertex 21.006 -21.6525 0
      vertex 22.5816 -22.7401 0
      vertex 24.4821 -22.9708 0
    endloop
  endfacet
  facet normal 0 0 1
    outer loop
      vertex 27.5418 -20.8589 0
      vertex 21.006 -21.6525 0
      vertex 26.2723 -22.2919 0
    endloop
  endfacet
  facet normal 0 0 1
    outer loop
      vertex 26.2723 -22.2919 0
      vertex 21.006 -21.6525 0
      vertex 24.4821 -22.9708 0
    endloop
  endfacet
  facet normal 0 0 1
    outer loop
      vertex 28 -19 0
      vertex 21.006 -21.6525 0
      vertex 27.5418 -20.8589 0
    endloop
  endfacet
  facet normal 0 0 1
    outer loop
      vertex 27.5418 -17.1411 0
      vertex 21.006 -21.6525 0
      vertex 28 -19 0
    endloop
  endfacet
  facet normal 0 0 1
    outer loop
      vertex 26.2723 -15.7081 0
      vertex 21.006 -21.6525 0
      vertex 27.5418 -17.1411 0
    endloop
  endfacet
  facet normal 0 0 1
    outer loop
      vertex 24.4821 -15.0292 0
      vertex 21.006 -21.6525 0
      vertex 26.2723 -15.7081 0
    endloop
  endfacet
  facet normal 0 0 1
    outer loop
      vertex 22.5816 -15.2599 0
      vertex 21.006 -21.6525 0
      vertex 24.4821 -15.0292 0
    endloop
  endfacet
  facet normal 0 0 1
    outer loop
      vertex 21.006 -16.3475 0
      vertex 21.006 -21.6525 0
      vertex 22.5816 -15.2599 0
    endloop
  endfacet
  facet normal 0 0 1
    outer loop
      vertex 20.1162 -18.0427 0
      vertex 21.006 -21.6525 0
      vertex 21.006 -16.3475 0
    endloop
  endfacet
  facet normal 0 0 1
    outer loop
      vertex 20.1162 -19.9573 0
      vertex 21.006 -21.6525 0
      vertex 20.1162 -18.0427 0
    endloop
  endfacet
  facet normal 0 0 1
    outer loop
      vertex 21.006 16.3475 0
      vertex 22.5816 15.2599 0
      vertex 24.4821 15.0292 0
    endloop
  endfacet
  facet normal 0 0 1
    outer loop
      vertex 27.5418 17.1411 0
      vertex 21.006 16.3475 0
      vertex 26.2723 15.7081 0
    endloop
  endfacet
  facet normal 0 0 1
    outer loop
      vertex 26.2723 15.7081 0
      vertex 21.006 16.3475 0
      vertex 24.4821 15.0292 0
    endloop
  endfacet
  facet normal 0 0 1
    outer loop
      vertex 28 19 0
      vertex 21.006 16.3475 0
      vertex 27.5418 17.1411 0
    endloop
  endfacet
  facet normal 0 0 1
    outer loop
      vertex 27.5418 20.8589 0
      vertex 21.006 16.3475 0
      vertex 28 19 0
    endloop
  endfacet
  facet normal 0 0 1
    outer loop
      vertex 26.2723 22.2919 0
      vertex 21.006 16.3475 0
      vertex 27.5418 20.8589 0
    endloop
  endfacet
  facet normal 0 0 1
    outer loop
      vertex 24.4821 22.9708 0
      vertex 21.006 16.3475 0
      vertex 26.2723 22.2919 0
    endloop
  endfacet
  facet normal 0 0 1
    outer loop
      vertex 22.5816 22.7401 0
      vertex 21.006 16.3475 0
      vertex 24.4821 22.9708 0
    endloop
  endfacet
  facet normal 0 0 1
    outer loop
      vertex 21.006 21.6525 0
      vertex 21.006 16.3475 0
      vertex 22.5816 22.7401 0
    endloop
  endfacet
  facet normal 0 0 1
    outer loop
      vertex 20.1162 19.9573 0
      vertex 21.006 16.3475 0
      vertex 21.006 21.6525 0
    endloop
  endfacet
  facet normal 0 0 1
    outer loop
      vertex 20.1162 18.0427 0
      vertex 21.006 16.3475 0
      vertex 20.1162 19.9573 0
    endloop
  endfacet
endsolid OpenSCAD_Model
