solid OpenSCAD_Model
  facet normal -1 0 0
    outer loop
      vertex -33 -5.75 41.75
      vertex -33 -26.5 47
      vertex -33 26.5 47
    endloop
  endfacet
  facet normal -1 0 0
    outer loop
      vertex -33 5.75 41.75
      vertex -33 -5.75 41.75
      vertex -33 26.5 47
    endloop
  endfacet
  facet normal -1 0 0
    outer loop
      vertex -33 -26.5 0
      vertex -33 -26.5 47
      vertex -33 -5.75 10.25
    endloop
  endfacet
  facet normal -1 0 0
    outer loop
      vertex -33 -26.5 0
      vertex -33 -5.75 10.25
      vertex -33 26.5 0
    endloop
  endfacet
  facet normal -1 0 0
    outer loop
      vertex -33 5.75 41.75
      vertex -33 26.5 0
      vertex -33 5.75 10.25
    endloop
  endfacet
  facet normal -1 0 0
    outer loop
      vertex -33 -5.75 10.25
      vertex -33 5.75 10.25
      vertex -33 26.5 0
    endloop
  endfacet
  facet normal -1 0 0
    outer loop
      vertex -33 26.5 0
      vertex -33 5.75 41.75
      vertex -33 26.5 47
    endloop
  endfacet
  facet normal -1 0 0
    outer loop
      vertex -33 -5.75 10.25
      vertex -33 -26.5 47
      vertex -33 -5.75 41.75
    endloop
  endfacet
  facet normal 0 -1 0
    outer loop
      vertex 22.5816 -26.5 5.25994
      vertex -33 -26.5 0
      vertex 33 -26.5 0
    endloop
  endfacet
  facet normal 0 -1 0
    outer loop
      vertex 21.006 -26.5 6.34751
      vertex 20.1162 -26.5 8.04274
      vertex -23 -26.5 32.75
    endloop
  endfacet
  facet normal 0 -1 0
    outer loop
      vertex -33 -26.5 47
      vertex -33 -26.5 0
      vertex -23 -26.5 32.75
    endloop
  endfacet
  facet normal 0 -1 0
    outer loop
      vertex 33 -26.5 47
      vertex -33 -26.5 47
      vertex -23 -26.5 44.25
    endloop
  endfacet
  facet normal 0 -1 0
    outer loop
      vertex 33 -26.5 47
      vertex -23 -26.5 44.25
      vertex 10 -26.5 44.25
    endloop
  endfacet
  facet normal 0 -1 0
    outer loop
      vertex 28 -26.5 9
      vertex 27.5418 -26.5 7.14111
      vertex 33 -26.5 0
    endloop
  endfacet
  facet normal 0 -1 0
    outer loop
      vertex 26.2723 -26.5 5.70807
      vertex 24.4821 -26.5 5.02917
      vertex 33 -26.5 0
    endloop
  endfacet
  facet normal 0 -1 0
    outer loop
      vertex 10 -26.5 32.75
      vertex 21.006 -26.5 11.6525
      vertex 22.5816 -26.5 12.7401
    endloop
  endfacet
  facet normal 0 -1 0
    outer loop
      vertex 10 -26.5 44.25
      vertex 10 -26.5 32.75
      vertex 24.4821 -26.5 12.9708
    endloop
  endfacet
  facet normal 0 -1 0
    outer loop
      vertex 27.5418 -26.5 10.8589
      vertex 28 -26.5 9
      vertex 33 -26.5 0
    endloop
  endfacet
  facet normal 0 -1 0
    outer loop
      vertex 10 -26.5 44.25
      vertex 24.4821 -26.5 12.9708
      vertex 26.2723 -26.5 12.2919
    endloop
  endfacet
  facet normal 0 -1 0
    outer loop
      vertex 33 -26.5 47
      vertex 27.5418 -26.5 10.8589
      vertex 33 -26.5 0
    endloop
  endfacet
  facet normal 0 -1 0
    outer loop
      vertex 33 -26.5 47
      vertex 10 -26.5 44.25
      vertex 27.5418 -26.5 10.8589
    endloop
  endfacet
  facet normal 0 -1 0
    outer loop
      vertex 26.2723 -26.5 12.2919
      vertex 27.5418 -26.5 10.8589
      vertex 10 -26.5 44.25
    endloop
  endfacet
  facet normal 0 -1 0
    outer loop
      vertex 27.5418 -26.5 7.14111
      vertex 26.2723 -26.5 5.70807
      vertex 33 -26.5 0
    endloop
  endfacet
  facet normal 0 -1 0
    outer loop
      vertex -23 -26.5 32.75
      vertex -33 -26.5 0
      vertex 22.5816 -26.5 5.25994
    endloop
  endfacet
  facet normal 0 -1 0
    outer loop
      vertex 22.5816 -26.5 12.7401
      vertex 24.4821 -26.5 12.9708
      vertex 10 -26.5 32.75
    endloop
  endfacet
  facet normal 0 -1 0
    outer loop
      vertex -23 -26.5 32.75
      vertex 22.5816 -26.5 5.25994
      vertex 21.006 -26.5 6.34751
    endloop
  endfacet
  facet normal 0 -1 0
    outer loop
      vertex -23 -26.5 32.75
      vertex -23 -26.5 44.25
      vertex -33 -26.5 47
    endloop
  endfacet
  facet normal 0 -1 0
    outer loop
      vertex 10 -26.5 32.75
      vertex 20.1162 -26.5 9.95726
      vertex 21.006 -26.5 11.6525
    endloop
  endfacet
  facet normal 0 -1 0
    outer loop
      vertex 24.4821 -26.5 5.02917
      vertex 22.5816 -26.5 5.25994
      vertex 33 -26.5 0
    endloop
  endfacet
  facet normal 0 -1 0
    outer loop
      vertex 10 -26.5 32.75
      vertex 20.1162 -26.5 8.04274
      vertex 20.1162 -26.5 9.95726
    endloop
  endfacet
  facet normal 0 -1 0
    outer loop
      vertex 10 -26.5 32.75
      vertex -23 -26.5 32.75
      vertex 20.1162 -26.5 8.04274
    endloop
  endfacet
  facet normal 0 0 -1
    outer loop
      vertex 10 16.5 0
      vertex 33 -26.5 0
      vertex 10 -16.5 0
    endloop
  endfacet
  facet normal 0 0 -1
    outer loop
      vertex 10 16.5 0
      vertex -33 26.5 0
      vertex 33 26.5 0
    endloop
  endfacet
  facet normal 0 0 -1
    outer loop
      vertex -33 -26.5 0
      vertex -33 26.5 0
      vertex -23 16.5 0
    endloop
  endfacet
  facet normal 0 0 -1
    outer loop
      vertex -33 -26.5 0
      vertex -23 16.5 0
      vertex -23 -16.5 0
    endloop
  endfacet
  facet normal 0 0 -1
    outer loop
      vertex -33 -26.5 0
      vertex -23 -16.5 0
      vertex 33 -26.5 0
    endloop
  endfacet
  facet normal 0 0 -1
    outer loop
      vertex -23 -16.5 0
      vertex 10 -16.5 0
      vertex 33 -26.5 0
    endloop
  endfacet
  facet normal 0 0 -1
    outer loop
      vertex 33 -26.5 0
      vertex 10 16.5 0
      vertex 33 26.5 0
    endloop
  endfacet
  facet normal 0 0 -1
    outer loop
      vertex -23 16.5 0
      vertex -33 26.5 0
      vertex 10 16.5 0
    endloop
  endfacet
  facet normal 0 1 0
    outer loop
      vertex -23 26.5 44.25
      vertex -33 26.5 47
      vertex 33 26.5 47
    endloop
  endfacet
  facet normal 0 1 0
    outer loop
      vertex 10 26.5 32.75
      vertex 20.1162 26.5 9.95726
      vertex 20.1162 26.5 8.04274
    endloop
  endfacet
  facet normal 0 1 0
    outer loop
      vertex 10 26.5 44.25
      vertex -23 26.5 44.25
      vertex 33 26.5 47
    endloop
  endfacet
  facet normal 0 1 0
    outer loop
      vertex -33 26.5 0
      vertex -33 26.5 47
      vertex -23 26.5 32.75
    endloop
  endfacet
  facet normal 0 1 0
    outer loop
      vertex 24.4821 26.5 5.02916
      vertex 33 26.5 0
      vertex 22.5816 26.5 5.25993
    endloop
  endfacet
  facet normal 0 1 0
    outer loop
      vertex 21.006 26.5 6.34751
      vertex -23 26.5 32.75
      vertex 20.1162 26.5 8.04274
    endloop
  endfacet
  facet normal 0 1 0
    outer loop
      vertex 27.5418 26.5 10.8589
      vertex 10 26.5 32.75
      vertex 33 26.5 47
    endloop
  endfacet
  facet normal 0 1 0
    outer loop
      vertex 10 26.5 32.75
      vertex 10 26.5 44.25
      vertex 33 26.5 47
    endloop
  endfacet
  facet normal 0 1 0
    outer loop
      vertex 10 26.5 32.75
      vertex 21.006 26.5 11.6525
      vertex 20.1162 26.5 9.95726
    endloop
  endfacet
  facet normal 0 1 0
    outer loop
      vertex 28 26.5 9
      vertex 33 26.5 0
      vertex 27.5418 26.5 7.14111
    endloop
  endfacet
  facet normal 0 1 0
    outer loop
      vertex -33 26.5 0
      vertex -23 26.5 32.75
      vertex 21.006 26.5 6.34751
    endloop
  endfacet
  facet normal 0 1 0
    outer loop
      vertex -33 26.5 0
      vertex 21.006 26.5 6.34751
      vertex 22.5816 26.5 5.25993
    endloop
  endfacet
  facet normal 0 1 0
    outer loop
      vertex -33 26.5 0
      vertex 22.5816 26.5 5.25993
      vertex 33 26.5 0
    endloop
  endfacet
  facet normal 0 1 0
    outer loop
      vertex 33 26.5 0
      vertex 26.2723 26.5 5.70806
      vertex 27.5418 26.5 7.14111
    endloop
  endfacet
  facet normal 0 1 0
    outer loop
      vertex 22.5816 26.5 12.7401
      vertex 10 26.5 32.75
      vertex 24.4821 26.5 12.9708
    endloop
  endfacet
  facet normal 0 1 0
    outer loop
      vertex 33 26.5 0
      vertex 28 26.5 9
      vertex 33 26.5 47
    endloop
  endfacet
  facet normal 0 1 0
    outer loop
      vertex 26.2723 26.5 12.2919
      vertex 10 26.5 32.75
      vertex 27.5418 26.5 10.8589
    endloop
  endfacet
  facet normal 0 1 0
    outer loop
      vertex 28 26.5 9
      vertex 27.5418 26.5 10.8589
      vertex 33 26.5 47
    endloop
  endfacet
  facet normal 0 1 0
    outer loop
      vertex 24.4821 26.5 12.9708
      vertex 10 26.5 32.75
      vertex 26.2723 26.5 12.2919
    endloop
  endfacet
  facet normal 0 1 0
    outer loop
      vertex 21.006 26.5 11.6525
      vertex 10 26.5 32.75
      vertex 22.5816 26.5 12.7401
    endloop
  endfacet
  facet normal 0 1 0
    outer loop
      vertex 26.2723 26.5 5.70806
      vertex 33 26.5 0
      vertex 24.4821 26.5 5.02916
    endloop
  endfacet
  facet normal 0 1 0
    outer loop
      vertex -23 26.5 32.75
      vertex -33 26.5 47
      vertex -23 26.5 44.25
    endloop
  endfacet
  facet normal 0 1 0
    outer loop
      vertex 10 26.5 32.75
      vertex 20.1162 26.5 8.04274
      vertex -23 26.5 32.75
    endloop
  endfacet
  facet normal 0 0 1
    outer loop
      vertex -28 -21.5 47
      vertex -33 -26.5 47
      vertex 33 -26.5 47
    endloop
  endfacet
  facet normal 0 0 1
    outer loop
      vertex 15 -21.5 47
      vertex -28 -21.5 47
      vertex 33 -26.5 47
    endloop
  endfacet
  facet normal 0 0 1
    outer loop
      vertex -33 26.5 47
      vertex -33 -26.5 47
      vertex -28 -21.5 47
    endloop
  endfacet
  facet normal 0 0 1
    outer loop
      vertex -33 26.5 47
      vertex -28 -21.5 47
      vertex -28 21.5 47
    endloop
  endfacet
  facet normal 0 0 1
    outer loop
      vertex 21.75 -10.1029 47
      vertex 15 -5.75 47
      vertex 20.3594 -11.355 47
    endloop
  endfacet
  facet normal 0 0 1
    outer loop
      vertex 33 26.5 47
      vertex -33 26.5 47
      vertex 15 21.5 47
    endloop
  endfacet
  facet normal 0 0 1
    outer loop
      vertex 20.3594 -16.645 47
      vertex 15 -21.5 47
      vertex 21.75 -17.8971 47
    endloop
  endfacet
  facet normal 0 0 1
    outer loop
      vertex 27.0111 -17.3442 47
      vertex 25.3906 -18.2798 47
      vertex 33 -26.5 47
    endloop
  endfacet
  facet normal 0 0 1
    outer loop
      vertex 33 26.5 47
      vertex 28 5.75 47
      vertex 33 -26.5 47
    endloop
  endfacet
  facet normal 0 0 1
    outer loop
      vertex 28 5.75 47
      vertex 28 -5.75 47
      vertex 33 -26.5 47
    endloop
  endfacet
  facet normal 0 0 1
    outer loop
      vertex 21.75 -17.8971 47
      vertex 15 -21.5 47
      vertex 33 -26.5 47
    endloop
  endfacet
  facet normal 0 0 1
    outer loop
      vertex 23.5296 -18.4753 47
      vertex 21.75 -17.8971 47
      vertex 33 -26.5 47
    endloop
  endfacet
  facet normal 0 0 1
    outer loop
      vertex 28 -5.75 47
      vertex 27.0111 -10.6558 47
      vertex 28.111 -12.1697 47
    endloop
  endfacet
  facet normal 0 0 1
    outer loop
      vertex 28.111 12.1697 47
      vertex 27.0111 10.6558 47
      vertex 28 5.75 47
    endloop
  endfacet
  facet normal 0 0 1
    outer loop
      vertex 15 -5.75 47
      vertex 19.5983 -14.9356 47
      vertex 19.5983 -13.0644 47
    endloop
  endfacet
  facet normal 0 0 1
    outer loop
      vertex 25.3906 -18.2798 47
      vertex 23.5296 -18.4753 47
      vertex 33 -26.5 47
    endloop
  endfacet
  facet normal 0 0 1
    outer loop
      vertex 19.5983 14.9356 47
      vertex 20.3594 16.645 47
      vertex 15 21.5 47
    endloop
  endfacet
  facet normal 0 0 1
    outer loop
      vertex 28.111 -15.8303 47
      vertex 27.0111 -17.3442 47
      vertex 33 -26.5 47
    endloop
  endfacet
  facet normal 0 0 1
    outer loop
      vertex 28 -5.75 47
      vertex 15 -5.75 47
      vertex 21.75 -10.1029 47
    endloop
  endfacet
  facet normal 0 0 1
    outer loop
      vertex 28 -5.75 47
      vertex 28.111 -12.1697 47
      vertex 33 -26.5 47
    endloop
  endfacet
  facet normal 0 0 1
    outer loop
      vertex 28.111 -12.1697 47
      vertex 28.5 -14 47
      vertex 33 -26.5 47
    endloop
  endfacet
  facet normal 0 0 1
    outer loop
      vertex 28 -5.75 47
      vertex 21.75 -10.1029 47
      vertex 23.5296 -9.52465 47
    endloop
  endfacet
  facet normal 0 0 1
    outer loop
      vertex 15 -5.75 47
      vertex 20.3594 -16.645 47
      vertex 19.5983 -14.9356 47
    endloop
  endfacet
  facet normal 0 0 1
    outer loop
      vertex 28.5 -14 47
      vertex 28.111 -15.8303 47
      vertex 33 -26.5 47
    endloop
  endfacet
  facet normal 0 0 1
    outer loop
      vertex 19.5983 -13.0644 47
      vertex 20.3594 -11.355 47
      vertex 15 -5.75 47
    endloop
  endfacet
  facet normal 0 0 1
    outer loop
      vertex 28 -5.75 47
      vertex 25.3906 -9.72025 47
      vertex 27.0111 -10.6558 47
    endloop
  endfacet
  facet normal 0 0 1
    outer loop
      vertex 19.5983 14.9356 47
      vertex 15 21.5 47
      vertex 19.5983 13.0644 47
    endloop
  endfacet
  facet normal 0 0 1
    outer loop
      vertex 21.75 17.8971 47
      vertex 23.5296 18.4753 47
      vertex 33 26.5 47
    endloop
  endfacet
  facet normal 0 0 1
    outer loop
      vertex 21.75 17.8971 47
      vertex 15 21.5 47
      vertex 20.3594 16.645 47
    endloop
  endfacet
  facet normal 0 0 1
    outer loop
      vertex 33 26.5 47
      vertex 15 21.5 47
      vertex 21.75 17.8971 47
    endloop
  endfacet
  facet normal 0 0 1
    outer loop
      vertex 33 26.5 47
      vertex 23.5296 18.4753 47
      vertex 25.3906 18.2798 47
    endloop
  endfacet
  facet normal 0 0 1
    outer loop
      vertex 33 26.5 47
      vertex 25.3906 18.2798 47
      vertex 27.0111 17.3442 47
    endloop
  endfacet
  facet normal 0 0 1
    outer loop
      vertex 27.0111 10.6558 47
      vertex 25.3906 9.72025 47
      vertex 28 5.75 47
    endloop
  endfacet
  facet normal 0 0 1
    outer loop
      vertex 33 26.5 47
      vertex 27.0111 17.3442 47
      vertex 28.111 15.8303 47
    endloop
  endfacet
  facet normal 0 0 1
    outer loop
      vertex 33 26.5 47
      vertex 28.5 14 47
      vertex 28 5.75 47
    endloop
  endfacet
  facet normal 0 0 1
    outer loop
      vertex 33 26.5 47
      vertex 28.111 15.8303 47
      vertex 28.5 14 47
    endloop
  endfacet
  facet normal 0 0 1
    outer loop
      vertex 28.5 14 47
      vertex 28.111 12.1697 47
      vertex 28 5.75 47
    endloop
  endfacet
  facet normal 0 0 1
    outer loop
      vertex 28 -5.75 47
      vertex 23.5296 -9.52465 47
      vertex 25.3906 -9.72025 47
    endloop
  endfacet
  facet normal 0 0 1
    outer loop
      vertex 19.5983 13.0644 47
      vertex 15 21.5 47
      vertex 20.3594 11.355 47
    endloop
  endfacet
  facet normal 0 0 1
    outer loop
      vertex 25.3906 9.72025 47
      vertex 23.5296 9.52465 47
      vertex 28 5.75 47
    endloop
  endfacet
  facet normal 0 0 1
    outer loop
      vertex -28 21.5 47
      vertex 15 21.5 47
      vertex -33 26.5 47
    endloop
  endfacet
  facet normal 0 0 1
    outer loop
      vertex 15 -5.75 47
      vertex 15 -21.5 47
      vertex 20.3594 -16.645 47
    endloop
  endfacet
  facet normal 0 0 1
    outer loop
      vertex 15 5.75 47
      vertex 20.3594 11.355 47
      vertex 15 21.5 47
    endloop
  endfacet
  facet normal 0 0 1
    outer loop
      vertex 15 5.75 47
      vertex 21.75 10.1029 47
      vertex 20.3594 11.355 47
    endloop
  endfacet
  facet normal 0 0 1
    outer loop
      vertex 15 5.75 47
      vertex 23.5296 9.52465 47
      vertex 21.75 10.1029 47
    endloop
  endfacet
  facet normal 0 0 1
    outer loop
      vertex 15 5.75 47
      vertex 28 5.75 47
      vertex 23.5296 9.52465 47
    endloop
  endfacet
  facet normal 2.22045e-16 1 0
    outer loop
      vertex -28 -5.75 41.75
      vertex -28 -5.75 18.8
      vertex -33 -5.75 41.75
    endloop
  endfacet
  facet normal 2.22045e-16 1 0
    outer loop
      vertex -23 -5.75 10.25
      vertex -28 -5.75 18.8
      vertex -23 -5.75 18.8
    endloop
  endfacet
  facet normal 2.22045e-16 1 0
    outer loop
      vertex -33 -5.75 10.25
      vertex -28 -5.75 18.8
      vertex -23 -5.75 10.25
    endloop
  endfacet
  facet normal 2.22045e-16 1 0
    outer loop
      vertex -33 -5.75 41.75
      vertex -28 -5.75 18.8
      vertex -33 -5.75 10.25
    endloop
  endfacet
  facet normal 0 0 -1
    outer loop
      vertex -28 5.75 41.75
      vertex -28 -5.75 41.75
      vertex -33 5.75 41.75
    endloop
  endfacet
  facet normal 0 0 -1
    outer loop
      vertex -33 5.75 41.75
      vertex -28 -5.75 41.75
      vertex -33 -5.75 41.75
    endloop
  endfacet
  facet normal -2.22045e-16 -1 0
    outer loop
      vertex -23 5.75 10.25
      vertex -23 5.75 18.8
      vertex -28 5.75 18.8
    endloop
  endfacet
  facet normal -2.22045e-16 -1 0
    outer loop
      vertex -33 5.75 10.25
      vertex -23 5.75 10.25
      vertex -28 5.75 18.8
    endloop
  endfacet
  facet normal -2.22045e-16 -1 0
    outer loop
      vertex -28 5.75 41.75
      vertex -33 5.75 41.75
      vertex -28 5.75 18.8
    endloop
  endfacet
  facet normal -2.22045e-16 -1 0
    outer loop
      vertex -33 5.75 41.75
      vertex -33 5.75 10.25
      vertex -28 5.75 18.8
    endloop
  endfacet
  facet normal 0 0 1
    outer loop
      vertex -23 -5.75 10.25
      vertex -23 5.75 10.25
      vertex -33 5.75 10.25
    endloop
  endfacet
  facet normal 0 0 1
    outer loop
      vertex -33 -5.75 10.25
      vertex -23 -5.75 10.25
      vertex -33 5.75 10.25
    endloop
  endfacet
  facet normal 1 0 0
    outer loop
      vertex 33 -5.75 10.25
      vertex 33 -26.5 0
      vertex 33 26.5 0
    endloop
  endfacet
  facet normal 1 0 0
    outer loop
      vertex 33 5.75 10.25
      vertex 33 -5.75 10.25
      vertex 33 26.5 0
    endloop
  endfacet
  facet normal 1 0 0
    outer loop
      vertex 33 -26.5 47
      vertex 33 -26.5 0
      vertex 33 -5.75 10.25
    endloop
  endfacet
  facet normal 1 0 0
    outer loop
      vertex 33 26.5 47
      vertex 33 -26.5 47
      vertex 33 -5.75 41.75
    endloop
  endfacet
  facet normal 1 0 0
    outer loop
      vertex 33 26.5 47
      vertex 33 5.75 41.75
      vertex 33 26.5 0
    endloop
  endfacet
  facet normal 1 0 0
    outer loop
      vertex 33 26.5 47
      vertex 33 -5.75 41.75
      vertex 33 5.75 41.75
    endloop
  endfacet
  facet normal 1 0 0
    outer loop
      vertex 33 5.75 41.75
      vertex 33 5.75 10.25
      vertex 33 26.5 0
    endloop
  endfacet
  facet normal 1 0 0
    outer loop
      vertex 33 -5.75 10.25
      vertex 33 -5.75 41.75
      vertex 33 -26.5 47
    endloop
  endfacet
  facet normal 1 0 0
    outer loop
      vertex -23 -21.5 32.75
      vertex -23 -21.5 44.25
      vertex -23 -26.5 44.25
    endloop
  endfacet
  facet normal 1 0 0
    outer loop
      vertex -23 -26.5 32.75
      vertex -23 -21.5 32.75
      vertex -23 -26.5 44.25
    endloop
  endfacet
  facet normal 0 0 1
    outer loop
      vertex 10 -26.5 32.75
      vertex 10 -21.5 32.75
      vertex -23 -21.5 32.75
    endloop
  endfacet
  facet normal 0 0 1
    outer loop
      vertex -23 -26.5 32.75
      vertex 10 -26.5 32.75
      vertex -23 -21.5 32.75
    endloop
  endfacet
  facet normal -1 0 0
    outer loop
      vertex 10 -21.5 44.25
      vertex 10 -21.5 32.75
      vertex 10 -26.5 44.25
    endloop
  endfacet
  facet normal -1 0 0
    outer loop
      vertex 10 -26.5 44.25
      vertex 10 -21.5 32.75
      vertex 10 -26.5 32.75
    endloop
  endfacet
  facet normal 0 0 -1
    outer loop
      vertex 10 -21.5 44.25
      vertex 10 -26.5 44.25
      vertex -23 -21.5 44.25
    endloop
  endfacet
  facet normal 0 0 -1
    outer loop
      vertex -23 -21.5 44.25
      vertex 10 -26.5 44.25
      vertex -23 -26.5 44.25
    endloop
  endfacet
  facet normal 1 0 0
    outer loop
      vertex 20.1162 26.5 8.04274
      vertex 20.1162 26.5 9.95726
      vertex 20.1162 -26.5 9.95726
    endloop
  endfacet
  facet normal 1 0 0
    outer loop
      vertex 20.1162 -26.5 8.04274
      vertex 20.1162 26.5 8.04274
      vertex 20.1162 -26.5 9.95726
    endloop
  endfacet
  facet normal 0.885456 1.03189e-16 0.464723
    outer loop
      vertex 21.006 -26.5 6.34751
      vertex 21.006 26.5 6.34751
      vertex 20.1162 26.5 8.04274
    endloop
  endfacet
  facet normal 0.885456 1.03189e-16 0.464723
    outer loop
      vertex 20.1162 -26.5 8.04274
      vertex 21.006 -26.5 6.34751
      vertex 20.1162 26.5 8.04274
    endloop
  endfacet
  facet normal 0.568065 1.82739e-16 0.822984
    outer loop
      vertex 22.5816 -26.5 5.25994
      vertex 22.5816 26.5 5.25993
      vertex 21.006 26.5 6.34751
    endloop
  endfacet
  facet normal 0.568065 1.82739e-16 0.822984
    outer loop
      vertex 21.006 -26.5 6.34751
      vertex 22.5816 -26.5 5.25994
      vertex 21.006 26.5 6.34751
    endloop
  endfacet
  facet normal 0.120536 2.20426e-16 0.992709
    outer loop
      vertex 24.4821 -26.5 5.02917
      vertex 24.4821 26.5 5.02916
      vertex 22.5816 26.5 5.25993
    endloop
  endfacet
  facet normal 0.120536 2.20426e-16 0.992709
    outer loop
      vertex 22.5816 -26.5 5.25994
      vertex 24.4821 -26.5 5.02917
      vertex 22.5816 26.5 5.25993
    endloop
  endfacet
  facet normal -0.354605 2.07615e-16 0.935016
    outer loop
      vertex 26.2723 -26.5 5.70807
      vertex 26.2723 26.5 5.70806
      vertex 24.4821 26.5 5.02916
    endloop
  endfacet
  facet normal -0.354605 2.07615e-16 0.935016
    outer loop
      vertex 24.4821 -26.5 5.02917
      vertex 26.2723 -26.5 5.70807
      vertex 24.4821 26.5 5.02916
    endloop
  endfacet
  facet normal -0.748511 1.47243e-16 0.663123
    outer loop
      vertex 27.5418 26.5 7.14111
      vertex 26.2723 26.5 5.70806
      vertex 27.5418 -26.5 7.14111
    endloop
  endfacet
  facet normal -0.748511 1.47243e-16 0.663123
    outer loop
      vertex 27.5418 -26.5 7.14111
      vertex 26.2723 26.5 5.70806
      vertex 26.2723 -26.5 5.70807
    endloop
  endfacet
  facet normal -0.970942 5.31388e-17 0.239316
    outer loop
      vertex 28 26.5 9
      vertex 27.5418 26.5 7.14111
      vertex 28 -26.5 9
    endloop
  endfacet
  facet normal -0.970942 5.31388e-17 0.239316
    outer loop
      vertex 28 -26.5 9
      vertex 27.5418 26.5 7.14111
      vertex 27.5418 -26.5 7.14111
    endloop
  endfacet
  facet normal -0.970942 -5.31388e-17 -0.239316
    outer loop
      vertex 27.5418 26.5 10.8589
      vertex 27.6919 5.75 10.25
      vertex 27.5418 5.75 10.8589
    endloop
  endfacet
  facet normal -0.970942 -5.31388e-17 -0.239316
    outer loop
      vertex 28 26.5 9
      vertex 27.6919 5.75 10.25
      vertex 27.5418 26.5 10.8589
    endloop
  endfacet
  facet normal -0.970942 -5.31388e-17 -0.239316
    outer loop
      vertex 27.6919 -5.75 10.25
      vertex 27.6919 5.75 10.25
      vertex 28 26.5 9
    endloop
  endfacet
  facet normal -0.970942 -5.31388e-17 -0.239316
    outer loop
      vertex 27.6919 -5.75 10.25
      vertex 28 26.5 9
      vertex 28 -26.5 9
    endloop
  endfacet
  facet normal -0.970942 -5.31388e-17 -0.239316
    outer loop
      vertex 27.6919 -5.75 10.25
      vertex 28 -26.5 9
      vertex 27.5418 -5.75 10.8589
    endloop
  endfacet
  facet normal -0.970942 -5.31388e-17 -0.239316
    outer loop
      vertex 28 -26.5 9
      vertex 27.5418 -26.5 10.8589
      vertex 27.5418 -5.75 10.8589
    endloop
  endfacet
  facet normal -0.748511 -1.47243e-16 -0.663123
    outer loop
      vertex 27.5418 -5.75 10.8589
      vertex 27.5418 -26.5 10.8589
      vertex 26.2723 -5.75 12.2919
    endloop
  endfacet
  facet normal -0.748511 -1.47243e-16 -0.663123
    outer loop
      vertex 26.2723 -5.75 12.2919
      vertex 27.5418 -26.5 10.8589
      vertex 26.2723 -26.5 12.2919
    endloop
  endfacet
  facet normal -0.354605 -2.07615e-16 -0.935016
    outer loop
      vertex 26.2723 -5.75 12.2919
      vertex 26.2723 -26.5 12.2919
      vertex 24.4821 -5.75 12.9708
    endloop
  endfacet
  facet normal -0.354605 -2.07615e-16 -0.935016
    outer loop
      vertex 24.4821 -5.75 12.9708
      vertex 26.2723 -26.5 12.2919
      vertex 24.4821 -26.5 12.9708
    endloop
  endfacet
  facet normal 0.120536 -2.20426e-16 -0.992709
    outer loop
      vertex 24.4821 -5.75 12.9708
      vertex 24.4821 -26.5 12.9708
      vertex 22.5816 -5.75 12.7401
    endloop
  endfacet
  facet normal 0.120536 -2.20426e-16 -0.992709
    outer loop
      vertex 22.5816 -5.75 12.7401
      vertex 24.4821 -26.5 12.9708
      vertex 22.5816 -26.5 12.7401
    endloop
  endfacet
  facet normal 0.568065 -1.82739e-16 -0.822984
    outer loop
      vertex 22.5816 -5.75 12.7401
      vertex 22.5816 -26.5 12.7401
      vertex 21.006 -5.75 11.6525
    endloop
  endfacet
  facet normal 0.568065 -1.82739e-16 -0.822984
    outer loop
      vertex 21.006 -5.75 11.6525
      vertex 22.5816 -26.5 12.7401
      vertex 21.006 -26.5 11.6525
    endloop
  endfacet
  facet normal 0.885456 -1.03189e-16 -0.464723
    outer loop
      vertex 20.1162 26.5 9.95726
      vertex 21.006 26.5 11.6525
      vertex 21.006 5.75 11.6525
    endloop
  endfacet
  facet normal 0.885456 -1.03189e-16 -0.464723
    outer loop
      vertex 20.2699 -5.75 10.25
      vertex 20.1162 26.5 9.95726
      vertex 20.2699 5.75 10.25
    endloop
  endfacet
  facet normal 0.885456 -1.03189e-16 -0.464723
    outer loop
      vertex 20.2699 5.75 10.25
      vertex 20.1162 26.5 9.95726
      vertex 21.006 5.75 11.6525
    endloop
  endfacet
  facet normal 0.885456 -1.03189e-16 -0.464723
    outer loop
      vertex 20.1162 -26.5 9.95726
      vertex 20.1162 26.5 9.95726
      vertex 20.2699 -5.75 10.25
    endloop
  endfacet
  facet normal 0.885456 -1.03189e-16 -0.464723
    outer loop
      vertex 21.006 -26.5 11.6525
      vertex 20.2699 -5.75 10.25
      vertex 21.006 -5.75 11.6525
    endloop
  endfacet
  facet normal 0.885456 -1.03189e-16 -0.464723
    outer loop
      vertex 20.1162 -26.5 9.95726
      vertex 20.2699 -5.75 10.25
      vertex 21.006 -26.5 11.6525
    endloop
  endfacet
  facet normal 1 0 0
    outer loop
      vertex -23 16.5 0
      vertex -23 16.5 18.8
      vertex -23 5.75 18.8
    endloop
  endfacet
  facet normal 1 0 0
    outer loop
      vertex -23 -5.75 10.25
      vertex -23 16.5 0
      vertex -23 5.75 10.25
    endloop
  endfacet
  facet normal 1 0 0
    outer loop
      vertex -23 5.75 10.25
      vertex -23 16.5 0
      vertex -23 5.75 18.8
    endloop
  endfacet
  facet normal 1 0 0
    outer loop
      vertex -23 -16.5 0
      vertex -23 16.5 0
      vertex -23 -5.75 10.25
    endloop
  endfacet
  facet normal 1 0 0
    outer loop
      vertex -23 -16.5 18.8
      vertex -23 -5.75 10.25
      vertex -23 -5.75 18.8
    endloop
  endfacet
  facet normal 1 0 0
    outer loop
      vertex -23 -16.5 0
      vertex -23 -5.75 10.25
      vertex -23 -16.5 18.8
    endloop
  endfacet
  facet normal 0 -1 0
    outer loop
      vertex 10 16.5 0
      vertex 10 16.5 18.8
      vertex -23 16.5 18.8
    endloop
  endfacet
  facet normal 0 -1 0
    outer loop
      vertex -23 16.5 0
      vertex 10 16.5 0
      vertex -23 16.5 18.8
    endloop
  endfacet
  facet normal -1 0 0
    outer loop
      vertex 10 -5.75 18.8
      vertex 10 -5.75 10.25
      vertex 10 -16.5 18.8
    endloop
  endfacet
  facet normal -1 0 0
    outer loop
      vertex 10 -16.5 0
      vertex 10 -5.75 10.25
      vertex 10 16.5 0
    endloop
  endfacet
  facet normal -1 0 0
    outer loop
      vertex 10 16.5 18.8
      vertex 10 5.75 10.25
      vertex 10 5.75 18.8
    endloop
  endfacet
  facet normal -1 0 0
    outer loop
      vertex 10 16.5 0
      vertex 10 5.75 10.25
      vertex 10 16.5 18.8
    endloop
  endfacet
  facet normal -1 0 0
    outer loop
      vertex 10 -5.75 10.25
      vertex 10 5.75 10.25
      vertex 10 16.5 0
    endloop
  endfacet
  facet normal -1 0 0
    outer loop
      vertex 10 -16.5 18.8
      vertex 10 -5.75 10.25
      vertex 10 -16.5 0
    endloop
  endfacet
  facet normal 0 1 0
    outer loop
      vertex 10 -16.5 18.8
      vertex 10 -16.5 0
      vertex -23 -16.5 18.8
    endloop
  endfacet
  facet normal 0 1 0
    outer loop
      vertex -23 -16.5 18.8
      vertex 10 -16.5 0
      vertex -23 -16.5 0
    endloop
  endfacet
  facet normal 1 0 0
    outer loop
      vertex -23 26.5 32.75
      vertex -23 26.5 44.25
      vertex -23 21.5 44.25
    endloop
  endfacet
  facet normal 1 0 0
    outer loop
      vertex -23 21.5 32.75
      vertex -23 26.5 32.75
      vertex -23 21.5 44.25
    endloop
  endfacet
  facet normal 0 0 -1
    outer loop
      vertex 10 26.5 44.25
      vertex 10 21.5 44.25
      vertex -23 26.5 44.25
    endloop
  endfacet
  facet normal 0 0 -1
    outer loop
      vertex -23 26.5 44.25
      vertex 10 21.5 44.25
      vertex -23 21.5 44.25
    endloop
  endfacet
  facet normal -1 0 0
    outer loop
      vertex 10 26.5 44.25
      vertex 10 26.5 32.75
      vertex 10 21.5 44.25
    endloop
  endfacet
  facet normal -1 0 0
    outer loop
      vertex 10 21.5 44.25
      vertex 10 26.5 32.75
      vertex 10 21.5 32.75
    endloop
  endfacet
  facet normal 0 0 1
    outer loop
      vertex 10 21.5 32.75
      vertex 10 26.5 32.75
      vertex -23 26.5 32.75
    endloop
  endfacet
  facet normal 0 0 1
    outer loop
      vertex -23 21.5 32.75
      vertex 10 21.5 32.75
      vertex -23 26.5 32.75
    endloop
  endfacet
  facet normal 0.568065 -1.82739e-16 -0.822984
    outer loop
      vertex 22.5816 26.5 12.7401
      vertex 22.5816 5.75 12.7401
      vertex 21.006 26.5 11.6525
    endloop
  endfacet
  facet normal 0.568065 -1.82739e-16 -0.822984
    outer loop
      vertex 21.006 26.5 11.6525
      vertex 22.5816 5.75 12.7401
      vertex 21.006 5.75 11.6525
    endloop
  endfacet
  facet normal 0.120536 -2.20426e-16 -0.992709
    outer loop
      vertex 24.4821 26.5 12.9708
      vertex 24.4821 5.75 12.9708
      vertex 22.5816 26.5 12.7401
    endloop
  endfacet
  facet normal 0.120536 -2.20426e-16 -0.992709
    outer loop
      vertex 22.5816 26.5 12.7401
      vertex 24.4821 5.75 12.9708
      vertex 22.5816 5.75 12.7401
    endloop
  endfacet
  facet normal -0.354605 -2.07615e-16 -0.935016
    outer loop
      vertex 26.2723 26.5 12.2919
      vertex 26.2723 5.75 12.2919
      vertex 24.4821 26.5 12.9708
    endloop
  endfacet
  facet normal -0.354605 -2.07615e-16 -0.935016
    outer loop
      vertex 24.4821 26.5 12.9708
      vertex 26.2723 5.75 12.2919
      vertex 24.4821 5.75 12.9708
    endloop
  endfacet
  facet normal -0.748511 -1.47243e-16 -0.663123
    outer loop
      vertex 27.5418 26.5 10.8589
      vertex 27.5418 5.75 10.8589
      vertex 26.2723 26.5 12.2919
    endloop
  endfacet
  facet normal -0.748511 -1.47243e-16 -0.663123
    outer loop
      vertex 26.2723 26.5 12.2919
      vertex 27.5418 5.75 10.8589
      vertex 26.2723 5.75 12.2919
    endloop
  endfacet
  facet normal 1 0 0
    outer loop
      vertex -28 21.5 47
      vertex -28 -5.75 41.75
      vertex -28 5.75 41.75
    endloop
  endfacet
  facet normal 1 0 0
    outer loop
      vertex -28 -5.75 18.8
      vertex -28 -5.75 41.75
      vertex -28 -21.5 47
    endloop
  endfacet
  facet normal 1 0 0
    outer loop
      vertex -28 5.75 18.8
      vertex -28 21.5 18.8
      vertex -28 5.75 41.75
    endloop
  endfacet
  facet normal 1 0 0
    outer loop
      vertex -28 21.5 18.8
      vertex -28 21.5 47
      vertex -28 5.75 41.75
    endloop
  endfacet
  facet normal 1 0 0
    outer loop
      vertex -28 21.5 47
      vertex -28 -21.5 47
      vertex -28 -5.75 41.75
    endloop
  endfacet
  facet normal 1 0 0
    outer loop
      vertex -28 -21.5 47
      vertex -28 -21.5 18.8
      vertex -28 -5.75 18.8
    endloop
  endfacet
  facet normal 0 1 0
    outer loop
      vertex -23 -21.5 32.75
      vertex 15 -21.5 18.8
      vertex -28 -21.5 18.8
    endloop
  endfacet
  facet normal 0 1 0
    outer loop
      vertex 10 -21.5 32.75
      vertex 15 -21.5 18.8
      vertex -23 -21.5 32.75
    endloop
  endfacet
  facet normal 0 1 0
    outer loop
      vertex -28 -21.5 47
      vertex -23 -21.5 32.75
      vertex -28 -21.5 18.8
    endloop
  endfacet
  facet normal 0 1 0
    outer loop
      vertex 15 -21.5 47
      vertex 15 -21.5 18.8
      vertex 10 -21.5 32.75
    endloop
  endfacet
  facet normal 0 1 0
    outer loop
      vertex 15 -21.5 47
      vertex 10 -21.5 32.75
      vertex 10 -21.5 44.25
    endloop
  endfacet
  facet normal 0 1 0
    outer loop
      vertex 15 -21.5 47
      vertex 10 -21.5 44.25
      vertex -28 -21.5 47
    endloop
  endfacet
  facet normal 0 1 0
    outer loop
      vertex -23 -21.5 44.25
      vertex -28 -21.5 47
      vertex 10 -21.5 44.25
    endloop
  endfacet
  facet normal 0 1 0
    outer loop
      vertex -23 -21.5 32.75
      vertex -28 -21.5 47
      vertex -23 -21.5 44.25
    endloop
  endfacet
  facet normal -1 0 0
    outer loop
      vertex 15 -5.75 47
      vertex 15 -5.75 41.75
      vertex 15 -21.5 47
    endloop
  endfacet
  facet normal -1 0 0
    outer loop
      vertex 15 -21.5 47
      vertex 15 -5.75 41.75
      vertex 15 -5.75 18.8
    endloop
  endfacet
  facet normal -1 0 0
    outer loop
      vertex 15 -21.5 47
      vertex 15 -5.75 18.8
      vertex 15 -21.5 18.8
    endloop
  endfacet
  facet normal 0 1 0
    outer loop
      vertex 28 -5.75 47
      vertex 28 -5.75 41.75
      vertex 15 -5.75 47
    endloop
  endfacet
  facet normal 0 1 0
    outer loop
      vertex 15 -5.75 47
      vertex 28 -5.75 41.75
      vertex 15 -5.75 41.75
    endloop
  endfacet
  facet normal -1 0 0
    outer loop
      vertex 28 -5.75 41.75
      vertex 28 -5.75 47
      vertex 28 5.75 41.75
    endloop
  endfacet
  facet normal -1 0 0
    outer loop
      vertex 28 5.75 47
      vertex 28 5.75 37
      vertex 28 5.75 41.75
    endloop
  endfacet
  facet normal -1 0 0
    outer loop
      vertex 28 5.75 47
      vertex 28 5.75 41.75
      vertex 28 -5.75 47
    endloop
  endfacet
  facet normal 0 -1 0
    outer loop
      vertex 28 5.75 37
      vertex 28 5.75 47
      vertex 15 5.75 47
    endloop
  endfacet
  facet normal 0 -1 0
    outer loop
      vertex 15 5.75 37
      vertex 28 5.75 37
      vertex 15 5.75 47
    endloop
  endfacet
  facet normal -1 0 0
    outer loop
      vertex 15 5.75 37
      vertex 15 5.75 47
      vertex 15 21.5 47
    endloop
  endfacet
  facet normal -1 0 0
    outer loop
      vertex 15 5.75 37
      vertex 15 21.5 47
      vertex 15 21.5 18.8
    endloop
  endfacet
  facet normal -1 0 0
    outer loop
      vertex 15 21.5 18.8
      vertex 15 5.75 18.8
      vertex 15 5.75 37
    endloop
  endfacet
  facet normal 0 -1 0
    outer loop
      vertex -23 21.5 44.25
      vertex 15 21.5 47
      vertex -28 21.5 47
    endloop
  endfacet
  facet normal 0 -1 0
    outer loop
      vertex 10 21.5 32.75
      vertex -23 21.5 32.75
      vertex 15 21.5 18.8
    endloop
  endfacet
  facet normal 0 -1 0
    outer loop
      vertex 10 21.5 44.25
      vertex 15 21.5 47
      vertex -23 21.5 44.25
    endloop
  endfacet
  facet normal 0 -1 0
    outer loop
      vertex 15 21.5 18.8
      vertex 15 21.5 47
      vertex 10 21.5 44.25
    endloop
  endfacet
  facet normal 0 -1 0
    outer loop
      vertex 15 21.5 18.8
      vertex 10 21.5 44.25
      vertex 10 21.5 32.75
    endloop
  endfacet
  facet normal 0 -1 0
    outer loop
      vertex -28 21.5 18.8
      vertex -23 21.5 32.75
      vertex -28 21.5 47
    endloop
  endfacet
  facet normal 0 -1 0
    outer loop
      vertex -28 21.5 18.8
      vertex 15 21.5 18.8
      vertex -23 21.5 32.75
    endloop
  endfacet
  facet normal 0 -1 0
    outer loop
      vertex -23 21.5 32.75
      vertex -23 21.5 44.25
      vertex -28 21.5 47
    endloop
  endfacet
  facet normal 1 0 0
    outer loop
      vertex 19.5983 -13.0644 23.5
      vertex 19.5983 -13.0644 47
      vertex 19.5983 -14.9356 47
    endloop
  endfacet
  facet normal 1 0 0
    outer loop
      vertex 19.5983 -14.9356 23.5
      vertex 19.5983 -13.0644 23.5
      vertex 19.5983 -14.9356 47
    endloop
  endfacet
  facet normal 0.913545 0.406737 0
    outer loop
      vertex 19.5983 -14.9356 47
      vertex 20.3594 -16.645 47
      vertex 20.3594 -16.645 23.5
    endloop
  endfacet
  facet normal 0.913545 0.406737 0
    outer loop
      vertex 19.5983 -14.9356 23.5
      vertex 19.5983 -14.9356 47
      vertex 20.3594 -16.645 23.5
    endloop
  endfacet
  facet normal 0.669131 0.743145 0
    outer loop
      vertex 21.75 -17.8971 47
      vertex 21.75 -17.8971 23.5
      vertex 20.3594 -16.645 47
    endloop
  endfacet
  facet normal 0.669131 0.743145 0
    outer loop
      vertex 20.3594 -16.645 47
      vertex 21.75 -17.8971 23.5
      vertex 20.3594 -16.645 23.5
    endloop
  endfacet
  facet normal 0.309017 0.951056 0
    outer loop
      vertex 23.5296 -18.4753 47
      vertex 23.5296 -18.4753 23.5
      vertex 21.75 -17.8971 47
    endloop
  endfacet
  facet normal 0.309017 0.951056 0
    outer loop
      vertex 21.75 -17.8971 47
      vertex 23.5296 -18.4753 23.5
      vertex 21.75 -17.8971 23.5
    endloop
  endfacet
  facet normal -0.104529 0.994522 0
    outer loop
      vertex 25.3906 -18.2798 47
      vertex 25.3906 -18.2798 23.5
      vertex 23.5296 -18.4753 47
    endloop
  endfacet
  facet normal -0.104529 0.994522 0
    outer loop
      vertex 23.5296 -18.4753 47
      vertex 25.3906 -18.2798 23.5
      vertex 23.5296 -18.4753 23.5
    endloop
  endfacet
  facet normal -0.5 0.866026 0
    outer loop
      vertex 27.0111 -17.3442 47
      vertex 27.0111 -17.3442 23.5
      vertex 25.3906 -18.2798 47
    endloop
  endfacet
  facet normal -0.5 0.866026 0
    outer loop
      vertex 25.3906 -18.2798 47
      vertex 27.0111 -17.3442 23.5
      vertex 25.3906 -18.2798 23.5
    endloop
  endfacet
  facet normal -0.809017 0.587785 0
    outer loop
      vertex 28.111 -15.8303 47
      vertex 28.111 -15.8303 23.5
      vertex 27.0111 -17.3442 47
    endloop
  endfacet
  facet normal -0.809017 0.587785 0
    outer loop
      vertex 27.0111 -17.3442 47
      vertex 28.111 -15.8303 23.5
      vertex 27.0111 -17.3442 23.5
    endloop
  endfacet
  facet normal -0.978148 0.207911 0
    outer loop
      vertex 28.5 -14 47
      vertex 28.5 -14 23.5
      vertex 28.111 -15.8303 47
    endloop
  endfacet
  facet normal -0.978148 0.207911 0
    outer loop
      vertex 28.111 -15.8303 47
      vertex 28.5 -14 23.5
      vertex 28.111 -15.8303 23.5
    endloop
  endfacet
  facet normal -0.978148 -0.207911 0
    outer loop
      vertex 28.5 -14 47
      vertex 28.111 -12.1697 47
      vertex 28.5 -14 23.5
    endloop
  endfacet
  facet normal -0.978148 -0.207911 0
    outer loop
      vertex 28.5 -14 23.5
      vertex 28.111 -12.1697 47
      vertex 28.111 -12.1697 23.5
    endloop
  endfacet
  facet normal -0.809017 -0.587785 0
    outer loop
      vertex 28.111 -12.1697 47
      vertex 27.0111 -10.6558 47
      vertex 28.111 -12.1697 23.5
    endloop
  endfacet
  facet normal -0.809017 -0.587785 0
    outer loop
      vertex 28.111 -12.1697 23.5
      vertex 27.0111 -10.6558 47
      vertex 27.0111 -10.6558 23.5
    endloop
  endfacet
  facet normal -0.5 -0.866026 0
    outer loop
      vertex 27.0111 -10.6558 23.5
      vertex 27.0111 -10.6558 47
      vertex 25.3906 -9.72025 47
    endloop
  endfacet
  facet normal -0.5 -0.866026 0
    outer loop
      vertex 25.3906 -9.72025 23.5
      vertex 27.0111 -10.6558 23.5
      vertex 25.3906 -9.72025 47
    endloop
  endfacet
  facet normal -0.104529 -0.994522 0
    outer loop
      vertex 25.3906 -9.72025 23.5
      vertex 25.3906 -9.72025 47
      vertex 23.5296 -9.52465 47
    endloop
  endfacet
  facet normal -0.104529 -0.994522 0
    outer loop
      vertex 23.5296 -9.52465 23.5
      vertex 25.3906 -9.72025 23.5
      vertex 23.5296 -9.52465 47
    endloop
  endfacet
  facet normal 0.309017 -0.951056 0
    outer loop
      vertex 23.5296 -9.52465 23.5
      vertex 23.5296 -9.52465 47
      vertex 21.75 -10.1029 47
    endloop
  endfacet
  facet normal 0.309017 -0.951056 0
    outer loop
      vertex 21.75 -10.1029 23.5
      vertex 23.5296 -9.52465 23.5
      vertex 21.75 -10.1029 47
    endloop
  endfacet
  facet normal 0.669131 -0.743145 0
    outer loop
      vertex 21.75 -10.1029 23.5
      vertex 21.75 -10.1029 47
      vertex 20.3594 -11.355 47
    endloop
  endfacet
  facet normal 0.669131 -0.743145 0
    outer loop
      vertex 20.3594 -11.355 23.5
      vertex 21.75 -10.1029 23.5
      vertex 20.3594 -11.355 47
    endloop
  endfacet
  facet normal 0.913545 -0.406737 0
    outer loop
      vertex 20.3594 -11.355 23.5
      vertex 20.3594 -11.355 47
      vertex 19.5983 -13.0644 47
    endloop
  endfacet
  facet normal 0.913545 -0.406737 0
    outer loop
      vertex 19.5983 -13.0644 23.5
      vertex 20.3594 -11.355 23.5
      vertex 19.5983 -13.0644 47
    endloop
  endfacet
  facet normal 1 0 0
    outer loop
      vertex 19.5983 14.9356 23.5
      vertex 19.5983 14.9356 47
      vertex 19.5983 13.0644 47
    endloop
  endfacet
  facet normal 1 0 0
    outer loop
      vertex 19.5983 13.0644 23.5
      vertex 19.5983 14.9356 23.5
      vertex 19.5983 13.0644 47
    endloop
  endfacet
  facet normal 0.913545 0.406737 0
    outer loop
      vertex 19.5983 13.0644 47
      vertex 20.3594 11.355 47
      vertex 20.3594 11.355 23.5
    endloop
  endfacet
  facet normal 0.913545 0.406737 0
    outer loop
      vertex 19.5983 13.0644 23.5
      vertex 19.5983 13.0644 47
      vertex 20.3594 11.355 23.5
    endloop
  endfacet
  facet normal 0.669131 0.743145 0
    outer loop
      vertex 21.75 10.1029 47
      vertex 21.75 10.1029 23.5
      vertex 20.3594 11.355 47
    endloop
  endfacet
  facet normal 0.669131 0.743145 0
    outer loop
      vertex 20.3594 11.355 47
      vertex 21.75 10.1029 23.5
      vertex 20.3594 11.355 23.5
    endloop
  endfacet
  facet normal 0.309017 0.951056 0
    outer loop
      vertex 23.5296 9.52465 47
      vertex 23.5296 9.52465 23.5
      vertex 21.75 10.1029 47
    endloop
  endfacet
  facet normal 0.309017 0.951056 0
    outer loop
      vertex 21.75 10.1029 47
      vertex 23.5296 9.52465 23.5
      vertex 21.75 10.1029 23.5
    endloop
  endfacet
  facet normal -0.104529 0.994522 0
    outer loop
      vertex 25.3906 9.72025 47
      vertex 25.3906 9.72025 23.5
      vertex 23.5296 9.52465 47
    endloop
  endfacet
  facet normal -0.104529 0.994522 0
    outer loop
      vertex 23.5296 9.52465 47
      vertex 25.3906 9.72025 23.5
      vertex 23.5296 9.52465 23.5
    endloop
  endfacet
  facet normal -0.5 0.866026 0
    outer loop
      vertex 27.0111 10.6558 47
      vertex 27.0111 10.6558 23.5
      vertex 25.3906 9.72025 47
    endloop
  endfacet
  facet normal -0.5 0.866026 0
    outer loop
      vertex 25.3906 9.72025 47
      vertex 27.0111 10.6558 23.5
      vertex 25.3906 9.72025 23.5
    endloop
  endfacet
  facet normal -0.809017 0.587785 0
    outer loop
      vertex 28.111 12.1697 47
      vertex 28.111 12.1697 23.5
      vertex 27.0111 10.6558 47
    endloop
  endfacet
  facet normal -0.809017 0.587785 0
    outer loop
      vertex 27.0111 10.6558 47
      vertex 28.111 12.1697 23.5
      vertex 27.0111 10.6558 23.5
    endloop
  endfacet
  facet normal -0.978148 0.207911 0
    outer loop
      vertex 28.5 14 47
      vertex 28.5 14 23.5
      vertex 28.111 12.1697 47
    endloop
  endfacet
  facet normal -0.978148 0.207911 0
    outer loop
      vertex 28.111 12.1697 47
      vertex 28.5 14 23.5
      vertex 28.111 12.1697 23.5
    endloop
  endfacet
  facet normal -0.978148 -0.207911 0
    outer loop
      vertex 28.5 14 47
      vertex 28.111 15.8303 47
      vertex 28.5 14 23.5
    endloop
  endfacet
  facet normal -0.978148 -0.207911 0
    outer loop
      vertex 28.5 14 23.5
      vertex 28.111 15.8303 47
      vertex 28.111 15.8303 23.5
    endloop
  endfacet
  facet normal -0.809017 -0.587785 0
    outer loop
      vertex 28.111 15.8303 47
      vertex 27.0111 17.3442 47
      vertex 28.111 15.8303 23.5
    endloop
  endfacet
  facet normal -0.809017 -0.587785 0
    outer loop
      vertex 28.111 15.8303 23.5
      vertex 27.0111 17.3442 47
      vertex 27.0111 17.3442 23.5
    endloop
  endfacet
  facet normal -0.5 -0.866026 0
    outer loop
      vertex 27.0111 17.3442 23.5
      vertex 27.0111 17.3442 47
      vertex 25.3906 18.2798 47
    endloop
  endfacet
  facet normal -0.5 -0.866026 0
    outer loop
      vertex 25.3906 18.2798 23.5
      vertex 27.0111 17.3442 23.5
      vertex 25.3906 18.2798 47
    endloop
  endfacet
  facet normal -0.104529 -0.994522 0
    outer loop
      vertex 25.3906 18.2798 23.5
      vertex 25.3906 18.2798 47
      vertex 23.5296 18.4753 47
    endloop
  endfacet
  facet normal -0.104529 -0.994522 0
    outer loop
      vertex 23.5296 18.4753 23.5
      vertex 25.3906 18.2798 23.5
      vertex 23.5296 18.4753 47
    endloop
  endfacet
  facet normal 0.309017 -0.951056 0
    outer loop
      vertex 23.5296 18.4753 23.5
      vertex 23.5296 18.4753 47
      vertex 21.75 17.8971 47
    endloop
  endfacet
  facet normal 0.309017 -0.951056 0
    outer loop
      vertex 21.75 17.8971 23.5
      vertex 23.5296 18.4753 23.5
      vertex 21.75 17.8971 47
    endloop
  endfacet
  facet normal 0.669131 -0.743145 0
    outer loop
      vertex 21.75 17.8971 23.5
      vertex 21.75 17.8971 47
      vertex 20.3594 16.645 47
    endloop
  endfacet
  facet normal 0.669131 -0.743145 0
    outer loop
      vertex 20.3594 16.645 23.5
      vertex 21.75 17.8971 23.5
      vertex 20.3594 16.645 47
    endloop
  endfacet
  facet normal 0.913545 -0.406737 0
    outer loop
      vertex 20.3594 16.645 23.5
      vertex 20.3594 16.645 47
      vertex 19.5983 14.9356 47
    endloop
  endfacet
  facet normal 0.913545 -0.406737 0
    outer loop
      vertex 19.5983 14.9356 23.5
      vertex 20.3594 16.645 23.5
      vertex 19.5983 14.9356 47
    endloop
  endfacet
  facet normal 0 0 1
    outer loop
      vertex 15 -21.5 18.8
      vertex 15 -5.75 18.8
      vertex 10 -5.75 18.8
    endloop
  endfacet
  facet normal 0 0 1
    outer loop
      vertex -23 -16.5 18.8
      vertex 15 -21.5 18.8
      vertex 10 -16.5 18.8
    endloop
  endfacet
  facet normal 0 0 1
    outer loop
      vertex 10 -16.5 18.8
      vertex 15 -21.5 18.8
      vertex 10 -5.75 18.8
    endloop
  endfacet
  facet normal 0 0 1
    outer loop
      vertex -28 -21.5 18.8
      vertex 15 -21.5 18.8
      vertex -23 -16.5 18.8
    endloop
  endfacet
  facet normal 0 0 1
    outer loop
      vertex -28 -5.75 18.8
      vertex -23 -16.5 18.8
      vertex -23 -5.75 18.8
    endloop
  endfacet
  facet normal 0 0 1
    outer loop
      vertex -28 -21.5 18.8
      vertex -23 -16.5 18.8
      vertex -28 -5.75 18.8
    endloop
  endfacet
  facet normal 0 0 1
    outer loop
      vertex 15 21.5 18.8
      vertex -23 16.5 18.8
      vertex 10 16.5 18.8
    endloop
  endfacet
  facet normal 0 0 1
    outer loop
      vertex -23 5.75 18.8
      vertex -23 16.5 18.8
      vertex -28 21.5 18.8
    endloop
  endfacet
  facet normal 0 0 1
    outer loop
      vertex 10 5.75 18.8
      vertex 15 5.75 18.8
      vertex 10 16.5 18.8
    endloop
  endfacet
  facet normal 0 0 1
    outer loop
      vertex 15 5.75 18.8
      vertex 15 21.5 18.8
      vertex 10 16.5 18.8
    endloop
  endfacet
  facet normal 0 0 1
    outer loop
      vertex 15 21.5 18.8
      vertex -28 21.5 18.8
      vertex -23 16.5 18.8
    endloop
  endfacet
  facet normal 0 0 1
    outer loop
      vertex -28 21.5 18.8
      vertex -28 5.75 18.8
      vertex -23 5.75 18.8
    endloop
  endfacet
  facet normal 2.22045e-16 1 0
    outer loop
      vertex 15 -5.75 18.8
      vertex 15 -5.75 41.75
      vertex 33 -5.75 41.75
    endloop
  endfacet
  facet normal 2.22045e-16 1 0
    outer loop
      vertex 15 -5.75 18.8
      vertex 33 -5.75 41.75
      vertex 33 -5.75 10.25
    endloop
  endfacet
  facet normal 2.22045e-16 1 0
    outer loop
      vertex 15 -5.75 18.8
      vertex 33 -5.75 10.25
      vertex 10 -5.75 18.8
    endloop
  endfacet
  facet normal 2.22045e-16 1 0
    outer loop
      vertex 33 -5.75 10.25
      vertex 27.6919 -5.75 10.25
      vertex 27.5418 -5.75 10.8589
    endloop
  endfacet
  facet normal 2.22045e-16 1 0
    outer loop
      vertex 33 -5.75 10.25
      vertex 27.5418 -5.75 10.8589
      vertex 26.2723 -5.75 12.2919
    endloop
  endfacet
  facet normal 2.22045e-16 1 0
    outer loop
      vertex 33 -5.75 10.25
      vertex 26.2723 -5.75 12.2919
      vertex 10 -5.75 18.8
    endloop
  endfacet
  facet normal 2.22045e-16 1 0
    outer loop
      vertex 26.2723 -5.75 12.2919
      vertex 24.4821 -5.75 12.9708
      vertex 10 -5.75 18.8
    endloop
  endfacet
  facet normal 2.22045e-16 1 0
    outer loop
      vertex 21.006 -5.75 11.6525
      vertex 10 -5.75 18.8
      vertex 22.5816 -5.75 12.7401
    endloop
  endfacet
  facet normal 2.22045e-16 1 0
    outer loop
      vertex 21.006 -5.75 11.6525
      vertex 20.2699 -5.75 10.25
      vertex 10 -5.75 18.8
    endloop
  endfacet
  facet normal 2.22045e-16 1 0
    outer loop
      vertex 20.2699 -5.75 10.25
      vertex 10 -5.75 10.25
      vertex 10 -5.75 18.8
    endloop
  endfacet
  facet normal 2.22045e-16 1 0
    outer loop
      vertex 22.5816 -5.75 12.7401
      vertex 10 -5.75 18.8
      vertex 24.4821 -5.75 12.9708
    endloop
  endfacet
  facet normal 0 0 1
    outer loop
      vertex 27.6919 -5.75 10.25
      vertex 33 -5.75 10.25
      vertex 33 5.75 10.25
    endloop
  endfacet
  facet normal 0 0 1
    outer loop
      vertex 27.6919 5.75 10.25
      vertex 27.6919 -5.75 10.25
      vertex 33 5.75 10.25
    endloop
  endfacet
  facet normal -2.22045e-16 -1 0
    outer loop
      vertex 33 5.75 41.75
      vertex 21.006 5.75 11.6525
      vertex 22.5816 5.75 12.7401
    endloop
  endfacet
  facet normal -2.22045e-16 -1 0
    outer loop
      vertex 26.2723 5.75 12.2919
      vertex 33 5.75 10.25
      vertex 24.4821 5.75 12.9708
    endloop
  endfacet
  facet normal -2.22045e-16 -1 0
    outer loop
      vertex 24.4821 5.75 12.9708
      vertex 33 5.75 41.75
      vertex 22.5816 5.75 12.7401
    endloop
  endfacet
  facet normal -2.22045e-16 -1 0
    outer loop
      vertex 20.2699 5.75 10.25
      vertex 21.006 5.75 11.6525
      vertex 33 5.75 41.75
    endloop
  endfacet
  facet normal -2.22045e-16 -1 0
    outer loop
      vertex 27.5418 5.75 10.8589
      vertex 33 5.75 10.25
      vertex 26.2723 5.75 12.2919
    endloop
  endfacet
  facet normal -2.22045e-16 -1 0
    outer loop
      vertex 15 5.75 18.8
      vertex 10 5.75 18.8
      vertex 20.2699 5.75 10.25
    endloop
  endfacet
  facet normal -2.22045e-16 -1 0
    outer loop
      vertex 27.6919 5.75 10.25
      vertex 33 5.75 10.25
      vertex 27.5418 5.75 10.8589
    endloop
  endfacet
  facet normal -2.22045e-16 -1 0
    outer loop
      vertex 33 5.75 10.25
      vertex 33 5.75 41.75
      vertex 24.4821 5.75 12.9708
    endloop
  endfacet
  facet normal -2.22045e-16 -1 0
    outer loop
      vertex 33 5.75 41.75
      vertex 28 5.75 37
      vertex 20.2699 5.75 10.25
    endloop
  endfacet
  facet normal -2.22045e-16 -1 0
    outer loop
      vertex 33 5.75 41.75
      vertex 28 5.75 41.75
      vertex 28 5.75 37
    endloop
  endfacet
  facet normal -2.22045e-16 -1 0
    outer loop
      vertex 15 5.75 37
      vertex 15 5.75 18.8
      vertex 20.2699 5.75 10.25
    endloop
  endfacet
  facet normal -2.22045e-16 -1 0
    outer loop
      vertex 10 5.75 18.8
      vertex 10 5.75 10.25
      vertex 20.2699 5.75 10.25
    endloop
  endfacet
  facet normal -2.22045e-16 -1 0
    outer loop
      vertex 28 5.75 37
      vertex 15 5.75 37
      vertex 20.2699 5.75 10.25
    endloop
  endfacet
  facet normal 0 0 -1
    outer loop
      vertex 28 -5.75 41.75
      vertex 28 5.75 41.75
      vertex 33 5.75 41.75
    endloop
  endfacet
  facet normal 0 0 -1
    outer loop
      vertex 28 -5.75 41.75
      vertex 33 5.75 41.75
      vertex 33 -5.75 41.75
    endloop
  endfacet
  facet normal 0 0 -1
    outer loop
      vertex 28 -5.75 41.75
      vertex 33 -5.75 41.75
      vertex 15 -5.75 41.75
    endloop
  endfacet
  facet normal 0 0 1
    outer loop
      vertex 20.2699 -5.75 10.25
      vertex 20.2699 5.75 10.25
      vertex 10 5.75 10.25
    endloop
  endfacet
  facet normal 0 0 1
    outer loop
      vertex 10 -5.75 10.25
      vertex 20.2699 -5.75 10.25
      vertex 10 5.75 10.25
    endloop
  endfacet
  facet normal 0 0 1
    outer loop
      vertex 20.3594 -16.645 23.5
      vertex 21.75 -17.8971 23.5
      vertex 23.5296 -18.4753 23.5
    endloop
  endfacet
  facet normal 0 0 1
    outer loop
      vertex 27.0111 -17.3442 23.5
      vertex 20.3594 -16.645 23.5
      vertex 25.3906 -18.2798 23.5
    endloop
  endfacet
  facet normal 0 0 1
    outer loop
      vertex 25.3906 -18.2798 23.5
      vertex 20.3594 -16.645 23.5
      vertex 23.5296 -18.4753 23.5
    endloop
  endfacet
  facet normal 0 0 1
    outer loop
      vertex 28.111 -15.8303 23.5
      vertex 20.3594 -16.645 23.5
      vertex 27.0111 -17.3442 23.5
    endloop
  endfacet
  facet normal 0 0 1
    outer loop
      vertex 28.5 -14 23.5
      vertex 20.3594 -16.645 23.5
      vertex 28.111 -15.8303 23.5
    endloop
  endfacet
  facet normal 0 0 1
    outer loop
      vertex 28.111 -12.1697 23.5
      vertex 20.3594 -16.645 23.5
      vertex 28.5 -14 23.5
    endloop
  endfacet
  facet normal 0 0 1
    outer loop
      vertex 27.0111 -10.6558 23.5
      vertex 20.3594 -16.645 23.5
      vertex 28.111 -12.1697 23.5
    endloop
  endfacet
  facet normal 0 0 1
    outer loop
      vertex 25.3906 -9.72025 23.5
      vertex 20.3594 -16.645 23.5
      vertex 27.0111 -10.6558 23.5
    endloop
  endfacet
  facet normal 0 0 1
    outer loop
      vertex 23.5296 -9.52465 23.5
      vertex 20.3594 -16.645 23.5
      vertex 25.3906 -9.72025 23.5
    endloop
  endfacet
  facet normal 0 0 1
    outer loop
      vertex 21.75 -10.1029 23.5
      vertex 20.3594 -16.645 23.5
      vertex 23.5296 -9.52465 23.5
    endloop
  endfacet
  facet normal 0 0 1
    outer loop
      vertex 20.3594 -11.355 23.5
      vertex 20.3594 -16.645 23.5
      vertex 21.75 -10.1029 23.5
    endloop
  endfacet
  facet normal 0 0 1
    outer loop
      vertex 19.5983 -13.0644 23.5
      vertex 20.3594 -16.645 23.5
      vertex 20.3594 -11.355 23.5
    endloop
  endfacet
  facet normal 0 0 1
    outer loop
      vertex 19.5983 -14.9356 23.5
      vertex 20.3594 -16.645 23.5
      vertex 19.5983 -13.0644 23.5
    endloop
  endfacet
  facet normal 0 0 1
    outer loop
      vertex 20.3594 11.355 23.5
      vertex 21.75 10.1029 23.5
      vertex 23.5296 9.52465 23.5
    endloop
  endfacet
  facet normal 0 0 1
    outer loop
      vertex 27.0111 10.6558 23.5
      vertex 20.3594 11.355 23.5
      vertex 25.3906 9.72025 23.5
    endloop
  endfacet
  facet normal 0 0 1
    outer loop
      vertex 25.3906 9.72025 23.5
      vertex 20.3594 11.355 23.5
      vertex 23.5296 9.52465 23.5
    endloop
  endfacet
  facet normal 0 0 1
    outer loop
      vertex 28.111 12.1697 23.5
      vertex 20.3594 11.355 23.5
      vertex 27.0111 10.6558 23.5
    endloop
  endfacet
  facet normal 0 0 1
    outer loop
      vertex 28.5 14 23.5
      vertex 20.3594 11.355 23.5
      vertex 28.111 12.1697 23.5
    endloop
  endfacet
  facet normal 0 0 1
    outer loop
      vertex 28.111 15.8303 23.5
      vertex 20.3594 11.355 23.5
      vertex 28.5 14 23.5
    endloop
  endfacet
  facet normal 0 0 1
    outer loop
      vertex 27.0111 17.3442 23.5
      vertex 20.3594 11.355 23.5
      vertex 28.111 15.8303 23.5
    endloop
  endfacet
  facet normal 0 0 1
    outer loop
      vertex 25.3906 18.2798 23.5
      vertex 20.3594 11.355 23.5
      vertex 27.0111 17.3442 23.5
    endloop
  endfacet
  facet normal 0 0 1
    outer loop
      vertex 23.5296 18.4753 23.5
      vertex 20.3594 11.355 23.5
      vertex 25.3906 18.2798 23.5
    endloop
  endfacet
  facet normal 0 0 1
    outer loop
      vertex 21.75 17.8971 23.5
      vertex 20.3594 11.355 23.5
      vertex 23.5296 18.4753 23.5
    endloop
  endfacet
  facet normal 0 0 1
    outer loop
      vertex 20.3594 16.645 23.5
      vertex 20.3594 11.355 23.5
      vertex 21.75 17.8971 23.5
    endloop
  endfacet
  facet normal 0 0 1
    outer loop
      vertex 19.5983 14.9356 23.5
      vertex 20.3594 11.355 23.5
      vertex 20.3594 16.645 23.5
    endloop
  endfacet
  facet normal 0 0 1
    outer loop
      vertex 19.5983 13.0644 23.5
      vertex 20.3594 11.355 23.5
      vertex 19.5983 14.9356 23.5
    endloop
  endfacet
endsolid OpenSCAD_Model
