solid OpenSCAD_Model
  facet normal -1 0 0
    outer loop
      vertex -30 -7.75 16.75
      vertex -30 -24.5 23.5
      vertex -30 24.5 23.5
    endloop
  endfacet
  facet normal -1 0 0
    outer loop
      vertex -30 7.75 16.75
      vertex -30 -7.75 16.75
      vertex -30 24.5 23.5
    endloop
  endfacet
  facet normal -1 0 0
    outer loop
      vertex -30 -24.5 -23.5
      vertex -30 -24.5 23.5
      vertex -30 -7.75 -10.75
    endloop
  endfacet
  facet normal -1 0 0
    outer loop
      vertex -30 -24.5 -23.5
      vertex -30 -7.75 -10.75
      vertex -30 24.5 -23.5
    endloop
  endfacet
  facet normal -1 0 0
    outer loop
      vertex -30 7.75 16.75
      vertex -30 24.5 -23.5
      vertex -30 7.75 -10.75
    endloop
  endfacet
  facet normal -1 0 0
    outer loop
      vertex -30 -7.75 -10.75
      vertex -30 7.75 -10.75
      vertex -30 24.5 -23.5
    endloop
  endfacet
  facet normal -1 0 0
    outer loop
      vertex -30 24.5 -23.5
      vertex -30 7.75 16.75
      vertex -30 24.5 23.5
    endloop
  endfacet
  facet normal -1 0 0
    outer loop
      vertex -30 -7.75 -10.75
      vertex -30 -24.5 23.5
      vertex -30 -7.75 16.75
    endloop
  endfacet
  facet normal 0 -1 0
    outer loop
      vertex 21.5816 -24.5 -20.2401
      vertex -30 -24.5 -23.5
      vertex 30 -24.5 -23.5
    endloop
  endfacet
  facet normal 0 -1 0
    outer loop
      vertex -30 -24.5 23.5
      vertex -30 -24.5 -23.5
      vertex -24 -24.5 1.25
    endloop
  endfacet
  facet normal 0 -1 0
    outer loop
      vertex -30 -24.5 23.5
      vertex -24 -24.5 1.25
      vertex -24 -24.5 16.75
    endloop
  endfacet
  facet normal 0 -1 0
    outer loop
      vertex 30 -24.5 23.5
      vertex -30 -24.5 23.5
      vertex 13 -24.5 16.75
    endloop
  endfacet
  facet normal 0 -1 0
    outer loop
      vertex 23.4821 -24.5 -20.4708
      vertex 21.5816 -24.5 -20.2401
      vertex 30 -24.5 -23.5
    endloop
  endfacet
  facet normal 0 -1 0
    outer loop
      vertex 20.006 -24.5 -19.1525
      vertex 19.1162 -24.5 -17.4573
      vertex -24 -24.5 1.25
    endloop
  endfacet
  facet normal 0 -1 0
    outer loop
      vertex -24 -24.5 16.75
      vertex 13 -24.5 16.75
      vertex -30 -24.5 23.5
    endloop
  endfacet
  facet normal 0 -1 0
    outer loop
      vertex 25.2723 -24.5 -13.2081
      vertex 26.5418 -24.5 -14.6411
      vertex 13 -24.5 16.75
    endloop
  endfacet
  facet normal 0 -1 0
    outer loop
      vertex 13 -24.5 1.25
      vertex 20.006 -24.5 -13.8475
      vertex 21.5816 -24.5 -12.7599
    endloop
  endfacet
  facet normal 0 -1 0
    outer loop
      vertex 13 -24.5 16.75
      vertex 13 -24.5 1.25
      vertex 23.4821 -24.5 -12.5292
    endloop
  endfacet
  facet normal 0 -1 0
    outer loop
      vertex 26.5418 -24.5 -18.3589
      vertex 25.2723 -24.5 -19.7919
      vertex 30 -24.5 -23.5
    endloop
  endfacet
  facet normal 0 -1 0
    outer loop
      vertex 13 -24.5 16.75
      vertex 23.4821 -24.5 -12.5292
      vertex 25.2723 -24.5 -13.2081
    endloop
  endfacet
  facet normal 0 -1 0
    outer loop
      vertex 30 -24.5 23.5
      vertex 26.5418 -24.5 -14.6411
      vertex 30 -24.5 -23.5
    endloop
  endfacet
  facet normal 0 -1 0
    outer loop
      vertex 30 -24.5 23.5
      vertex 13 -24.5 16.75
      vertex 26.5418 -24.5 -14.6411
    endloop
  endfacet
  facet normal 0 -1 0
    outer loop
      vertex 27 -24.5 -16.5
      vertex 26.5418 -24.5 -18.3589
      vertex 30 -24.5 -23.5
    endloop
  endfacet
  facet normal 0 -1 0
    outer loop
      vertex 26.5418 -24.5 -14.6411
      vertex 27 -24.5 -16.5
      vertex 30 -24.5 -23.5
    endloop
  endfacet
  facet normal 0 -1 0
    outer loop
      vertex 25.2723 -24.5 -19.7919
      vertex 23.4821 -24.5 -20.4708
      vertex 30 -24.5 -23.5
    endloop
  endfacet
  facet normal 0 -1 0
    outer loop
      vertex -24 -24.5 1.25
      vertex -30 -24.5 -23.5
      vertex 21.5816 -24.5 -20.2401
    endloop
  endfacet
  facet normal 0 -1 0
    outer loop
      vertex 21.5816 -24.5 -12.7599
      vertex 23.4821 -24.5 -12.5292
      vertex 13 -24.5 1.25
    endloop
  endfacet
  facet normal 0 -1 0
    outer loop
      vertex -24 -24.5 1.25
      vertex 21.5816 -24.5 -20.2401
      vertex 20.006 -24.5 -19.1525
    endloop
  endfacet
  facet normal 0 -1 0
    outer loop
      vertex 13 -24.5 1.25
      vertex 19.1162 -24.5 -15.5427
      vertex 20.006 -24.5 -13.8475
    endloop
  endfacet
  facet normal 0 -1 0
    outer loop
      vertex 13 -24.5 1.25
      vertex 19.1162 -24.5 -17.4573
      vertex 19.1162 -24.5 -15.5427
    endloop
  endfacet
  facet normal 0 -1 0
    outer loop
      vertex 13 -24.5 1.25
      vertex -24 -24.5 1.25
      vertex 19.1162 -24.5 -17.4573
    endloop
  endfacet
  facet normal 0 0 -1
    outer loop
      vertex 13 18.5 -23.5
      vertex 30 -24.5 -23.5
      vertex 13 -18.5 -23.5
    endloop
  endfacet
  facet normal 0 0 -1
    outer loop
      vertex 13 18.5 -23.5
      vertex -30 24.5 -23.5
      vertex 30 24.5 -23.5
    endloop
  endfacet
  facet normal 0 0 -1
    outer loop
      vertex -30 -24.5 -23.5
      vertex -30 24.5 -23.5
      vertex -24 18.5 -23.5
    endloop
  endfacet
  facet normal 0 0 -1
    outer loop
      vertex -30 -24.5 -23.5
      vertex -24 18.5 -23.5
      vertex -24 -18.5 -23.5
    endloop
  endfacet
  facet normal 0 0 -1
    outer loop
      vertex -30 -24.5 -23.5
      vertex -24 -18.5 -23.5
      vertex 30 -24.5 -23.5
    endloop
  endfacet
  facet normal 0 0 -1
    outer loop
      vertex -24 -18.5 -23.5
      vertex 13 -18.5 -23.5
      vertex 30 -24.5 -23.5
    endloop
  endfacet
  facet normal 0 0 -1
    outer loop
      vertex 30 -24.5 -23.5
      vertex 13 18.5 -23.5
      vertex 30 24.5 -23.5
    endloop
  endfacet
  facet normal 0 0 -1
    outer loop
      vertex -24 18.5 -23.5
      vertex -30 24.5 -23.5
      vertex 13 18.5 -23.5
    endloop
  endfacet
  facet normal 0 1 0
    outer loop
      vertex 26.5418 24.5 -18.3589
      vertex 30 24.5 -23.5
      vertex 25.2723 24.5 -19.7919
    endloop
  endfacet
  facet normal 0 1 0
    outer loop
      vertex 13 24.5 16.75
      vertex -30 24.5 23.5
      vertex 30 24.5 23.5
    endloop
  endfacet
  facet normal 0 1 0
    outer loop
      vertex -30 24.5 -23.5
      vertex -30 24.5 23.5
      vertex -24 24.5 16.75
    endloop
  endfacet
  facet normal 0 1 0
    outer loop
      vertex -30 24.5 -23.5
      vertex -24 24.5 16.75
      vertex -24 24.5 1.25
    endloop
  endfacet
  facet normal 0 1 0
    outer loop
      vertex 23.4821 24.5 -20.4708
      vertex 30 24.5 -23.5
      vertex 21.5816 24.5 -20.2401
    endloop
  endfacet
  facet normal 0 1 0
    outer loop
      vertex 13 24.5 1.25
      vertex 19.1162 24.5 -15.5427
      vertex -24 24.5 1.25
    endloop
  endfacet
  facet normal 0 1 0
    outer loop
      vertex 26.5418 24.5 -14.6411
      vertex 13 24.5 1.25
      vertex 30 24.5 23.5
    endloop
  endfacet
  facet normal 0 1 0
    outer loop
      vertex 13 24.5 1.25
      vertex 13 24.5 16.75
      vertex 30 24.5 23.5
    endloop
  endfacet
  facet normal 0 1 0
    outer loop
      vertex 20.006 24.5 -13.8475
      vertex 13 24.5 1.25
      vertex 21.5816 24.5 -12.7599
    endloop
  endfacet
  facet normal 0 1 0
    outer loop
      vertex -24 24.5 1.25
      vertex 19.1162 24.5 -15.5427
      vertex 19.1162 24.5 -17.4573
    endloop
  endfacet
  facet normal 0 1 0
    outer loop
      vertex -30 24.5 -23.5
      vertex -24 24.5 1.25
      vertex 20.006 24.5 -19.1525
    endloop
  endfacet
  facet normal 0 1 0
    outer loop
      vertex -30 24.5 -23.5
      vertex 20.006 24.5 -19.1525
      vertex 21.5816 24.5 -20.2401
    endloop
  endfacet
  facet normal 0 1 0
    outer loop
      vertex -30 24.5 -23.5
      vertex 21.5816 24.5 -20.2401
      vertex 30 24.5 -23.5
    endloop
  endfacet
  facet normal 0 1 0
    outer loop
      vertex 26.5418 24.5 -14.6411
      vertex 30 24.5 23.5
      vertex 27 24.5 -16.5
    endloop
  endfacet
  facet normal 0 1 0
    outer loop
      vertex 30 24.5 -23.5
      vertex 26.5418 24.5 -18.3589
      vertex 27 24.5 -16.5
    endloop
  endfacet
  facet normal 0 1 0
    outer loop
      vertex 30 24.5 -23.5
      vertex 27 24.5 -16.5
      vertex 30 24.5 23.5
    endloop
  endfacet
  facet normal 0 1 0
    outer loop
      vertex 25.2723 24.5 -13.2081
      vertex 13 24.5 1.25
      vertex 26.5418 24.5 -14.6411
    endloop
  endfacet
  facet normal 0 1 0
    outer loop
      vertex 21.5816 24.5 -12.7599
      vertex 13 24.5 1.25
      vertex 23.4821 24.5 -12.5292
    endloop
  endfacet
  facet normal 0 1 0
    outer loop
      vertex 23.4821 24.5 -12.5292
      vertex 13 24.5 1.25
      vertex 25.2723 24.5 -13.2081
    endloop
  endfacet
  facet normal 0 1 0
    outer loop
      vertex 13 24.5 1.25
      vertex 20.006 24.5 -13.8475
      vertex 19.1162 24.5 -15.5427
    endloop
  endfacet
  facet normal 0 1 0
    outer loop
      vertex -24 24.5 16.75
      vertex -30 24.5 23.5
      vertex 13 24.5 16.75
    endloop
  endfacet
  facet normal 0 1 0
    outer loop
      vertex 25.2723 24.5 -19.7919
      vertex 30 24.5 -23.5
      vertex 23.4821 24.5 -20.4708
    endloop
  endfacet
  facet normal 0 1 0
    outer loop
      vertex 20.006 24.5 -19.1525
      vertex -24 24.5 1.25
      vertex 19.1162 24.5 -17.4573
    endloop
  endfacet
  facet normal 0 0 1
    outer loop
      vertex -27 -21.5 23.5
      vertex -30 -24.5 23.5
      vertex 30 -24.5 23.5
    endloop
  endfacet
  facet normal 0 0 1
    outer loop
      vertex 16 -21.5 23.5
      vertex -27 -21.5 23.5
      vertex 30 -24.5 23.5
    endloop
  endfacet
  facet normal 0 0 1
    outer loop
      vertex -30 24.5 23.5
      vertex -30 -24.5 23.5
      vertex -27 -21.5 23.5
    endloop
  endfacet
  facet normal 0 0 1
    outer loop
      vertex 16 21.5 23.5
      vertex 19.1162 -16.0427 23.5
      vertex 20.006 -14.3475 23.5
    endloop
  endfacet
  facet normal 0 0 1
    outer loop
      vertex -30 24.5 23.5
      vertex -27 -21.5 23.5
      vertex -27 21.5 23.5
    endloop
  endfacet
  facet normal 0 0 1
    outer loop
      vertex 19.1162 16.0427 23.5
      vertex 16 21.5 23.5
      vertex 30 -24.5 23.5
    endloop
  endfacet
  facet normal 0 0 1
    outer loop
      vertex 30 24.5 23.5
      vertex -30 24.5 23.5
      vertex 16 21.5 23.5
    endloop
  endfacet
  facet normal 0 0 1
    outer loop
      vertex 23.4821 -20.9708 23.5
      vertex 16 -21.5 23.5
      vertex 30 -24.5 23.5
    endloop
  endfacet
  facet normal 0 0 1
    outer loop
      vertex 21.5816 20.7401 23.5
      vertex 23.4821 20.9708 23.5
      vertex 30 24.5 23.5
    endloop
  endfacet
  facet normal 0 0 1
    outer loop
      vertex 27 -17 23.5
      vertex 26.5418 -18.8589 23.5
      vertex 30 -24.5 23.5
    endloop
  endfacet
  facet normal 0 0 1
    outer loop
      vertex 25.2723 -20.2919 23.5
      vertex 23.4821 -20.9708 23.5
      vertex 30 -24.5 23.5
    endloop
  endfacet
  facet normal 0 0 1
    outer loop
      vertex 16 21.5 23.5
      vertex 20.006 -14.3475 23.5
      vertex 21.5816 -13.2599 23.5
    endloop
  endfacet
  facet normal 0 0 1
    outer loop
      vertex 16 21.5 23.5
      vertex 21.5816 -13.2599 23.5
      vertex 23.4821 -13.0292 23.5
    endloop
  endfacet
  facet normal 0 0 1
    outer loop
      vertex 26.5418 -18.8589 23.5
      vertex 25.2723 -20.2919 23.5
      vertex 30 -24.5 23.5
    endloop
  endfacet
  facet normal 0 0 1
    outer loop
      vertex 16 21.5 23.5
      vertex 23.4821 -13.0292 23.5
      vertex 25.2723 -13.7081 23.5
    endloop
  endfacet
  facet normal 0 0 1
    outer loop
      vertex 16 21.5 23.5
      vertex 26.5418 -15.1411 23.5
      vertex 30 -24.5 23.5
    endloop
  endfacet
  facet normal 0 0 1
    outer loop
      vertex 16 21.5 23.5
      vertex 25.2723 -13.7081 23.5
      vertex 26.5418 -15.1411 23.5
    endloop
  endfacet
  facet normal 0 0 1
    outer loop
      vertex 26.5418 -15.1411 23.5
      vertex 27 -17 23.5
      vertex 30 -24.5 23.5
    endloop
  endfacet
  facet normal 0 0 1
    outer loop
      vertex 23.4821 20.9708 23.5
      vertex 25.2723 20.2919 23.5
      vertex 30 24.5 23.5
    endloop
  endfacet
  facet normal 0 0 1
    outer loop
      vertex 21.5816 -20.7401 23.5
      vertex 16 -21.5 23.5
      vertex 23.4821 -20.9708 23.5
    endloop
  endfacet
  facet normal 0 0 1
    outer loop
      vertex 20.006 -19.6525 23.5
      vertex 16 -21.5 23.5
      vertex 21.5816 -20.7401 23.5
    endloop
  endfacet
  facet normal 0 0 1
    outer loop
      vertex 19.1162 -17.9573 23.5
      vertex 16 -21.5 23.5
      vertex 20.006 -19.6525 23.5
    endloop
  endfacet
  facet normal 0 0 1
    outer loop
      vertex 20.006 14.3475 23.5
      vertex 19.1162 16.0427 23.5
      vertex 30 -24.5 23.5
    endloop
  endfacet
  facet normal 0 0 1
    outer loop
      vertex 19.1162 17.9573 23.5
      vertex 16 21.5 23.5
      vertex 19.1162 16.0427 23.5
    endloop
  endfacet
  facet normal 0 0 1
    outer loop
      vertex 27 17 23.5
      vertex 26.5418 15.1411 23.5
      vertex 30 -24.5 23.5
    endloop
  endfacet
  facet normal 0 0 1
    outer loop
      vertex 20.006 19.6525 23.5
      vertex 16 21.5 23.5
      vertex 19.1162 17.9573 23.5
    endloop
  endfacet
  facet normal 0 0 1
    outer loop
      vertex 21.5816 20.7401 23.5
      vertex 16 21.5 23.5
      vertex 20.006 19.6525 23.5
    endloop
  endfacet
  facet normal 0 0 1
    outer loop
      vertex 30 24.5 23.5
      vertex 16 21.5 23.5
      vertex 21.5816 20.7401 23.5
    endloop
  endfacet
  facet normal 0 0 1
    outer loop
      vertex 26.5418 15.1411 23.5
      vertex 25.2723 13.7081 23.5
      vertex 30 -24.5 23.5
    endloop
  endfacet
  facet normal 0 0 1
    outer loop
      vertex 30 24.5 23.5
      vertex 25.2723 20.2919 23.5
      vertex 26.5418 18.8589 23.5
    endloop
  endfacet
  facet normal 0 0 1
    outer loop
      vertex 30 24.5 23.5
      vertex 27 17 23.5
      vertex 30 -24.5 23.5
    endloop
  endfacet
  facet normal 0 0 1
    outer loop
      vertex 30 24.5 23.5
      vertex 26.5418 18.8589 23.5
      vertex 27 17 23.5
    endloop
  endfacet
  facet normal 0 0 1
    outer loop
      vertex 25.2723 13.7081 23.5
      vertex 23.4821 13.0292 23.5
      vertex 30 -24.5 23.5
    endloop
  endfacet
  facet normal 0 0 1
    outer loop
      vertex 23.4821 13.0292 23.5
      vertex 21.5816 13.2599 23.5
      vertex 30 -24.5 23.5
    endloop
  endfacet
  facet normal 0 0 1
    outer loop
      vertex 21.5816 13.2599 23.5
      vertex 20.006 14.3475 23.5
      vertex 30 -24.5 23.5
    endloop
  endfacet
  facet normal 0 0 1
    outer loop
      vertex -27 21.5 23.5
      vertex 16 21.5 23.5
      vertex -30 24.5 23.5
    endloop
  endfacet
  facet normal 0 0 1
    outer loop
      vertex 16 21.5 23.5
      vertex 19.1162 -17.9573 23.5
      vertex 19.1162 -16.0427 23.5
    endloop
  endfacet
  facet normal 0 0 1
    outer loop
      vertex 16 21.5 23.5
      vertex 16 -21.5 23.5
      vertex 19.1162 -17.9573 23.5
    endloop
  endfacet
  facet normal 2.22045e-16 1 0
    outer loop
      vertex -27 -7.75 16.75
      vertex -27 -7.75 -4.7
      vertex -30 -7.75 16.75
    endloop
  endfacet
  facet normal 2.22045e-16 1 0
    outer loop
      vertex -24 -7.75 -10.75
      vertex -27 -7.75 -4.7
      vertex -24 -7.75 -4.7
    endloop
  endfacet
  facet normal 2.22045e-16 1 0
    outer loop
      vertex -30 -7.75 -10.75
      vertex -27 -7.75 -4.7
      vertex -24 -7.75 -10.75
    endloop
  endfacet
  facet normal 2.22045e-16 1 0
    outer loop
      vertex -30 -7.75 16.75
      vertex -27 -7.75 -4.7
      vertex -30 -7.75 -10.75
    endloop
  endfacet
  facet normal 0 0 -1
    outer loop
      vertex -27 7.75 16.75
      vertex -27 -7.75 16.75
      vertex -30 7.75 16.75
    endloop
  endfacet
  facet normal 0 0 -1
    outer loop
      vertex -30 7.75 16.75
      vertex -27 -7.75 16.75
      vertex -30 -7.75 16.75
    endloop
  endfacet
  facet normal -2.22045e-16 -1 0
    outer loop
      vertex -24 7.75 -10.75
      vertex -24 7.75 -4.7
      vertex -27 7.75 -4.7
    endloop
  endfacet
  facet normal -2.22045e-16 -1 0
    outer loop
      vertex -30 7.75 -10.75
      vertex -24 7.75 -10.75
      vertex -27 7.75 -4.7
    endloop
  endfacet
  facet normal -2.22045e-16 -1 0
    outer loop
      vertex -27 7.75 16.75
      vertex -30 7.75 16.75
      vertex -27 7.75 -4.7
    endloop
  endfacet
  facet normal -2.22045e-16 -1 0
    outer loop
      vertex -30 7.75 16.75
      vertex -30 7.75 -10.75
      vertex -27 7.75 -4.7
    endloop
  endfacet
  facet normal 0 0 1
    outer loop
      vertex -24 -7.75 -10.75
      vertex -24 7.75 -10.75
      vertex -30 7.75 -10.75
    endloop
  endfacet
  facet normal 0 0 1
    outer loop
      vertex -30 -7.75 -10.75
      vertex -24 -7.75 -10.75
      vertex -30 7.75 -10.75
    endloop
  endfacet
  facet normal 1 0 0
    outer loop
      vertex 30 -7.75 -10.75
      vertex 30 -24.5 -23.5
      vertex 30 24.5 -23.5
    endloop
  endfacet
  facet normal 1 0 0
    outer loop
      vertex 30 7.75 -10.75
      vertex 30 -7.75 -10.75
      vertex 30 24.5 -23.5
    endloop
  endfacet
  facet normal 1 0 0
    outer loop
      vertex 30 -24.5 23.5
      vertex 30 -24.5 -23.5
      vertex 30 -7.75 -10.75
    endloop
  endfacet
  facet normal 1 0 0
    outer loop
      vertex 30 24.5 23.5
      vertex 30 -24.5 23.5
      vertex 30 -7.75 16.75
    endloop
  endfacet
  facet normal 1 0 0
    outer loop
      vertex 30 24.5 23.5
      vertex 30 7.75 16.75
      vertex 30 24.5 -23.5
    endloop
  endfacet
  facet normal 1 0 0
    outer loop
      vertex 30 24.5 23.5
      vertex 30 -7.75 16.75
      vertex 30 7.75 16.75
    endloop
  endfacet
  facet normal 1 0 0
    outer loop
      vertex 30 7.75 16.75
      vertex 30 7.75 -10.75
      vertex 30 24.5 -23.5
    endloop
  endfacet
  facet normal 1 0 0
    outer loop
      vertex 30 -7.75 -10.75
      vertex 30 -7.75 16.75
      vertex 30 -24.5 23.5
    endloop
  endfacet
  facet normal 1 0 0
    outer loop
      vertex -24 -21.5 1.25
      vertex -24 -21.5 16.75
      vertex -24 -24.5 16.75
    endloop
  endfacet
  facet normal 1 0 0
    outer loop
      vertex -24 -24.5 1.25
      vertex -24 -21.5 1.25
      vertex -24 -24.5 16.75
    endloop
  endfacet
  facet normal 0 0 1
    outer loop
      vertex 13 -24.5 1.25
      vertex 13 -21.5 1.25
      vertex -24 -21.5 1.25
    endloop
  endfacet
  facet normal 0 0 1
    outer loop
      vertex -24 -24.5 1.25
      vertex 13 -24.5 1.25
      vertex -24 -21.5 1.25
    endloop
  endfacet
  facet normal -1 0 0
    outer loop
      vertex 13 -21.5 16.75
      vertex 13 -21.5 1.25
      vertex 13 -24.5 16.75
    endloop
  endfacet
  facet normal -1 0 0
    outer loop
      vertex 13 -24.5 16.75
      vertex 13 -21.5 1.25
      vertex 13 -24.5 1.25
    endloop
  endfacet
  facet normal 0 0 -1
    outer loop
      vertex 13 -21.5 16.75
      vertex 13 -24.5 16.75
      vertex -24 -21.5 16.75
    endloop
  endfacet
  facet normal 0 0 -1
    outer loop
      vertex -24 -21.5 16.75
      vertex 13 -24.5 16.75
      vertex -24 -24.5 16.75
    endloop
  endfacet
  facet normal 1 0 0
    outer loop
      vertex 19.1162 24.5 -17.4573
      vertex 19.1162 24.5 -15.5427
      vertex 19.1162 -24.5 -15.5427
    endloop
  endfacet
  facet normal 1 0 0
    outer loop
      vertex 19.1162 -24.5 -17.4573
      vertex 19.1162 24.5 -17.4573
      vertex 19.1162 -24.5 -15.5427
    endloop
  endfacet
  facet normal 0.885456 1.03189e-16 0.464723
    outer loop
      vertex 20.006 -24.5 -19.1525
      vertex 20.006 24.5 -19.1525
      vertex 19.1162 24.5 -17.4573
    endloop
  endfacet
  facet normal 0.885456 1.03189e-16 0.464723
    outer loop
      vertex 19.1162 -24.5 -17.4573
      vertex 20.006 -24.5 -19.1525
      vertex 19.1162 24.5 -17.4573
    endloop
  endfacet
  facet normal 0.568065 1.82739e-16 0.822984
    outer loop
      vertex 21.5816 -24.5 -20.2401
      vertex 21.5816 24.5 -20.2401
      vertex 20.006 24.5 -19.1525
    endloop
  endfacet
  facet normal 0.568065 1.82739e-16 0.822984
    outer loop
      vertex 20.006 -24.5 -19.1525
      vertex 21.5816 -24.5 -20.2401
      vertex 20.006 24.5 -19.1525
    endloop
  endfacet
  facet normal 0.120536 2.20426e-16 0.992709
    outer loop
      vertex 23.4821 -24.5 -20.4708
      vertex 23.4821 24.5 -20.4708
      vertex 21.5816 24.5 -20.2401
    endloop
  endfacet
  facet normal 0.120536 2.20426e-16 0.992709
    outer loop
      vertex 21.5816 -24.5 -20.2401
      vertex 23.4821 -24.5 -20.4708
      vertex 21.5816 24.5 -20.2401
    endloop
  endfacet
  facet normal -0.354605 2.07615e-16 0.935016
    outer loop
      vertex 25.2723 -24.5 -19.7919
      vertex 25.2723 24.5 -19.7919
      vertex 23.4821 24.5 -20.4708
    endloop
  endfacet
  facet normal -0.354605 2.07615e-16 0.935016
    outer loop
      vertex 23.4821 -24.5 -20.4708
      vertex 25.2723 -24.5 -19.7919
      vertex 23.4821 24.5 -20.4708
    endloop
  endfacet
  facet normal -0.748511 1.47243e-16 0.663123
    outer loop
      vertex 26.5418 24.5 -18.3589
      vertex 25.2723 24.5 -19.7919
      vertex 26.5418 -24.5 -18.3589
    endloop
  endfacet
  facet normal -0.748511 1.47243e-16 0.663123
    outer loop
      vertex 26.5418 -24.5 -18.3589
      vertex 25.2723 24.5 -19.7919
      vertex 25.2723 -24.5 -19.7919
    endloop
  endfacet
  facet normal -0.970942 5.31388e-17 0.239316
    outer loop
      vertex 27 24.5 -16.5
      vertex 26.5418 24.5 -18.3589
      vertex 27 -24.5 -16.5
    endloop
  endfacet
  facet normal -0.970942 5.31388e-17 0.239316
    outer loop
      vertex 27 -24.5 -16.5
      vertex 26.5418 24.5 -18.3589
      vertex 26.5418 -24.5 -18.3589
    endloop
  endfacet
  facet normal -0.970942 -5.31388e-17 -0.239316
    outer loop
      vertex 27 24.5 -16.5
      vertex 27 -24.5 -16.5
      vertex 26.5418 24.5 -14.6411
    endloop
  endfacet
  facet normal -0.970942 -5.31388e-17 -0.239316
    outer loop
      vertex 26.5418 24.5 -14.6411
      vertex 27 -24.5 -16.5
      vertex 26.5418 -24.5 -14.6411
    endloop
  endfacet
  facet normal -0.748511 -1.47243e-16 -0.663123
    outer loop
      vertex 26.5418 24.5 -14.6411
      vertex 26.5418 -24.5 -14.6411
      vertex 25.2723 24.5 -13.2081
    endloop
  endfacet
  facet normal -0.748511 -1.47243e-16 -0.663123
    outer loop
      vertex 25.2723 24.5 -13.2081
      vertex 26.5418 -24.5 -14.6411
      vertex 25.2723 -24.5 -13.2081
    endloop
  endfacet
  facet normal -0.354605 -2.07615e-16 -0.935016
    outer loop
      vertex 25.2723 24.5 -13.2081
      vertex 25.2723 -24.5 -13.2081
      vertex 23.4821 24.5 -12.5292
    endloop
  endfacet
  facet normal -0.354605 -2.07615e-16 -0.935016
    outer loop
      vertex 23.4821 24.5 -12.5292
      vertex 25.2723 -24.5 -13.2081
      vertex 23.4821 -24.5 -12.5292
    endloop
  endfacet
  facet normal 0.120536 -2.20426e-16 -0.992709
    outer loop
      vertex 23.4821 24.5 -12.5292
      vertex 23.4821 -24.5 -12.5292
      vertex 21.5816 24.5 -12.7599
    endloop
  endfacet
  facet normal 0.120536 -2.20426e-16 -0.992709
    outer loop
      vertex 21.5816 24.5 -12.7599
      vertex 23.4821 -24.5 -12.5292
      vertex 21.5816 -24.5 -12.7599
    endloop
  endfacet
  facet normal 0.568065 -1.82739e-16 -0.822984
    outer loop
      vertex 21.5816 24.5 -12.7599
      vertex 21.5816 -24.5 -12.7599
      vertex 20.006 24.5 -13.8475
    endloop
  endfacet
  facet normal 0.568065 -1.82739e-16 -0.822984
    outer loop
      vertex 20.006 24.5 -13.8475
      vertex 21.5816 -24.5 -12.7599
      vertex 20.006 -24.5 -13.8475
    endloop
  endfacet
  facet normal 0.885456 -1.03189e-16 -0.464723
    outer loop
      vertex 19.1162 24.5 -15.5427
      vertex 20.006 24.5 -13.8475
      vertex 20.006 -24.5 -13.8475
    endloop
  endfacet
  facet normal 0.885456 -1.03189e-16 -0.464723
    outer loop
      vertex 19.1162 -24.5 -15.5427
      vertex 19.1162 24.5 -15.5427
      vertex 20.006 -24.5 -13.8475
    endloop
  endfacet
  facet normal 1 0 0
    outer loop
      vertex -24 18.5 -23.5
      vertex -24 18.5 -4.7
      vertex -24 7.75 -4.7
    endloop
  endfacet
  facet normal 1 0 0
    outer loop
      vertex -24 -7.75 -10.75
      vertex -24 18.5 -23.5
      vertex -24 7.75 -10.75
    endloop
  endfacet
  facet normal 1 0 0
    outer loop
      vertex -24 7.75 -10.75
      vertex -24 18.5 -23.5
      vertex -24 7.75 -4.7
    endloop
  endfacet
  facet normal 1 0 0
    outer loop
      vertex -24 -18.5 -23.5
      vertex -24 18.5 -23.5
      vertex -24 -7.75 -10.75
    endloop
  endfacet
  facet normal 1 0 0
    outer loop
      vertex -24 -18.5 -4.7
      vertex -24 -7.75 -10.75
      vertex -24 -7.75 -4.7
    endloop
  endfacet
  facet normal 1 0 0
    outer loop
      vertex -24 -18.5 -23.5
      vertex -24 -7.75 -10.75
      vertex -24 -18.5 -4.7
    endloop
  endfacet
  facet normal 0 -1 0
    outer loop
      vertex 13 18.5 -23.5
      vertex 13 18.5 -4.7
      vertex -24 18.5 -4.7
    endloop
  endfacet
  facet normal 0 -1 0
    outer loop
      vertex -24 18.5 -23.5
      vertex 13 18.5 -23.5
      vertex -24 18.5 -4.7
    endloop
  endfacet
  facet normal -1 0 0
    outer loop
      vertex 13 -7.75 -4.7
      vertex 13 -7.75 -10.75
      vertex 13 -18.5 -4.7
    endloop
  endfacet
  facet normal -1 0 0
    outer loop
      vertex 13 -18.5 -23.5
      vertex 13 -7.75 -10.75
      vertex 13 18.5 -23.5
    endloop
  endfacet
  facet normal -1 0 0
    outer loop
      vertex 13 18.5 -4.7
      vertex 13 7.75 -10.75
      vertex 13 7.75 -4.7
    endloop
  endfacet
  facet normal -1 0 0
    outer loop
      vertex 13 18.5 -23.5
      vertex 13 7.75 -10.75
      vertex 13 18.5 -4.7
    endloop
  endfacet
  facet normal -1 0 0
    outer loop
      vertex 13 -7.75 -10.75
      vertex 13 7.75 -10.75
      vertex 13 18.5 -23.5
    endloop
  endfacet
  facet normal -1 0 0
    outer loop
      vertex 13 -18.5 -4.7
      vertex 13 -7.75 -10.75
      vertex 13 -18.5 -23.5
    endloop
  endfacet
  facet normal 0 1 0
    outer loop
      vertex 13 -18.5 -4.7
      vertex 13 -18.5 -23.5
      vertex -24 -18.5 -4.7
    endloop
  endfacet
  facet normal 0 1 0
    outer loop
      vertex -24 -18.5 -4.7
      vertex 13 -18.5 -23.5
      vertex -24 -18.5 -23.5
    endloop
  endfacet
  facet normal 1 0 0
    outer loop
      vertex -24 24.5 1.25
      vertex -24 24.5 16.75
      vertex -24 21.5 16.75
    endloop
  endfacet
  facet normal 1 0 0
    outer loop
      vertex -24 21.5 1.25
      vertex -24 24.5 1.25
      vertex -24 21.5 16.75
    endloop
  endfacet
  facet normal 0 0 -1
    outer loop
      vertex 13 24.5 16.75
      vertex 13 21.5 16.75
      vertex -24 24.5 16.75
    endloop
  endfacet
  facet normal 0 0 -1
    outer loop
      vertex -24 24.5 16.75
      vertex 13 21.5 16.75
      vertex -24 21.5 16.75
    endloop
  endfacet
  facet normal -1 0 0
    outer loop
      vertex 13 24.5 16.75
      vertex 13 24.5 1.25
      vertex 13 21.5 16.75
    endloop
  endfacet
  facet normal -1 0 0
    outer loop
      vertex 13 21.5 16.75
      vertex 13 24.5 1.25
      vertex 13 21.5 1.25
    endloop
  endfacet
  facet normal 0 0 1
    outer loop
      vertex 13 21.5 1.25
      vertex 13 24.5 1.25
      vertex -24 24.5 1.25
    endloop
  endfacet
  facet normal 0 0 1
    outer loop
      vertex -24 21.5 1.25
      vertex 13 21.5 1.25
      vertex -24 24.5 1.25
    endloop
  endfacet
  facet normal 1 0 0
    outer loop
      vertex -27 21.5 23.5
      vertex -27 -7.75 16.75
      vertex -27 7.75 16.75
    endloop
  endfacet
  facet normal 1 0 0
    outer loop
      vertex -27 -7.75 -4.7
      vertex -27 -7.75 16.75
      vertex -27 -21.5 23.5
    endloop
  endfacet
  facet normal 1 0 0
    outer loop
      vertex -27 7.75 -4.7
      vertex -27 21.5 -4.7
      vertex -27 7.75 16.75
    endloop
  endfacet
  facet normal 1 0 0
    outer loop
      vertex -27 21.5 -4.7
      vertex -27 21.5 23.5
      vertex -27 7.75 16.75
    endloop
  endfacet
  facet normal 1 0 0
    outer loop
      vertex -27 21.5 23.5
      vertex -27 -21.5 23.5
      vertex -27 -7.75 16.75
    endloop
  endfacet
  facet normal 1 0 0
    outer loop
      vertex -27 -21.5 23.5
      vertex -27 -21.5 -4.7
      vertex -27 -7.75 -4.7
    endloop
  endfacet
  facet normal 0 1 0
    outer loop
      vertex -24 -21.5 16.75
      vertex -27 -21.5 23.5
      vertex 13 -21.5 16.75
    endloop
  endfacet
  facet normal 0 1 0
    outer loop
      vertex -24 -21.5 1.25
      vertex 16 -21.5 -4.7
      vertex -27 -21.5 -4.7
    endloop
  endfacet
  facet normal 0 1 0
    outer loop
      vertex -27 -21.5 23.5
      vertex -24 -21.5 1.25
      vertex -27 -21.5 -4.7
    endloop
  endfacet
  facet normal 0 1 0
    outer loop
      vertex 16 -21.5 23.5
      vertex 16 -21.5 -4.7
      vertex 13 -21.5 1.25
    endloop
  endfacet
  facet normal 0 1 0
    outer loop
      vertex 16 -21.5 23.5
      vertex 13 -21.5 1.25
      vertex 13 -21.5 16.75
    endloop
  endfacet
  facet normal 0 1 0
    outer loop
      vertex 16 -21.5 23.5
      vertex 13 -21.5 16.75
      vertex -27 -21.5 23.5
    endloop
  endfacet
  facet normal 0 1 0
    outer loop
      vertex -27 -21.5 23.5
      vertex -24 -21.5 16.75
      vertex -24 -21.5 1.25
    endloop
  endfacet
  facet normal 0 1 0
    outer loop
      vertex 13 -21.5 1.25
      vertex 16 -21.5 -4.7
      vertex -24 -21.5 1.25
    endloop
  endfacet
  facet normal -1 0 0
    outer loop
      vertex 16 21.5 23.5
      vertex 16 21.5 -4.7
      vertex 16 7.75 16.75
    endloop
  endfacet
  facet normal -1 0 0
    outer loop
      vertex 16 21.5 23.5
      vertex 16 7.75 16.75
      vertex 16 -21.5 23.5
    endloop
  endfacet
  facet normal -1 0 0
    outer loop
      vertex 16 -7.75 -4.7
      vertex 16 -21.5 23.5
      vertex 16 -7.75 16.75
    endloop
  endfacet
  facet normal -1 0 0
    outer loop
      vertex 16 7.75 16.75
      vertex 16 -7.75 16.75
      vertex 16 -21.5 23.5
    endloop
  endfacet
  facet normal -1 0 0
    outer loop
      vertex 16 -21.5 23.5
      vertex 16 -7.75 -4.7
      vertex 16 -21.5 -4.7
    endloop
  endfacet
  facet normal -1 0 0
    outer loop
      vertex 16 7.75 16.75
      vertex 16 21.5 -4.7
      vertex 16 7.75 -4.7
    endloop
  endfacet
  facet normal 0 -1 0
    outer loop
      vertex 13 21.5 16.75
      vertex 16 21.5 23.5
      vertex -27 21.5 23.5
    endloop
  endfacet
  facet normal 0 -1 0
    outer loop
      vertex -27 21.5 -4.7
      vertex -24 21.5 16.75
      vertex -27 21.5 23.5
    endloop
  endfacet
  facet normal 0 -1 0
    outer loop
      vertex 16 21.5 -4.7
      vertex 16 21.5 23.5
      vertex 13 21.5 16.75
    endloop
  endfacet
  facet normal 0 -1 0
    outer loop
      vertex 13 21.5 1.25
      vertex -24 21.5 1.25
      vertex 16 21.5 -4.7
    endloop
  endfacet
  facet normal 0 -1 0
    outer loop
      vertex 16 21.5 -4.7
      vertex 13 21.5 16.75
      vertex 13 21.5 1.25
    endloop
  endfacet
  facet normal 0 -1 0
    outer loop
      vertex -27 21.5 -4.7
      vertex -24 21.5 1.25
      vertex -24 21.5 16.75
    endloop
  endfacet
  facet normal 0 -1 0
    outer loop
      vertex -27 21.5 -4.7
      vertex 16 21.5 -4.7
      vertex -24 21.5 1.25
    endloop
  endfacet
  facet normal 0 -1 0
    outer loop
      vertex -24 21.5 16.75
      vertex 13 21.5 16.75
      vertex -27 21.5 23.5
    endloop
  endfacet
  facet normal 1 0 0
    outer loop
      vertex 19.1162 -16.0427 0
      vertex 19.1162 -16.0427 23.5
      vertex 19.1162 -17.9573 23.5
    endloop
  endfacet
  facet normal 1 0 0
    outer loop
      vertex 19.1162 -17.9573 0
      vertex 19.1162 -16.0427 0
      vertex 19.1162 -17.9573 23.5
    endloop
  endfacet
  facet normal 0.885456 0.464723 0
    outer loop
      vertex 19.1162 -17.9573 23.5
      vertex 20.006 -19.6525 23.5
      vertex 20.006 -19.6525 0
    endloop
  endfacet
  facet normal 0.885456 0.464723 0
    outer loop
      vertex 19.1162 -17.9573 0
      vertex 19.1162 -17.9573 23.5
      vertex 20.006 -19.6525 0
    endloop
  endfacet
  facet normal 0.568065 0.822984 0
    outer loop
      vertex 21.5816 -20.7401 23.5
      vertex 21.5816 -20.7401 0
      vertex 20.006 -19.6525 23.5
    endloop
  endfacet
  facet normal 0.568065 0.822984 0
    outer loop
      vertex 20.006 -19.6525 23.5
      vertex 21.5816 -20.7401 0
      vertex 20.006 -19.6525 0
    endloop
  endfacet
  facet normal 0.120536 0.992709 0
    outer loop
      vertex 23.4821 -20.9708 23.5
      vertex 23.4821 -20.9708 0
      vertex 21.5816 -20.7401 23.5
    endloop
  endfacet
  facet normal 0.120536 0.992709 0
    outer loop
      vertex 21.5816 -20.7401 23.5
      vertex 23.4821 -20.9708 0
      vertex 21.5816 -20.7401 0
    endloop
  endfacet
  facet normal -0.354605 0.935016 0
    outer loop
      vertex 25.2723 -20.2919 23.5
      vertex 25.2723 -20.2919 0
      vertex 23.4821 -20.9708 23.5
    endloop
  endfacet
  facet normal -0.354605 0.935016 0
    outer loop
      vertex 23.4821 -20.9708 23.5
      vertex 25.2723 -20.2919 0
      vertex 23.4821 -20.9708 0
    endloop
  endfacet
  facet normal -0.748511 0.663123 0
    outer loop
      vertex 26.5418 -18.8589 23.5
      vertex 26.5418 -18.8589 0
      vertex 25.2723 -20.2919 23.5
    endloop
  endfacet
  facet normal -0.748511 0.663123 0
    outer loop
      vertex 25.2723 -20.2919 23.5
      vertex 26.5418 -18.8589 0
      vertex 25.2723 -20.2919 0
    endloop
  endfacet
  facet normal -0.970942 0.239316 0
    outer loop
      vertex 27 -17 23.5
      vertex 27 -17 0
      vertex 26.5418 -18.8589 23.5
    endloop
  endfacet
  facet normal -0.970942 0.239316 0
    outer loop
      vertex 26.5418 -18.8589 23.5
      vertex 27 -17 0
      vertex 26.5418 -18.8589 0
    endloop
  endfacet
  facet normal -0.970942 -0.239316 0
    outer loop
      vertex 27 -17 23.5
      vertex 26.5418 -15.1411 23.5
      vertex 27 -17 0
    endloop
  endfacet
  facet normal -0.970942 -0.239316 0
    outer loop
      vertex 27 -17 0
      vertex 26.5418 -15.1411 23.5
      vertex 26.5418 -15.1411 0
    endloop
  endfacet
  facet normal -0.748511 -0.663123 0
    outer loop
      vertex 26.5418 -15.1411 23.5
      vertex 25.2723 -13.7081 23.5
      vertex 26.5418 -15.1411 0
    endloop
  endfacet
  facet normal -0.748511 -0.663123 0
    outer loop
      vertex 26.5418 -15.1411 0
      vertex 25.2723 -13.7081 23.5
      vertex 25.2723 -13.7081 0
    endloop
  endfacet
  facet normal -0.354605 -0.935016 0
    outer loop
      vertex 25.2723 -13.7081 0
      vertex 25.2723 -13.7081 23.5
      vertex 23.4821 -13.0292 23.5
    endloop
  endfacet
  facet normal -0.354605 -0.935016 0
    outer loop
      vertex 23.4821 -13.0292 0
      vertex 25.2723 -13.7081 0
      vertex 23.4821 -13.0292 23.5
    endloop
  endfacet
  facet normal 0.120536 -0.992709 0
    outer loop
      vertex 23.4821 -13.0292 0
      vertex 23.4821 -13.0292 23.5
      vertex 21.5816 -13.2599 23.5
    endloop
  endfacet
  facet normal 0.120536 -0.992709 0
    outer loop
      vertex 21.5816 -13.2599 0
      vertex 23.4821 -13.0292 0
      vertex 21.5816 -13.2599 23.5
    endloop
  endfacet
  facet normal 0.568065 -0.822984 0
    outer loop
      vertex 21.5816 -13.2599 0
      vertex 21.5816 -13.2599 23.5
      vertex 20.006 -14.3475 23.5
    endloop
  endfacet
  facet normal 0.568065 -0.822984 0
    outer loop
      vertex 20.006 -14.3475 0
      vertex 21.5816 -13.2599 0
      vertex 20.006 -14.3475 23.5
    endloop
  endfacet
  facet normal 0.885456 -0.464723 0
    outer loop
      vertex 20.006 -14.3475 0
      vertex 20.006 -14.3475 23.5
      vertex 19.1162 -16.0427 23.5
    endloop
  endfacet
  facet normal 0.885456 -0.464723 0
    outer loop
      vertex 19.1162 -16.0427 0
      vertex 20.006 -14.3475 0
      vertex 19.1162 -16.0427 23.5
    endloop
  endfacet
  facet normal 1 0 0
    outer loop
      vertex 19.1162 17.9573 0
      vertex 19.1162 17.9573 23.5
      vertex 19.1162 16.0427 23.5
    endloop
  endfacet
  facet normal 1 0 0
    outer loop
      vertex 19.1162 16.0427 0
      vertex 19.1162 17.9573 0
      vertex 19.1162 16.0427 23.5
    endloop
  endfacet
  facet normal 0.885456 0.464723 0
    outer loop
      vertex 19.1162 16.0427 23.5
      vertex 20.006 14.3475 23.5
      vertex 20.006 14.3475 0
    endloop
  endfacet
  facet normal 0.885456 0.464723 0
    outer loop
      vertex 19.1162 16.0427 0
      vertex 19.1162 16.0427 23.5
      vertex 20.006 14.3475 0
    endloop
  endfacet
  facet normal 0.568065 0.822984 0
    outer loop
      vertex 21.5816 13.2599 23.5
      vertex 21.5816 13.2599 0
      vertex 20.006 14.3475 23.5
    endloop
  endfacet
  facet normal 0.568065 0.822984 0
    outer loop
      vertex 20.006 14.3475 23.5
      vertex 21.5816 13.2599 0
      vertex 20.006 14.3475 0
    endloop
  endfacet
  facet normal 0.120536 0.992709 0
    outer loop
      vertex 23.4821 13.0292 23.5
      vertex 23.4821 13.0292 0
      vertex 21.5816 13.2599 23.5
    endloop
  endfacet
  facet normal 0.120536 0.992709 0
    outer loop
      vertex 21.5816 13.2599 23.5
      vertex 23.4821 13.0292 0
      vertex 21.5816 13.2599 0
    endloop
  endfacet
  facet normal -0.354605 0.935016 0
    outer loop
      vertex 25.2723 13.7081 23.5
      vertex 25.2723 13.7081 0
      vertex 23.4821 13.0292 23.5
    endloop
  endfacet
  facet normal -0.354605 0.935016 0
    outer loop
      vertex 23.4821 13.0292 23.5
      vertex 25.2723 13.7081 0
      vertex 23.4821 13.0292 0
    endloop
  endfacet
  facet normal -0.748511 0.663123 0
    outer loop
      vertex 26.5418 15.1411 23.5
      vertex 26.5418 15.1411 0
      vertex 25.2723 13.7081 23.5
    endloop
  endfacet
  facet normal -0.748511 0.663123 0
    outer loop
      vertex 25.2723 13.7081 23.5
      vertex 26.5418 15.1411 0
      vertex 25.2723 13.7081 0
    endloop
  endfacet
  facet normal -0.970942 0.239316 0
    outer loop
      vertex 27 17 23.5
      vertex 27 17 0
      vertex 26.5418 15.1411 23.5
    endloop
  endfacet
  facet normal -0.970942 0.239316 0
    outer loop
      vertex 26.5418 15.1411 23.5
      vertex 27 17 0
      vertex 26.5418 15.1411 0
    endloop
  endfacet
  facet normal -0.970942 -0.239316 0
    outer loop
      vertex 27 17 23.5
      vertex 26.5418 18.8589 23.5
      vertex 27 17 0
    endloop
  endfacet
  facet normal -0.970942 -0.239316 0
    outer loop
      vertex 27 17 0
      vertex 26.5418 18.8589 23.5
      vertex 26.5418 18.8589 0
    endloop
  endfacet
  facet normal -0.748511 -0.663123 0
    outer loop
      vertex 26.5418 18.8589 23.5
      vertex 25.2723 20.2919 23.5
      vertex 26.5418 18.8589 0
    endloop
  endfacet
  facet normal -0.748511 -0.663123 0
    outer loop
      vertex 26.5418 18.8589 0
      vertex 25.2723 20.2919 23.5
      vertex 25.2723 20.2919 0
    endloop
  endfacet
  facet normal -0.354605 -0.935016 0
    outer loop
      vertex 25.2723 20.2919 0
      vertex 25.2723 20.2919 23.5
      vertex 23.4821 20.9708 23.5
    endloop
  endfacet
  facet normal -0.354605 -0.935016 0
    outer loop
      vertex 23.4821 20.9708 0
      vertex 25.2723 20.2919 0
      vertex 23.4821 20.9708 23.5
    endloop
  endfacet
  facet normal 0.120536 -0.992709 0
    outer loop
      vertex 23.4821 20.9708 0
      vertex 23.4821 20.9708 23.5
      vertex 21.5816 20.7401 23.5
    endloop
  endfacet
  facet normal 0.120536 -0.992709 0
    outer loop
      vertex 21.5816 20.7401 0
      vertex 23.4821 20.9708 0
      vertex 21.5816 20.7401 23.5
    endloop
  endfacet
  facet normal 0.568065 -0.822984 0
    outer loop
      vertex 21.5816 20.7401 0
      vertex 21.5816 20.7401 23.5
      vertex 20.006 19.6525 23.5
    endloop
  endfacet
  facet normal 0.568065 -0.822984 0
    outer loop
      vertex 20.006 19.6525 0
      vertex 21.5816 20.7401 0
      vertex 20.006 19.6525 23.5
    endloop
  endfacet
  facet normal 0.885456 -0.464723 0
    outer loop
      vertex 20.006 19.6525 0
      vertex 20.006 19.6525 23.5
      vertex 19.1162 17.9573 23.5
    endloop
  endfacet
  facet normal 0.885456 -0.464723 0
    outer loop
      vertex 19.1162 17.9573 0
      vertex 20.006 19.6525 0
      vertex 19.1162 17.9573 23.5
    endloop
  endfacet
  facet normal 0 0 1
    outer loop
      vertex 16 -21.5 -4.7
      vertex 16 -7.75 -4.7
      vertex 13 -7.75 -4.7
    endloop
  endfacet
  facet normal 0 0 1
    outer loop
      vertex -24 -18.5 -4.7
      vertex 16 -21.5 -4.7
      vertex 13 -18.5 -4.7
    endloop
  endfacet
  facet normal 0 0 1
    outer loop
      vertex 13 -18.5 -4.7
      vertex 16 -21.5 -4.7
      vertex 13 -7.75 -4.7
    endloop
  endfacet
  facet normal 0 0 1
    outer loop
      vertex -27 -21.5 -4.7
      vertex 16 -21.5 -4.7
      vertex -24 -18.5 -4.7
    endloop
  endfacet
  facet normal 0 0 1
    outer loop
      vertex -27 -7.75 -4.7
      vertex -24 -18.5 -4.7
      vertex -24 -7.75 -4.7
    endloop
  endfacet
  facet normal 0 0 1
    outer loop
      vertex -27 -21.5 -4.7
      vertex -24 -18.5 -4.7
      vertex -27 -7.75 -4.7
    endloop
  endfacet
  facet normal 0 0 1
    outer loop
      vertex 16 21.5 -4.7
      vertex -24 18.5 -4.7
      vertex 13 18.5 -4.7
    endloop
  endfacet
  facet normal 0 0 1
    outer loop
      vertex -24 7.75 -4.7
      vertex -24 18.5 -4.7
      vertex -27 21.5 -4.7
    endloop
  endfacet
  facet normal 0 0 1
    outer loop
      vertex 13 7.75 -4.7
      vertex 16 7.75 -4.7
      vertex 13 18.5 -4.7
    endloop
  endfacet
  facet normal 0 0 1
    outer loop
      vertex 16 7.75 -4.7
      vertex 16 21.5 -4.7
      vertex 13 18.5 -4.7
    endloop
  endfacet
  facet normal 0 0 1
    outer loop
      vertex 16 21.5 -4.7
      vertex -27 21.5 -4.7
      vertex -24 18.5 -4.7
    endloop
  endfacet
  facet normal 0 0 1
    outer loop
      vertex -27 21.5 -4.7
      vertex -27 7.75 -4.7
      vertex -24 7.75 -4.7
    endloop
  endfacet
  facet normal 2.22045e-16 1 0
    outer loop
      vertex 16 -7.75 -4.7
      vertex 16 -7.75 16.75
      vertex 30 -7.75 16.75
    endloop
  endfacet
  facet normal 2.22045e-16 1 0
    outer loop
      vertex 16 -7.75 -4.7
      vertex 30 -7.75 16.75
      vertex 30 -7.75 -10.75
    endloop
  endfacet
  facet normal 2.22045e-16 1 0
    outer loop
      vertex 16 -7.75 -4.7
      vertex 30 -7.75 -10.75
      vertex 13 -7.75 -4.7
    endloop
  endfacet
  facet normal 2.22045e-16 1 0
    outer loop
      vertex 30 -7.75 -10.75
      vertex 13 -7.75 -10.75
      vertex 13 -7.75 -4.7
    endloop
  endfacet
  facet normal 0 0 1
    outer loop
      vertex 30 -7.75 -10.75
      vertex 30 7.75 -10.75
      vertex 13 7.75 -10.75
    endloop
  endfacet
  facet normal 0 0 1
    outer loop
      vertex 13 -7.75 -10.75
      vertex 30 -7.75 -10.75
      vertex 13 7.75 -10.75
    endloop
  endfacet
  facet normal -2.22045e-16 -1 0
    outer loop
      vertex 30 7.75 -10.75
      vertex 30 7.75 16.75
      vertex 16 7.75 16.75
    endloop
  endfacet
  facet normal -2.22045e-16 -1 0
    outer loop
      vertex 13 7.75 -4.7
      vertex 30 7.75 -10.75
      vertex 16 7.75 -4.7
    endloop
  endfacet
  facet normal -2.22045e-16 -1 0
    outer loop
      vertex 16 7.75 -4.7
      vertex 30 7.75 -10.75
      vertex 16 7.75 16.75
    endloop
  endfacet
  facet normal -2.22045e-16 -1 0
    outer loop
      vertex 13 7.75 -10.75
      vertex 30 7.75 -10.75
      vertex 13 7.75 -4.7
    endloop
  endfacet
  facet normal 0 0 -1
    outer loop
      vertex 30 7.75 16.75
      vertex 30 -7.75 16.75
      vertex 16 7.75 16.75
    endloop
  endfacet
  facet normal 0 0 -1
    outer loop
      vertex 16 7.75 16.75
      vertex 30 -7.75 16.75
      vertex 16 -7.75 16.75
    endloop
  endfacet
  facet normal 0 0 1
    outer loop
      vertex 20.006 -19.6525 0
      vertex 21.5816 -20.7401 0
      vertex 23.4821 -20.9708 0
    endloop
  endfacet
  facet normal 0 0 1
    outer loop
      vertex 26.5418 -18.8589 0
      vertex 20.006 -19.6525 0
      vertex 25.2723 -20.2919 0
    endloop
  endfacet
  facet normal 0 0 1
    outer loop
      vertex 25.2723 -20.2919 0
      vertex 20.006 -19.6525 0
      vertex 23.4821 -20.9708 0
    endloop
  endfacet
  facet normal 0 0 1
    outer loop
      vertex 27 -17 0
      vertex 20.006 -19.6525 0
      vertex 26.5418 -18.8589 0
    endloop
  endfacet
  facet normal 0 0 1
    outer loop
      vertex 26.5418 -15.1411 0
      vertex 20.006 -19.6525 0
      vertex 27 -17 0
    endloop
  endfacet
  facet normal 0 0 1
    outer loop
      vertex 25.2723 -13.7081 0
      vertex 20.006 -19.6525 0
      vertex 26.5418 -15.1411 0
    endloop
  endfacet
  facet normal 0 0 1
    outer loop
      vertex 23.4821 -13.0292 0
      vertex 20.006 -19.6525 0
      vertex 25.2723 -13.7081 0
    endloop
  endfacet
  facet normal 0 0 1
    outer loop
      vertex 21.5816 -13.2599 0
      vertex 20.006 -19.6525 0
      vertex 23.4821 -13.0292 0
    endloop
  endfacet
  facet normal 0 0 1
    outer loop
      vertex 20.006 -14.3475 0
      vertex 20.006 -19.6525 0
      vertex 21.5816 -13.2599 0
    endloop
  endfacet
  facet normal 0 0 1
    outer loop
      vertex 19.1162 -16.0427 0
      vertex 20.006 -19.6525 0
      vertex 20.006 -14.3475 0
    endloop
  endfacet
  facet normal 0 0 1
    outer loop
      vertex 19.1162 -17.9573 0
      vertex 20.006 -19.6525 0
      vertex 19.1162 -16.0427 0
    endloop
  endfacet
  facet normal 0 0 1
    outer loop
      vertex 20.006 14.3475 0
      vertex 21.5816 13.2599 0
      vertex 23.4821 13.0292 0
    endloop
  endfacet
  facet normal 0 0 1
    outer loop
      vertex 26.5418 15.1411 0
      vertex 20.006 14.3475 0
      vertex 25.2723 13.7081 0
    endloop
  endfacet
  facet normal 0 0 1
    outer loop
      vertex 25.2723 13.7081 0
      vertex 20.006 14.3475 0
      vertex 23.4821 13.0292 0
    endloop
  endfacet
  facet normal 0 0 1
    outer loop
      vertex 27 17 0
      vertex 20.006 14.3475 0
      vertex 26.5418 15.1411 0
    endloop
  endfacet
  facet normal 0 0 1
    outer loop
      vertex 26.5418 18.8589 0
      vertex 20.006 14.3475 0
      vertex 27 17 0
    endloop
  endfacet
  facet normal 0 0 1
    outer loop
      vertex 25.2723 20.2919 0
      vertex 20.006 14.3475 0
      vertex 26.5418 18.8589 0
    endloop
  endfacet
  facet normal 0 0 1
    outer loop
      vertex 23.4821 20.9708 0
      vertex 20.006 14.3475 0
      vertex 25.2723 20.2919 0
    endloop
  endfacet
  facet normal 0 0 1
    outer loop
      vertex 21.5816 20.7401 0
      vertex 20.006 14.3475 0
      vertex 23.4821 20.9708 0
    endloop
  endfacet
  facet normal 0 0 1
    outer loop
      vertex 20.006 19.6525 0
      vertex 20.006 14.3475 0
      vertex 21.5816 20.7401 0
    endloop
  endfacet
  facet normal 0 0 1
    outer loop
      vertex 19.1162 17.9573 0
      vertex 20.006 14.3475 0
      vertex 20.006 19.6525 0
    endloop
  endfacet
  facet normal 0 0 1
    outer loop
      vertex 19.1162 16.0427 0
      vertex 20.006 14.3475 0
      vertex 19.1162 17.9573 0
    endloop
  endfacet
endsolid OpenSCAD_Model
